G04*
G04 #@! TF.GenerationSoftware,Altium Limited,Altium Designer,22.11.1 (43)*
G04*
G04 Layer_Color=16711935*
%FSLAX44Y44*%
%MOMM*%
G71*
G04*
G04 #@! TF.SameCoordinates,4B2A122A-EDDB-492F-91F8-374AC6037894*
G04*
G04*
G04 #@! TF.FilePolarity,Negative*
G04*
G01*
G75*
%ADD60R,1.0032X1.0032*%
%ADD95O,3.2032X2.0032*%
G04:AMPARAMS|DCode=96|XSize=1.2032mm|YSize=2.3032mm|CornerRadius=0.3516mm|HoleSize=0mm|Usage=FLASHONLY|Rotation=270.000|XOffset=0mm|YOffset=0mm|HoleType=Round|Shape=RoundedRectangle|*
%AMROUNDEDRECTD96*
21,1,1.2032,1.6000,0,0,270.0*
21,1,0.5000,2.3032,0,0,270.0*
1,1,0.7032,-0.8000,-0.2500*
1,1,0.7032,-0.8000,0.2500*
1,1,0.7032,0.8000,0.2500*
1,1,0.7032,0.8000,-0.2500*
%
%ADD96ROUNDEDRECTD96*%
%ADD97C,0.8532*%
%ADD107R,0.7032X0.6032*%
%ADD108R,0.6032X0.7032*%
D60*
X225497Y242000D02*
D03*
Y258000D02*
D03*
X274503Y242000D02*
D03*
Y258000D02*
D03*
D95*
X168000Y398000D02*
D03*
Y372600D02*
D03*
D96*
X71000Y317800D02*
D03*
X29200D02*
D03*
X71000Y404200D02*
D03*
X29200D02*
D03*
D97*
X66000Y389900D02*
D03*
Y332100D02*
D03*
D107*
X243000Y239500D02*
D03*
X257000D02*
D03*
X243000Y246500D02*
D03*
X257000D02*
D03*
X243000Y253500D02*
D03*
X257000D02*
D03*
X243000Y260500D02*
D03*
X257000D02*
D03*
D108*
X250000Y239500D02*
D03*
Y260500D02*
D03*
M02*
