G04*
G04 #@! TF.GenerationSoftware,Altium Limited,Altium Designer,22.9.1 (49)*
G04*
G04 Layer_Physical_Order=1*
G04 Layer_Color=255*
%FSLAX44Y44*%
%MOMM*%
G71*
G04*
G04 #@! TF.SameCoordinates,D5641387-C31A-4E6E-865A-824450A284D1*
G04*
G04*
G04 #@! TF.FilePolarity,Positive*
G04*
G01*
G75*
%ADD10C,0.2500*%
%ADD11C,0.3000*%
%ADD14C,0.1500*%
%ADD15C,0.2000*%
%ADD20R,1.5000X0.8000*%
%ADD21R,1.5000X0.4000*%
%ADD22R,0.8000X0.8000*%
%ADD23R,0.5500X0.5500*%
%ADD24R,0.5500X0.5500*%
%ADD25R,0.9500X0.6500*%
%ADD26R,0.5000X0.5000*%
%ADD27R,0.6500X0.9500*%
%ADD28R,0.5000X0.5000*%
%ADD29R,1.0000X1.2000*%
%ADD30R,0.9000X1.3000*%
%ADD31R,1.0160X0.6350*%
%ADD32P,0.7071X4X360.0*%
%ADD33R,1.1500X3.8000*%
%ADD34R,1.6500X0.7500*%
%ADD35R,0.6500X0.6000*%
%ADD36R,0.3500X0.7000*%
%ADD37R,1.1000X0.8000*%
%ADD38R,1.1000X2.0000*%
%ADD39R,1.3000X0.9000*%
%ADD40R,0.8000X1.1000*%
%ADD41R,2.0000X1.1000*%
%ADD42R,1.4000X3.6000*%
%ADD43R,3.6000X1.4000*%
%ADD44R,1.4500X0.9000*%
%ADD45R,0.8000X0.8000*%
%ADD46R,0.9000X0.2500*%
%ADD47R,1.4900X4.4000*%
%ADD48O,0.6000X1.8000*%
%ADD49R,0.6000X1.1000*%
%ADD50R,1.1500X0.6000*%
%ADD51R,1.1500X0.3000*%
G04:AMPARAMS|DCode=52|XSize=0.3556mm|YSize=0.6604mm|CornerRadius=0mm|HoleSize=0mm|Usage=FLASHONLY|Rotation=225.000|XOffset=0mm|YOffset=0mm|HoleType=Round|Shape=Rectangle|*
%AMROTATEDRECTD52*
4,1,4,-0.1078,0.3592,0.3592,-0.1078,0.1078,-0.3592,-0.3592,0.1078,-0.1078,0.3592,0.0*
%
%ADD52ROTATEDRECTD52*%

%ADD53R,3.7000X3.7000*%
%ADD54O,0.8000X0.2500*%
%ADD55O,0.2500X0.8000*%
%ADD96C,0.5113*%
%ADD97R,5.3000X0.9000*%
%ADD98C,0.3500*%
%ADD99C,0.5000*%
%ADD100O,3.0000X1.8000*%
G04:AMPARAMS|DCode=101|XSize=1mm|YSize=2.1mm|CornerRadius=0.25mm|HoleSize=0mm|Usage=FLASHONLY|Rotation=270.000|XOffset=0mm|YOffset=0mm|HoleType=Round|Shape=RoundedRectangle|*
%AMROUNDEDRECTD101*
21,1,1.0000,1.6000,0,0,270.0*
21,1,0.5000,2.1000,0,0,270.0*
1,1,0.5000,-0.8000,-0.2500*
1,1,0.5000,-0.8000,0.2500*
1,1,0.5000,0.8000,0.2500*
1,1,0.5000,0.8000,-0.2500*
%
%ADD101ROUNDEDRECTD101*%
%ADD102C,0.6500*%
%ADD103C,0.6000*%
G36*
X217132Y270611D02*
X216087Y269913D01*
X214087Y267913D01*
X213194Y266576D01*
X212881Y265000D01*
Y260790D01*
X211710D01*
Y250210D01*
Y241210D01*
X213136D01*
Y236465D01*
X191963Y215292D01*
X190790Y215778D01*
Y220040D01*
X179210D01*
Y205460D01*
X179210D01*
X178975Y204287D01*
X166210D01*
X165787Y205382D01*
Y206230D01*
X160497D01*
Y208770D01*
X165787D01*
Y210796D01*
X166588Y211330D01*
X170921Y215664D01*
X171814Y217001D01*
X172128Y218577D01*
Y229960D01*
X181290D01*
Y244540D01*
X179619D01*
Y257794D01*
X184940Y263115D01*
X186210Y262589D01*
Y261848D01*
X187092Y259720D01*
X188720Y258092D01*
X190003Y257560D01*
X189751Y256290D01*
X189710D01*
Y245710D01*
X189710D01*
X189469Y244540D01*
X188710D01*
Y229960D01*
X200290D01*
Y244540D01*
X200290D01*
X200531Y245710D01*
X209290D01*
Y256290D01*
X204627D01*
X204570Y256575D01*
X203732Y257829D01*
X203732Y257829D01*
X197790Y263771D01*
Y264152D01*
X197391Y265115D01*
X198097Y266171D01*
X206290D01*
X207866Y266484D01*
X209203Y267377D01*
X213706Y271881D01*
X216815D01*
X217132Y270611D01*
D02*
G37*
G36*
X188636Y199872D02*
Y181051D01*
X188930Y179572D01*
X189768Y178319D01*
X191000Y177086D01*
Y175621D01*
X189730Y175095D01*
X172388Y192437D01*
X172914Y193707D01*
X185790D01*
Y198822D01*
X187366Y200398D01*
X188636Y199872D01*
D02*
G37*
G36*
X151960Y160960D02*
X153391D01*
Y146495D01*
X145002Y138107D01*
X139790D01*
Y139787D01*
X129173D01*
X129114Y139940D01*
X129984Y141210D01*
X131152D01*
X133280Y142092D01*
X134909Y143720D01*
X135561Y145295D01*
X136921Y145676D01*
X136985Y145667D01*
X137734Y144918D01*
X139862Y144036D01*
X142165D01*
X144293Y144918D01*
X145922Y146546D01*
X146803Y148675D01*
Y150978D01*
X145922Y153106D01*
X144608Y154420D01*
X145908Y155720D01*
X146790Y157848D01*
Y160152D01*
X146389Y161121D01*
X147237Y162391D01*
X151960D01*
Y160960D01*
D02*
G37*
G36*
X112210Y118710D02*
X124000D01*
Y107899D01*
X119262D01*
Y98859D01*
Y89819D01*
X125000D01*
Y88000D01*
X91000D01*
Y89961D01*
X92731D01*
Y95001D01*
Y100041D01*
X89959D01*
X89000Y101000D01*
Y114000D01*
X91960Y116960D01*
X92039D01*
Y117039D01*
X94471Y119471D01*
X95380Y118584D01*
Y112635D01*
X110620D01*
Y122000D01*
X112210D01*
Y118710D01*
D02*
G37*
G36*
X263848Y258210D02*
X264965D01*
X268385Y254790D01*
Y212854D01*
X266587Y211056D01*
X265694Y209719D01*
X265381Y208143D01*
Y170040D01*
X259960D01*
Y128960D01*
X264626D01*
Y104814D01*
X264091Y104280D01*
X263210Y102152D01*
Y99848D01*
X264091Y97720D01*
X265720Y96091D01*
X267848Y95210D01*
X269686D01*
X274448Y90448D01*
X274536Y90389D01*
X274150Y89119D01*
X217706D01*
X198119Y108706D01*
Y165000D01*
X197806Y166576D01*
X196913Y167913D01*
X195885Y168940D01*
X196411Y170210D01*
X197942D01*
X200070Y171091D01*
X201698Y172720D01*
X202347Y174285D01*
X203067Y175361D01*
X205370D01*
X207498Y176243D01*
X209127Y177872D01*
X210009Y180000D01*
Y182303D01*
X209127Y184431D01*
X207498Y186060D01*
X205370Y186942D01*
X203067D01*
X202814Y186837D01*
X201867Y187470D01*
X200864Y187669D01*
Y206899D01*
X247675Y253710D01*
X261790D01*
Y257688D01*
X263024Y258551D01*
X263848Y258210D01*
D02*
G37*
G36*
X456121Y496493D02*
X462137Y495296D01*
X467945Y493324D01*
X473447Y490611D01*
X478547Y487203D01*
X483159Y483159D01*
X487203Y478547D01*
X490611Y473447D01*
X493324Y467945D01*
X495296Y462137D01*
X496493Y456121D01*
X496900Y449898D01*
Y50102D01*
X496536Y44536D01*
X496500Y44500D01*
Y43992D01*
X496493Y43879D01*
X495296Y37863D01*
X493324Y32055D01*
X490668Y26668D01*
X484500Y20500D01*
Y18370D01*
X483159Y16841D01*
X482770Y16500D01*
X481500D01*
X476285Y11285D01*
X473447Y9389D01*
X467946Y6676D01*
X467428Y6500D01*
X463500D01*
X461596Y4597D01*
X456121Y3507D01*
X449898Y3099D01*
X83000D01*
Y35459D01*
X90540D01*
Y78538D01*
X83000D01*
Y80000D01*
X75000D01*
Y107000D01*
X54615D01*
X54128Y107813D01*
X54071Y108270D01*
X54804Y109163D01*
X54989Y109200D01*
X56675Y110326D01*
X59747Y113399D01*
X60204Y112942D01*
X65951Y118689D01*
X70786Y123524D01*
X71959Y123038D01*
Y121960D01*
X75729D01*
Y127001D01*
X78269D01*
Y121960D01*
X81959D01*
Y116960D01*
X86701D01*
X86822Y116667D01*
X87075Y115690D01*
X86607Y114991D01*
X86410Y114000D01*
Y101000D01*
X85623Y100041D01*
X85271D01*
Y95001D01*
Y89961D01*
X88410D01*
Y88000D01*
X88607Y87009D01*
X89169Y86169D01*
X90009Y85607D01*
X91000Y85410D01*
X125000D01*
X125991Y85607D01*
X126831Y86169D01*
X127393Y87009D01*
X127590Y88000D01*
Y89819D01*
X127393Y90810D01*
X126831Y91650D01*
X125991Y92212D01*
X125032Y92403D01*
Y101713D01*
X128779Y105460D01*
X129952Y104974D01*
Y100129D01*
X135722D01*
Y107899D01*
X132878D01*
X132392Y109073D01*
X134529Y111210D01*
X135152D01*
X137280Y112092D01*
X138909Y113720D01*
X139790Y115848D01*
Y118152D01*
X138909Y120280D01*
X138624Y120564D01*
Y129207D01*
X139790D01*
Y130888D01*
X146497D01*
X147879Y131163D01*
X149050Y131945D01*
X159552Y142448D01*
X160335Y143619D01*
X160609Y145000D01*
X160609Y145000D01*
Y160960D01*
X165730D01*
Y166000D01*
X167000D01*
D01*
X165730D01*
Y171040D01*
X151960D01*
Y169609D01*
X147237D01*
X146389Y170879D01*
X146790Y171848D01*
Y174152D01*
X146389Y175121D01*
X147237Y176391D01*
X151421D01*
X152720Y175091D01*
X154848Y174210D01*
X157152D01*
X159280Y175091D01*
X160909Y176720D01*
X161790Y178848D01*
Y181152D01*
X160909Y183280D01*
X159327Y184861D01*
X159341Y185111D01*
X159647Y186131D01*
X167044D01*
X189881Y163294D01*
Y107000D01*
X190194Y105424D01*
X191087Y104087D01*
X210902Y84273D01*
X210416Y83099D01*
X125000D01*
X123814Y82864D01*
X122808Y82192D01*
X122136Y81186D01*
X121900Y80000D01*
Y50000D01*
X122136Y48814D01*
X122808Y47808D01*
X123814Y47136D01*
X125000Y46900D01*
X375000D01*
X376186Y47136D01*
X377192Y47808D01*
X377744Y48635D01*
X378580Y48905D01*
X379192Y48983D01*
X382587Y45587D01*
X383924Y44694D01*
X385500Y44381D01*
X387460D01*
Y42960D01*
X399040D01*
Y54040D01*
X396040D01*
Y55730D01*
X387460D01*
Y54161D01*
X387221Y53964D01*
X386190Y53635D01*
X385206Y54619D01*
Y79627D01*
X384892Y81203D01*
X383999Y82539D01*
X381490Y85049D01*
X380913Y85913D01*
X378913Y87913D01*
X378601Y88121D01*
X378987Y89391D01*
X426505D01*
X433391Y82505D01*
Y66790D01*
X431710D01*
Y66790D01*
X430540Y67031D01*
Y71040D01*
X426020D01*
Y65500D01*
X424750D01*
Y64230D01*
X418960D01*
Y59960D01*
X421960D01*
Y58270D01*
X426250D01*
Y55730D01*
X421960D01*
Y54040D01*
X418960D01*
Y42960D01*
X430540D01*
Y44136D01*
X432500D01*
X433979Y44430D01*
X435232Y45268D01*
X437175Y47210D01*
X442290D01*
Y56210D01*
Y61686D01*
X442995Y62391D01*
X448460D01*
Y59460D01*
X461540D01*
Y72540D01*
X448460D01*
Y69609D01*
X441500D01*
X440609Y70340D01*
Y84000D01*
X440335Y85381D01*
X439552Y86552D01*
X430552Y95552D01*
X429381Y96335D01*
X428000Y96609D01*
X278495D01*
X274790Y100314D01*
Y102152D01*
X273909Y104280D01*
X273374Y104814D01*
Y128960D01*
X279040D01*
Y170040D01*
X273619D01*
Y206437D01*
X275417Y208235D01*
X276310Y209571D01*
X276623Y211147D01*
Y256496D01*
X276310Y258072D01*
X275417Y259408D01*
X270790Y264035D01*
Y265152D01*
X269909Y267280D01*
X268280Y268909D01*
X267617Y269183D01*
Y271000D01*
X267537Y271398D01*
Y280040D01*
X254457D01*
Y273430D01*
X253188Y272963D01*
X251192Y273790D01*
X248888D01*
X246760Y272908D01*
X245520Y271668D01*
X244280Y272908D01*
X242152Y273790D01*
X239848D01*
X237720Y272908D01*
X236091Y271280D01*
X235210Y269152D01*
Y267675D01*
X231303Y263768D01*
X230226Y264487D01*
X230790Y265848D01*
Y268152D01*
X230232Y269499D01*
X230540Y269960D01*
X230540D01*
Y283040D01*
X217460D01*
Y280119D01*
X212000D01*
X210424Y279806D01*
X209087Y278913D01*
X204584Y274409D01*
X186000D01*
X184424Y274096D01*
X183087Y273203D01*
X182503Y272329D01*
X172587Y262413D01*
X171694Y261076D01*
X171381Y259500D01*
Y244540D01*
X169710D01*
Y240863D01*
X169424Y240806D01*
X168087Y239913D01*
X165096Y236921D01*
X164203Y235585D01*
X163889Y234009D01*
Y220283D01*
X161969Y218362D01*
X156039D01*
Y219225D01*
X150999D01*
Y221765D01*
X156039D01*
Y225457D01*
Y229227D01*
X150999D01*
Y231767D01*
X156039D01*
Y235413D01*
X156039Y235537D01*
X156202Y236740D01*
X156409Y236781D01*
X158242Y238006D01*
X159466Y239838D01*
X159896Y242000D01*
Y246730D01*
X148599D01*
Y242000D01*
X149029Y239838D01*
X150253Y238006D01*
X152047Y236807D01*
X152070Y236702D01*
X151836Y235537D01*
X145393D01*
Y237906D01*
X145542Y238006D01*
X146766Y239838D01*
X147196Y242000D01*
Y254000D01*
X146766Y256162D01*
X145542Y257994D01*
X143709Y259219D01*
X141547Y259648D01*
X139386Y259219D01*
X137553Y257994D01*
X136329Y256162D01*
X135899Y254000D01*
Y242000D01*
X136329Y239838D01*
X137154Y238603D01*
Y235537D01*
X135960D01*
Y224614D01*
X125495D01*
X123919Y224300D01*
X122582Y223408D01*
X113783Y214608D01*
X112609Y215094D01*
Y219734D01*
X124700Y231824D01*
X125482Y232995D01*
X125757Y234376D01*
Y235991D01*
X127027Y236714D01*
X128847Y236352D01*
X131009Y236781D01*
X132842Y238006D01*
X134066Y239838D01*
X134496Y242000D01*
Y254000D01*
X134066Y256162D01*
X132842Y257994D01*
X131009Y259219D01*
X128847Y259648D01*
X126686Y259219D01*
X124853Y257994D01*
X123629Y256162D01*
X123199Y254000D01*
Y253093D01*
X123066Y253030D01*
X121796Y253834D01*
Y254000D01*
X121366Y256162D01*
X120142Y257994D01*
X118309Y259219D01*
X116147Y259648D01*
X113986Y259219D01*
X112153Y257994D01*
X110929Y256162D01*
X110499Y254000D01*
Y252687D01*
X110000Y251609D01*
X108619Y251335D01*
X107448Y250552D01*
X103783Y246887D01*
X102609Y247373D01*
Y256505D01*
X113495Y267391D01*
X144000D01*
X145381Y267665D01*
X146552Y268448D01*
X156552Y278448D01*
X157335Y279619D01*
X157609Y281000D01*
Y309583D01*
X158242Y310006D01*
X159466Y311838D01*
X159896Y314000D01*
Y326000D01*
X159466Y328162D01*
X158242Y329994D01*
X156409Y331218D01*
X154247Y331648D01*
X152086Y331218D01*
X150253Y329994D01*
X149029Y328162D01*
X148599Y326000D01*
Y314000D01*
X149029Y311838D01*
X150253Y310006D01*
X150391Y309914D01*
Y282495D01*
X145658Y277762D01*
X144488Y278388D01*
X144609Y279000D01*
Y309383D01*
X145542Y310006D01*
X146766Y311838D01*
X147196Y314000D01*
Y326000D01*
X146766Y328162D01*
X145542Y329994D01*
X143709Y331218D01*
X141547Y331648D01*
X139386Y331218D01*
X137553Y329994D01*
X136329Y328162D01*
X135899Y326000D01*
Y314000D01*
X136329Y311838D01*
X137391Y310249D01*
Y280495D01*
X135505Y278609D01*
X131324D01*
X130898Y279879D01*
X131506Y280790D01*
X131781Y282172D01*
Y309297D01*
X132842Y310006D01*
X134066Y311838D01*
X134496Y314000D01*
Y326000D01*
X134066Y328162D01*
X132842Y329994D01*
X131009Y331218D01*
X128847Y331648D01*
X126686Y331218D01*
X124853Y329994D01*
X123629Y328162D01*
X123199Y326000D01*
Y314000D01*
X123629Y311838D01*
X124562Y310441D01*
Y283667D01*
X123505Y282609D01*
X119409D01*
X118841Y283879D01*
X119335Y284619D01*
X119609Y286000D01*
Y309650D01*
X120142Y310006D01*
X121366Y311838D01*
X121796Y314000D01*
Y326000D01*
X121366Y328162D01*
X120142Y329994D01*
X118309Y331218D01*
X116147Y331648D01*
X113986Y331218D01*
X112153Y329994D01*
X110929Y328162D01*
X110499Y326000D01*
Y314000D01*
X110929Y311838D01*
X112153Y310006D01*
X112391Y309847D01*
Y287495D01*
X111505Y286609D01*
X106686D01*
X105305Y286335D01*
X104134Y285552D01*
X81448Y262866D01*
X80665Y261695D01*
X80391Y260313D01*
Y210237D01*
X79120Y209389D01*
X78152Y209790D01*
X75848D01*
X74880Y209389D01*
X73824Y210095D01*
Y211636D01*
X74908Y212720D01*
X75790Y214848D01*
Y217152D01*
X74908Y219280D01*
X73280Y220909D01*
X71152Y221790D01*
X68848D01*
X66720Y220909D01*
X65092Y219280D01*
X64210Y217152D01*
Y214848D01*
X65092Y212720D01*
X66096Y211716D01*
Y206853D01*
X64922Y206367D01*
X58885Y212405D01*
X59689Y214346D01*
Y216650D01*
X58807Y218778D01*
X57178Y220406D01*
X55050Y221288D01*
X52747D01*
X50619Y220406D01*
X48990Y218778D01*
X47746Y219092D01*
X46141Y219757D01*
X43837D01*
X41709Y218876D01*
X40080Y217247D01*
X39199Y215119D01*
Y212815D01*
X40080Y210687D01*
X40715Y210053D01*
X40136Y209186D01*
X39900Y208000D01*
X40136Y206814D01*
X40427Y206379D01*
X39748Y205109D01*
X35500D01*
X34119Y204835D01*
X32948Y204052D01*
X30179Y201284D01*
X29397Y200113D01*
X29214Y199191D01*
X25192D01*
Y194555D01*
X24081Y194335D01*
X22910Y193552D01*
X20898Y191541D01*
X17100D01*
Y199716D01*
X22284Y204900D01*
X31000D01*
X32186Y205136D01*
X33192Y205808D01*
X33864Y206814D01*
X34100Y208000D01*
X33864Y209186D01*
X33192Y210192D01*
X32186Y210864D01*
X31000Y211100D01*
X21000D01*
X19814Y210864D01*
X18808Y210192D01*
X11808Y203192D01*
X11136Y202186D01*
X10900Y201000D01*
Y162000D01*
X11136Y160814D01*
X11808Y159808D01*
X19808Y151808D01*
X20814Y151136D01*
X22000Y150900D01*
X38911D01*
X39617Y149845D01*
X39210Y148862D01*
Y146558D01*
X40092Y144430D01*
X41720Y142802D01*
X43848Y141920D01*
X46152D01*
X46455Y141718D01*
Y139271D01*
X51494D01*
Y138001D01*
X52765D01*
Y132961D01*
X56459D01*
Y132960D01*
X62039D01*
X62525Y131787D01*
X57689Y126951D01*
X52434Y121695D01*
X49927Y124202D01*
X46364Y120638D01*
X42800Y117074D01*
X45674Y114200D01*
X43816Y111168D01*
X42165Y107182D01*
X42121Y107000D01*
X27000D01*
Y78538D01*
X19460D01*
Y35459D01*
X27000D01*
Y10618D01*
X25730Y9939D01*
X21453Y12797D01*
X16841Y16841D01*
X12797Y21453D01*
X9389Y26553D01*
X6676Y32055D01*
X4704Y37863D01*
X3507Y43879D01*
X3099Y50102D01*
Y449898D01*
X3507Y456121D01*
X4704Y462137D01*
X6676Y467946D01*
X9389Y473447D01*
X12797Y478547D01*
X16841Y483159D01*
X21453Y487203D01*
X26553Y490611D01*
X32054Y493324D01*
X37863Y495296D01*
X43879Y496493D01*
X50101Y496900D01*
X449898D01*
X456121Y496493D01*
D02*
G37*
%LPC*%
G36*
X101730Y111365D02*
X95380D01*
Y106920D01*
X101730D01*
Y111365D01*
D02*
G37*
G36*
Y104380D02*
X95380D01*
Y100041D01*
X95271D01*
Y96271D01*
X99040D01*
Y99935D01*
X101730D01*
Y104380D01*
D02*
G37*
G36*
X99040Y93731D02*
X95271D01*
Y89961D01*
X99040D01*
Y93731D01*
D02*
G37*
G36*
X110620Y111365D02*
X104270D01*
Y105650D01*
Y99935D01*
X110620D01*
X110952Y98803D01*
Y89819D01*
X116722D01*
Y98859D01*
Y107899D01*
X110952D01*
X110620Y109032D01*
Y111365D01*
D02*
G37*
G36*
X69790Y422290D02*
X65770D01*
Y418270D01*
X69790D01*
Y422290D01*
D02*
G37*
G36*
X491594Y459540D02*
X382406D01*
Y410460D01*
X491594D01*
Y459540D01*
D02*
G37*
G36*
X37200Y411839D02*
X30470D01*
Y405470D01*
X42339D01*
Y406700D01*
X41948Y408666D01*
X40834Y410334D01*
X39167Y411447D01*
X37200Y411839D01*
D02*
G37*
G36*
X27930D02*
X21200D01*
X19233Y411447D01*
X17566Y410334D01*
X16452Y408666D01*
X16061Y406700D01*
Y405470D01*
X27930D01*
Y411839D01*
D02*
G37*
G36*
X375000Y453100D02*
X125000D01*
X123814Y452864D01*
X122808Y452192D01*
X122136Y451186D01*
X121900Y450000D01*
Y420000D01*
X122136Y418814D01*
X122808Y417808D01*
X123814Y417136D01*
X125000Y416900D01*
X184688D01*
X184958Y416633D01*
X185536Y415630D01*
X185410Y415000D01*
X185410Y403927D01*
X184140Y403675D01*
X184080Y403820D01*
X182230Y406230D01*
X179820Y408080D01*
X177013Y409243D01*
X174000Y409640D01*
X169270D01*
Y398000D01*
Y386360D01*
X174000D01*
X177013Y386757D01*
X179820Y387920D01*
X182230Y389770D01*
X184080Y392180D01*
X184140Y392325D01*
X185410Y392073D01*
Y385000D01*
X185607Y384009D01*
X186169Y383169D01*
X187009Y382607D01*
X188000Y382410D01*
X192910D01*
Y381003D01*
X193107Y380011D01*
X193669Y379171D01*
X194509Y378610D01*
X195500Y378413D01*
X205595D01*
X205598Y378412D01*
X205601Y378413D01*
X205636D01*
X206015Y378488D01*
X206422Y378534D01*
X206502Y378578D01*
X206592Y378595D01*
X206611Y378607D01*
X206627Y378610D01*
X206946Y378823D01*
X207307Y379022D01*
X207363Y379094D01*
X207440Y379143D01*
X207453Y379162D01*
X207467Y379171D01*
X207680Y379490D01*
X207937Y379812D01*
X208638Y381168D01*
X209525Y382410D01*
X234475D01*
X235363Y381166D01*
X236064Y379810D01*
X236312Y379500D01*
X236533Y379169D01*
X236625Y379107D01*
X236694Y379021D01*
X237042Y378828D01*
X237373Y378607D01*
X237482Y378586D01*
X237579Y378532D01*
X237974Y378488D01*
X238364Y378410D01*
X248497D01*
X249488Y378607D01*
X250329Y379169D01*
X250331Y379171D01*
X250893Y380011D01*
X251090Y381003D01*
Y382410D01*
X260462D01*
Y377272D01*
X269503D01*
X278542D01*
Y382410D01*
X280465D01*
Y377272D01*
X287005D01*
X293545D01*
Y382410D01*
X294917D01*
X295467Y382410D01*
X295467Y381479D01*
Y377272D01*
X302007D01*
Y376003D01*
X303277D01*
Y369463D01*
X308547D01*
Y369463D01*
X309720Y369227D01*
Y368708D01*
X313740D01*
Y373998D01*
X316280D01*
Y368708D01*
X320401D01*
Y365848D01*
X311963Y357411D01*
X310532Y357775D01*
X309909Y359280D01*
X308280Y360909D01*
X306152Y361790D01*
X303848D01*
X301720Y360909D01*
X300091Y359280D01*
X299210Y357152D01*
Y355790D01*
X295170D01*
Y352000D01*
X292630D01*
Y355790D01*
X289940D01*
Y359040D01*
X281220D01*
Y334500D01*
Y309960D01*
X287475D01*
X287961Y308787D01*
X286294Y307119D01*
X251040D01*
Y317881D01*
X258960D01*
Y313210D01*
X269960D01*
Y309960D01*
X278680D01*
Y334500D01*
Y359040D01*
X269960D01*
Y355790D01*
X267270D01*
Y352000D01*
X264730D01*
Y355790D01*
X258960D01*
Y352301D01*
X257690Y351775D01*
X256732Y352732D01*
X255479Y353570D01*
X254000Y353864D01*
X251090D01*
Y366003D01*
X250893Y366994D01*
X250331Y367834D01*
X249491Y368395D01*
X248500Y368592D01*
X238364D01*
X238347Y368589D01*
X238325Y368593D01*
X237954Y368513D01*
X237578Y368471D01*
X237478Y368416D01*
X237373Y368395D01*
X237359Y368386D01*
X237337Y368381D01*
X237025Y368166D01*
X236693Y367983D01*
X236622Y367893D01*
X236533Y367834D01*
X236524Y367820D01*
X236505Y367807D01*
X236299Y367489D01*
X236063Y367193D01*
X235362Y365837D01*
X233627Y363407D01*
X231509Y361391D01*
X229048Y359812D01*
X226333Y358726D01*
X223461Y358174D01*
X220537Y358174D01*
X217666Y358727D01*
X214950Y359813D01*
X212490Y361392D01*
X210372Y363408D01*
X208637Y365839D01*
X207936Y367195D01*
X207688Y367505D01*
X207467Y367836D01*
X207375Y367898D01*
X207306Y367984D01*
X206958Y368176D01*
X206627Y368398D01*
X206518Y368419D01*
X206421Y368473D01*
X206026Y368517D01*
X205636Y368595D01*
X195503D01*
X194512Y368398D01*
X193671Y367836D01*
X193669Y367834D01*
X193107Y366994D01*
X192910Y366003D01*
Y350364D01*
X191737Y349878D01*
X180808Y360806D01*
Y363278D01*
X182230Y364370D01*
X184080Y366780D01*
X185243Y369587D01*
X185640Y372600D01*
X185243Y375612D01*
X184080Y378420D01*
X182230Y380830D01*
X179820Y382680D01*
X177013Y383843D01*
X174000Y384240D01*
X162000D01*
X158987Y383843D01*
X156180Y382680D01*
X153770Y380830D01*
X151920Y378420D01*
X150757Y375612D01*
X150360Y372600D01*
X150757Y369587D01*
X151920Y366780D01*
X153770Y364370D01*
X156180Y362520D01*
X158987Y361357D01*
X162000Y360960D01*
X172570D01*
Y359100D01*
X172884Y357524D01*
X173776Y356187D01*
X210877Y319087D01*
X212213Y318194D01*
X213789Y317881D01*
X222960D01*
Y314270D01*
X229500D01*
Y311730D01*
X222960D01*
Y307119D01*
X199706D01*
X188119Y318706D01*
Y332000D01*
X187806Y333576D01*
X186913Y334913D01*
X171413Y350413D01*
X170076Y351306D01*
X168500Y351619D01*
X130604D01*
X130118Y352792D01*
X136913Y359587D01*
X137806Y360924D01*
X138119Y362500D01*
Y378115D01*
X138276Y378902D01*
X137943Y380575D01*
X136994Y381995D01*
X130896Y388093D01*
X129477Y389041D01*
X127803Y389374D01*
X85040D01*
Y391730D01*
X76750D01*
Y394270D01*
X85040D01*
Y398540D01*
X84415D01*
X83763Y399589D01*
X83763Y399810D01*
X84139Y401700D01*
Y402930D01*
X71000D01*
Y405470D01*
X84139D01*
Y406700D01*
X83748Y408666D01*
X82634Y410334D01*
X80967Y411447D01*
X79000Y411839D01*
X69790D01*
Y415730D01*
X64500D01*
Y417000D01*
X63230D01*
Y422290D01*
X50210D01*
Y411710D01*
X51136D01*
Y375000D01*
X51430Y373521D01*
X52268Y372268D01*
X55307Y369228D01*
X55308Y369228D01*
X56561Y368390D01*
X58040Y368096D01*
X58040Y368096D01*
X65916D01*
X66099Y368132D01*
X67241Y367065D01*
X67223Y366921D01*
X66790Y366835D01*
X65619Y366052D01*
X64448Y364881D01*
X63665Y363710D01*
X63391Y362328D01*
Y354672D01*
X63665Y353290D01*
X64448Y352119D01*
X65619Y350948D01*
X66790Y350165D01*
X68172Y349891D01*
X68460D01*
Y347109D01*
X66234D01*
X65001Y348342D01*
X63830Y349125D01*
X62449Y349399D01*
X55188D01*
X53806Y349125D01*
X52635Y348342D01*
X47276Y342983D01*
X46494Y341812D01*
X46219Y340431D01*
Y310290D01*
X45210D01*
Y299710D01*
X58230D01*
Y305000D01*
X59500D01*
Y306270D01*
X64790D01*
Y310161D01*
X69730D01*
Y317800D01*
X71000D01*
Y319070D01*
X84139D01*
Y320300D01*
X83763Y322190D01*
X83763Y322411D01*
X84415Y323460D01*
X85040D01*
Y327730D01*
X76750D01*
Y330270D01*
X85040D01*
Y331460D01*
Y342798D01*
X86310Y343050D01*
X87051Y341260D01*
X88680Y339632D01*
X90808Y338750D01*
X93112D01*
X94690Y339404D01*
X95960Y338692D01*
Y338460D01*
X107040D01*
Y354540D01*
X107040D01*
X106656Y355467D01*
X106909Y355720D01*
X107790Y357848D01*
Y360152D01*
X106909Y362280D01*
X106902Y362287D01*
X107388Y363460D01*
X109730D01*
Y371500D01*
X112270D01*
Y363460D01*
X126040D01*
Y378781D01*
X127310Y379307D01*
X129881Y376737D01*
Y364206D01*
X120215Y354540D01*
X114960D01*
Y338460D01*
X126040D01*
Y343381D01*
X166794D01*
X179881Y330294D01*
Y317000D01*
X180194Y315424D01*
X181087Y314087D01*
X195087Y300087D01*
X196424Y299194D01*
X198000Y298881D01*
X216538D01*
X217460Y298040D01*
X217460Y297611D01*
Y292770D01*
X224000D01*
X230540D01*
Y297611D01*
X230540Y298040D01*
X231462Y298881D01*
X288000D01*
X289576Y299194D01*
X290913Y300087D01*
X296813Y305987D01*
X297706Y307324D01*
X298019Y308900D01*
X297706Y310476D01*
X297509Y310770D01*
Y313210D01*
X300940D01*
Y317022D01*
X301722Y317379D01*
X302069Y317499D01*
X302913Y316729D01*
Y306210D01*
Y303770D01*
X308203D01*
Y302500D01*
X309473D01*
Y297210D01*
X313493D01*
Y297210D01*
X313915D01*
Y297210D01*
X317935D01*
Y302500D01*
X319205D01*
Y303770D01*
X324495D01*
Y306210D01*
Y316790D01*
X322609D01*
Y318000D01*
X322335Y319381D01*
X321552Y320552D01*
X319667Y322438D01*
X320193Y323708D01*
X327290D01*
Y324130D01*
X330460D01*
Y320960D01*
X343540D01*
Y334040D01*
X330460D01*
Y332368D01*
X327290D01*
Y334287D01*
X327290D01*
Y334611D01*
X327529Y335881D01*
X334500D01*
X334898Y335960D01*
X343540D01*
Y349040D01*
X332378D01*
Y350362D01*
X331496Y352490D01*
X329867Y354118D01*
X327739Y355000D01*
X325436D01*
X323308Y354118D01*
X322466Y353277D01*
X319697D01*
X319211Y354450D01*
X326562Y361801D01*
X327345Y362972D01*
X327619Y364353D01*
Y368708D01*
X329300D01*
Y379288D01*
X330291Y379961D01*
X330552D01*
Y388345D01*
X330636Y388532D01*
X331123Y389054D01*
X331682Y389398D01*
X332071Y389468D01*
X332464Y389504D01*
X332565Y389557D01*
X332677Y389577D01*
X333009Y389791D01*
X333359Y389975D01*
X334129Y390598D01*
X334217Y390704D01*
X334331Y390780D01*
X334538Y391089D01*
X334776Y391375D01*
X334816Y391506D01*
X334893Y391620D01*
X334965Y391985D01*
X335075Y392340D01*
X335063Y392476D01*
X335090Y392611D01*
Y402500D01*
X334893Y403491D01*
X334331Y404331D01*
X323032Y415630D01*
X323558Y416900D01*
X375000D01*
X376186Y417136D01*
X377192Y417808D01*
X377864Y418814D01*
X378100Y420000D01*
Y450000D01*
X377864Y451186D01*
X377192Y452192D01*
X376186Y452864D01*
X375000Y453100D01*
D02*
G37*
G36*
X166730Y409640D02*
X162000D01*
X158987Y409243D01*
X156180Y408080D01*
X153770Y406230D01*
X151920Y403820D01*
X150757Y401012D01*
X150528Y399270D01*
X166730D01*
Y409640D01*
D02*
G37*
G36*
X42339Y402930D02*
X30470D01*
Y396561D01*
X37200D01*
X39167Y396952D01*
X40834Y398066D01*
X41948Y399734D01*
X42339Y401700D01*
Y402930D01*
D02*
G37*
G36*
X27930D02*
X16061D01*
Y401700D01*
X16452Y399734D01*
X17566Y398066D01*
X19233Y396952D01*
X21200Y396561D01*
X27930D01*
Y402930D01*
D02*
G37*
G36*
X166730Y396730D02*
X150528D01*
X150757Y394987D01*
X151920Y392180D01*
X153770Y389770D01*
X156180Y387920D01*
X158987Y386757D01*
X162000Y386360D01*
X166730D01*
Y396730D01*
D02*
G37*
G36*
X300737Y374733D02*
X295467D01*
Y369463D01*
X300737D01*
Y374733D01*
D02*
G37*
G36*
X293545D02*
X288275D01*
Y369463D01*
X293545D01*
Y374733D01*
D02*
G37*
G36*
X285735D02*
X280465D01*
Y369463D01*
X285735D01*
Y374733D01*
D02*
G37*
G36*
X278542D02*
X270772D01*
Y368963D01*
X278542D01*
Y374733D01*
D02*
G37*
G36*
X268232D02*
X260462D01*
Y368963D01*
X268232D01*
Y374733D01*
D02*
G37*
G36*
X377539Y353550D02*
X372269D01*
Y348280D01*
X377539D01*
Y353550D01*
D02*
G37*
G36*
X369729D02*
X364459D01*
Y348280D01*
X369729D01*
Y353550D01*
D02*
G37*
G36*
X377539Y345740D02*
X372269D01*
Y340470D01*
X377539D01*
Y345740D01*
D02*
G37*
G36*
X369729D02*
X364459D01*
Y340470D01*
X369729D01*
Y345740D01*
D02*
G37*
G36*
X392539Y353550D02*
X379459D01*
Y340470D01*
X392539D01*
Y343391D01*
X397505D01*
X399391Y341505D01*
Y334873D01*
X398217Y334387D01*
X398052Y334552D01*
X396881Y335335D01*
X395500Y335609D01*
X392539D01*
Y338548D01*
X379459D01*
Y325467D01*
X392539D01*
Y328391D01*
X394005D01*
X420113Y302283D01*
X419627Y301110D01*
X416995D01*
X398552Y319552D01*
X397381Y320335D01*
X396000Y320609D01*
X392539D01*
Y323545D01*
X379459D01*
Y310465D01*
X392539D01*
Y313391D01*
X394505D01*
X410479Y297416D01*
X410020Y296259D01*
X408953Y296151D01*
X401552Y303552D01*
X400381Y304335D01*
X399000Y304609D01*
X392539D01*
Y308542D01*
X379459D01*
Y295462D01*
X392539D01*
Y297391D01*
X397505D01*
X402613Y292283D01*
X402127Y291110D01*
X392539D01*
Y293540D01*
X379459D01*
Y280460D01*
X387036D01*
X387600Y279206D01*
X387080Y278538D01*
X379459D01*
Y265457D01*
X392539D01*
Y273433D01*
X392997Y273891D01*
X407000D01*
X407527Y272621D01*
X396268Y261362D01*
X392540D01*
Y263535D01*
X379460D01*
Y250455D01*
X379342Y250324D01*
X377659D01*
X377541Y250455D01*
X377540Y250802D01*
Y255725D01*
X372271D01*
Y249741D01*
X372460Y249532D01*
X372460Y249185D01*
Y245762D01*
X377500D01*
Y243222D01*
X372460D01*
Y240264D01*
X371692D01*
Y236079D01*
X370540Y235793D01*
Y235793D01*
X355960D01*
Y224212D01*
X364715D01*
X369840Y219087D01*
X371105Y218242D01*
X371151Y217915D01*
X371062Y216922D01*
X370540Y216793D01*
Y216793D01*
X355960D01*
Y205212D01*
X365436D01*
X370835Y199813D01*
X370349Y198640D01*
X358462D01*
Y173560D01*
X374543D01*
Y182491D01*
X392405D01*
X428448Y146448D01*
X429619Y145665D01*
X431000Y145391D01*
X473000D01*
X474381Y145665D01*
X475552Y146448D01*
X479591Y150487D01*
X480861Y149961D01*
Y126129D01*
X467869Y113136D01*
X398293D01*
Y116038D01*
X385213D01*
Y99958D01*
X398293D01*
Y102859D01*
X469997D01*
X471964Y103250D01*
X473631Y104364D01*
X489634Y120366D01*
X490748Y122034D01*
X491139Y124000D01*
Y294000D01*
X490748Y295966D01*
X489634Y297634D01*
X481133Y306134D01*
X479466Y307248D01*
X477500Y307639D01*
X475533Y307248D01*
X475291Y307086D01*
X474040Y307040D01*
Y307040D01*
X453960D01*
Y306110D01*
X446040D01*
Y310960D01*
Y316230D01*
X436000D01*
X425960D01*
Y313961D01*
X424787Y313475D01*
X406609Y331652D01*
Y343000D01*
X406335Y344381D01*
X405552Y345552D01*
X401552Y349552D01*
X400381Y350335D01*
X399000Y350609D01*
X392539D01*
Y353550D01*
D02*
G37*
G36*
X377539Y338548D02*
X372269D01*
Y333278D01*
X377539D01*
Y338548D01*
D02*
G37*
G36*
X369729D02*
X364459D01*
Y333278D01*
X369729D01*
Y338548D01*
D02*
G37*
G36*
X377539Y330737D02*
X372269D01*
Y325467D01*
X377539D01*
Y330737D01*
D02*
G37*
G36*
X369729D02*
X364459D01*
Y325467D01*
X369729D01*
Y330737D01*
D02*
G37*
G36*
X353152Y358790D02*
X350848D01*
X348720Y357909D01*
X347091Y356280D01*
X346210Y354152D01*
Y351848D01*
X346847Y350310D01*
X346460Y349040D01*
X346460D01*
Y335960D01*
X349391D01*
Y334040D01*
X346460D01*
Y320960D01*
X359540D01*
Y334040D01*
X356609D01*
Y335960D01*
X359540D01*
Y349040D01*
X357888D01*
X357153Y350310D01*
X357790Y351848D01*
Y354152D01*
X356908Y356280D01*
X355280Y357909D01*
X353152Y358790D01*
D02*
G37*
G36*
X37200Y325439D02*
X30470D01*
Y319070D01*
X42339D01*
Y320300D01*
X41948Y322267D01*
X40834Y323934D01*
X39167Y325048D01*
X37200Y325439D01*
D02*
G37*
G36*
X27930D02*
X21200D01*
X19233Y325048D01*
X17566Y323934D01*
X16452Y322267D01*
X16061Y320300D01*
Y319070D01*
X27930D01*
Y325439D01*
D02*
G37*
G36*
X474040Y324040D02*
X465270D01*
Y318770D01*
X474040D01*
Y324040D01*
D02*
G37*
G36*
X446040D02*
X437270D01*
Y318770D01*
X446040D01*
Y324040D01*
D02*
G37*
G36*
X462730D02*
X453960D01*
Y318770D01*
X462730D01*
Y324040D01*
D02*
G37*
G36*
X434730D02*
X425960D01*
Y318770D01*
X434730D01*
Y324040D01*
D02*
G37*
G36*
X377539Y323545D02*
X372269D01*
Y318275D01*
X377539D01*
Y323545D01*
D02*
G37*
G36*
X369729D02*
X364459D01*
Y318275D01*
X369729D01*
Y323545D01*
D02*
G37*
G36*
X474040Y316230D02*
X465270D01*
Y310960D01*
X474040D01*
Y316230D01*
D02*
G37*
G36*
X462730D02*
X453960D01*
Y310960D01*
X462730D01*
Y316230D01*
D02*
G37*
G36*
X377539Y315735D02*
X372269D01*
Y310465D01*
X377539D01*
Y315735D01*
D02*
G37*
G36*
X369729D02*
X364459D01*
Y310465D01*
X369729D01*
Y315735D01*
D02*
G37*
G36*
X84139Y316530D02*
X72270D01*
Y310161D01*
X79000D01*
X80967Y310552D01*
X82634Y311666D01*
X83748Y313333D01*
X84139Y315300D01*
Y316530D01*
D02*
G37*
G36*
X42339D02*
X30470D01*
Y310161D01*
X37200D01*
X39167Y310552D01*
X40834Y311666D01*
X41948Y313333D01*
X42339Y315300D01*
Y316530D01*
D02*
G37*
G36*
X27930D02*
X16061D01*
Y315300D01*
X16452Y313333D01*
X17566Y311666D01*
X19233Y310552D01*
X21200Y310161D01*
X27930D01*
Y316530D01*
D02*
G37*
G36*
X377539Y308542D02*
X372269D01*
Y303272D01*
X377539D01*
Y308542D01*
D02*
G37*
G36*
X369729D02*
X364459D01*
Y303272D01*
X369729D01*
Y308542D01*
D02*
G37*
G36*
X64790Y303730D02*
X60770D01*
Y299710D01*
X64790D01*
Y303730D01*
D02*
G37*
G36*
X324495Y301230D02*
X320475D01*
Y297210D01*
X324495D01*
Y301230D01*
D02*
G37*
G36*
X306933D02*
X302913D01*
Y297210D01*
X306933D01*
Y301230D01*
D02*
G37*
G36*
X377539Y300732D02*
X372269D01*
Y295462D01*
X377539D01*
Y300732D01*
D02*
G37*
G36*
X369729D02*
X364459D01*
Y295462D01*
X369729D01*
Y300732D01*
D02*
G37*
G36*
X267537Y295040D02*
X262267D01*
Y289770D01*
X267537D01*
Y295040D01*
D02*
G37*
G36*
X259727D02*
X254457D01*
Y289770D01*
X259727D01*
Y295040D01*
D02*
G37*
G36*
X377539Y293540D02*
X372269D01*
Y288270D01*
X377539D01*
Y293540D01*
D02*
G37*
G36*
X369729D02*
X364459D01*
Y288270D01*
X369729D01*
Y293540D01*
D02*
G37*
G36*
X230540Y290230D02*
X225270D01*
Y284960D01*
X230540D01*
Y290230D01*
D02*
G37*
G36*
X222730D02*
X217460D01*
Y284960D01*
X222730D01*
Y290230D01*
D02*
G37*
G36*
X267537Y287230D02*
X262267D01*
Y281960D01*
X267537D01*
Y287230D01*
D02*
G37*
G36*
X259727D02*
X254457D01*
Y281960D01*
X259727D01*
Y287230D01*
D02*
G37*
G36*
X377539Y285730D02*
X372269D01*
Y280460D01*
X377539D01*
Y285730D01*
D02*
G37*
G36*
X369729D02*
X364459D01*
Y280460D01*
X369729D01*
Y285730D01*
D02*
G37*
G36*
X377539Y278538D02*
X372269D01*
Y273267D01*
X377539D01*
Y278538D01*
D02*
G37*
G36*
X369729D02*
X364459D01*
Y273267D01*
X369729D01*
Y278538D01*
D02*
G37*
G36*
X377539Y270728D02*
X372269D01*
Y265457D01*
X377539D01*
Y270728D01*
D02*
G37*
G36*
X369729D02*
X364459D01*
Y265457D01*
X369729D01*
Y270728D01*
D02*
G37*
G36*
X377540Y263535D02*
X372271D01*
Y258265D01*
X377540D01*
Y263535D01*
D02*
G37*
G36*
X369730D02*
X364460D01*
Y258265D01*
X369730D01*
Y263535D01*
D02*
G37*
G36*
Y255725D02*
X364460D01*
Y250455D01*
X369730D01*
Y255725D01*
D02*
G37*
G36*
X155517Y259396D02*
Y249270D01*
X159896D01*
Y254000D01*
X159466Y256162D01*
X158242Y257994D01*
X156409Y259219D01*
X155517Y259396D01*
D02*
G37*
G36*
X152977D02*
X152086Y259219D01*
X150253Y257994D01*
X149029Y256162D01*
X148599Y254000D01*
Y249270D01*
X152977D01*
Y259396D01*
D02*
G37*
G36*
X328040Y197040D02*
X286960D01*
Y177960D01*
X328040D01*
Y197040D01*
D02*
G37*
G36*
X172040Y171040D02*
X168270D01*
Y167270D01*
X172040D01*
Y171040D01*
D02*
G37*
G36*
Y164730D02*
X168270D01*
Y160960D01*
X172040D01*
Y164730D01*
D02*
G37*
G36*
X398040Y163640D02*
X391270D01*
Y152370D01*
X398040D01*
Y163640D01*
D02*
G37*
G36*
X388730D02*
X381960D01*
Y152370D01*
X388730D01*
Y163640D01*
D02*
G37*
G36*
X346040Y226292D02*
X331460D01*
Y214713D01*
X333611D01*
Y196250D01*
X334002Y194284D01*
X335116Y192616D01*
X340861Y186871D01*
Y170040D01*
X335960D01*
Y128960D01*
X355040D01*
Y141361D01*
X356463D01*
Y139460D01*
X374543D01*
Y153540D01*
X371141D01*
Y156210D01*
X374543D01*
Y169290D01*
X358462D01*
Y156210D01*
X360864D01*
Y153540D01*
X356463D01*
Y151639D01*
X355040D01*
Y170040D01*
X351139D01*
Y189000D01*
X350748Y190966D01*
X349634Y192634D01*
X343889Y198379D01*
Y214713D01*
X346040D01*
Y226292D01*
D02*
G37*
G36*
X398040Y149830D02*
X391270D01*
Y138560D01*
X398040D01*
Y149830D01*
D02*
G37*
G36*
X388730D02*
X381960D01*
Y138560D01*
X388730D01*
Y149830D01*
D02*
G37*
G36*
X50224Y136731D02*
X46455D01*
Y132961D01*
X50224D01*
Y136731D01*
D02*
G37*
G36*
X45465Y128664D02*
X42800Y125998D01*
X45465Y123332D01*
X48131Y125998D01*
X45465Y128664D01*
D02*
G37*
G36*
X365628Y135264D02*
X363661Y134873D01*
X363163Y134540D01*
X356463D01*
Y120460D01*
X360364D01*
Y116038D01*
X355863D01*
Y99958D01*
X380942D01*
Y116038D01*
X370641D01*
Y120460D01*
X374543D01*
Y122486D01*
X381960D01*
Y121210D01*
X398040D01*
Y134290D01*
X381960D01*
Y132764D01*
X374543D01*
Y134540D01*
X368092D01*
X367594Y134873D01*
X365628Y135264D01*
D02*
G37*
G36*
X41004Y124202D02*
X38338Y121536D01*
X41004Y118870D01*
X43669Y121536D01*
X41004Y124202D01*
D02*
G37*
G36*
X328040Y121040D02*
X286960D01*
Y101960D01*
X328040D01*
Y121040D01*
D02*
G37*
G36*
X144032Y107899D02*
X138262D01*
Y100129D01*
X144032D01*
Y107899D01*
D02*
G37*
G36*
X82731Y100041D02*
X78960D01*
Y96271D01*
X82731D01*
Y100041D01*
D02*
G37*
G36*
Y93731D02*
X78960D01*
Y89961D01*
X82731D01*
Y93731D01*
D02*
G37*
G36*
X144032Y97589D02*
X138262D01*
Y89819D01*
X144032D01*
Y97589D01*
D02*
G37*
G36*
X135722D02*
X129952D01*
Y89819D01*
X135722D01*
Y97589D01*
D02*
G37*
G36*
X423480Y71040D02*
X418960D01*
Y66770D01*
X423480D01*
Y71040D01*
D02*
G37*
G36*
X399040D02*
X394520D01*
Y66770D01*
X399040D01*
Y71040D01*
D02*
G37*
G36*
X391980D02*
X387460D01*
Y66770D01*
X391980D01*
Y71040D01*
D02*
G37*
G36*
X399040Y64230D02*
X387460D01*
Y59960D01*
X387460D01*
Y58270D01*
X396040D01*
Y59960D01*
X399040D01*
Y64230D01*
D02*
G37*
G36*
X470152Y81790D02*
X467848D01*
X465720Y80908D01*
X464091Y79280D01*
X463210Y77152D01*
Y74848D01*
X464091Y72720D01*
X465136Y71676D01*
Y66790D01*
X463710D01*
Y53864D01*
X461540D01*
Y56540D01*
X448460D01*
Y43460D01*
X461540D01*
Y46136D01*
X466500D01*
X467979Y46430D01*
X469146Y47210D01*
X474290D01*
Y56210D01*
Y66790D01*
X472864D01*
Y71676D01*
X473909Y72720D01*
X474790Y74848D01*
Y77152D01*
X473909Y79280D01*
X472280Y80908D01*
X470152Y81790D01*
D02*
G37*
%LPD*%
G36*
X422628Y450876D02*
X421430D01*
Y452243D01*
X422628D01*
Y450876D01*
D02*
G37*
G36*
X413409Y449706D02*
X413507Y449692D01*
X413719Y449664D01*
X413973Y449607D01*
X414240Y449523D01*
X414508Y449396D01*
X414776Y449241D01*
X414790D01*
X414804Y449212D01*
X414889Y449156D01*
X415016Y449043D01*
X415171Y448902D01*
X415340Y448719D01*
X415509Y448493D01*
X415678Y448226D01*
X415819Y447930D01*
Y447915D01*
X415833Y447887D01*
X415848Y447845D01*
X415876Y447789D01*
X415904Y447704D01*
X415932Y447605D01*
X416003Y447380D01*
X416073Y447098D01*
X416129Y446788D01*
X416172Y446435D01*
X416186Y446069D01*
Y446055D01*
Y446026D01*
Y445970D01*
Y445886D01*
X416172Y445787D01*
Y445674D01*
X416143Y445420D01*
X416087Y445110D01*
X416017Y444786D01*
X415918Y444448D01*
X415791Y444109D01*
Y444095D01*
X415777Y444067D01*
X415749Y444025D01*
X415721Y443968D01*
X415622Y443813D01*
X415495Y443616D01*
X415340Y443404D01*
X415143Y443193D01*
X414917Y442981D01*
X414649Y442784D01*
X414635D01*
X414621Y442770D01*
X414579Y442742D01*
X414522Y442714D01*
X414381Y442643D01*
X414184Y442559D01*
X413944Y442474D01*
X413691Y442403D01*
X413395Y442347D01*
X413098Y442333D01*
X413000D01*
X412887Y442347D01*
X412746Y442361D01*
X412577Y442389D01*
X412394Y442432D01*
X412210Y442488D01*
X412027Y442573D01*
X412013Y442587D01*
X411943Y442615D01*
X411858Y442671D01*
X411745Y442756D01*
X411632Y442840D01*
X411492Y442953D01*
X411365Y443080D01*
X411252Y443221D01*
Y439781D01*
X410054D01*
Y449565D01*
X411139D01*
Y448634D01*
X411153Y448663D01*
X411209Y448719D01*
X411280Y448818D01*
X411393Y448930D01*
X411520Y449071D01*
X411661Y449198D01*
X411830Y449325D01*
X411999Y449438D01*
X412027Y449452D01*
X412084Y449480D01*
X412196Y449523D01*
X412337Y449579D01*
X412506Y449635D01*
X412704Y449678D01*
X412929Y449706D01*
X413183Y449720D01*
X413338D01*
X413409Y449706D01*
D02*
G37*
G36*
X453529Y442488D02*
X452232D01*
Y447084D01*
X447185D01*
Y442488D01*
X445888D01*
Y452243D01*
X447185D01*
Y448240D01*
X452232D01*
Y452243D01*
X453529D01*
Y442488D01*
D02*
G37*
G36*
X427520Y449706D02*
X427604D01*
X427717Y449692D01*
X427985Y449649D01*
X428281Y449579D01*
X428591Y449466D01*
X428901Y449325D01*
X429197Y449128D01*
X429211D01*
X429226Y449100D01*
X429310Y449015D01*
X429437Y448888D01*
X429592Y448705D01*
X429747Y448479D01*
X429902Y448197D01*
X430043Y447873D01*
X430142Y447493D01*
X428972Y447309D01*
Y447323D01*
X428958Y447337D01*
X428944Y447422D01*
X428901Y447549D01*
X428831Y447704D01*
X428760Y447873D01*
X428647Y448056D01*
X428521Y448226D01*
X428380Y448367D01*
X428366Y448381D01*
X428309Y448423D01*
X428210Y448479D01*
X428098Y448550D01*
X427943Y448620D01*
X427774Y448677D01*
X427576Y448719D01*
X427365Y448733D01*
X427280D01*
X427210Y448719D01*
X427055Y448705D01*
X426843Y448648D01*
X426618Y448578D01*
X426364Y448465D01*
X426124Y448296D01*
X426011Y448197D01*
X425899Y448085D01*
Y448070D01*
X425870Y448056D01*
X425842Y448014D01*
X425814Y447958D01*
X425772Y447887D01*
X425715Y447803D01*
X425673Y447704D01*
X425617Y447591D01*
X425560Y447450D01*
X425518Y447295D01*
X425462Y447126D01*
X425419Y446943D01*
X425391Y446745D01*
X425363Y446520D01*
X425335Y446280D01*
Y446026D01*
Y446012D01*
Y445970D01*
Y445886D01*
X425349Y445801D01*
Y445674D01*
X425363Y445547D01*
X425405Y445237D01*
X425462Y444899D01*
X425560Y444546D01*
X425687Y444236D01*
X425772Y444081D01*
X425870Y443954D01*
X425899Y443926D01*
X425969Y443856D01*
X426096Y443757D01*
X426251Y443644D01*
X426463Y443517D01*
X426702Y443419D01*
X426984Y443348D01*
X427139Y443334D01*
X427294Y443320D01*
X427322D01*
X427407Y443334D01*
X427548Y443348D01*
X427703Y443376D01*
X427886Y443419D01*
X428084Y443503D01*
X428281Y443602D01*
X428464Y443743D01*
X428493Y443757D01*
X428535Y443827D01*
X428619Y443926D01*
X428718Y444081D01*
X428817Y444264D01*
X428929Y444490D01*
X429014Y444772D01*
X429070Y445082D01*
X430255Y444927D01*
Y444913D01*
X430241Y444870D01*
X430226Y444814D01*
X430212Y444729D01*
X430184Y444617D01*
X430156Y444504D01*
X430057Y444222D01*
X429930Y443926D01*
X429747Y443602D01*
X429521Y443292D01*
X429395Y443151D01*
X429254Y443010D01*
X429240Y442996D01*
X429211Y442981D01*
X429169Y442953D01*
X429113Y442911D01*
X429042Y442855D01*
X428944Y442798D01*
X428831Y442742D01*
X428718Y442671D01*
X428436Y442545D01*
X428098Y442446D01*
X427731Y442361D01*
X427520Y442347D01*
X427308Y442333D01*
X427167D01*
X427069Y442347D01*
X426942Y442361D01*
X426801Y442389D01*
X426646Y442418D01*
X426477Y442446D01*
X426096Y442559D01*
X425913Y442643D01*
X425715Y442728D01*
X425518Y442840D01*
X425335Y442967D01*
X425151Y443108D01*
X424982Y443278D01*
X424968Y443292D01*
X424940Y443320D01*
X424898Y443376D01*
X424841Y443447D01*
X424785Y443545D01*
X424700Y443672D01*
X424630Y443813D01*
X424545Y443968D01*
X424461Y444152D01*
X424390Y444363D01*
X424306Y444575D01*
X424249Y444828D01*
X424193Y445082D01*
X424151Y445378D01*
X424122Y445674D01*
X424108Y445998D01*
Y446012D01*
Y446055D01*
Y446111D01*
Y446196D01*
X424122Y446294D01*
Y446407D01*
X424137Y446534D01*
X424151Y446675D01*
X424193Y446985D01*
X424263Y447323D01*
X424348Y447662D01*
X424475Y448000D01*
Y448014D01*
X424489Y448042D01*
X424517Y448085D01*
X424545Y448141D01*
X424630Y448296D01*
X424757Y448479D01*
X424926Y448691D01*
X425123Y448902D01*
X425363Y449114D01*
X425631Y449283D01*
X425645D01*
X425673Y449297D01*
X425715Y449325D01*
X425772Y449353D01*
X425842Y449381D01*
X425927Y449424D01*
X426138Y449508D01*
X426378Y449579D01*
X426674Y449649D01*
X426984Y449706D01*
X427322Y449720D01*
X427435D01*
X427520Y449706D01*
D02*
G37*
G36*
X474787Y442488D02*
X473546D01*
Y450650D01*
X470699Y442488D01*
X469543D01*
X466724Y450791D01*
Y442488D01*
X465483D01*
Y452243D01*
X467414D01*
X469726Y445322D01*
Y445308D01*
X469740Y445279D01*
X469754Y445237D01*
X469783Y445167D01*
X469839Y444997D01*
X469909Y444786D01*
X469980Y444546D01*
X470065Y444307D01*
X470135Y444081D01*
X470191Y443884D01*
X470205Y443912D01*
X470220Y443982D01*
X470262Y444109D01*
X470318Y444278D01*
X470389Y444504D01*
X470487Y444772D01*
X470586Y445082D01*
X470713Y445448D01*
X473053Y452243D01*
X474787D01*
Y442488D01*
D02*
G37*
G36*
X460338Y452229D02*
X460465D01*
X460760Y452215D01*
X461071Y452173D01*
X461409Y452131D01*
X461719Y452060D01*
X461874Y452018D01*
X462001Y451975D01*
X462015D01*
X462029Y451961D01*
X462114Y451919D01*
X462241Y451863D01*
X462396Y451764D01*
X462565Y451637D01*
X462748Y451468D01*
X462917Y451270D01*
X463087Y451045D01*
Y451031D01*
X463101Y451017D01*
X463157Y450932D01*
X463213Y450791D01*
X463298Y450608D01*
X463368Y450396D01*
X463439Y450143D01*
X463481Y449875D01*
X463495Y449579D01*
Y449565D01*
Y449537D01*
Y449480D01*
X463481Y449410D01*
Y449311D01*
X463467Y449212D01*
X463411Y448973D01*
X463326Y448691D01*
X463213Y448395D01*
X463044Y448099D01*
X462931Y447958D01*
X462819Y447817D01*
X462805Y447803D01*
X462790Y447789D01*
X462748Y447746D01*
X462692Y447704D01*
X462621Y447648D01*
X462537Y447591D01*
X462424Y447521D01*
X462311Y447436D01*
X462170Y447366D01*
X462015Y447295D01*
X461846Y447211D01*
X461663Y447140D01*
X461451Y447084D01*
X461240Y447013D01*
X461000Y446971D01*
X460746Y446929D01*
X460775Y446915D01*
X460831Y446886D01*
X460916Y446830D01*
X461028Y446774D01*
X461282Y446618D01*
X461409Y446520D01*
X461522Y446435D01*
X461550Y446407D01*
X461620Y446337D01*
X461733Y446224D01*
X461874Y446083D01*
X462029Y445886D01*
X462212Y445674D01*
X462396Y445420D01*
X462593Y445138D01*
X464271Y442488D01*
X462664D01*
X461381Y444518D01*
Y444532D01*
X461353Y444560D01*
X461324Y444603D01*
X461282Y444659D01*
X461183Y444814D01*
X461057Y445011D01*
X460901Y445223D01*
X460746Y445448D01*
X460591Y445660D01*
X460450Y445857D01*
X460436Y445871D01*
X460394Y445928D01*
X460323Y446012D01*
X460225Y446111D01*
X460013Y446323D01*
X459901Y446421D01*
X459788Y446506D01*
X459774Y446520D01*
X459745Y446534D01*
X459689Y446562D01*
X459604Y446604D01*
X459520Y446647D01*
X459421Y446689D01*
X459196Y446759D01*
X459182D01*
X459153Y446774D01*
X459097D01*
X459027Y446788D01*
X458928Y446802D01*
X458815D01*
X458660Y446816D01*
X456997D01*
Y442488D01*
X455700D01*
Y452243D01*
X460225D01*
X460338Y452229D01*
D02*
G37*
G36*
X440038Y442488D02*
X438840D01*
Y452243D01*
X440038D01*
Y442488D01*
D02*
G37*
G36*
X434582Y449706D02*
X434794Y449692D01*
X435033Y449664D01*
X435273Y449621D01*
X435513Y449565D01*
X435738Y449494D01*
X435766Y449480D01*
X435837Y449452D01*
X435936Y449410D01*
X436063Y449353D01*
X436203Y449269D01*
X436344Y449184D01*
X436471Y449071D01*
X436584Y448959D01*
X436598Y448945D01*
X436626Y448902D01*
X436669Y448832D01*
X436725Y448747D01*
X436796Y448620D01*
X436852Y448493D01*
X436908Y448338D01*
X436951Y448155D01*
Y448141D01*
X436965Y448099D01*
X436979Y448014D01*
X436993Y447901D01*
Y447746D01*
X437007Y447563D01*
X437021Y447323D01*
Y447056D01*
Y445448D01*
Y445434D01*
Y445378D01*
Y445293D01*
Y445181D01*
Y445054D01*
Y444899D01*
X437035Y444560D01*
Y444208D01*
X437049Y443856D01*
X437063Y443700D01*
Y443559D01*
X437077Y443433D01*
X437092Y443334D01*
Y443320D01*
X437106Y443264D01*
X437120Y443179D01*
X437162Y443066D01*
X437190Y442939D01*
X437247Y442798D01*
X437317Y442643D01*
X437388Y442488D01*
X436133D01*
X436119Y442502D01*
X436105Y442559D01*
X436077Y442629D01*
X436034Y442742D01*
X435992Y442869D01*
X435964Y443024D01*
X435936Y443193D01*
X435908Y443376D01*
X435893D01*
X435879Y443348D01*
X435795Y443278D01*
X435668Y443179D01*
X435499Y443052D01*
X435287Y442925D01*
X435076Y442784D01*
X434850Y442657D01*
X434611Y442559D01*
X434582Y442545D01*
X434498Y442530D01*
X434371Y442488D01*
X434216Y442446D01*
X434019Y442403D01*
X433793Y442375D01*
X433539Y442347D01*
X433285Y442333D01*
X433173D01*
X433088Y442347D01*
X432989D01*
X432877Y442361D01*
X432623Y442403D01*
X432341Y442474D01*
X432031Y442573D01*
X431749Y442714D01*
X431495Y442897D01*
X431467Y442925D01*
X431396Y442996D01*
X431298Y443122D01*
X431185Y443292D01*
X431072Y443503D01*
X430974Y443743D01*
X430903Y444039D01*
X430889Y444180D01*
X430875Y444349D01*
Y444377D01*
Y444434D01*
X430889Y444532D01*
X430903Y444659D01*
X430931Y444814D01*
X430974Y444969D01*
X431030Y445138D01*
X431100Y445293D01*
X431115Y445308D01*
X431143Y445364D01*
X431199Y445448D01*
X431270Y445547D01*
X431354Y445660D01*
X431467Y445773D01*
X431580Y445886D01*
X431721Y445984D01*
X431735Y445998D01*
X431791Y446026D01*
X431862Y446083D01*
X431974Y446139D01*
X432101Y446196D01*
X432256Y446266D01*
X432411Y446323D01*
X432595Y446379D01*
X432609D01*
X432665Y446393D01*
X432750Y446421D01*
X432863Y446435D01*
X433004Y446464D01*
X433187Y446492D01*
X433398Y446534D01*
X433652Y446562D01*
X433666D01*
X433722Y446576D01*
X433793D01*
X433892Y446590D01*
X434004Y446604D01*
X434145Y446633D01*
X434300Y446647D01*
X434470Y446675D01*
X434808Y446745D01*
X435174Y446816D01*
X435499Y446900D01*
X435654Y446943D01*
X435795Y446985D01*
Y446999D01*
Y447027D01*
X435809Y447112D01*
Y447211D01*
Y447267D01*
Y447295D01*
Y447309D01*
Y447323D01*
Y447408D01*
X435795Y447549D01*
X435766Y447704D01*
X435724Y447873D01*
X435654Y448042D01*
X435569Y448197D01*
X435456Y448324D01*
X435442Y448338D01*
X435372Y448395D01*
X435259Y448451D01*
X435118Y448536D01*
X434921Y448606D01*
X434695Y448677D01*
X434413Y448719D01*
X434089Y448733D01*
X433948D01*
X433807Y448719D01*
X433610Y448691D01*
X433412Y448663D01*
X433201Y448606D01*
X433004Y448536D01*
X432834Y448437D01*
X432820Y448423D01*
X432764Y448381D01*
X432693Y448310D01*
X432609Y448197D01*
X432524Y448056D01*
X432425Y447873D01*
X432341Y447648D01*
X432256Y447394D01*
X431086Y447549D01*
Y447563D01*
X431100Y447577D01*
Y447619D01*
X431115Y447676D01*
X431157Y447803D01*
X431213Y447986D01*
X431284Y448169D01*
X431368Y448367D01*
X431481Y448564D01*
X431608Y448747D01*
X431622Y448761D01*
X431678Y448818D01*
X431763Y448902D01*
X431876Y449015D01*
X432031Y449128D01*
X432214Y449241D01*
X432425Y449367D01*
X432665Y449466D01*
X432679D01*
X432693Y449480D01*
X432736Y449494D01*
X432792Y449508D01*
X432933Y449551D01*
X433130Y449593D01*
X433356Y449635D01*
X433638Y449678D01*
X433934Y449706D01*
X434272Y449720D01*
X434427D01*
X434582Y449706D01*
D02*
G37*
G36*
X422628Y442488D02*
X421430D01*
Y449565D01*
X422628D01*
Y442488D01*
D02*
G37*
G36*
X419033Y449565D02*
X420246D01*
Y448634D01*
X419033D01*
Y444476D01*
Y444448D01*
Y444391D01*
Y444307D01*
X419048Y444208D01*
X419062Y443982D01*
X419076Y443884D01*
X419090Y443813D01*
X419104Y443785D01*
X419146Y443729D01*
X419202Y443658D01*
X419301Y443588D01*
X419329Y443574D01*
X419400Y443545D01*
X419527Y443517D01*
X419710Y443503D01*
X419851D01*
X419921Y443517D01*
X420020D01*
X420133Y443531D01*
X420246Y443545D01*
X420401Y442488D01*
X420373D01*
X420316Y442474D01*
X420218Y442460D01*
X420091Y442446D01*
X419950Y442418D01*
X419795Y442403D01*
X419484Y442389D01*
X419372D01*
X419259Y442403D01*
X419118Y442418D01*
X418949Y442432D01*
X418780Y442474D01*
X418625Y442516D01*
X418470Y442587D01*
X418455Y442601D01*
X418413Y442629D01*
X418357Y442671D01*
X418272Y442742D01*
X418202Y442812D01*
X418117Y442911D01*
X418032Y443010D01*
X417976Y443137D01*
Y443151D01*
X417948Y443207D01*
X417934Y443306D01*
X417906Y443447D01*
X417877Y443630D01*
X417863Y443743D01*
Y443870D01*
X417849Y444025D01*
X417835Y444180D01*
Y444349D01*
Y444546D01*
Y448634D01*
X416947D01*
Y449565D01*
X417835D01*
Y451313D01*
X419033Y452032D01*
Y449565D01*
D02*
G37*
G36*
X404105Y452398D02*
X404231D01*
X404358Y452384D01*
X404528Y452356D01*
X404697Y452328D01*
X405063Y452257D01*
X405486Y452145D01*
X405895Y451975D01*
X406106Y451877D01*
X406318Y451764D01*
X406332Y451750D01*
X406360Y451736D01*
X406417Y451693D01*
X406501Y451651D01*
X406586Y451581D01*
X406698Y451496D01*
X406938Y451299D01*
X407192Y451045D01*
X407474Y450735D01*
X407742Y450368D01*
X407967Y449959D01*
Y449945D01*
X407995Y449903D01*
X408024Y449847D01*
X408052Y449762D01*
X408108Y449649D01*
X408150Y449523D01*
X408207Y449367D01*
X408263Y449198D01*
X408306Y449015D01*
X408362Y448818D01*
X408418Y448592D01*
X408461Y448367D01*
X408517Y447873D01*
X408545Y447337D01*
Y447323D01*
Y447267D01*
Y447197D01*
X408531Y447084D01*
Y446957D01*
X408517Y446802D01*
X408489Y446633D01*
X408475Y446449D01*
X408404Y446041D01*
X408292Y445589D01*
X408136Y445138D01*
X408052Y444913D01*
X407939Y444687D01*
Y444673D01*
X407911Y444631D01*
X407883Y444575D01*
X407826Y444490D01*
X407770Y444391D01*
X407699Y444292D01*
X407502Y444025D01*
X407262Y443743D01*
X406980Y443447D01*
X406642Y443165D01*
X406247Y442911D01*
X406233D01*
X406205Y442883D01*
X406135Y442855D01*
X406050Y442812D01*
X405951Y442770D01*
X405839Y442728D01*
X405698Y442671D01*
X405542Y442615D01*
X405373Y442559D01*
X405190Y442502D01*
X404781Y442418D01*
X404344Y442347D01*
X403879Y442319D01*
X403738D01*
X403653Y442333D01*
X403527D01*
X403386Y442361D01*
X403231Y442375D01*
X403047Y442403D01*
X402667Y442488D01*
X402258Y442601D01*
X401835Y442770D01*
X401624Y442869D01*
X401412Y442981D01*
X401398Y442996D01*
X401370Y443010D01*
X401313Y443052D01*
X401229Y443108D01*
X401144Y443165D01*
X401046Y443249D01*
X400806Y443461D01*
X400538Y443715D01*
X400256Y444025D01*
X400002Y444377D01*
X399763Y444786D01*
Y444800D01*
X399735Y444842D01*
X399706Y444899D01*
X399678Y444983D01*
X399636Y445096D01*
X399594Y445223D01*
X399537Y445364D01*
X399495Y445519D01*
X399439Y445702D01*
X399382Y445886D01*
X399298Y446308D01*
X399241Y446745D01*
X399213Y447225D01*
Y447239D01*
Y447253D01*
Y447337D01*
X399227Y447464D01*
Y447634D01*
X399255Y447831D01*
X399283Y448070D01*
X399326Y448338D01*
X399382Y448620D01*
X399439Y448916D01*
X399523Y449226D01*
X399636Y449537D01*
X399763Y449861D01*
X399904Y450171D01*
X400087Y450481D01*
X400284Y450763D01*
X400510Y451031D01*
X400524Y451045D01*
X400566Y451087D01*
X400651Y451158D01*
X400750Y451242D01*
X400876Y451355D01*
X401031Y451468D01*
X401215Y451595D01*
X401426Y451722D01*
X401652Y451848D01*
X401906Y451975D01*
X402188Y452088D01*
X402483Y452201D01*
X402808Y452285D01*
X403146Y452356D01*
X403498Y452398D01*
X403879Y452412D01*
X404006D01*
X404105Y452398D01*
D02*
G37*
G36*
X421959Y427793D02*
Y427779D01*
X421944Y427737D01*
X421916Y427681D01*
X421888Y427610D01*
X421846Y427511D01*
X421803Y427399D01*
X421705Y427159D01*
X421606Y426891D01*
X421493Y426623D01*
X421381Y426384D01*
X421324Y426285D01*
X421282Y426186D01*
X421268Y426158D01*
X421225Y426088D01*
X421155Y425989D01*
X421070Y425862D01*
X420958Y425721D01*
X420831Y425580D01*
X420704Y425439D01*
X420549Y425326D01*
X420535Y425312D01*
X420478Y425284D01*
X420394Y425242D01*
X420267Y425186D01*
X420126Y425129D01*
X419957Y425087D01*
X419773Y425059D01*
X419562Y425045D01*
X419506D01*
X419435Y425059D01*
X419336D01*
X419224Y425087D01*
X419097Y425115D01*
X418956Y425143D01*
X418801Y425200D01*
X418674Y426313D01*
X418688D01*
X418744Y426299D01*
X418815Y426285D01*
X418899Y426257D01*
X419125Y426214D01*
X419351Y426200D01*
X419421D01*
X419492Y426214D01*
X419576D01*
X419788Y426257D01*
X419886Y426299D01*
X419985Y426341D01*
X419999D01*
X420027Y426370D01*
X420070Y426398D01*
X420126Y426440D01*
X420253Y426553D01*
X420365Y426708D01*
Y426722D01*
X420394Y426750D01*
X420422Y426807D01*
X420450Y426891D01*
X420507Y427004D01*
X420563Y427173D01*
X420648Y427370D01*
X420732Y427610D01*
Y427624D01*
X420760Y427681D01*
X420788Y427779D01*
X420845Y427906D01*
X418166Y434983D01*
X419435D01*
X420915Y430881D01*
Y430867D01*
X420929Y430853D01*
X420943Y430810D01*
X420958Y430740D01*
X420986Y430669D01*
X421014Y430585D01*
X421085Y430387D01*
X421169Y430148D01*
X421254Y429866D01*
X421338Y429570D01*
X421423Y429245D01*
Y429259D01*
X421437Y429288D01*
X421451Y429330D01*
X421465Y429386D01*
X421479Y429457D01*
X421507Y429541D01*
X421564Y429753D01*
X421634Y429992D01*
X421733Y430275D01*
X421818Y430556D01*
X421930Y430853D01*
X423453Y434983D01*
X424651D01*
X421959Y427793D01*
D02*
G37*
G36*
X459471Y432093D02*
X462304Y434983D01*
X463869D01*
X461148Y432347D01*
X464137Y427906D01*
X462657D01*
X460302Y431515D01*
X459471Y430712D01*
Y427906D01*
X458272D01*
Y437661D01*
X459471D01*
Y432093D01*
D02*
G37*
G36*
X453987Y435124D02*
X454198Y435110D01*
X454438Y435082D01*
X454678Y435039D01*
X454917Y434983D01*
X455143Y434912D01*
X455171Y434898D01*
X455242Y434870D01*
X455340Y434828D01*
X455467Y434771D01*
X455608Y434687D01*
X455749Y434602D01*
X455876Y434490D01*
X455989Y434377D01*
X456003Y434363D01*
X456031Y434320D01*
X456073Y434250D01*
X456130Y434165D01*
X456200Y434038D01*
X456256Y433912D01*
X456313Y433756D01*
X456355Y433573D01*
Y433559D01*
X456369Y433517D01*
X456383Y433432D01*
X456398Y433319D01*
Y433164D01*
X456412Y432981D01*
X456426Y432742D01*
Y432474D01*
Y430867D01*
Y430853D01*
Y430796D01*
Y430712D01*
Y430599D01*
Y430472D01*
Y430317D01*
X456440Y429978D01*
Y429626D01*
X456454Y429274D01*
X456468Y429118D01*
Y428978D01*
X456482Y428851D01*
X456496Y428752D01*
Y428738D01*
X456510Y428681D01*
X456524Y428597D01*
X456567Y428484D01*
X456595Y428357D01*
X456651Y428216D01*
X456722Y428061D01*
X456792Y427906D01*
X455537D01*
X455523Y427920D01*
X455509Y427977D01*
X455481Y428047D01*
X455439Y428160D01*
X455397Y428287D01*
X455368Y428442D01*
X455340Y428611D01*
X455312Y428794D01*
X455298D01*
X455284Y428766D01*
X455199Y428696D01*
X455072Y428597D01*
X454903Y428470D01*
X454692Y428343D01*
X454480Y428202D01*
X454255Y428075D01*
X454015Y427977D01*
X453987Y427963D01*
X453902Y427948D01*
X453775Y427906D01*
X453620Y427864D01*
X453423Y427822D01*
X453197Y427793D01*
X452944Y427765D01*
X452690Y427751D01*
X452577D01*
X452493Y427765D01*
X452394D01*
X452281Y427779D01*
X452027Y427822D01*
X451745Y427892D01*
X451435Y427991D01*
X451153Y428132D01*
X450900Y428315D01*
X450871Y428343D01*
X450801Y428414D01*
X450702Y428540D01*
X450589Y428710D01*
X450477Y428921D01*
X450378Y429161D01*
X450308Y429457D01*
X450294Y429598D01*
X450279Y429767D01*
Y429795D01*
Y429852D01*
X450294Y429950D01*
X450308Y430077D01*
X450336Y430232D01*
X450378Y430387D01*
X450434Y430556D01*
X450505Y430712D01*
X450519Y430726D01*
X450547Y430782D01*
X450604Y430867D01*
X450674Y430965D01*
X450759Y431078D01*
X450871Y431191D01*
X450984Y431304D01*
X451125Y431402D01*
X451139Y431416D01*
X451196Y431445D01*
X451266Y431501D01*
X451379Y431557D01*
X451506Y431614D01*
X451661Y431684D01*
X451816Y431741D01*
X451999Y431797D01*
X452013D01*
X452070Y431811D01*
X452154Y431839D01*
X452267Y431853D01*
X452408Y431881D01*
X452591Y431910D01*
X452803Y431952D01*
X453056Y431980D01*
X453071D01*
X453127Y431994D01*
X453197D01*
X453296Y432008D01*
X453409Y432023D01*
X453550Y432051D01*
X453705Y432065D01*
X453874Y432093D01*
X454212Y432164D01*
X454579Y432234D01*
X454903Y432318D01*
X455058Y432361D01*
X455199Y432403D01*
Y432417D01*
Y432445D01*
X455213Y432530D01*
Y432629D01*
Y432685D01*
Y432713D01*
Y432727D01*
Y432742D01*
Y432826D01*
X455199Y432967D01*
X455171Y433122D01*
X455129Y433291D01*
X455058Y433460D01*
X454974Y433615D01*
X454861Y433742D01*
X454847Y433756D01*
X454776Y433813D01*
X454664Y433869D01*
X454523Y433954D01*
X454325Y434024D01*
X454100Y434095D01*
X453818Y434137D01*
X453493Y434151D01*
X453353D01*
X453212Y434137D01*
X453014Y434109D01*
X452817Y434081D01*
X452605Y434024D01*
X452408Y433954D01*
X452239Y433855D01*
X452225Y433841D01*
X452168Y433799D01*
X452098Y433728D01*
X452013Y433615D01*
X451929Y433475D01*
X451830Y433291D01*
X451745Y433066D01*
X451661Y432812D01*
X450491Y432967D01*
Y432981D01*
X450505Y432995D01*
Y433037D01*
X450519Y433094D01*
X450561Y433221D01*
X450618Y433404D01*
X450688Y433587D01*
X450773Y433785D01*
X450886Y433982D01*
X451012Y434165D01*
X451026Y434179D01*
X451083Y434236D01*
X451167Y434320D01*
X451280Y434433D01*
X451435Y434546D01*
X451619Y434659D01*
X451830Y434785D01*
X452070Y434884D01*
X452084D01*
X452098Y434898D01*
X452140Y434912D01*
X452197Y434926D01*
X452337Y434969D01*
X452535Y435011D01*
X452760Y435053D01*
X453042Y435096D01*
X453338Y435124D01*
X453677Y435138D01*
X453832D01*
X453987Y435124D01*
D02*
G37*
G36*
X448827Y427906D02*
X447629D01*
Y437661D01*
X448827D01*
Y427906D01*
D02*
G37*
G36*
X413796Y437647D02*
X413909D01*
X414163Y437619D01*
X414445Y437591D01*
X414741Y437534D01*
X415037Y437464D01*
X415305Y437365D01*
X415319D01*
X415333Y437351D01*
X415418Y437309D01*
X415544Y437238D01*
X415685Y437140D01*
X415854Y437013D01*
X416038Y436858D01*
X416207Y436660D01*
X416362Y436449D01*
X416376Y436421D01*
X416418Y436336D01*
X416489Y436223D01*
X416559Y436054D01*
X416630Y435857D01*
X416700Y435645D01*
X416743Y435406D01*
X416757Y435166D01*
Y435138D01*
Y435067D01*
X416743Y434941D01*
X416714Y434785D01*
X416672Y434602D01*
X416602Y434405D01*
X416517Y434207D01*
X416404Y433996D01*
X416390Y433968D01*
X416348Y433912D01*
X416263Y433799D01*
X416151Y433686D01*
X416010Y433545D01*
X415840Y433390D01*
X415629Y433249D01*
X415389Y433108D01*
X415403D01*
X415432Y433094D01*
X415474Y433080D01*
X415530Y433052D01*
X415699Y432995D01*
X415897Y432896D01*
X416108Y432770D01*
X416348Y432615D01*
X416559Y432431D01*
X416757Y432206D01*
X416771Y432178D01*
X416827Y432093D01*
X416912Y431966D01*
X416996Y431797D01*
X417081Y431571D01*
X417165Y431332D01*
X417222Y431050D01*
X417236Y430740D01*
Y430726D01*
Y430712D01*
Y430627D01*
X417222Y430486D01*
X417194Y430317D01*
X417165Y430119D01*
X417109Y429908D01*
X417039Y429682D01*
X416940Y429457D01*
X416926Y429429D01*
X416884Y429358D01*
X416827Y429259D01*
X416743Y429118D01*
X416630Y428978D01*
X416517Y428823D01*
X416376Y428667D01*
X416221Y428540D01*
X416207Y428526D01*
X416151Y428484D01*
X416052Y428428D01*
X415925Y428371D01*
X415770Y428287D01*
X415587Y428202D01*
X415389Y428132D01*
X415150Y428061D01*
X415121D01*
X415037Y428033D01*
X414896Y428019D01*
X414713Y427991D01*
X414487Y427963D01*
X414219Y427934D01*
X413923Y427920D01*
X413585Y427906D01*
X409863D01*
Y437661D01*
X413698D01*
X413796Y437647D01*
D02*
G37*
G36*
X441243Y434179D02*
X441257Y434193D01*
X441271Y434222D01*
X441314Y434264D01*
X441384Y434334D01*
X441455Y434405D01*
X441539Y434490D01*
X441652Y434574D01*
X441765Y434659D01*
X442047Y434842D01*
X442371Y434983D01*
X442554Y435053D01*
X442752Y435096D01*
X442963Y435124D01*
X443175Y435138D01*
X443287D01*
X443414Y435124D01*
X443569Y435110D01*
X443753Y435067D01*
X443964Y435025D01*
X444189Y434955D01*
X444401Y434870D01*
X444429Y434856D01*
X444500Y434828D01*
X444612Y434757D01*
X444739Y434673D01*
X444894Y434574D01*
X445049Y434447D01*
X445219Y434292D01*
X445359Y434123D01*
X445374Y434109D01*
X445416Y434038D01*
X445486Y433940D01*
X445571Y433813D01*
X445670Y433644D01*
X445768Y433446D01*
X445867Y433221D01*
X445952Y432981D01*
Y432967D01*
X445966Y432953D01*
X445980Y432911D01*
X445994Y432868D01*
X446022Y432727D01*
X446064Y432544D01*
X446107Y432333D01*
X446149Y432093D01*
X446163Y431825D01*
X446177Y431543D01*
Y431529D01*
Y431459D01*
Y431374D01*
X446163Y431247D01*
X446149Y431092D01*
X446135Y430923D01*
X446107Y430726D01*
X446064Y430514D01*
X445952Y430063D01*
X445881Y429823D01*
X445797Y429598D01*
X445698Y429358D01*
X445571Y429147D01*
X445430Y428935D01*
X445275Y428738D01*
X445261Y428724D01*
X445233Y428696D01*
X445190Y428653D01*
X445120Y428583D01*
X445021Y428512D01*
X444922Y428428D01*
X444810Y428343D01*
X444669Y428245D01*
X444514Y428160D01*
X444359Y428061D01*
X443978Y427906D01*
X443781Y427836D01*
X443569Y427793D01*
X443344Y427765D01*
X443118Y427751D01*
X443062D01*
X442991Y427765D01*
X442907D01*
X442808Y427779D01*
X442681Y427808D01*
X442399Y427878D01*
X442244Y427934D01*
X442089Y428005D01*
X441920Y428089D01*
X441765Y428188D01*
X441596Y428315D01*
X441441Y428456D01*
X441300Y428611D01*
X441159Y428794D01*
Y427906D01*
X440045D01*
Y437661D01*
X441243D01*
Y434179D01*
D02*
G37*
G36*
X434124Y437816D02*
X434251D01*
X434378Y437802D01*
X434547Y437774D01*
X434716Y437746D01*
X435083Y437675D01*
X435506Y437563D01*
X435914Y437393D01*
X436126Y437295D01*
X436337Y437182D01*
X436352Y437168D01*
X436380Y437154D01*
X436436Y437112D01*
X436521Y437069D01*
X436605Y436999D01*
X436718Y436914D01*
X436958Y436717D01*
X437211Y436463D01*
X437493Y436153D01*
X437761Y435786D01*
X437987Y435378D01*
Y435364D01*
X438015Y435321D01*
X438043Y435265D01*
X438071Y435180D01*
X438128Y435067D01*
X438170Y434941D01*
X438226Y434785D01*
X438283Y434616D01*
X438325Y434433D01*
X438382Y434236D01*
X438438Y434010D01*
X438480Y433785D01*
X438537Y433291D01*
X438565Y432756D01*
Y432742D01*
Y432685D01*
Y432615D01*
X438551Y432502D01*
Y432375D01*
X438537Y432220D01*
X438508Y432051D01*
X438494Y431867D01*
X438424Y431459D01*
X438311Y431007D01*
X438156Y430556D01*
X438071Y430331D01*
X437959Y430105D01*
Y430091D01*
X437930Y430049D01*
X437902Y429992D01*
X437846Y429908D01*
X437789Y429809D01*
X437719Y429711D01*
X437522Y429443D01*
X437282Y429161D01*
X437000Y428865D01*
X436662Y428583D01*
X436267Y428329D01*
X436253D01*
X436225Y428301D01*
X436154Y428273D01*
X436070Y428230D01*
X435971Y428188D01*
X435858Y428146D01*
X435717Y428089D01*
X435562Y428033D01*
X435393Y427977D01*
X435210Y427920D01*
X434801Y427836D01*
X434364Y427765D01*
X433899Y427737D01*
X433758D01*
X433673Y427751D01*
X433546D01*
X433405Y427779D01*
X433250Y427793D01*
X433067Y427822D01*
X432686Y427906D01*
X432277Y428019D01*
X431855Y428188D01*
X431643Y428287D01*
X431432Y428400D01*
X431418Y428414D01*
X431389Y428428D01*
X431333Y428470D01*
X431248Y428526D01*
X431164Y428583D01*
X431065Y428667D01*
X430826Y428879D01*
X430558Y429133D01*
X430276Y429443D01*
X430022Y429795D01*
X429782Y430204D01*
Y430218D01*
X429754Y430260D01*
X429726Y430317D01*
X429698Y430401D01*
X429655Y430514D01*
X429613Y430641D01*
X429557Y430782D01*
X429515Y430937D01*
X429458Y431120D01*
X429402Y431304D01*
X429317Y431726D01*
X429261Y432164D01*
X429232Y432643D01*
Y432657D01*
Y432671D01*
Y432756D01*
X429247Y432882D01*
Y433052D01*
X429275Y433249D01*
X429303Y433489D01*
X429345Y433756D01*
X429402Y434038D01*
X429458Y434334D01*
X429543Y434645D01*
X429655Y434955D01*
X429782Y435279D01*
X429923Y435589D01*
X430107Y435899D01*
X430304Y436181D01*
X430530Y436449D01*
X430544Y436463D01*
X430586Y436505D01*
X430670Y436576D01*
X430769Y436660D01*
X430896Y436773D01*
X431051Y436886D01*
X431234Y437013D01*
X431446Y437140D01*
X431671Y437267D01*
X431925Y437393D01*
X432207Y437506D01*
X432503Y437619D01*
X432827Y437704D01*
X433166Y437774D01*
X433518Y437816D01*
X433899Y437831D01*
X434025D01*
X434124Y437816D01*
D02*
G37*
G36*
X457715Y422952D02*
X457828Y422938D01*
X457969Y422924D01*
X458124Y422896D01*
X458279Y422868D01*
X458646Y422769D01*
X459012Y422628D01*
X459196Y422544D01*
X459379Y422445D01*
X459548Y422318D01*
X459703Y422177D01*
X459717Y422163D01*
X459745Y422149D01*
X459774Y422093D01*
X459830Y422036D01*
X459901Y421966D01*
X459971Y421867D01*
X460042Y421768D01*
X460126Y421642D01*
X460267Y421374D01*
X460408Y421035D01*
X460465Y420866D01*
X460493Y420669D01*
X460521Y420471D01*
X460535Y420260D01*
Y420232D01*
Y420161D01*
X460521Y420048D01*
X460507Y419893D01*
X460479Y419724D01*
X460422Y419527D01*
X460366Y419315D01*
X460281Y419104D01*
X460267Y419076D01*
X460239Y419005D01*
X460182Y418893D01*
X460098Y418737D01*
X459985Y418568D01*
X459844Y418357D01*
X459675Y418145D01*
X459478Y417906D01*
X459450Y417878D01*
X459379Y417793D01*
X459309Y417723D01*
X459238Y417652D01*
X459153Y417567D01*
X459041Y417455D01*
X458928Y417342D01*
X458787Y417215D01*
X458646Y417074D01*
X458477Y416919D01*
X458293Y416764D01*
X458096Y416581D01*
X457871Y416397D01*
X457645Y416200D01*
X457631Y416186D01*
X457603Y416158D01*
X457546Y416115D01*
X457476Y416059D01*
X457391Y415975D01*
X457293Y415890D01*
X457067Y415707D01*
X456827Y415495D01*
X456602Y415284D01*
X456404Y415101D01*
X456320Y415030D01*
X456250Y414959D01*
X456235Y414945D01*
X456193Y414903D01*
X456137Y414847D01*
X456066Y414762D01*
X455996Y414664D01*
X455911Y414565D01*
X455742Y414325D01*
X460549D01*
Y413169D01*
X454078D01*
Y413183D01*
Y413240D01*
Y413324D01*
X454093Y413437D01*
X454107Y413564D01*
X454135Y413705D01*
X454163Y413846D01*
X454220Y414001D01*
Y414015D01*
X454234Y414029D01*
X454262Y414114D01*
X454318Y414240D01*
X454403Y414410D01*
X454515Y414607D01*
X454656Y414833D01*
X454812Y415058D01*
X455009Y415298D01*
Y415312D01*
X455037Y415326D01*
X455108Y415411D01*
X455234Y415537D01*
X455418Y415721D01*
X455629Y415932D01*
X455897Y416186D01*
X456221Y416468D01*
X456574Y416764D01*
X456588Y416778D01*
X456644Y416820D01*
X456729Y416891D01*
X456827Y416975D01*
X456954Y417088D01*
X457109Y417215D01*
X457264Y417356D01*
X457448Y417511D01*
X457800Y417849D01*
X458153Y418188D01*
X458322Y418357D01*
X458477Y418526D01*
X458618Y418681D01*
X458731Y418836D01*
Y418850D01*
X458759Y418864D01*
X458787Y418907D01*
X458815Y418963D01*
X458914Y419118D01*
X459027Y419301D01*
X459125Y419527D01*
X459224Y419767D01*
X459280Y420034D01*
X459309Y420288D01*
Y420302D01*
Y420316D01*
X459294Y420401D01*
X459280Y420542D01*
X459238Y420697D01*
X459182Y420894D01*
X459083Y421092D01*
X458956Y421289D01*
X458787Y421486D01*
X458759Y421515D01*
X458688Y421571D01*
X458590Y421642D01*
X458434Y421740D01*
X458237Y421825D01*
X458012Y421909D01*
X457744Y421966D01*
X457448Y421980D01*
X457363D01*
X457307Y421966D01*
X457138Y421952D01*
X456940Y421909D01*
X456729Y421853D01*
X456489Y421754D01*
X456264Y421627D01*
X456052Y421458D01*
X456024Y421430D01*
X455967Y421359D01*
X455883Y421247D01*
X455798Y421078D01*
X455700Y420880D01*
X455615Y420626D01*
X455559Y420345D01*
X455531Y420020D01*
X454304Y420147D01*
Y420161D01*
X454318Y420204D01*
Y420274D01*
X454332Y420373D01*
X454361Y420485D01*
X454389Y420612D01*
X454431Y420768D01*
X454473Y420923D01*
X454586Y421261D01*
X454755Y421599D01*
X454854Y421768D01*
X454981Y421937D01*
X455108Y422093D01*
X455249Y422234D01*
X455263Y422248D01*
X455291Y422262D01*
X455333Y422304D01*
X455404Y422346D01*
X455488Y422403D01*
X455587Y422459D01*
X455700Y422530D01*
X455841Y422600D01*
X455996Y422671D01*
X456165Y422741D01*
X456348Y422797D01*
X456545Y422854D01*
X456757Y422896D01*
X456982Y422938D01*
X457222Y422952D01*
X457476Y422967D01*
X457617D01*
X457715Y422952D01*
D02*
G37*
G36*
X450131D02*
X450244Y422938D01*
X450385Y422924D01*
X450540Y422896D01*
X450695Y422868D01*
X451062Y422769D01*
X451428Y422628D01*
X451612Y422544D01*
X451795Y422445D01*
X451964Y422318D01*
X452119Y422177D01*
X452133Y422163D01*
X452161Y422149D01*
X452189Y422093D01*
X452246Y422036D01*
X452316Y421966D01*
X452387Y421867D01*
X452457Y421768D01*
X452542Y421642D01*
X452683Y421374D01*
X452824Y421035D01*
X452880Y420866D01*
X452909Y420669D01*
X452937Y420471D01*
X452951Y420260D01*
Y420232D01*
Y420161D01*
X452937Y420048D01*
X452923Y419893D01*
X452894Y419724D01*
X452838Y419527D01*
X452782Y419315D01*
X452697Y419104D01*
X452683Y419076D01*
X452655Y419005D01*
X452598Y418893D01*
X452514Y418737D01*
X452401Y418568D01*
X452260Y418357D01*
X452091Y418145D01*
X451894Y417906D01*
X451865Y417878D01*
X451795Y417793D01*
X451724Y417723D01*
X451654Y417652D01*
X451569Y417567D01*
X451456Y417455D01*
X451344Y417342D01*
X451203Y417215D01*
X451062Y417074D01*
X450893Y416919D01*
X450709Y416764D01*
X450512Y416581D01*
X450286Y416397D01*
X450061Y416200D01*
X450047Y416186D01*
X450019Y416158D01*
X449962Y416115D01*
X449892Y416059D01*
X449807Y415975D01*
X449708Y415890D01*
X449483Y415707D01*
X449243Y415495D01*
X449018Y415284D01*
X448820Y415101D01*
X448736Y415030D01*
X448665Y414959D01*
X448651Y414945D01*
X448609Y414903D01*
X448553Y414847D01*
X448482Y414762D01*
X448411Y414664D01*
X448327Y414565D01*
X448158Y414325D01*
X452965D01*
Y413169D01*
X446494D01*
Y413183D01*
Y413240D01*
Y413324D01*
X446508Y413437D01*
X446522Y413564D01*
X446551Y413705D01*
X446579Y413846D01*
X446635Y414001D01*
Y414015D01*
X446649Y414029D01*
X446678Y414114D01*
X446734Y414240D01*
X446819Y414410D01*
X446931Y414607D01*
X447072Y414833D01*
X447227Y415058D01*
X447425Y415298D01*
Y415312D01*
X447453Y415326D01*
X447523Y415411D01*
X447650Y415537D01*
X447834Y415721D01*
X448045Y415932D01*
X448313Y416186D01*
X448637Y416468D01*
X448989Y416764D01*
X449004Y416778D01*
X449060Y416820D01*
X449145Y416891D01*
X449243Y416975D01*
X449370Y417088D01*
X449525Y417215D01*
X449680Y417356D01*
X449864Y417511D01*
X450216Y417849D01*
X450568Y418188D01*
X450737Y418357D01*
X450893Y418526D01*
X451034Y418681D01*
X451146Y418836D01*
Y418850D01*
X451175Y418864D01*
X451203Y418907D01*
X451231Y418963D01*
X451330Y419118D01*
X451442Y419301D01*
X451541Y419527D01*
X451640Y419767D01*
X451696Y420034D01*
X451724Y420288D01*
Y420302D01*
Y420316D01*
X451710Y420401D01*
X451696Y420542D01*
X451654Y420697D01*
X451597Y420894D01*
X451499Y421092D01*
X451372Y421289D01*
X451203Y421486D01*
X451175Y421515D01*
X451104Y421571D01*
X451005Y421642D01*
X450850Y421740D01*
X450653Y421825D01*
X450427Y421909D01*
X450160Y421966D01*
X449864Y421980D01*
X449779D01*
X449723Y421966D01*
X449553Y421952D01*
X449356Y421909D01*
X449145Y421853D01*
X448905Y421754D01*
X448679Y421627D01*
X448468Y421458D01*
X448440Y421430D01*
X448383Y421359D01*
X448299Y421247D01*
X448214Y421078D01*
X448116Y420880D01*
X448031Y420626D01*
X447975Y420345D01*
X447946Y420020D01*
X446720Y420147D01*
Y420161D01*
X446734Y420204D01*
Y420274D01*
X446748Y420373D01*
X446776Y420485D01*
X446805Y420612D01*
X446847Y420768D01*
X446889Y420923D01*
X447002Y421261D01*
X447171Y421599D01*
X447270Y421768D01*
X447397Y421937D01*
X447523Y422093D01*
X447664Y422234D01*
X447678Y422248D01*
X447707Y422262D01*
X447749Y422304D01*
X447819Y422346D01*
X447904Y422403D01*
X448003Y422459D01*
X448116Y422530D01*
X448256Y422600D01*
X448411Y422671D01*
X448581Y422741D01*
X448764Y422797D01*
X448961Y422854D01*
X449173Y422896D01*
X449398Y422938D01*
X449638Y422952D01*
X449892Y422967D01*
X450033D01*
X450131Y422952D01*
D02*
G37*
G36*
X434963D02*
X435076Y422938D01*
X435217Y422924D01*
X435372Y422896D01*
X435527Y422868D01*
X435893Y422769D01*
X436260Y422628D01*
X436443Y422544D01*
X436626Y422445D01*
X436796Y422318D01*
X436951Y422177D01*
X436965Y422163D01*
X436993Y422149D01*
X437021Y422093D01*
X437077Y422036D01*
X437148Y421966D01*
X437219Y421867D01*
X437289Y421768D01*
X437374Y421642D01*
X437514Y421374D01*
X437655Y421035D01*
X437712Y420866D01*
X437740Y420669D01*
X437768Y420471D01*
X437782Y420260D01*
Y420232D01*
Y420161D01*
X437768Y420048D01*
X437754Y419893D01*
X437726Y419724D01*
X437670Y419527D01*
X437613Y419315D01*
X437529Y419104D01*
X437514Y419076D01*
X437486Y419005D01*
X437430Y418893D01*
X437345Y418737D01*
X437233Y418568D01*
X437092Y418357D01*
X436922Y418145D01*
X436725Y417906D01*
X436697Y417878D01*
X436626Y417793D01*
X436556Y417723D01*
X436485Y417652D01*
X436401Y417567D01*
X436288Y417455D01*
X436175Y417342D01*
X436034Y417215D01*
X435893Y417074D01*
X435724Y416919D01*
X435541Y416764D01*
X435344Y416581D01*
X435118Y416397D01*
X434893Y416200D01*
X434878Y416186D01*
X434850Y416158D01*
X434794Y416115D01*
X434723Y416059D01*
X434639Y415975D01*
X434540Y415890D01*
X434314Y415707D01*
X434075Y415495D01*
X433849Y415284D01*
X433652Y415101D01*
X433567Y415030D01*
X433497Y414959D01*
X433483Y414945D01*
X433441Y414903D01*
X433384Y414847D01*
X433314Y414762D01*
X433243Y414664D01*
X433159Y414565D01*
X432989Y414325D01*
X437797D01*
Y413169D01*
X431326D01*
Y413183D01*
Y413240D01*
Y413324D01*
X431340Y413437D01*
X431354Y413564D01*
X431382Y413705D01*
X431410Y413846D01*
X431467Y414001D01*
Y414015D01*
X431481Y414029D01*
X431509Y414114D01*
X431566Y414240D01*
X431650Y414410D01*
X431763Y414607D01*
X431904Y414833D01*
X432059Y415058D01*
X432256Y415298D01*
Y415312D01*
X432285Y415326D01*
X432355Y415411D01*
X432482Y415537D01*
X432665Y415721D01*
X432877Y415932D01*
X433144Y416186D01*
X433469Y416468D01*
X433821Y416764D01*
X433835Y416778D01*
X433892Y416820D01*
X433976Y416891D01*
X434075Y416975D01*
X434202Y417088D01*
X434357Y417215D01*
X434512Y417356D01*
X434695Y417511D01*
X435048Y417849D01*
X435400Y418188D01*
X435569Y418357D01*
X435724Y418526D01*
X435865Y418681D01*
X435978Y418836D01*
Y418850D01*
X436006Y418864D01*
X436034Y418907D01*
X436063Y418963D01*
X436161Y419118D01*
X436274Y419301D01*
X436373Y419527D01*
X436471Y419767D01*
X436528Y420034D01*
X436556Y420288D01*
Y420302D01*
Y420316D01*
X436542Y420401D01*
X436528Y420542D01*
X436485Y420697D01*
X436429Y420894D01*
X436330Y421092D01*
X436203Y421289D01*
X436034Y421486D01*
X436006Y421515D01*
X435936Y421571D01*
X435837Y421642D01*
X435682Y421740D01*
X435485Y421825D01*
X435259Y421909D01*
X434991Y421966D01*
X434695Y421980D01*
X434611D01*
X434554Y421966D01*
X434385Y421952D01*
X434188Y421909D01*
X433976Y421853D01*
X433736Y421754D01*
X433511Y421627D01*
X433299Y421458D01*
X433271Y421430D01*
X433215Y421359D01*
X433130Y421247D01*
X433046Y421078D01*
X432947Y420880D01*
X432863Y420626D01*
X432806Y420345D01*
X432778Y420020D01*
X431552Y420147D01*
Y420161D01*
X431566Y420204D01*
Y420274D01*
X431580Y420373D01*
X431608Y420485D01*
X431636Y420612D01*
X431678Y420768D01*
X431721Y420923D01*
X431833Y421261D01*
X432003Y421599D01*
X432101Y421768D01*
X432228Y421937D01*
X432355Y422093D01*
X432496Y422234D01*
X432510Y422248D01*
X432538Y422262D01*
X432581Y422304D01*
X432651Y422346D01*
X432736Y422403D01*
X432834Y422459D01*
X432947Y422530D01*
X433088Y422600D01*
X433243Y422671D01*
X433412Y422741D01*
X433596Y422797D01*
X433793Y422854D01*
X434004Y422896D01*
X434230Y422938D01*
X434470Y422952D01*
X434723Y422967D01*
X434864D01*
X434963Y422952D01*
D02*
G37*
G36*
X423587D02*
X423699Y422938D01*
X423840Y422924D01*
X423996Y422896D01*
X424151Y422868D01*
X424517Y422769D01*
X424884Y422628D01*
X425067Y422544D01*
X425250Y422445D01*
X425419Y422318D01*
X425574Y422177D01*
X425588Y422163D01*
X425617Y422149D01*
X425645Y422093D01*
X425701Y422036D01*
X425772Y421966D01*
X425842Y421867D01*
X425913Y421768D01*
X425997Y421642D01*
X426138Y421374D01*
X426279Y421035D01*
X426336Y420866D01*
X426364Y420669D01*
X426392Y420471D01*
X426406Y420260D01*
Y420232D01*
Y420161D01*
X426392Y420048D01*
X426378Y419893D01*
X426350Y419724D01*
X426293Y419527D01*
X426237Y419315D01*
X426152Y419104D01*
X426138Y419076D01*
X426110Y419005D01*
X426054Y418893D01*
X425969Y418737D01*
X425856Y418568D01*
X425715Y418357D01*
X425546Y418145D01*
X425349Y417906D01*
X425321Y417878D01*
X425250Y417793D01*
X425180Y417723D01*
X425109Y417652D01*
X425025Y417567D01*
X424912Y417455D01*
X424799Y417342D01*
X424658Y417215D01*
X424517Y417074D01*
X424348Y416919D01*
X424165Y416764D01*
X423967Y416581D01*
X423742Y416397D01*
X423516Y416200D01*
X423502Y416186D01*
X423474Y416158D01*
X423418Y416115D01*
X423347Y416059D01*
X423262Y415975D01*
X423164Y415890D01*
X422938Y415707D01*
X422699Y415495D01*
X422473Y415284D01*
X422276Y415101D01*
X422191Y415030D01*
X422121Y414959D01*
X422107Y414945D01*
X422064Y414903D01*
X422008Y414847D01*
X421937Y414762D01*
X421867Y414664D01*
X421782Y414565D01*
X421613Y414325D01*
X426420D01*
Y413169D01*
X419950D01*
Y413183D01*
Y413240D01*
Y413324D01*
X419964Y413437D01*
X419978Y413564D01*
X420006Y413705D01*
X420034Y413846D01*
X420091Y414001D01*
Y414015D01*
X420105Y414029D01*
X420133Y414114D01*
X420189Y414240D01*
X420274Y414410D01*
X420387Y414607D01*
X420528Y414833D01*
X420683Y415058D01*
X420880Y415298D01*
Y415312D01*
X420908Y415326D01*
X420979Y415411D01*
X421106Y415537D01*
X421289Y415721D01*
X421500Y415932D01*
X421768Y416186D01*
X422092Y416468D01*
X422445Y416764D01*
X422459Y416778D01*
X422515Y416820D01*
X422600Y416891D01*
X422699Y416975D01*
X422826Y417088D01*
X422980Y417215D01*
X423136Y417356D01*
X423319Y417511D01*
X423671Y417849D01*
X424024Y418188D01*
X424193Y418357D01*
X424348Y418526D01*
X424489Y418681D01*
X424602Y418836D01*
Y418850D01*
X424630Y418864D01*
X424658Y418907D01*
X424686Y418963D01*
X424785Y419118D01*
X424898Y419301D01*
X424996Y419527D01*
X425095Y419767D01*
X425151Y420034D01*
X425180Y420288D01*
Y420302D01*
Y420316D01*
X425166Y420401D01*
X425151Y420542D01*
X425109Y420697D01*
X425053Y420894D01*
X424954Y421092D01*
X424827Y421289D01*
X424658Y421486D01*
X424630Y421515D01*
X424559Y421571D01*
X424461Y421642D01*
X424306Y421740D01*
X424108Y421825D01*
X423883Y421909D01*
X423615Y421966D01*
X423319Y421980D01*
X423234D01*
X423178Y421966D01*
X423009Y421952D01*
X422811Y421909D01*
X422600Y421853D01*
X422360Y421754D01*
X422135Y421627D01*
X421923Y421458D01*
X421895Y421430D01*
X421839Y421359D01*
X421754Y421247D01*
X421670Y421078D01*
X421571Y420880D01*
X421486Y420626D01*
X421430Y420345D01*
X421402Y420020D01*
X420175Y420147D01*
Y420161D01*
X420189Y420204D01*
Y420274D01*
X420203Y420373D01*
X420232Y420485D01*
X420260Y420612D01*
X420302Y420768D01*
X420344Y420923D01*
X420457Y421261D01*
X420626Y421599D01*
X420725Y421768D01*
X420852Y421937D01*
X420979Y422093D01*
X421120Y422234D01*
X421134Y422248D01*
X421162Y422262D01*
X421204Y422304D01*
X421275Y422346D01*
X421359Y422403D01*
X421458Y422459D01*
X421571Y422530D01*
X421712Y422600D01*
X421867Y422671D01*
X422036Y422741D01*
X422219Y422797D01*
X422417Y422854D01*
X422628Y422896D01*
X422854Y422938D01*
X423093Y422952D01*
X423347Y422967D01*
X423488D01*
X423587Y422952D01*
D02*
G37*
G36*
X417046Y413169D02*
X415848D01*
Y420796D01*
X415833Y420782D01*
X415763Y420725D01*
X415678Y420641D01*
X415537Y420542D01*
X415382Y420415D01*
X415185Y420274D01*
X414959Y420119D01*
X414706Y419964D01*
X414692D01*
X414677Y419950D01*
X414593Y419893D01*
X414452Y419823D01*
X414283Y419738D01*
X414085Y419640D01*
X413874Y419541D01*
X413662Y419442D01*
X413451Y419358D01*
Y420514D01*
X413465D01*
X413493Y420542D01*
X413550Y420556D01*
X413620Y420598D01*
X413705Y420641D01*
X413803Y420697D01*
X414043Y420838D01*
X414325Y420993D01*
X414607Y421190D01*
X414903Y421416D01*
X415199Y421656D01*
X415213Y421670D01*
X415227Y421684D01*
X415270Y421726D01*
X415326Y421768D01*
X415453Y421909D01*
X415622Y422079D01*
X415791Y422276D01*
X415974Y422501D01*
X416129Y422727D01*
X416270Y422967D01*
X417046D01*
Y413169D01*
D02*
G37*
G36*
X442547Y422952D02*
X442730Y422924D01*
X442942Y422882D01*
X443167Y422826D01*
X443407Y422755D01*
X443633Y422642D01*
X443647D01*
X443661Y422628D01*
X443731Y422586D01*
X443844Y422515D01*
X443985Y422417D01*
X444140Y422276D01*
X444309Y422121D01*
X444464Y421937D01*
X444619Y421726D01*
X444633Y421698D01*
X444690Y421627D01*
X444746Y421501D01*
X444845Y421317D01*
X444930Y421106D01*
X445042Y420866D01*
X445141Y420584D01*
X445226Y420274D01*
Y420260D01*
X445240Y420232D01*
X445254Y420190D01*
X445268Y420119D01*
X445282Y420034D01*
X445296Y419936D01*
X445324Y419809D01*
X445338Y419668D01*
X445367Y419513D01*
X445381Y419344D01*
X445395Y419146D01*
X445423Y418949D01*
X445437Y418723D01*
Y418498D01*
X445451Y418244D01*
Y417976D01*
Y417962D01*
Y417906D01*
Y417807D01*
Y417694D01*
X445437Y417539D01*
Y417370D01*
X445423Y417187D01*
X445409Y416990D01*
X445367Y416538D01*
X445296Y416073D01*
X445211Y415622D01*
X445155Y415411D01*
X445085Y415199D01*
Y415185D01*
X445070Y415157D01*
X445042Y415101D01*
X445014Y415030D01*
X444986Y414931D01*
X444930Y414833D01*
X444817Y414593D01*
X444676Y414339D01*
X444493Y414057D01*
X444281Y413803D01*
X444027Y413564D01*
X444013D01*
X443999Y413536D01*
X443957Y413507D01*
X443900Y413479D01*
X443830Y413437D01*
X443759Y413381D01*
X443548Y413282D01*
X443294Y413183D01*
X442998Y413085D01*
X442646Y413028D01*
X442265Y413000D01*
X442124D01*
X442026Y413014D01*
X441913Y413028D01*
X441772Y413056D01*
X441617Y413085D01*
X441448Y413127D01*
X441278Y413183D01*
X441095Y413240D01*
X440912Y413324D01*
X440729Y413423D01*
X440545Y413536D01*
X440362Y413677D01*
X440193Y413832D01*
X440038Y414001D01*
X440024Y414015D01*
X439996Y414057D01*
X439953Y414128D01*
X439883Y414240D01*
X439812Y414367D01*
X439742Y414537D01*
X439643Y414734D01*
X439559Y414959D01*
X439474Y415213D01*
X439389Y415509D01*
X439305Y415834D01*
X439234Y416200D01*
X439164Y416595D01*
X439122Y417018D01*
X439093Y417483D01*
X439079Y417976D01*
Y417990D01*
Y418047D01*
Y418145D01*
Y418258D01*
X439093Y418413D01*
Y418582D01*
X439108Y418766D01*
X439122Y418977D01*
X439164Y419414D01*
X439234Y419879D01*
X439319Y420345D01*
X439375Y420556D01*
X439432Y420768D01*
Y420782D01*
X439446Y420810D01*
X439474Y420866D01*
X439502Y420937D01*
X439530Y421035D01*
X439587Y421134D01*
X439700Y421374D01*
X439841Y421627D01*
X440024Y421895D01*
X440235Y422163D01*
X440489Y422389D01*
X440503D01*
X440517Y422417D01*
X440560Y422445D01*
X440616Y422473D01*
X440686Y422530D01*
X440771Y422572D01*
X440982Y422685D01*
X441236Y422783D01*
X441532Y422882D01*
X441885Y422938D01*
X442265Y422967D01*
X442392D01*
X442547Y422952D01*
D02*
G37*
G36*
X428098Y413000D02*
X427139D01*
X429973Y423093D01*
X430931D01*
X428098Y413000D01*
D02*
G37*
%LPC*%
G36*
X413070Y448775D02*
X413000D01*
X412943Y448761D01*
X412803Y448733D01*
X412619Y448691D01*
X412408Y448606D01*
X412182Y448479D01*
X412055Y448395D01*
X411943Y448296D01*
X411830Y448183D01*
X411717Y448056D01*
Y448042D01*
X411689Y448028D01*
X411661Y447986D01*
X411632Y447930D01*
X411590Y447845D01*
X411534Y447760D01*
X411477Y447648D01*
X411435Y447535D01*
X411379Y447394D01*
X411322Y447239D01*
X411280Y447070D01*
X411224Y446886D01*
X411195Y446675D01*
X411167Y446464D01*
X411139Y446238D01*
Y445984D01*
Y445970D01*
Y445928D01*
Y445857D01*
X411153Y445759D01*
Y445646D01*
X411167Y445519D01*
X411209Y445223D01*
X411280Y444885D01*
X411365Y444560D01*
X411506Y444236D01*
X411590Y444095D01*
X411689Y443968D01*
X411717Y443940D01*
X411787Y443870D01*
X411900Y443757D01*
X412055Y443644D01*
X412253Y443531D01*
X412478Y443419D01*
X412732Y443348D01*
X412873Y443334D01*
X413014Y443320D01*
X413098D01*
X413155Y443334D01*
X413296Y443362D01*
X413493Y443404D01*
X413705Y443489D01*
X413930Y443602D01*
X414156Y443771D01*
X414269Y443870D01*
X414381Y443982D01*
Y443997D01*
X414410Y444011D01*
X414438Y444053D01*
X414466Y444109D01*
X414522Y444180D01*
X414565Y444278D01*
X414621Y444377D01*
X414677Y444504D01*
X414720Y444631D01*
X414776Y444800D01*
X414832Y444969D01*
X414875Y445152D01*
X414903Y445364D01*
X414931Y445589D01*
X414959Y445829D01*
Y446083D01*
Y446097D01*
Y446139D01*
Y446210D01*
X414945Y446308D01*
Y446421D01*
X414931Y446548D01*
X414889Y446844D01*
X414818Y447168D01*
X414720Y447493D01*
X414579Y447817D01*
X414494Y447972D01*
X414395Y448099D01*
Y448113D01*
X414367Y448127D01*
X414297Y448212D01*
X414184Y448310D01*
X414029Y448437D01*
X413832Y448564D01*
X413606Y448677D01*
X413352Y448747D01*
X413211Y448761D01*
X413070Y448775D01*
D02*
G37*
G36*
X460070Y451158D02*
X456997D01*
Y447930D01*
X459901D01*
X460070Y447944D01*
X460267Y447958D01*
X460493Y447972D01*
X460718Y448000D01*
X460944Y448042D01*
X461141Y448099D01*
X461169Y448113D01*
X461226Y448141D01*
X461310Y448183D01*
X461423Y448240D01*
X461550Y448324D01*
X461677Y448423D01*
X461804Y448550D01*
X461902Y448691D01*
X461916Y448705D01*
X461945Y448761D01*
X461987Y448846D01*
X462043Y448959D01*
X462086Y449086D01*
X462128Y449226D01*
X462156Y449396D01*
X462170Y449565D01*
Y449579D01*
Y449593D01*
X462156Y449678D01*
X462142Y449804D01*
X462114Y449974D01*
X462043Y450143D01*
X461959Y450340D01*
X461832Y450523D01*
X461663Y450707D01*
X461634Y450721D01*
X461564Y450777D01*
X461451Y450848D01*
X461268Y450932D01*
X461057Y451017D01*
X460775Y451087D01*
X460450Y451144D01*
X460070Y451158D01*
D02*
G37*
G36*
X435809Y446041D02*
X435795D01*
X435781Y446026D01*
X435738Y446012D01*
X435682Y445998D01*
X435611Y445970D01*
X435527Y445942D01*
X435428Y445914D01*
X435315Y445886D01*
X435188Y445843D01*
X435033Y445815D01*
X434878Y445773D01*
X434695Y445730D01*
X434498Y445688D01*
X434300Y445646D01*
X434075Y445618D01*
X433835Y445575D01*
X433807D01*
X433722Y445561D01*
X433582Y445533D01*
X433426Y445505D01*
X433257Y445477D01*
X433088Y445434D01*
X432933Y445392D01*
X432792Y445336D01*
X432778D01*
X432736Y445308D01*
X432679Y445279D01*
X432623Y445237D01*
X432454Y445124D01*
X432313Y444955D01*
Y444941D01*
X432285Y444913D01*
X432271Y444856D01*
X432242Y444786D01*
X432214Y444701D01*
X432186Y444617D01*
X432172Y444504D01*
X432158Y444391D01*
Y444377D01*
Y444307D01*
X432172Y444222D01*
X432200Y444109D01*
X432242Y443982D01*
X432313Y443856D01*
X432397Y443715D01*
X432510Y443588D01*
X432524Y443574D01*
X432581Y443545D01*
X432665Y443489D01*
X432778Y443433D01*
X432933Y443376D01*
X433116Y443320D01*
X433328Y443292D01*
X433582Y443278D01*
X433694D01*
X433835Y443292D01*
X433990Y443320D01*
X434188Y443348D01*
X434385Y443404D01*
X434596Y443475D01*
X434808Y443574D01*
X434836Y443588D01*
X434893Y443630D01*
X434991Y443700D01*
X435104Y443799D01*
X435231Y443912D01*
X435372Y444053D01*
X435485Y444222D01*
X435597Y444405D01*
X435611Y444419D01*
X435625Y444476D01*
X435654Y444575D01*
X435696Y444701D01*
X435738Y444870D01*
X435766Y445068D01*
X435781Y445308D01*
X435795Y445589D01*
X435809Y446041D01*
D02*
G37*
G36*
X403879Y451299D02*
X403752D01*
X403653Y451285D01*
X403527Y451270D01*
X403400Y451242D01*
X403245Y451214D01*
X403076Y451186D01*
X402709Y451073D01*
X402512Y450989D01*
X402314Y450904D01*
X402103Y450791D01*
X401906Y450664D01*
X401708Y450523D01*
X401525Y450354D01*
X401511Y450340D01*
X401483Y450312D01*
X401440Y450256D01*
X401370Y450171D01*
X401299Y450072D01*
X401215Y449945D01*
X401130Y449790D01*
X401031Y449607D01*
X400947Y449410D01*
X400848Y449170D01*
X400764Y448916D01*
X400693Y448634D01*
X400623Y448324D01*
X400580Y447972D01*
X400552Y447605D01*
X400538Y447211D01*
Y447197D01*
Y447140D01*
Y447041D01*
X400552Y446915D01*
X400566Y446774D01*
X400594Y446604D01*
X400623Y446407D01*
X400651Y446210D01*
X400764Y445759D01*
X400848Y445533D01*
X400933Y445293D01*
X401046Y445068D01*
X401172Y444842D01*
X401313Y444631D01*
X401483Y444434D01*
X401497Y444419D01*
X401525Y444391D01*
X401581Y444335D01*
X401652Y444278D01*
X401750Y444194D01*
X401863Y444109D01*
X401990Y444025D01*
X402131Y443926D01*
X402300Y443827D01*
X402483Y443743D01*
X402681Y443658D01*
X402892Y443574D01*
X403118Y443517D01*
X403343Y443461D01*
X403597Y443433D01*
X403865Y443419D01*
X403936D01*
X404006Y443433D01*
X404105D01*
X404231Y443447D01*
X404372Y443475D01*
X404542Y443503D01*
X404711Y443545D01*
X404908Y443602D01*
X405091Y443672D01*
X405303Y443743D01*
X405500Y443841D01*
X405698Y443968D01*
X405895Y444095D01*
X406092Y444250D01*
X406276Y444434D01*
X406290Y444448D01*
X406318Y444476D01*
X406360Y444546D01*
X406431Y444631D01*
X406501Y444729D01*
X406572Y444856D01*
X406656Y445011D01*
X406755Y445181D01*
X406839Y445378D01*
X406924Y445604D01*
X406995Y445843D01*
X407079Y446097D01*
X407136Y446379D01*
X407178Y446689D01*
X407206Y447013D01*
X407220Y447352D01*
Y447366D01*
Y447408D01*
Y447464D01*
Y447549D01*
X407206Y447648D01*
Y447775D01*
X407192Y447901D01*
X407164Y448056D01*
X407121Y448381D01*
X407051Y448719D01*
X406952Y449086D01*
X406811Y449424D01*
Y449438D01*
X406797Y449466D01*
X406769Y449508D01*
X406741Y449565D01*
X406642Y449734D01*
X406515Y449931D01*
X406346Y450157D01*
X406135Y450382D01*
X405895Y450608D01*
X405627Y450805D01*
X405613D01*
X405599Y450834D01*
X405557Y450848D01*
X405486Y450890D01*
X405416Y450918D01*
X405331Y450960D01*
X405120Y451059D01*
X404866Y451144D01*
X404570Y451228D01*
X404231Y451285D01*
X403879Y451299D01*
D02*
G37*
G36*
X455213Y431459D02*
X455199D01*
X455185Y431445D01*
X455143Y431430D01*
X455086Y431416D01*
X455016Y431388D01*
X454931Y431360D01*
X454833Y431332D01*
X454720Y431304D01*
X454593Y431261D01*
X454438Y431233D01*
X454283Y431191D01*
X454100Y431148D01*
X453902Y431106D01*
X453705Y431064D01*
X453479Y431036D01*
X453240Y430993D01*
X453212D01*
X453127Y430979D01*
X452986Y430951D01*
X452831Y430923D01*
X452662Y430895D01*
X452493Y430853D01*
X452337Y430810D01*
X452197Y430754D01*
X452183D01*
X452140Y430726D01*
X452084Y430697D01*
X452027Y430655D01*
X451858Y430542D01*
X451717Y430373D01*
Y430359D01*
X451689Y430331D01*
X451675Y430275D01*
X451647Y430204D01*
X451619Y430119D01*
X451590Y430035D01*
X451576Y429922D01*
X451562Y429809D01*
Y429795D01*
Y429725D01*
X451576Y429640D01*
X451604Y429527D01*
X451647Y429400D01*
X451717Y429274D01*
X451802Y429133D01*
X451915Y429006D01*
X451929Y428992D01*
X451985Y428964D01*
X452070Y428907D01*
X452183Y428851D01*
X452337Y428794D01*
X452521Y428738D01*
X452732Y428710D01*
X452986Y428696D01*
X453099D01*
X453240Y428710D01*
X453395Y428738D01*
X453592Y428766D01*
X453789Y428823D01*
X454001Y428893D01*
X454212Y428992D01*
X454241Y429006D01*
X454297Y429048D01*
X454396Y429118D01*
X454509Y429217D01*
X454635Y429330D01*
X454776Y429471D01*
X454889Y429640D01*
X455002Y429823D01*
X455016Y429837D01*
X455030Y429894D01*
X455058Y429992D01*
X455101Y430119D01*
X455143Y430289D01*
X455171Y430486D01*
X455185Y430726D01*
X455199Y431007D01*
X455213Y431459D01*
D02*
G37*
G36*
X413472Y436505D02*
X411160D01*
Y433573D01*
X413557D01*
X413740Y433587D01*
X413937Y433601D01*
X414135Y433615D01*
X414332Y433644D01*
X414487Y433672D01*
X414515Y433686D01*
X414572Y433700D01*
X414656Y433742D01*
X414769Y433799D01*
X414882Y433855D01*
X415009Y433940D01*
X415135Y434053D01*
X415234Y434165D01*
X415248Y434179D01*
X415276Y434222D01*
X415319Y434306D01*
X415361Y434405D01*
X415403Y434518D01*
X415446Y434659D01*
X415474Y434828D01*
X415488Y435011D01*
Y435039D01*
Y435096D01*
X415474Y435180D01*
X415460Y435293D01*
X415432Y435434D01*
X415389Y435575D01*
X415333Y435716D01*
X415248Y435857D01*
X415234Y435871D01*
X415206Y435913D01*
X415150Y435984D01*
X415079Y436054D01*
X414981Y436139D01*
X414868Y436223D01*
X414727Y436308D01*
X414572Y436364D01*
X414558D01*
X414487Y436393D01*
X414388Y436407D01*
X414233Y436435D01*
X414022Y436463D01*
X413782Y436477D01*
X413472Y436505D01*
D02*
G37*
G36*
X413726Y432417D02*
X411160D01*
Y429062D01*
X413937D01*
X414233Y429076D01*
X414360Y429090D01*
X414473Y429104D01*
X414487D01*
X414543Y429118D01*
X414628Y429133D01*
X414727Y429161D01*
X414966Y429245D01*
X415206Y429358D01*
X415220Y429372D01*
X415262Y429400D01*
X415319Y429443D01*
X415389Y429499D01*
X415460Y429584D01*
X415559Y429668D01*
X415629Y429781D01*
X415714Y429908D01*
X415728Y429922D01*
X415742Y429964D01*
X415770Y430049D01*
X415812Y430148D01*
X415854Y430260D01*
X415883Y430401D01*
X415897Y430570D01*
X415911Y430740D01*
Y430768D01*
Y430824D01*
X415897Y430937D01*
X415869Y431064D01*
X415840Y431205D01*
X415784Y431360D01*
X415714Y431515D01*
X415615Y431670D01*
X415601Y431684D01*
X415559Y431741D01*
X415502Y431811D01*
X415418Y431896D01*
X415305Y431994D01*
X415164Y432093D01*
X415009Y432178D01*
X414825Y432248D01*
X414797Y432262D01*
X414741Y432276D01*
X414614Y432304D01*
X414459Y432333D01*
X414262Y432361D01*
X414022Y432389D01*
X413726Y432417D01*
D02*
G37*
G36*
X443203Y434151D02*
X442991D01*
X442935Y434137D01*
X442780Y434109D01*
X442597Y434067D01*
X442385Y433982D01*
X442160Y433855D01*
X442047Y433785D01*
X441934Y433686D01*
X441821Y433587D01*
X441708Y433460D01*
Y433446D01*
X441680Y433432D01*
X441652Y433390D01*
X441624Y433334D01*
X441581Y433263D01*
X441525Y433178D01*
X441483Y433080D01*
X441426Y432967D01*
X441370Y432826D01*
X441328Y432685D01*
X441271Y432516D01*
X441229Y432347D01*
X441201Y432149D01*
X441173Y431938D01*
X441144Y431726D01*
Y431487D01*
Y431473D01*
Y431430D01*
Y431360D01*
Y431275D01*
X441159Y431177D01*
Y431050D01*
X441187Y430782D01*
X441229Y430486D01*
X441286Y430176D01*
X441370Y429894D01*
X441426Y429767D01*
X441483Y429654D01*
Y429640D01*
X441511Y429612D01*
X441539Y429570D01*
X441581Y429513D01*
X441708Y429358D01*
X441892Y429203D01*
X442103Y429034D01*
X442371Y428879D01*
X442512Y428823D01*
X442681Y428780D01*
X442836Y428752D01*
X443019Y428738D01*
X443090D01*
X443146Y428752D01*
X443301Y428780D01*
X443485Y428823D01*
X443696Y428907D01*
X443922Y429020D01*
X444147Y429189D01*
X444260Y429302D01*
X444373Y429415D01*
Y429429D01*
X444401Y429443D01*
X444429Y429485D01*
X444457Y429541D01*
X444514Y429612D01*
X444556Y429697D01*
X444612Y429809D01*
X444669Y429922D01*
X444711Y430063D01*
X444767Y430204D01*
X444824Y430373D01*
X444866Y430556D01*
X444894Y430754D01*
X444922Y430965D01*
X444951Y431205D01*
Y431445D01*
Y431459D01*
Y431501D01*
Y431571D01*
X444937Y431670D01*
Y431783D01*
X444922Y431924D01*
X444880Y432220D01*
X444824Y432544D01*
X444725Y432896D01*
X444584Y433207D01*
X444500Y433362D01*
X444401Y433489D01*
Y433503D01*
X444373Y433517D01*
X444302Y433587D01*
X444189Y433700D01*
X444034Y433827D01*
X443837Y433940D01*
X443611Y434053D01*
X443344Y434123D01*
X443203Y434151D01*
D02*
G37*
G36*
X433899Y436717D02*
X433772D01*
X433673Y436703D01*
X433546Y436689D01*
X433419Y436660D01*
X433264Y436632D01*
X433095Y436604D01*
X432729Y436491D01*
X432531Y436407D01*
X432334Y436322D01*
X432122Y436209D01*
X431925Y436082D01*
X431728Y435942D01*
X431544Y435772D01*
X431530Y435758D01*
X431502Y435730D01*
X431460Y435674D01*
X431389Y435589D01*
X431319Y435490D01*
X431234Y435364D01*
X431150Y435208D01*
X431051Y435025D01*
X430966Y434828D01*
X430868Y434588D01*
X430783Y434334D01*
X430713Y434053D01*
X430642Y433742D01*
X430600Y433390D01*
X430572Y433023D01*
X430558Y432629D01*
Y432615D01*
Y432558D01*
Y432459D01*
X430572Y432333D01*
X430586Y432192D01*
X430614Y432023D01*
X430642Y431825D01*
X430670Y431628D01*
X430783Y431177D01*
X430868Y430951D01*
X430952Y430712D01*
X431065Y430486D01*
X431192Y430260D01*
X431333Y430049D01*
X431502Y429852D01*
X431516Y429837D01*
X431544Y429809D01*
X431601Y429753D01*
X431671Y429697D01*
X431770Y429612D01*
X431883Y429527D01*
X432010Y429443D01*
X432151Y429344D01*
X432320Y429245D01*
X432503Y429161D01*
X432700Y429076D01*
X432912Y428992D01*
X433137Y428935D01*
X433363Y428879D01*
X433617Y428851D01*
X433885Y428837D01*
X433955D01*
X434025Y428851D01*
X434124D01*
X434251Y428865D01*
X434392Y428893D01*
X434561Y428921D01*
X434730Y428964D01*
X434928Y429020D01*
X435111Y429090D01*
X435322Y429161D01*
X435520Y429259D01*
X435717Y429386D01*
X435914Y429513D01*
X436112Y429668D01*
X436295Y429852D01*
X436309Y429866D01*
X436337Y429894D01*
X436380Y429964D01*
X436450Y430049D01*
X436521Y430148D01*
X436591Y430275D01*
X436676Y430429D01*
X436774Y430599D01*
X436859Y430796D01*
X436944Y431022D01*
X437014Y431261D01*
X437099Y431515D01*
X437155Y431797D01*
X437197Y432107D01*
X437225Y432431D01*
X437240Y432770D01*
Y432784D01*
Y432826D01*
Y432882D01*
Y432967D01*
X437225Y433066D01*
Y433193D01*
X437211Y433319D01*
X437183Y433475D01*
X437141Y433799D01*
X437071Y434137D01*
X436972Y434504D01*
X436831Y434842D01*
Y434856D01*
X436817Y434884D01*
X436788Y434926D01*
X436760Y434983D01*
X436662Y435152D01*
X436535Y435349D01*
X436366Y435575D01*
X436154Y435801D01*
X435914Y436026D01*
X435647Y436223D01*
X435633D01*
X435619Y436252D01*
X435576Y436266D01*
X435506Y436308D01*
X435435Y436336D01*
X435351Y436379D01*
X435139Y436477D01*
X434885Y436562D01*
X434589Y436646D01*
X434251Y436703D01*
X433899Y436717D01*
D02*
G37*
G36*
X442251Y421980D02*
X442167D01*
X442110Y421966D01*
X441955Y421937D01*
X441772Y421895D01*
X441560Y421811D01*
X441335Y421684D01*
X441222Y421599D01*
X441109Y421515D01*
X441011Y421402D01*
X440912Y421275D01*
Y421261D01*
X440884Y421233D01*
X440855Y421176D01*
X440813Y421106D01*
X440771Y420993D01*
X440715Y420866D01*
X440672Y420711D01*
X440616Y420528D01*
X440560Y420316D01*
X440503Y420077D01*
X440447Y419809D01*
X440404Y419513D01*
X440362Y419174D01*
X440334Y418808D01*
X440320Y418413D01*
X440306Y417976D01*
Y417948D01*
Y417878D01*
Y417751D01*
X440320Y417581D01*
Y417398D01*
X440334Y417173D01*
X440348Y416933D01*
X440376Y416679D01*
X440447Y416129D01*
X440489Y415862D01*
X440545Y415608D01*
X440602Y415368D01*
X440686Y415143D01*
X440771Y414945D01*
X440870Y414776D01*
Y414762D01*
X440898Y414748D01*
X440968Y414649D01*
X441095Y414523D01*
X441250Y414381D01*
X441462Y414240D01*
X441701Y414114D01*
X441969Y414015D01*
X442110Y414001D01*
X442265Y413987D01*
X442350D01*
X442406Y414001D01*
X442547Y414029D01*
X442744Y414086D01*
X442956Y414184D01*
X443196Y414325D01*
X443308Y414410D01*
X443421Y414523D01*
X443534Y414635D01*
X443647Y414776D01*
Y414790D01*
X443675Y414818D01*
X443703Y414861D01*
X443731Y414931D01*
X443788Y415030D01*
X443830Y415157D01*
X443886Y415298D01*
X443943Y415467D01*
X443985Y415678D01*
X444041Y415904D01*
X444098Y416172D01*
X444140Y416454D01*
X444168Y416792D01*
X444197Y417145D01*
X444225Y417539D01*
Y417976D01*
Y417990D01*
Y418004D01*
Y418075D01*
Y418202D01*
X444211Y418371D01*
Y418554D01*
X444197Y418780D01*
X444182Y419019D01*
X444154Y419287D01*
X444084Y419823D01*
X444041Y420091D01*
X443985Y420345D01*
X443929Y420584D01*
X443844Y420810D01*
X443759Y421007D01*
X443661Y421176D01*
Y421190D01*
X443633Y421204D01*
X443604Y421247D01*
X443562Y421303D01*
X443435Y421430D01*
X443280Y421585D01*
X443069Y421726D01*
X442829Y421853D01*
X442702Y421909D01*
X442561Y421952D01*
X442406Y421966D01*
X442251Y421980D01*
D02*
G37*
%LPD*%
G36*
X320000Y415000D02*
X332500Y402500D01*
Y392611D01*
X331730Y391988D01*
X330552Y392501D01*
Y393731D01*
X325513D01*
Y395000D01*
X324243D01*
Y400040D01*
X320472D01*
Y400041D01*
X320300Y399793D01*
X316280D01*
Y394503D01*
X313740D01*
Y399793D01*
X309720D01*
Y397778D01*
X308547Y397542D01*
Y397542D01*
X303277D01*
Y391003D01*
X302008D01*
Y389733D01*
X295467D01*
Y385000D01*
X293545D01*
Y389733D01*
X287005D01*
X280465D01*
Y385000D01*
X265000D01*
X248500D01*
Y381003D01*
X248497Y381000D01*
X238364D01*
X237578Y382520D01*
X235809Y385000D01*
X208192D01*
X206423Y382522D01*
X205637Y381002D01*
X205636Y381003D01*
X195500D01*
Y385000D01*
X188000D01*
X188000Y415000D01*
X320000Y415000D01*
D02*
G37*
G36*
X205636Y366005D02*
X206422Y364485D01*
X208407Y361703D01*
X210883Y359346D01*
X213759Y357500D01*
X216933Y356230D01*
X220290Y355584D01*
X223708Y355584D01*
X227065Y356230D01*
X230239Y357499D01*
X233116Y359345D01*
X235592Y361701D01*
X237577Y364483D01*
X238363Y366003D01*
X238364Y366003D01*
X248500D01*
Y346003D01*
X195500D01*
Y366003D01*
X195503Y366005D01*
X205636D01*
X205636Y366005D01*
D02*
G37*
G36*
X225441Y342290D02*
X225441D01*
Y338270D01*
X230731D01*
Y337000D01*
X232001D01*
Y331710D01*
X239557D01*
X242303Y328963D01*
X241730Y327741D01*
X239720Y326908D01*
X238931Y326119D01*
X215495D01*
X199375Y342239D01*
X199861Y343413D01*
X225086D01*
X225441Y342290D01*
D02*
G37*
%LPC*%
G36*
X251040Y403543D02*
X223270D01*
Y401003D01*
X248500D01*
Y397772D01*
X251040D01*
Y403543D01*
D02*
G37*
G36*
X220730D02*
X192960D01*
Y397772D01*
X195500D01*
Y401003D01*
X220730D01*
Y403543D01*
D02*
G37*
G36*
X278542Y402043D02*
X270772D01*
Y396273D01*
X278542D01*
Y402043D01*
D02*
G37*
G36*
X268232D02*
X260462D01*
Y396273D01*
X268232D01*
Y402043D01*
D02*
G37*
G36*
X330552Y400040D02*
X326782D01*
Y396270D01*
X330552D01*
Y400040D01*
D02*
G37*
G36*
X293545Y397542D02*
X288275D01*
Y392272D01*
X293545D01*
Y397542D01*
D02*
G37*
G36*
X300737D02*
X295467D01*
Y392272D01*
X300737D01*
Y397542D01*
D02*
G37*
G36*
X285735D02*
X280465D01*
Y392272D01*
X285735D01*
Y397542D01*
D02*
G37*
G36*
X251040Y395233D02*
X248500D01*
Y389463D01*
X251040D01*
Y395233D01*
D02*
G37*
G36*
X223270Y391421D02*
Y389463D01*
X230307D01*
X230240Y389506D01*
X227067Y390775D01*
X223710Y391421D01*
X223270Y391421D01*
D02*
G37*
G36*
X220292Y391421D02*
X216935Y390775D01*
X213761Y389506D01*
X213693Y389463D01*
X220730D01*
Y391421D01*
X220292Y391421D01*
D02*
G37*
G36*
X195500Y395233D02*
X192960D01*
Y389463D01*
X195500D01*
Y395233D01*
D02*
G37*
G36*
X278542Y393732D02*
X270772D01*
Y387962D01*
X278542D01*
Y393732D01*
D02*
G37*
G36*
X268232D02*
X260462D01*
Y387962D01*
X268232D01*
Y393732D01*
D02*
G37*
G36*
X229461Y335730D02*
X225441D01*
Y331710D01*
X229461D01*
Y335730D01*
D02*
G37*
%LPD*%
G36*
X413696Y266135D02*
X414436Y264970D01*
X414210Y264425D01*
Y262121D01*
X415092Y259993D01*
X416720Y258365D01*
X418848Y257483D01*
X421152D01*
X423280Y258365D01*
X423559Y258643D01*
X423892D01*
X425960Y256575D01*
Y254217D01*
X424690Y253691D01*
X424280Y254102D01*
X422152Y254983D01*
X419848D01*
X417720Y254102D01*
X416091Y252473D01*
X415210Y250345D01*
Y248041D01*
X416091Y245913D01*
X417720Y244284D01*
X419848Y243403D01*
X422152D01*
X423058Y243778D01*
X423775Y243636D01*
X424970D01*
X425960Y242960D01*
Y242379D01*
X425141Y241110D01*
X424718D01*
X423337Y240835D01*
X422842Y240504D01*
X422152Y240790D01*
X419848D01*
X417720Y239909D01*
X416091Y238280D01*
X415210Y236152D01*
Y233848D01*
X416091Y231720D01*
X417720Y230091D01*
X419848Y229210D01*
X422152D01*
X424280Y230091D01*
X424690Y230502D01*
X425960Y229976D01*
Y223310D01*
X425960Y222960D01*
X425960D01*
Y222040D01*
X425960D01*
Y216110D01*
X418209D01*
X415776Y218542D01*
X414605Y219324D01*
X413224Y219599D01*
X404540D01*
Y222530D01*
X391460D01*
Y219456D01*
X391271Y218264D01*
X386119D01*
Y219000D01*
X385806Y220576D01*
X384913Y221913D01*
X381913Y224913D01*
X381911Y224914D01*
X382296Y226184D01*
X391271Y226184D01*
X391460Y224992D01*
Y224450D01*
X396730D01*
Y230990D01*
Y237530D01*
X392448Y237530D01*
X391767Y238800D01*
X392200Y239452D01*
X392540D01*
Y243347D01*
X394968Y245775D01*
X396827Y246544D01*
X398456Y248173D01*
X399337Y250301D01*
Y252605D01*
X399236Y252849D01*
X399550Y253437D01*
X400887Y254330D01*
X412756Y266199D01*
X413696Y266135D01*
D02*
G37*
G36*
X453960Y197993D02*
Y197040D01*
X453960Y196690D01*
Y187960D01*
Y183770D01*
X464000D01*
Y182500D01*
X465270D01*
Y175960D01*
X473121D01*
X474040Y175960D01*
X474391Y174835D01*
Y155495D01*
X471505Y152609D01*
X432495D01*
X396452Y188652D01*
X395281Y189435D01*
X393900Y189709D01*
X374543D01*
Y194468D01*
X375117Y194706D01*
X375812Y194873D01*
X376871Y194165D01*
X378252Y193891D01*
X425960D01*
Y192960D01*
X446040D01*
Y198891D01*
X453062D01*
X453960Y197993D01*
D02*
G37*
%LPC*%
G36*
X399270Y237530D02*
Y232260D01*
X404540D01*
Y237530D01*
X399270D01*
D02*
G37*
G36*
X404540Y229720D02*
X399270D01*
Y224450D01*
X404540D01*
Y229720D01*
D02*
G37*
G36*
X446040Y189040D02*
X437270D01*
Y183770D01*
X446040D01*
Y189040D01*
D02*
G37*
G36*
X434730D02*
X425960D01*
Y183770D01*
X434730D01*
Y189040D01*
D02*
G37*
G36*
X446040Y181230D02*
X437270D01*
Y175960D01*
X446040D01*
Y181230D01*
D02*
G37*
G36*
X434730D02*
X425960D01*
Y175960D01*
X434730D01*
Y181230D01*
D02*
G37*
G36*
X462730D02*
X453960D01*
Y175960D01*
X462730D01*
Y181230D01*
D02*
G37*
%LPD*%
D10*
X109000Y145320D02*
Y153000D01*
Y145320D02*
X117500Y136820D01*
Y124000D02*
Y136820D01*
X55000Y375000D02*
Y416500D01*
X55500Y417000D01*
X55000Y375000D02*
X58040Y371960D01*
X65916D01*
X67250Y373294D01*
X76544D01*
X76750Y373500D01*
X89000Y152000D02*
X94000D01*
X89000D02*
Y152250D01*
X86999Y132001D02*
Y141125D01*
X89000Y143126D01*
Y151000D01*
X88694Y130751D02*
X101095Y118350D01*
X88249Y130751D02*
X88694D01*
X101095Y118350D02*
X103000D01*
X77125Y194000D02*
Y203875D01*
X69960Y192176D02*
Y215960D01*
X70000Y216000D01*
X101750Y359250D02*
Y369750D01*
Y359250D02*
X102000Y359000D01*
X101750Y369750D02*
X102000Y370000D01*
X99750Y344540D02*
X101000Y345790D01*
X91960Y344540D02*
X99750D01*
X101000Y345790D02*
Y346000D01*
X198768Y183899D02*
X200388D01*
X203136Y181152D02*
X204219D01*
X192500Y181051D02*
X196790Y176761D01*
X200388Y183899D02*
X203136Y181152D01*
X196790Y176000D02*
Y176761D01*
X192500Y181051D02*
Y210364D01*
X197000Y185667D02*
X198768Y183899D01*
X197000Y185667D02*
Y208500D01*
X137234Y190790D02*
X138316D01*
X135444Y189000D02*
X137234Y190790D01*
X125750Y189000D02*
X135444D01*
X431000Y257000D02*
X436000D01*
X425492Y262508D02*
X431000Y257000D01*
X420000Y263273D02*
X420765Y262508D01*
X425492D01*
X423775Y247500D02*
X436000D01*
X451250Y252250D02*
X460250D01*
X461000Y253000D01*
X451000Y252000D02*
X451250Y252250D01*
X441000Y228000D02*
X445235Y223765D01*
X438000Y228000D02*
X441000D01*
X445235Y223765D02*
X449235D01*
X450000Y223000D01*
X77000Y204000D02*
X77125Y203875D01*
X69960Y192176D02*
X73136Y189000D01*
X185536Y211536D02*
X186000Y212000D01*
X180500Y198997D02*
X185536Y204033D01*
Y211536D01*
X160499Y198501D02*
X160746Y198749D01*
X171251D01*
X77125Y194000D02*
X77250D01*
X171251Y198749D02*
X171500Y198997D01*
X192000Y263000D02*
X192765Y262235D01*
X193862D01*
X201000Y255096D01*
Y254000D02*
Y255096D01*
Y254000D02*
X204000Y251000D01*
X192500Y210364D02*
X217000Y234864D01*
Y246500D02*
X218250Y245250D01*
X132234Y199234D02*
X133000Y200000D01*
X132234Y197735D02*
Y199234D01*
X128500Y194000D02*
X132234Y197735D01*
X125750Y194000D02*
X128500D01*
X197000Y208500D02*
X247500Y259000D01*
X217250Y245250D02*
X218250D01*
X217000Y234864D02*
Y245000D01*
X217250Y245250D01*
X218250D02*
X241000Y268000D01*
X250040Y266918D02*
Y268000D01*
X248622Y260500D02*
Y265500D01*
X250040Y266918D01*
X101000Y130040D02*
X106000Y135040D01*
Y141956D01*
X104000Y143956D02*
X106000Y141956D01*
X124997Y135000D02*
X126000D01*
X124000Y135997D02*
X124997Y135000D01*
X124000Y135997D02*
Y140000D01*
X120000Y144000D02*
X124000Y140000D01*
X118136Y144000D02*
X120000D01*
X114000Y148136D02*
Y152250D01*
Y148136D02*
X118136Y144000D01*
X99000Y142082D02*
Y152250D01*
X239536Y336000D02*
Y336465D01*
X249731Y327000D02*
X266000D01*
X240731Y336000D02*
X249731Y327000D01*
X240000Y336000D02*
X240731D01*
X235000Y350000D02*
X254000D01*
X257000Y347000D01*
X266000D01*
X316413Y349412D02*
X326385D01*
X326587Y349210D01*
X314000Y347000D02*
X316413Y349412D01*
X314000Y341000D02*
Y347000D01*
X313000Y340000D02*
X314000Y341000D01*
X306000Y340000D02*
X313000D01*
X303000Y337000D02*
X306000Y340000D01*
X293900Y337000D02*
X303000D01*
X315000Y385000D02*
X315252Y385252D01*
X73136Y189000D02*
X77000D01*
X469000Y63000D02*
Y76000D01*
X468500Y52000D02*
X470000D01*
X455000Y50000D02*
X466500D01*
X468500Y52000D01*
X432500Y48000D02*
X437000Y52500D01*
X427000Y48000D02*
X432500D01*
X104000Y143956D02*
Y152250D01*
X324761Y384249D02*
X325513Y385000D01*
X324761Y375239D02*
Y384249D01*
X325261Y385252D02*
X325513Y385000D01*
X315252Y385252D02*
X325261D01*
D11*
X265000Y264000D02*
Y265000D01*
X272504Y211147D02*
Y256496D01*
X269500Y149500D02*
Y208143D01*
X272504Y211147D01*
X265000Y264000D02*
X272504Y256496D01*
X73500Y383500D02*
X76000Y386000D01*
X63947Y379000D02*
X68447Y383500D01*
X63000Y379000D02*
X63947D01*
X68447Y383500D02*
X73500D01*
X120500Y349000D02*
X134000Y362500D01*
Y379000D01*
X120500Y346500D02*
Y349000D01*
X121500Y347500D02*
X168500D01*
X120500Y346500D02*
X121500Y347500D01*
X288000Y303000D02*
X293900Y308900D01*
X198000Y303000D02*
X288000D01*
X184000Y317000D02*
X198000Y303000D01*
X184000Y317000D02*
Y332000D01*
X168500Y347500D02*
X184000Y332000D01*
X171000Y237000D02*
X174000D01*
X168009Y218577D02*
Y234009D01*
X171000Y237000D01*
X147242Y214243D02*
X163675D01*
X168009Y218577D01*
X448500Y267500D02*
X453000Y263000D01*
X436000Y267500D02*
X448500D01*
X152094Y190250D02*
X168750D01*
X194000Y107000D02*
Y165000D01*
X168750Y190250D02*
X194000Y165000D01*
X68646Y339000D02*
X69146Y338500D01*
X58000Y339000D02*
X68646D01*
X75250Y338500D02*
X76750Y337000D01*
X69146Y338500D02*
X75250D01*
X397974Y257243D02*
X411294Y270563D01*
X386757Y257243D02*
X397974D01*
X337000Y342500D02*
Y343000D01*
X322000Y340000D02*
X334500D01*
X337000Y342500D01*
X322749Y328249D02*
X335751D01*
X322000Y328997D02*
X322749Y328249D01*
X335751D02*
X336000Y328000D01*
X176689Y359100D02*
X213789Y322000D01*
X172000Y372000D02*
X176689Y367311D01*
Y359100D02*
Y367311D01*
X411294Y270563D02*
X423020D01*
X425583Y268000D01*
X435500D01*
X436000Y267500D01*
X453000Y263000D02*
X463500D01*
X464000Y262500D01*
X382000Y211224D02*
Y219000D01*
X363250Y211003D02*
X364000D01*
X142000Y209002D02*
X147242Y214243D01*
X142000Y209000D02*
Y209002D01*
X376000Y85000D02*
X378000Y83000D01*
Y82713D02*
X381087Y79627D01*
X378000Y82713D02*
Y83000D01*
X151995Y190151D02*
X152094Y190250D01*
X141273Y220769D02*
Y247726D01*
X140999Y220495D02*
X141273Y220769D01*
X141000Y248000D02*
X141273Y247726D01*
X125495Y220495D02*
X140000D01*
X114000Y209000D02*
X125495Y220495D01*
X114000Y200750D02*
Y209000D01*
X186000Y270290D02*
X206290D01*
X175500Y237250D02*
Y259500D01*
X186000Y270000D01*
X194750Y250750D02*
X195000Y251000D01*
X194750Y237500D02*
Y250750D01*
X194500Y237250D02*
X194750Y237500D01*
X223000Y276000D02*
X223500Y276500D01*
X212000Y276000D02*
X223000D01*
X206290Y270290D02*
X212000Y276000D01*
X216000Y85000D02*
X376000D01*
X194000Y107000D02*
X216000Y85000D01*
X241485Y322000D02*
X242743Y323257D01*
X213789Y322000D02*
X241485D01*
X243000D02*
X266000D01*
X257000Y259000D02*
Y259500D01*
X260830Y263330D01*
X264330D01*
X260997Y273500D02*
X263498Y271000D01*
Y266450D02*
Y271000D01*
X219000Y267000D02*
X225000D01*
X217000Y255500D02*
Y265000D01*
X219000Y267000D01*
X224500Y267500D02*
Y275500D01*
Y267500D02*
X225000Y267000D01*
X379000Y222000D02*
X382000Y219000D01*
X364750Y230002D02*
X372752Y222000D01*
X379000D01*
X363250Y230002D02*
X364750D01*
X244500Y313000D02*
Y321500D01*
X381087Y52913D02*
X385500Y48500D01*
X393250D01*
X381087Y52913D02*
Y79627D01*
D14*
X69000Y184000D02*
X77250D01*
X65750Y187250D02*
X69000Y184000D01*
X65750Y187250D02*
Y200796D01*
X54855Y211691D02*
X65750Y200796D01*
X54855Y211691D02*
Y214541D01*
X53899Y215498D02*
X54855Y214541D01*
X46000Y212956D02*
X50706Y208250D01*
X46000Y212956D02*
Y213000D01*
X50706Y208250D02*
X53346D01*
X62250Y199346D01*
Y183550D02*
Y199346D01*
X44000Y213000D02*
X44603D01*
X62250Y183550D02*
X66800Y179000D01*
X77250D01*
X24000Y165000D02*
X24957Y165957D01*
X32731Y172651D02*
Y173651D01*
X26037Y165957D02*
X32731Y172651D01*
X24957Y165957D02*
X26037D01*
X24000Y164000D02*
X28348Y159652D01*
X34232D01*
X46000Y189920D02*
Y190000D01*
X40482Y184401D02*
X46000Y189920D01*
X40482Y183512D02*
Y184401D01*
X37731Y179651D02*
Y180762D01*
X40482Y183512D01*
X32731Y174651D02*
X37731Y179651D01*
X32731Y173651D02*
Y174651D01*
X58000Y168000D02*
X59000Y169000D01*
X77250D01*
D15*
X157000Y145000D02*
Y166000D01*
X146497Y134497D02*
X157000Y145000D01*
X134500Y134497D02*
X146497D01*
X84001Y58749D02*
Y95001D01*
X82250Y56999D02*
X84001Y58749D01*
X85999Y121000D02*
X87000D01*
X81860Y116861D02*
X85999Y121000D01*
X78861Y116861D02*
X81860D01*
X78000Y116000D02*
X78861Y116861D01*
X293900Y316900D02*
X294000Y317000D01*
X27750Y56999D02*
Y109942D01*
X39344Y121536D01*
X45465D01*
X96000Y372000D02*
X102000D01*
X87000Y367000D02*
X91000D01*
X96000Y372000D01*
X87000Y360000D02*
Y367000D01*
X76750Y368500D02*
X85500D01*
X87000Y367000D01*
X85500Y358500D02*
X87000Y360000D01*
X76750Y358500D02*
X85500D01*
X76750Y353500D02*
X89500D01*
X68172D02*
X76750D01*
X99500Y351000D02*
X101000Y349500D01*
Y349000D02*
Y349500D01*
X92000Y351000D02*
X99500D01*
X89500Y353500D02*
X92000Y351000D01*
X67000Y354672D02*
X68172Y353500D01*
X67000Y354672D02*
Y362328D01*
X68172Y363500D02*
X76750D01*
X67000Y362328D02*
X68172Y363500D01*
X111000Y362218D02*
Y371500D01*
Y362218D02*
X114000Y359218D01*
Y358000D02*
Y359218D01*
X293900Y317000D02*
X294000D01*
X453717Y272500D02*
X464000D01*
X451218Y275000D02*
X453717Y272500D01*
X450000Y275000D02*
X451218D01*
X51000Y138000D02*
X61498D01*
X61499Y138000D01*
X51000D02*
X51000Y138000D01*
X154454Y198210D02*
X154744Y198500D01*
X150451Y198210D02*
X154454D01*
X154744Y198500D02*
X160497D01*
X151000Y205000D02*
X152178D01*
X154678Y207500D01*
X145106Y192865D02*
X150451Y198210D01*
X147137Y204139D02*
X150139D01*
X151000Y205000D01*
X141999Y199000D02*
X147137Y204139D01*
X451000Y242000D02*
X451250Y242250D01*
X460750D02*
X461000Y242000D01*
X451250Y242250D02*
X460750D01*
X49828Y340431D02*
X55188Y345790D01*
X62449D01*
X49828Y306172D02*
Y340431D01*
X64739Y343500D02*
X76750D01*
X62449Y345790D02*
X64739Y343500D01*
X129000Y148000D02*
X130000D01*
X399000Y347000D02*
X403000Y343000D01*
X386009Y347000D02*
X399000D01*
X385999Y347010D02*
X386009Y347000D01*
X425657Y307500D02*
X436000D01*
X403000Y330157D02*
Y343000D01*
Y330157D02*
X425657Y307500D01*
X395500Y332000D02*
X425000Y302500D01*
X464000D01*
X387000Y332000D02*
X395500D01*
X389000Y317000D02*
X396000D01*
X415500Y297500D01*
X436000D01*
X407500Y292500D02*
X464000D01*
X399000Y301000D02*
X407500Y292500D01*
X387000Y301000D02*
X399000D01*
X391502Y277500D02*
X436000D01*
X385999Y271998D02*
X391502Y277500D01*
X385001Y271000D02*
X385999Y271998D01*
X385000Y271000D02*
X385001D01*
X422218Y235000D02*
X424718Y237500D01*
X421000Y235000D02*
X422218D01*
X424718Y237500D02*
X436000D01*
X463750Y232250D02*
X464000Y232000D01*
X451250Y232250D02*
X463750D01*
X451000Y232000D02*
X451250Y232250D01*
X413224Y215990D02*
X416714Y212500D01*
X461500D01*
X462000Y213000D01*
X398000Y215990D02*
X413224D01*
X381000Y210000D02*
X385455D01*
X392955Y202500D02*
X464000D01*
X385455Y210000D02*
X392955Y202500D01*
X364753Y211000D02*
X378252Y197500D01*
X364000Y211000D02*
X364753D01*
X378252Y197500D02*
X436000D01*
X468000Y292000D02*
X476000D01*
X467000Y293000D02*
X468000Y292000D01*
X476000D02*
X478000Y290000D01*
Y154000D02*
Y290000D01*
X473000Y149000D02*
X478000Y154000D01*
X431000Y149000D02*
X473000D01*
X393900Y186100D02*
X431000Y149000D01*
X366502Y186100D02*
X393900D01*
X386499Y287500D02*
X434500D01*
X385999Y287000D02*
X386499Y287500D01*
X434500D02*
X435000Y288000D01*
X130510Y180000D02*
X156000D01*
X129606Y179096D02*
X130510Y180000D01*
X145106Y186106D02*
Y192865D01*
X125750Y184000D02*
X143000D01*
X145106Y186106D01*
X125096Y179096D02*
X129606D01*
X125000Y179000D02*
X125096Y179096D01*
X154678Y207500D02*
X160497D01*
X127001Y209000D02*
X141999D01*
X119000Y200750D02*
X120000D01*
Y202000D02*
X127001Y209000D01*
X139782Y173000D02*
X141000D01*
X136374Y166000D02*
X156500D01*
X140139Y159861D02*
X141000Y159000D01*
X133374Y169000D02*
X136374Y166000D01*
X84000Y200750D02*
Y260313D01*
X116000Y286000D02*
Y317000D01*
X113000Y283000D02*
X116000Y286000D01*
X106686Y283000D02*
X113000D01*
X84000Y260313D02*
X106686Y283000D01*
X128000Y320000D02*
X128847D01*
X128000Y319000D02*
X128172Y318828D01*
Y282172D02*
Y318828D01*
X125000Y279000D02*
X128172Y282172D01*
X108343Y279000D02*
X125000D01*
X110000Y275000D02*
X137000D01*
X89000Y259657D02*
X108343Y279000D01*
X154000Y318000D02*
X155000Y319000D01*
X99000Y258000D02*
X112000Y271000D01*
X94000Y259000D02*
X110000Y275000D01*
X112000Y271000D02*
X144000D01*
X154000Y281000D01*
X137000Y275000D02*
X141000Y279000D01*
X89000Y200750D02*
Y259657D01*
X94000Y200750D02*
Y259000D01*
X141000Y279000D02*
Y314000D01*
X142000Y315000D01*
X99000Y200750D02*
Y258000D01*
X154000Y281000D02*
Y318000D01*
X104000Y200750D02*
Y242000D01*
X110000Y248000D02*
X116147D01*
X104000Y242000D02*
X110000Y248000D01*
X109000Y200750D02*
Y221229D01*
X122147Y234376D01*
Y246828D01*
X123319Y248000D01*
X128847D01*
X381000Y233000D02*
X395990D01*
X377500Y236500D02*
Y244492D01*
Y236500D02*
X381000Y233000D01*
X395990D02*
X398000Y230990D01*
X139796Y149826D02*
X141013D01*
X134623Y152877D02*
X136745D01*
X139796Y149826D01*
X269000Y101000D02*
X277000Y93000D01*
X437000Y61500D02*
Y84000D01*
X277000Y93000D02*
X428000D01*
X437000Y84000D01*
X257000Y342000D02*
X266000D01*
X253000Y338000D02*
X257000Y342000D01*
X222000Y337000D02*
X230731D01*
X220000Y313000D02*
X229500D01*
X324000Y374000D02*
X324010Y373990D01*
Y364353D02*
Y373990D01*
X301657Y342000D02*
X324010Y364353D01*
X293900Y342000D02*
X301657D01*
X293900Y347000D02*
X301000D01*
X304139Y350139D02*
Y355139D01*
X301000Y347000D02*
X304139Y350139D01*
Y355139D02*
X305000Y356000D01*
X304314Y332000D02*
X307316Y328997D01*
X313000D01*
X293900Y332000D02*
X304314D01*
X293900Y327000D02*
X303657D01*
X309657Y321000D01*
X319000Y313000D02*
X320000Y312000D01*
X319000Y313000D02*
Y318000D01*
X316000Y321000D02*
X319000Y318000D01*
X309657Y321000D02*
X316000D01*
X293900Y322000D02*
X303000D01*
X308000Y317000D01*
Y312000D02*
Y317000D01*
X293900Y308900D02*
Y316900D01*
X353000Y327500D02*
Y343000D01*
X353000Y327500D02*
X353000Y327500D01*
X352000Y344000D02*
Y353000D01*
Y344000D02*
X353000Y343000D01*
X23000Y165000D02*
Y166218D01*
X20963Y168255D02*
X23000Y166218D01*
X20963Y168255D02*
Y176500D01*
X124750Y152250D02*
X129000Y148000D01*
X35500Y201500D02*
X50500D01*
X55500Y196500D01*
Y177500D02*
Y196500D01*
Y177500D02*
X58697Y174303D01*
X66331D01*
X66634Y174000D01*
X77250D01*
X128500Y159000D02*
X134623Y152877D01*
X138782Y174000D02*
X139782Y173000D01*
X136856Y159861D02*
X140139D01*
X125750Y174000D02*
X138782D01*
X125750Y159000D02*
X128500D01*
X119000Y152250D02*
X124750D01*
X132718Y164000D02*
X136856Y159861D01*
X125750Y164000D02*
X132718D01*
X125750Y169000D02*
X133374D01*
X441500Y66000D02*
X455000D01*
X438000Y62500D02*
X441500Y66000D01*
X32731Y191000D02*
Y198731D01*
X20963Y186500D02*
X25463Y191000D01*
X32000D01*
X49828Y306172D02*
X51000Y305000D01*
X32731Y198731D02*
X35500Y201500D01*
X48000Y165172D02*
Y171383D01*
X56578Y160922D02*
X58000Y159500D01*
X52250Y160922D02*
X56578D01*
X48000Y165172D02*
X52250Y160922D01*
X45732Y173651D02*
X48000Y171383D01*
X44232Y159652D02*
Y172152D01*
X45732Y173651D01*
D20*
X464000Y317500D02*
D03*
X436000D02*
D03*
X464000Y182500D02*
D03*
X436000D02*
D03*
D21*
Y287500D02*
D03*
X464000Y282500D02*
D03*
X436000Y267500D02*
D03*
X464000Y262500D02*
D03*
Y242500D02*
D03*
X436000Y247500D02*
D03*
X464000Y222500D02*
D03*
X436000Y227500D02*
D03*
X464000Y212500D02*
D03*
X436000Y217500D02*
D03*
X464000Y192500D02*
D03*
X436000Y197500D02*
D03*
X464000Y202500D02*
D03*
X436000Y207500D02*
D03*
Y237500D02*
D03*
X464000Y232500D02*
D03*
X436000Y257500D02*
D03*
X464000Y252500D02*
D03*
Y272500D02*
D03*
X436000Y277500D02*
D03*
X464000Y292500D02*
D03*
Y302500D02*
D03*
X436000Y297500D02*
D03*
Y307500D02*
D03*
D22*
X224000Y291500D02*
D03*
Y276500D02*
D03*
X260997Y288500D02*
D03*
Y273500D02*
D03*
X455000Y50000D02*
D03*
Y66000D02*
D03*
X398000Y215990D02*
D03*
Y230990D02*
D03*
X302008Y391003D02*
D03*
Y376003D02*
D03*
X287005Y391003D02*
D03*
Y376003D02*
D03*
D23*
X247500Y259000D02*
D03*
X256500D02*
D03*
X195000Y251000D02*
D03*
X204000D02*
D03*
X171500Y198997D02*
D03*
X180500D02*
D03*
X125500Y134497D02*
D03*
X134500D02*
D03*
X117500Y124000D02*
D03*
X126500D02*
D03*
X313000Y328997D02*
D03*
X322000D02*
D03*
X313000Y340000D02*
D03*
X322000D02*
D03*
X239731Y337000D02*
D03*
X230731D02*
D03*
X50500Y305000D02*
D03*
X59500D02*
D03*
X55500Y417000D02*
D03*
X64500D02*
D03*
X315010Y373998D02*
D03*
X324010D02*
D03*
D24*
X217000Y246500D02*
D03*
Y255500D02*
D03*
X160497Y207500D02*
D03*
Y198500D02*
D03*
X58000Y159500D02*
D03*
Y168500D02*
D03*
X469000Y61500D02*
D03*
Y52500D02*
D03*
X437000Y52500D02*
D03*
Y61500D02*
D03*
X315010Y394502D02*
D03*
Y385503D02*
D03*
X319205Y311500D02*
D03*
Y302500D02*
D03*
X308203Y311500D02*
D03*
Y302500D02*
D03*
D25*
X338750Y220502D02*
D03*
X363250Y230002D02*
D03*
Y211003D02*
D03*
D26*
X150999Y230497D02*
D03*
X140999D02*
D03*
X150999Y220495D02*
D03*
X140999D02*
D03*
X167000Y166000D02*
D03*
X157000D02*
D03*
X34232Y159652D02*
D03*
X44232D02*
D03*
X84001Y95001D02*
D03*
X94001D02*
D03*
X377500Y244492D02*
D03*
X387500D02*
D03*
D27*
X185000Y212750D02*
D03*
X175500Y237250D02*
D03*
X194500D02*
D03*
D28*
X141999Y199000D02*
D03*
Y209000D02*
D03*
X20963Y176500D02*
D03*
Y186500D02*
D03*
X51494Y138001D02*
D03*
Y148001D02*
D03*
X61499Y138000D02*
D03*
Y148000D02*
D03*
X76999Y127001D02*
D03*
Y137001D02*
D03*
X325513Y385000D02*
D03*
Y395000D02*
D03*
X86999Y132001D02*
D03*
Y122000D02*
D03*
D29*
X32731Y190651D02*
D03*
X45732D02*
D03*
X32731Y173651D02*
D03*
X45732D02*
D03*
D30*
X117992Y98859D02*
D03*
X136992D02*
D03*
D31*
X103000Y118350D02*
D03*
Y105650D02*
D03*
D32*
X45465Y121536D02*
D03*
X52537Y114465D02*
D03*
D33*
X82250Y56999D02*
D03*
X27750D02*
D03*
D34*
X45750Y72249D02*
D03*
D35*
X393250Y65500D02*
D03*
X424750D02*
D03*
X393250Y48500D02*
D03*
X424750D02*
D03*
D36*
X391750Y57000D02*
D03*
X426250D02*
D03*
D37*
X390000Y127750D02*
D03*
X366502Y162750D02*
D03*
D38*
X390000Y151100D02*
D03*
X366502Y186100D02*
D03*
D39*
X365503Y127500D02*
D03*
Y146500D02*
D03*
X269503Y376003D02*
D03*
Y395003D02*
D03*
D40*
X391753Y107998D02*
D03*
D41*
X368402D02*
D03*
D42*
X269500Y149500D02*
D03*
X345500D02*
D03*
D43*
X307500Y111500D02*
D03*
Y187500D02*
D03*
D44*
X381482Y211224D02*
D03*
Y233224D02*
D03*
D45*
X386000Y256995D02*
D03*
X371001D02*
D03*
X385999Y271998D02*
D03*
X370999D02*
D03*
X385999Y287000D02*
D03*
X370999D02*
D03*
X385999Y302003D02*
D03*
X370999D02*
D03*
X385999Y317005D02*
D03*
X370999D02*
D03*
X385999Y332007D02*
D03*
X370999D02*
D03*
X385999Y347010D02*
D03*
X370999D02*
D03*
X353000Y327500D02*
D03*
X337000D02*
D03*
X353000Y342500D02*
D03*
X337000D02*
D03*
X244500Y313000D02*
D03*
X229500D02*
D03*
D46*
X293900Y317000D02*
D03*
Y322000D02*
D03*
Y327000D02*
D03*
Y332000D02*
D03*
Y337000D02*
D03*
Y342000D02*
D03*
Y347000D02*
D03*
Y352000D02*
D03*
X266000Y317000D02*
D03*
Y322000D02*
D03*
Y327000D02*
D03*
Y332000D02*
D03*
Y337000D02*
D03*
Y342000D02*
D03*
Y347000D02*
D03*
Y352000D02*
D03*
D47*
X279950Y334500D02*
D03*
D48*
X116147Y248000D02*
D03*
X128847D02*
D03*
X141547D02*
D03*
X154247D02*
D03*
X116147Y320000D02*
D03*
X128847D02*
D03*
X141547D02*
D03*
X154247D02*
D03*
D49*
X120500Y371500D02*
D03*
X111000D02*
D03*
X101500D02*
D03*
Y346500D02*
D03*
X120500D02*
D03*
D50*
X76750Y385000D02*
D03*
Y337000D02*
D03*
Y329000D02*
D03*
Y393000D02*
D03*
D51*
Y378500D02*
D03*
Y373500D02*
D03*
Y368500D02*
D03*
Y353500D02*
D03*
Y363500D02*
D03*
Y358500D02*
D03*
Y348500D02*
D03*
Y343500D02*
D03*
D52*
X59126Y120126D02*
D03*
X64874Y125874D02*
D03*
D53*
X101500Y176500D02*
D03*
D54*
X77250Y159000D02*
D03*
Y164000D02*
D03*
Y169000D02*
D03*
Y174000D02*
D03*
Y179000D02*
D03*
Y184000D02*
D03*
Y189000D02*
D03*
Y194000D02*
D03*
X125750D02*
D03*
Y189000D02*
D03*
Y184000D02*
D03*
Y179000D02*
D03*
Y174000D02*
D03*
Y169000D02*
D03*
Y164000D02*
D03*
Y159000D02*
D03*
D55*
X84000Y200750D02*
D03*
X89000D02*
D03*
X94000D02*
D03*
X99000D02*
D03*
X104000D02*
D03*
X109000D02*
D03*
X114000D02*
D03*
X119000D02*
D03*
Y152250D02*
D03*
X114000D02*
D03*
X109000D02*
D03*
X104000D02*
D03*
X99000D02*
D03*
X94000D02*
D03*
X89000D02*
D03*
X84000D02*
D03*
D96*
X81596Y143252D02*
G03*
X81847Y144121I-4768J1846D01*
G01*
X80433Y141433D02*
G03*
X81573Y143193I-3629J3602D01*
G01*
X69783Y130783D02*
G03*
X70562Y131794I-3629J3602D01*
G01*
X72207Y133438D02*
G03*
X73216Y134216I-2593J4406D01*
G01*
X83097Y150438D02*
G03*
X83194Y151426I-5016J988D01*
G01*
X72207Y133438D02*
G03*
X70562Y131794I2292J-3938D01*
G01*
X52537Y114465D02*
G03*
X46000Y98684I15781J-15781D01*
G01*
X83194Y151426D02*
Y153444D01*
X81573Y143193D02*
X81596Y143252D01*
X73216Y134216D02*
X80433Y141433D01*
X73216Y134216D02*
X73216Y134216D01*
X64874Y125874D02*
X69783Y130783D01*
X81847Y144121D02*
X83097Y150438D01*
X53001Y114001D02*
X59126Y120126D01*
X46000Y73000D02*
Y98684D01*
D97*
X222000Y350503D02*
D03*
Y396502D02*
D03*
D98*
X134250Y117250D02*
Y134497D01*
X118133Y101000D02*
X134000Y116867D01*
X118000Y101000D02*
X118133D01*
X134000Y116867D02*
Y117000D01*
X134250Y117250D01*
X133500Y117000D02*
X134000D01*
X126500Y124000D02*
X133500Y117000D01*
X78000Y385000D02*
X127803D01*
X133902Y378902D01*
X386000Y247745D02*
X386750Y246994D01*
X386000Y247745D02*
Y256000D01*
X386750Y245242D02*
X387500Y244492D01*
X386750Y245242D02*
Y246994D01*
X387500Y244492D02*
X392973Y249965D01*
Y250879D01*
X393547Y251453D01*
X464000Y302500D02*
X477500D01*
X45000Y147710D02*
X45146Y147856D01*
X50855D02*
X51000Y148000D01*
X45146Y147856D02*
X50855D01*
X51495Y148000D02*
X61499D01*
Y148000D02*
X68000D01*
X77000Y157000D02*
Y163500D01*
X68000Y148000D02*
X77000Y157000D01*
X269000Y101000D02*
Y134000D01*
D99*
X348500Y146500D02*
X365000D01*
Y146000D02*
X366003Y147002D01*
Y162250D01*
X366502Y162750D01*
X477500Y302500D02*
X486000Y294000D01*
Y124000D02*
Y294000D01*
X469997Y107998D02*
X486000Y124000D01*
X346000Y146000D02*
Y189000D01*
X338750Y196250D02*
Y220502D01*
Y196250D02*
X346000Y189000D01*
X391753Y107998D02*
X469997D01*
X391600Y149500D02*
X405000D01*
X390000Y151100D02*
X391600Y149500D01*
X365503Y130000D02*
X365628Y130125D01*
Y127625D02*
X389875D01*
X390000Y127750D01*
X365503Y113398D02*
Y130000D01*
D100*
X168000Y398000D02*
D03*
Y372600D02*
D03*
D101*
X71000Y317800D02*
D03*
X29200D02*
D03*
X71000Y404200D02*
D03*
X29200D02*
D03*
D102*
X66000Y389900D02*
D03*
Y332100D02*
D03*
X89000Y393000D02*
D03*
X85960Y329000D02*
D03*
X134000Y117000D02*
D03*
X313000Y407000D02*
D03*
X346000Y376000D02*
D03*
X78000Y116000D02*
D03*
X63000Y379000D02*
D03*
X481000Y466000D02*
D03*
Y406000D02*
D03*
X466000Y376000D02*
D03*
X481000Y346000D02*
D03*
X466000Y136000D02*
D03*
X481000Y106000D02*
D03*
Y46000D02*
D03*
X466000Y16000D02*
D03*
X451000Y466000D02*
D03*
Y406000D02*
D03*
X436000Y376000D02*
D03*
X451000Y346000D02*
D03*
Y166000D02*
D03*
X436000Y136000D02*
D03*
Y16000D02*
D03*
X421000Y466000D02*
D03*
Y406000D02*
D03*
X406000Y376000D02*
D03*
X421000Y346000D02*
D03*
X406000Y136000D02*
D03*
Y76000D02*
D03*
Y16000D02*
D03*
X391000Y466000D02*
D03*
Y406000D02*
D03*
X376000Y376000D02*
D03*
Y16000D02*
D03*
X361000Y466000D02*
D03*
Y406000D02*
D03*
X346000Y316000D02*
D03*
Y256000D02*
D03*
Y16000D02*
D03*
X331000Y466000D02*
D03*
X316000Y256000D02*
D03*
X331000Y166000D02*
D03*
X316000Y136000D02*
D03*
Y16000D02*
D03*
X301000Y466000D02*
D03*
Y286000D02*
D03*
Y166000D02*
D03*
X286000Y136000D02*
D03*
Y16000D02*
D03*
X271000Y466000D02*
D03*
X256000Y376000D02*
D03*
X271000Y286000D02*
D03*
X256000Y136000D02*
D03*
Y16000D02*
D03*
X241000Y466000D02*
D03*
X226000Y376000D02*
D03*
X241000Y286000D02*
D03*
Y166000D02*
D03*
X226000Y136000D02*
D03*
Y16000D02*
D03*
X211000Y466000D02*
D03*
X196000Y316000D02*
D03*
X211000Y286000D02*
D03*
X196000Y16000D02*
D03*
X181000Y466000D02*
D03*
X166000Y316000D02*
D03*
X181000Y286000D02*
D03*
X166000Y256000D02*
D03*
Y16000D02*
D03*
X151000Y466000D02*
D03*
Y106000D02*
D03*
X136000Y16000D02*
D03*
X121000Y466000D02*
D03*
X106000Y436000D02*
D03*
X121000Y406000D02*
D03*
X106000Y316000D02*
D03*
X91000Y466000D02*
D03*
X76000Y436000D02*
D03*
X91000Y406000D02*
D03*
Y286000D02*
D03*
X61000Y466000D02*
D03*
X46000Y436000D02*
D03*
Y376000D02*
D03*
X61000Y286000D02*
D03*
X46000Y256000D02*
D03*
X61000Y226000D02*
D03*
X31000Y466000D02*
D03*
X16000Y436000D02*
D03*
Y376000D02*
D03*
X31000Y346000D02*
D03*
Y286000D02*
D03*
X16000Y256000D02*
D03*
X31000Y226000D02*
D03*
X16000Y136000D02*
D03*
X70000Y216000D02*
D03*
X102000Y359000D02*
D03*
X114000Y358000D02*
D03*
X160719Y221596D02*
D03*
X450000Y275000D02*
D03*
X151000Y205000D02*
D03*
X174000Y173000D02*
D03*
X196790Y176000D02*
D03*
X204219Y181152D02*
D03*
X58000Y339000D02*
D03*
X421000Y249193D02*
D03*
X138316Y190790D02*
D03*
X101000Y130040D02*
D03*
X450000Y317000D02*
D03*
Y182000D02*
D03*
X393547Y251453D02*
D03*
X420000Y263273D02*
D03*
X421000Y235000D02*
D03*
X451000Y252000D02*
D03*
Y242000D02*
D03*
X450000Y223000D02*
D03*
X451000Y232000D02*
D03*
X91960Y344540D02*
D03*
X77000Y204000D02*
D03*
X53899Y215498D02*
D03*
X44989Y213967D02*
D03*
X156000Y180000D02*
D03*
X151995Y190151D02*
D03*
X141000Y173000D02*
D03*
Y159000D02*
D03*
X133000Y200000D02*
D03*
X265000Y264000D02*
D03*
X265214Y250271D02*
D03*
X225000Y267000D02*
D03*
X250040Y268000D02*
D03*
X241000D02*
D03*
X192000Y263000D02*
D03*
X45000Y147710D02*
D03*
X141013Y149826D02*
D03*
X269000Y101000D02*
D03*
X98000Y140000D02*
D03*
X280000Y334000D02*
D03*
Y322000D02*
D03*
Y346000D02*
D03*
X243000Y322000D02*
D03*
X253000Y338000D02*
D03*
X222000Y337000D02*
D03*
X220000Y313000D02*
D03*
X326587Y349210D02*
D03*
X305000Y356000D02*
D03*
X300000Y364000D02*
D03*
X352000Y353000D02*
D03*
X23000Y164500D02*
D03*
X130000Y147000D02*
D03*
X406000Y150000D02*
D03*
X469000Y76000D02*
D03*
D103*
X112500Y187500D02*
D03*
Y176500D02*
D03*
Y165500D02*
D03*
X101500Y187500D02*
D03*
Y176500D02*
D03*
Y165500D02*
D03*
X90500Y187500D02*
D03*
Y176500D02*
D03*
Y165500D02*
D03*
M02*
