G04*
G04 #@! TF.GenerationSoftware,Altium Limited,Altium Designer,22.11.1 (43)*
G04*
G04 Layer_Physical_Order=1*
G04 Layer_Color=255*
%FSLAX44Y44*%
%MOMM*%
G71*
G04*
G04 #@! TF.SameCoordinates,19EFE751-6C9E-4A45-9E6E-4A8D767E2655*
G04*
G04*
G04 #@! TF.FilePolarity,Positive*
G04*
G01*
G75*
%ADD10C,0.2500*%
%ADD11C,0.3000*%
%ADD14C,0.1500*%
%ADD15C,0.2000*%
%ADD20R,1.5000X0.8000*%
%ADD21R,1.5000X0.4000*%
%ADD22R,0.8000X0.8000*%
%ADD23R,0.5500X0.5500*%
%ADD24R,0.5500X0.5500*%
%ADD25R,0.9500X0.6500*%
%ADD26R,0.5000X0.5000*%
%ADD27R,0.6500X0.9500*%
%ADD28R,0.5000X0.5000*%
%ADD29R,1.0000X1.2000*%
%ADD30R,0.9000X1.3000*%
%ADD31R,1.0160X0.6350*%
%ADD32P,0.7071X4X360.0*%
%ADD33R,1.1500X3.8000*%
%ADD34R,1.6500X0.7500*%
%ADD35R,0.6500X0.6000*%
%ADD36R,0.3500X0.7000*%
%ADD37R,1.1000X0.8000*%
%ADD38R,1.1000X2.0000*%
%ADD39R,1.3000X0.9000*%
%ADD40R,0.8000X1.1000*%
%ADD41R,2.0000X1.1000*%
%ADD42R,1.4000X3.6000*%
%ADD43R,3.6000X1.4000*%
%ADD44R,1.4500X0.9000*%
%ADD45R,0.8000X0.8000*%
%ADD46R,0.9000X0.2500*%
%ADD47R,1.4900X4.4000*%
%ADD48O,0.6000X1.8000*%
%ADD49R,0.6000X1.1000*%
%ADD50R,1.1500X0.6000*%
%ADD51R,1.1500X0.3000*%
G04:AMPARAMS|DCode=52|XSize=0.3556mm|YSize=0.6604mm|CornerRadius=0mm|HoleSize=0mm|Usage=FLASHONLY|Rotation=225.000|XOffset=0mm|YOffset=0mm|HoleType=Round|Shape=Rectangle|*
%AMROTATEDRECTD52*
4,1,4,-0.1078,0.3592,0.3592,-0.1078,0.1078,-0.3592,-0.3592,0.1078,-0.1078,0.3592,0.0*
%
%ADD52ROTATEDRECTD52*%

%ADD53R,3.7000X3.7000*%
%ADD54O,0.8000X0.2500*%
%ADD55O,0.2500X0.8000*%
%ADD96C,0.5113*%
%ADD97R,5.3000X0.9000*%
%ADD98C,0.3500*%
%ADD99C,0.5000*%
%ADD100O,3.0000X1.8000*%
G04:AMPARAMS|DCode=101|XSize=1mm|YSize=2.1mm|CornerRadius=0.25mm|HoleSize=0mm|Usage=FLASHONLY|Rotation=270.000|XOffset=0mm|YOffset=0mm|HoleType=Round|Shape=RoundedRectangle|*
%AMROUNDEDRECTD101*
21,1,1.0000,1.6000,0,0,270.0*
21,1,0.5000,2.1000,0,0,270.0*
1,1,0.5000,-0.8000,-0.2500*
1,1,0.5000,-0.8000,0.2500*
1,1,0.5000,0.8000,0.2500*
1,1,0.5000,0.8000,-0.2500*
%
%ADD101ROUNDEDRECTD101*%
%ADD102C,0.6500*%
%ADD103C,0.6000*%
G36*
X217132Y270611D02*
X216087Y269913D01*
X214087Y267913D01*
X213194Y266576D01*
X212881Y265000D01*
Y260790D01*
X211710D01*
Y250210D01*
Y241210D01*
X213136D01*
Y236465D01*
X191963Y215292D01*
X190790Y215778D01*
Y220040D01*
X179210D01*
Y205460D01*
X179210D01*
X178975Y204287D01*
X166210D01*
X165787Y205382D01*
Y206230D01*
X160497D01*
Y208770D01*
X165787D01*
Y210796D01*
X166588Y211330D01*
X170921Y215664D01*
X171814Y217001D01*
X172128Y218577D01*
Y229960D01*
X181290D01*
Y244540D01*
X179619D01*
Y257794D01*
X184940Y263115D01*
X186210Y262589D01*
Y261848D01*
X187092Y259720D01*
X188720Y258092D01*
X190003Y257560D01*
X189751Y256290D01*
X189710D01*
Y245710D01*
X189710D01*
X189469Y244540D01*
X188710D01*
Y229960D01*
X200290D01*
Y244540D01*
X200290D01*
X200531Y245710D01*
X209290D01*
Y256290D01*
X204627D01*
X204570Y256575D01*
X203732Y257829D01*
X203732Y257829D01*
X197790Y263771D01*
Y264152D01*
X197391Y265115D01*
X198097Y266171D01*
X206290D01*
X207866Y266484D01*
X209203Y267377D01*
X213706Y271881D01*
X216815D01*
X217132Y270611D01*
D02*
G37*
G36*
X188636Y199872D02*
Y181051D01*
X188930Y179572D01*
X189768Y178319D01*
X191000Y177086D01*
Y175621D01*
X189730Y175095D01*
X172388Y192437D01*
X172914Y193707D01*
X185790D01*
Y198822D01*
X187366Y200398D01*
X188636Y199872D01*
D02*
G37*
G36*
X189881Y163294D02*
Y107000D01*
X190194Y105424D01*
X191087Y104087D01*
X210902Y84273D01*
X210416Y83099D01*
X127554D01*
X127059Y84369D01*
X127393Y84868D01*
X127590Y85859D01*
Y89819D01*
X127393Y90810D01*
X126831Y91650D01*
X125991Y92212D01*
X125032Y92403D01*
Y105534D01*
X125831Y106068D01*
X126393Y106908D01*
X126590Y107899D01*
Y112426D01*
X127860Y112952D01*
X128720Y112092D01*
X130848Y111210D01*
X133152D01*
X135280Y112092D01*
X136909Y113720D01*
X137790Y115848D01*
Y118152D01*
X137079Y119868D01*
X137654Y121138D01*
X137859D01*
X139240Y121413D01*
X140411Y122195D01*
X159552Y141336D01*
X160335Y142507D01*
X160609Y143889D01*
Y160960D01*
X165730D01*
Y166000D01*
Y171040D01*
X151960D01*
Y169609D01*
X147237D01*
X146389Y170879D01*
X146790Y171848D01*
Y174152D01*
X146389Y175121D01*
X147237Y176391D01*
X151421D01*
X152720Y175091D01*
X154848Y174210D01*
X157152D01*
X159280Y175091D01*
X160909Y176720D01*
X161790Y178848D01*
Y181152D01*
X160909Y183280D01*
X159327Y184861D01*
X159341Y185111D01*
X159647Y186131D01*
X167044D01*
X189881Y163294D01*
D02*
G37*
G36*
X151960Y160960D02*
X153391D01*
Y145384D01*
X140963Y132956D01*
X139790Y133442D01*
Y139787D01*
X129173D01*
X129114Y139940D01*
X129984Y141210D01*
X131152D01*
X133280Y142092D01*
X134909Y143720D01*
X135561Y145295D01*
X136921Y145676D01*
X136985Y145667D01*
X137734Y144918D01*
X139862Y144036D01*
X142165D01*
X144293Y144918D01*
X145922Y146546D01*
X146803Y148675D01*
Y150978D01*
X145922Y153106D01*
X144608Y154420D01*
X145908Y155720D01*
X146790Y157848D01*
Y160152D01*
X146389Y161121D01*
X147237Y162391D01*
X151960D01*
Y160960D01*
D02*
G37*
G36*
X95380Y118584D02*
Y112635D01*
X110620D01*
Y118205D01*
X124000D01*
Y107899D01*
X119262D01*
Y98859D01*
Y89819D01*
X125000D01*
Y85859D01*
X119000Y79859D01*
X107268D01*
X106040Y79961D01*
Y83731D01*
X101000D01*
Y85001D01*
X99731D01*
Y90041D01*
X91000D01*
Y99000D01*
X89000Y101000D01*
Y114000D01*
X91960Y116960D01*
X92039D01*
Y117039D01*
X94471Y119471D01*
X95380Y118584D01*
D02*
G37*
G36*
X263848Y258210D02*
X264965D01*
X268385Y254790D01*
Y218211D01*
X267993Y217819D01*
X266907Y217093D01*
X265959Y215674D01*
X265626Y214000D01*
Y170040D01*
X259960D01*
Y128960D01*
X265391D01*
Y105579D01*
X264091Y104280D01*
X263210Y102152D01*
Y99848D01*
X264091Y97720D01*
X265720Y96091D01*
X267848Y95210D01*
X269686D01*
X274448Y90448D01*
X274536Y90389D01*
X274150Y89119D01*
X217706D01*
X198119Y108706D01*
Y165000D01*
X197806Y166576D01*
X196913Y167913D01*
X195885Y168940D01*
X196411Y170210D01*
X197942D01*
X200070Y171091D01*
X201698Y172720D01*
X202347Y174285D01*
X203067Y175361D01*
X205370D01*
X207498Y176243D01*
X209127Y177872D01*
X210009Y180000D01*
Y182303D01*
X209127Y184431D01*
X207498Y186060D01*
X205370Y186942D01*
X203067D01*
X202814Y186837D01*
X201867Y187470D01*
X200864Y187669D01*
Y206899D01*
X247675Y253710D01*
X261790D01*
Y257688D01*
X263024Y258551D01*
X263848Y258210D01*
D02*
G37*
G36*
X456121Y496493D02*
X462137Y495296D01*
X467945Y493324D01*
X473447Y490611D01*
X478547Y487203D01*
X483159Y483159D01*
X487203Y478547D01*
X490611Y473447D01*
X493324Y467945D01*
X495296Y462137D01*
X496493Y456121D01*
X496900Y449898D01*
Y50102D01*
X496536Y44536D01*
X496500Y44500D01*
Y43992D01*
X496493Y43879D01*
X495296Y37863D01*
X493324Y32055D01*
X490668Y26668D01*
X484500Y20500D01*
Y18370D01*
X483159Y16841D01*
X482770Y16500D01*
X481500D01*
X476285Y11285D01*
X473447Y9389D01*
X467946Y6676D01*
X467428Y6500D01*
X463500D01*
X461596Y4597D01*
X456121Y3507D01*
X449898Y3099D01*
X83000D01*
Y35459D01*
X90540D01*
Y78538D01*
X83000D01*
Y80000D01*
X75000D01*
Y107000D01*
X54615D01*
X54128Y107813D01*
X54071Y108270D01*
X54804Y109163D01*
X54989Y109200D01*
X56675Y110326D01*
X59747Y113399D01*
X60204Y112942D01*
X65951Y118689D01*
X70786Y123524D01*
X71959Y123038D01*
Y121960D01*
X75729D01*
Y127001D01*
X78269D01*
Y121960D01*
X81959D01*
Y116960D01*
X86701D01*
X86822Y116667D01*
X87075Y115690D01*
X86607Y114991D01*
X86410Y114000D01*
Y101000D01*
X86607Y100009D01*
X87169Y99169D01*
X88410Y97927D01*
Y90041D01*
X85961D01*
Y86271D01*
X91000D01*
Y85001D01*
X92270D01*
Y79961D01*
X103451D01*
X103529Y79569D01*
X103574Y79171D01*
X103627Y79076D01*
X103648Y78970D01*
X103870Y78637D01*
X104064Y78287D01*
X104149Y78220D01*
X104209Y78130D01*
X104542Y77908D01*
X104855Y77659D01*
X104959Y77629D01*
X105049Y77568D01*
X105442Y77490D01*
X105826Y77380D01*
X107054Y77278D01*
X107162Y77291D01*
X107268Y77269D01*
X119000D01*
X119991Y77467D01*
X120630Y77894D01*
X121900Y77516D01*
Y50000D01*
X122136Y48814D01*
X122808Y47808D01*
X123814Y47136D01*
X125000Y46900D01*
X375000D01*
X376186Y47136D01*
X377192Y47808D01*
X377744Y48635D01*
X378580Y48905D01*
X379192Y48983D01*
X382587Y45587D01*
X383924Y44694D01*
X385500Y44381D01*
X387460D01*
Y42960D01*
X399040D01*
Y54040D01*
X396040D01*
Y55730D01*
X387460D01*
Y54161D01*
X387221Y53964D01*
X386190Y53635D01*
X385206Y54619D01*
Y79627D01*
X384892Y81203D01*
X383999Y82539D01*
X381490Y85049D01*
X380913Y85913D01*
X378913Y87913D01*
X378601Y88121D01*
X378987Y89391D01*
X426505D01*
X433391Y82505D01*
Y66790D01*
X431710D01*
Y66790D01*
X430540Y67031D01*
Y71040D01*
X426020D01*
Y65500D01*
X424750D01*
Y64230D01*
X418960D01*
Y59960D01*
X421960D01*
Y58270D01*
X426250D01*
Y55730D01*
X421960D01*
Y54040D01*
X418960D01*
Y42960D01*
X430540D01*
Y44136D01*
X432500D01*
X433979Y44430D01*
X435232Y45268D01*
X437175Y47210D01*
X442290D01*
Y56210D01*
Y61686D01*
X442995Y62391D01*
X448460D01*
Y59460D01*
X461540D01*
Y72540D01*
X448460D01*
Y69609D01*
X441500D01*
X440609Y70340D01*
Y84000D01*
X440335Y85381D01*
X439552Y86552D01*
X430552Y95552D01*
X429381Y96335D01*
X428000Y96609D01*
X278495D01*
X274790Y100314D01*
Y102152D01*
X273909Y104280D01*
X272609Y105579D01*
Y128960D01*
X279040D01*
Y170040D01*
X274374D01*
Y212549D01*
X275417Y213592D01*
X276310Y214928D01*
X276623Y216504D01*
Y256496D01*
X276310Y258072D01*
X275417Y259408D01*
X270790Y264035D01*
Y265152D01*
X269909Y267280D01*
X268280Y268909D01*
X267617Y269183D01*
Y271000D01*
X267537Y271398D01*
Y280040D01*
X254457D01*
Y273430D01*
X253188Y272963D01*
X251192Y273790D01*
X248888D01*
X246760Y272908D01*
X245520Y271668D01*
X244280Y272908D01*
X242152Y273790D01*
X239848D01*
X237720Y272908D01*
X236091Y271280D01*
X235210Y269152D01*
Y267675D01*
X231303Y263768D01*
X230226Y264487D01*
X230790Y265848D01*
Y268152D01*
X230232Y269499D01*
X230540Y269960D01*
X230540D01*
Y283040D01*
X217460D01*
Y280119D01*
X212000D01*
X210424Y279806D01*
X209087Y278913D01*
X204584Y274409D01*
X186000D01*
X184424Y274096D01*
X183087Y273203D01*
X182503Y272329D01*
X172587Y262413D01*
X171694Y261076D01*
X171381Y259500D01*
Y244540D01*
X169710D01*
Y240863D01*
X169424Y240806D01*
X168087Y239913D01*
X165096Y236921D01*
X164203Y235585D01*
X163889Y234009D01*
Y220283D01*
X161969Y218362D01*
X156039D01*
Y219225D01*
X150999D01*
Y221765D01*
X156039D01*
Y225457D01*
Y229227D01*
X150999D01*
Y231767D01*
X156039D01*
Y235413D01*
X156039Y235537D01*
X156202Y236740D01*
X156409Y236781D01*
X158242Y238006D01*
X159466Y239838D01*
X159896Y242000D01*
Y246730D01*
X148599D01*
Y242000D01*
X149029Y239838D01*
X150253Y238006D01*
X152047Y236807D01*
X152070Y236702D01*
X151836Y235537D01*
X145393D01*
Y237906D01*
X145542Y238006D01*
X146766Y239838D01*
X147196Y242000D01*
Y254000D01*
X146766Y256162D01*
X145542Y257994D01*
X143709Y259219D01*
X141547Y259648D01*
X139386Y259219D01*
X137553Y257994D01*
X136329Y256162D01*
X135899Y254000D01*
Y242000D01*
X136329Y239838D01*
X137154Y238603D01*
Y235537D01*
X135960D01*
Y224614D01*
X125495D01*
X123919Y224300D01*
X122582Y223408D01*
X113783Y214608D01*
X112609Y215094D01*
Y219734D01*
X124700Y231824D01*
X125482Y232995D01*
X125757Y234376D01*
Y235991D01*
X127027Y236714D01*
X128847Y236352D01*
X131009Y236781D01*
X132842Y238006D01*
X134066Y239838D01*
X134496Y242000D01*
Y254000D01*
X134066Y256162D01*
X132842Y257994D01*
X131009Y259219D01*
X128847Y259648D01*
X126686Y259219D01*
X124853Y257994D01*
X123629Y256162D01*
X123199Y254000D01*
Y253093D01*
X123066Y253030D01*
X121796Y253834D01*
Y254000D01*
X121366Y256162D01*
X120142Y257994D01*
X118309Y259219D01*
X116147Y259648D01*
X113986Y259219D01*
X112153Y257994D01*
X110929Y256162D01*
X110499Y254000D01*
Y252687D01*
X110000Y251609D01*
X108619Y251335D01*
X107448Y250552D01*
X103783Y246887D01*
X102609Y247373D01*
Y256505D01*
X113495Y267391D01*
X144000D01*
X145381Y267665D01*
X146552Y268448D01*
X156552Y278448D01*
X157335Y279619D01*
X157609Y281000D01*
Y309583D01*
X158242Y310006D01*
X159466Y311838D01*
X159896Y314000D01*
Y326000D01*
X159466Y328162D01*
X158242Y329994D01*
X156409Y331218D01*
X154247Y331648D01*
X152086Y331218D01*
X150253Y329994D01*
X149029Y328162D01*
X148599Y326000D01*
Y314000D01*
X149029Y311838D01*
X150253Y310006D01*
X150391Y309914D01*
Y282495D01*
X145658Y277762D01*
X144488Y278388D01*
X144609Y279000D01*
Y309383D01*
X145542Y310006D01*
X146766Y311838D01*
X147196Y314000D01*
Y326000D01*
X146766Y328162D01*
X145542Y329994D01*
X143709Y331218D01*
X141547Y331648D01*
X139386Y331218D01*
X137553Y329994D01*
X136329Y328162D01*
X135899Y326000D01*
Y314000D01*
X136329Y311838D01*
X137391Y310249D01*
Y280495D01*
X135505Y278609D01*
X131324D01*
X130898Y279879D01*
X131506Y280790D01*
X131781Y282172D01*
Y309297D01*
X132842Y310006D01*
X134066Y311838D01*
X134496Y314000D01*
Y326000D01*
X134066Y328162D01*
X132842Y329994D01*
X131009Y331218D01*
X128847Y331648D01*
X126686Y331218D01*
X124853Y329994D01*
X123629Y328162D01*
X123199Y326000D01*
Y314000D01*
X123629Y311838D01*
X124562Y310441D01*
Y283667D01*
X123505Y282609D01*
X119409D01*
X118841Y283879D01*
X119335Y284619D01*
X119609Y286000D01*
Y309650D01*
X120142Y310006D01*
X121366Y311838D01*
X121796Y314000D01*
Y326000D01*
X121366Y328162D01*
X120142Y329994D01*
X118309Y331218D01*
X116147Y331648D01*
X113986Y331218D01*
X112153Y329994D01*
X110929Y328162D01*
X110499Y326000D01*
Y314000D01*
X110929Y311838D01*
X112153Y310006D01*
X112391Y309847D01*
Y287495D01*
X111505Y286609D01*
X106686D01*
X105305Y286335D01*
X104134Y285552D01*
X81448Y262866D01*
X80665Y261695D01*
X80391Y260313D01*
Y210237D01*
X79120Y209389D01*
X78152Y209790D01*
X75848D01*
X74880Y209389D01*
X73824Y210095D01*
Y211636D01*
X74908Y212720D01*
X75790Y214848D01*
Y217152D01*
X74908Y219280D01*
X73280Y220909D01*
X71152Y221790D01*
X68848D01*
X66720Y220909D01*
X65092Y219280D01*
X64210Y217152D01*
Y214848D01*
X65092Y212720D01*
X66096Y211716D01*
Y206853D01*
X64922Y206367D01*
X58885Y212405D01*
X59689Y214346D01*
Y216650D01*
X58807Y218778D01*
X57178Y220406D01*
X55050Y221288D01*
X52747D01*
X50619Y220406D01*
X48990Y218778D01*
X47746Y219092D01*
X46141Y219757D01*
X43837D01*
X41709Y218876D01*
X40080Y217247D01*
X39199Y215119D01*
Y212815D01*
X40080Y210687D01*
X40715Y210053D01*
X40136Y209186D01*
X39900Y208000D01*
X40136Y206814D01*
X40427Y206379D01*
X39748Y205109D01*
X35500D01*
X34119Y204835D01*
X32948Y204052D01*
X30179Y201284D01*
X29397Y200113D01*
X29214Y199191D01*
X25192D01*
Y194555D01*
X24081Y194335D01*
X22910Y193552D01*
X20898Y191541D01*
X17100D01*
Y199716D01*
X22284Y204900D01*
X31000D01*
X32186Y205136D01*
X33192Y205808D01*
X33864Y206814D01*
X34100Y208000D01*
X33864Y209186D01*
X33192Y210192D01*
X32186Y210864D01*
X31000Y211100D01*
X21000D01*
X19814Y210864D01*
X18808Y210192D01*
X11808Y203192D01*
X11136Y202186D01*
X10900Y201000D01*
Y162000D01*
X11136Y160814D01*
X11808Y159808D01*
X19808Y151808D01*
X20814Y151136D01*
X22000Y150900D01*
X38911D01*
X39617Y149845D01*
X39210Y148862D01*
Y146558D01*
X40092Y144430D01*
X41720Y142802D01*
X43848Y141920D01*
X46152D01*
X46455Y141718D01*
Y139271D01*
X51494D01*
Y138001D01*
X52765D01*
Y132961D01*
X56459D01*
Y132960D01*
X62039D01*
X62525Y131787D01*
X57689Y126951D01*
X52434Y121695D01*
X49927Y124202D01*
X46364Y120638D01*
X42800Y117074D01*
X45674Y114200D01*
X43816Y111168D01*
X42165Y107182D01*
X42121Y107000D01*
X27000D01*
Y78538D01*
X19460D01*
Y35459D01*
X27000D01*
Y10618D01*
X25730Y9939D01*
X21453Y12797D01*
X16841Y16841D01*
X12797Y21453D01*
X9389Y26553D01*
X6676Y32055D01*
X4704Y37863D01*
X3507Y43879D01*
X3099Y50102D01*
Y449898D01*
X3507Y456121D01*
X4704Y462137D01*
X6676Y467946D01*
X9389Y473447D01*
X12797Y478547D01*
X16841Y483159D01*
X21453Y487203D01*
X26553Y490611D01*
X32054Y493324D01*
X37863Y495296D01*
X43879Y496493D01*
X50101Y496900D01*
X449898D01*
X456121Y496493D01*
D02*
G37*
%LPC*%
G36*
X172040Y171040D02*
X168270D01*
Y167270D01*
X172040D01*
Y171040D01*
D02*
G37*
G36*
Y164730D02*
X168270D01*
Y160960D01*
X172040D01*
Y164730D01*
D02*
G37*
G36*
X144032Y107899D02*
X138262D01*
Y100129D01*
X144032D01*
Y107899D01*
D02*
G37*
G36*
X135722D02*
X129952D01*
Y100129D01*
X135722D01*
Y107899D01*
D02*
G37*
G36*
X144032Y97589D02*
X138262D01*
Y89819D01*
X144032D01*
Y97589D01*
D02*
G37*
G36*
X135722D02*
X129952D01*
Y89819D01*
X135722D01*
Y97589D01*
D02*
G37*
G36*
X101730Y111365D02*
X95380D01*
Y106920D01*
X101730D01*
Y111365D01*
D02*
G37*
G36*
Y104380D02*
X95380D01*
Y99935D01*
X101730D01*
Y104380D01*
D02*
G37*
G36*
X110620Y111365D02*
X104270D01*
Y105650D01*
Y99935D01*
X110620D01*
X110952Y98803D01*
D01*
Y95000D01*
Y89819D01*
X116722D01*
Y98859D01*
Y107899D01*
X110952Y107899D01*
X110620Y109032D01*
Y111365D01*
D02*
G37*
G36*
X106040Y90041D02*
X102270D01*
Y86271D01*
X106040D01*
Y90041D01*
D02*
G37*
G36*
X69790Y422290D02*
X65770D01*
Y418270D01*
X69790D01*
Y422290D01*
D02*
G37*
G36*
X491594Y459540D02*
X382406D01*
Y410460D01*
X491594D01*
Y459540D01*
D02*
G37*
G36*
X37200Y411839D02*
X30470D01*
Y405470D01*
X42339D01*
Y406700D01*
X41948Y408666D01*
X40834Y410334D01*
X39167Y411447D01*
X37200Y411839D01*
D02*
G37*
G36*
X27930D02*
X21200D01*
X19233Y411447D01*
X17566Y410334D01*
X16452Y408666D01*
X16061Y406700D01*
Y405470D01*
X27930D01*
Y411839D01*
D02*
G37*
G36*
X375000Y453100D02*
X125000D01*
X123814Y452864D01*
X122808Y452192D01*
X122136Y451186D01*
X121900Y450000D01*
Y420000D01*
X122136Y418814D01*
X122808Y417808D01*
X123814Y417136D01*
X125000Y416900D01*
X184688D01*
X184958Y416633D01*
X185536Y415630D01*
X185410Y415000D01*
X185410Y403927D01*
X184140Y403675D01*
X184080Y403820D01*
X182230Y406230D01*
X179820Y408080D01*
X177013Y409243D01*
X174000Y409640D01*
X169270D01*
Y398000D01*
Y386360D01*
X174000D01*
X177013Y386757D01*
X179820Y387920D01*
X182230Y389770D01*
X184080Y392180D01*
X184140Y392325D01*
X185410Y392073D01*
Y385000D01*
X185607Y384009D01*
X186169Y383169D01*
X187009Y382607D01*
X188000Y382410D01*
X192910D01*
Y381003D01*
X193107Y380011D01*
X193669Y379171D01*
X194509Y378610D01*
X195500Y378413D01*
X205595D01*
X205598Y378412D01*
X205601Y378413D01*
X205636D01*
X206015Y378488D01*
X206422Y378534D01*
X206502Y378578D01*
X206592Y378595D01*
X206611Y378607D01*
X206627Y378610D01*
X206946Y378823D01*
X207307Y379022D01*
X207363Y379094D01*
X207440Y379143D01*
X207453Y379162D01*
X207467Y379171D01*
X207680Y379490D01*
X207937Y379812D01*
X208638Y381168D01*
X209525Y382410D01*
X234475D01*
X235363Y381166D01*
X236064Y379810D01*
X236312Y379500D01*
X236533Y379169D01*
X236625Y379107D01*
X236694Y379021D01*
X237042Y378828D01*
X237373Y378607D01*
X237482Y378586D01*
X237579Y378532D01*
X237974Y378488D01*
X238364Y378410D01*
X248497D01*
X249488Y378607D01*
X250329Y379169D01*
X250331Y379171D01*
X250893Y380011D01*
X251090Y381003D01*
Y382410D01*
X260462D01*
Y377272D01*
X269503D01*
X278542D01*
Y382410D01*
X280465D01*
Y377272D01*
X287005D01*
X293545D01*
Y382410D01*
X294917D01*
X295467Y382410D01*
X295467Y381479D01*
Y377272D01*
X302007D01*
Y376003D01*
X303277D01*
Y369463D01*
X308547D01*
Y369463D01*
X309720Y369227D01*
Y368708D01*
X313740D01*
Y373998D01*
X316280D01*
Y368708D01*
X320401D01*
Y365848D01*
X311963Y357411D01*
X310532Y357775D01*
X309909Y359280D01*
X308280Y360909D01*
X306152Y361790D01*
X303848D01*
X301720Y360909D01*
X300091Y359280D01*
X299210Y357152D01*
Y355790D01*
X295170D01*
Y352000D01*
X292630D01*
Y355790D01*
X289940D01*
Y359040D01*
X281220D01*
Y334500D01*
Y309960D01*
X287475D01*
X287961Y308787D01*
X286294Y307119D01*
X251040D01*
Y317881D01*
X258960D01*
Y313210D01*
X269960D01*
Y309960D01*
X278680D01*
Y334500D01*
Y359040D01*
X269960D01*
Y355790D01*
X267270D01*
Y352000D01*
X264730D01*
Y355790D01*
X258960D01*
Y352301D01*
X257690Y351775D01*
X256732Y352732D01*
X255479Y353570D01*
X254000Y353864D01*
X251090D01*
Y366003D01*
X250893Y366994D01*
X250331Y367834D01*
X249491Y368395D01*
X248500Y368592D01*
X238364D01*
X238347Y368589D01*
X238325Y368593D01*
X237954Y368513D01*
X237578Y368471D01*
X237478Y368416D01*
X237373Y368395D01*
X237359Y368386D01*
X237337Y368381D01*
X237025Y368166D01*
X236693Y367983D01*
X236622Y367893D01*
X236533Y367834D01*
X236524Y367820D01*
X236505Y367807D01*
X236299Y367489D01*
X236063Y367193D01*
X235362Y365837D01*
X233627Y363407D01*
X231509Y361391D01*
X229048Y359812D01*
X226333Y358726D01*
X223461Y358174D01*
X220537Y358174D01*
X217666Y358727D01*
X214950Y359813D01*
X212490Y361392D01*
X210372Y363408D01*
X208637Y365839D01*
X207936Y367195D01*
X207688Y367505D01*
X207467Y367836D01*
X207375Y367898D01*
X207306Y367984D01*
X206958Y368176D01*
X206627Y368398D01*
X206518Y368419D01*
X206421Y368473D01*
X206026Y368517D01*
X205636Y368595D01*
X195503D01*
X194512Y368398D01*
X193671Y367836D01*
X193669Y367834D01*
X193107Y366994D01*
X192910Y366003D01*
Y350364D01*
X191737Y349878D01*
X180808Y360806D01*
Y363278D01*
X182230Y364370D01*
X184080Y366780D01*
X185243Y369587D01*
X185640Y372600D01*
X185243Y375612D01*
X184080Y378420D01*
X182230Y380830D01*
X179820Y382680D01*
X177013Y383843D01*
X174000Y384240D01*
X162000D01*
X158987Y383843D01*
X156180Y382680D01*
X153770Y380830D01*
X151920Y378420D01*
X150757Y375612D01*
X150360Y372600D01*
X150757Y369587D01*
X151920Y366780D01*
X153770Y364370D01*
X156180Y362520D01*
X158987Y361357D01*
X162000Y360960D01*
X172570D01*
Y359100D01*
X172884Y357524D01*
X173776Y356187D01*
X210877Y319087D01*
X212213Y318194D01*
X213789Y317881D01*
X222960D01*
Y314270D01*
X229500D01*
Y311730D01*
X222960D01*
Y307119D01*
X199706D01*
X188119Y318706D01*
Y332000D01*
X187806Y333576D01*
X186913Y334913D01*
X171413Y350413D01*
X170076Y351306D01*
X168500Y351619D01*
X130604D01*
X130118Y352792D01*
X136913Y359587D01*
X137806Y360924D01*
X138119Y362500D01*
Y378115D01*
X138276Y378902D01*
X137943Y380575D01*
X136994Y381995D01*
X130896Y388093D01*
X129477Y389041D01*
X127803Y389374D01*
X85040D01*
Y391730D01*
X76750D01*
Y394270D01*
X85040D01*
Y398540D01*
X84415D01*
X83763Y399589D01*
X83763Y399810D01*
X84139Y401700D01*
Y402930D01*
X71000D01*
Y405470D01*
X84139D01*
Y406700D01*
X83748Y408666D01*
X82634Y410334D01*
X80967Y411447D01*
X79000Y411839D01*
X69790D01*
Y415730D01*
X64500D01*
Y417000D01*
X63230D01*
Y422290D01*
X50210D01*
Y411710D01*
X51136D01*
Y375000D01*
X51430Y373521D01*
X52268Y372268D01*
X55307Y369228D01*
X55308Y369228D01*
X56561Y368390D01*
X58040Y368096D01*
X58040Y368096D01*
X65916D01*
X66099Y368132D01*
X67241Y367065D01*
X67223Y366921D01*
X66790Y366835D01*
X65619Y366052D01*
X64448Y364881D01*
X63665Y363710D01*
X63391Y362328D01*
Y354672D01*
X63665Y353290D01*
X64448Y352119D01*
X65619Y350948D01*
X66790Y350165D01*
X68172Y349891D01*
X68460D01*
Y347109D01*
X66234D01*
X65001Y348342D01*
X63830Y349125D01*
X62449Y349399D01*
X55188D01*
X53806Y349125D01*
X52635Y348342D01*
X47276Y342983D01*
X46494Y341812D01*
X46219Y340431D01*
Y310290D01*
X45210D01*
Y299710D01*
X58230D01*
Y305000D01*
X59500D01*
Y306270D01*
X64790D01*
Y310161D01*
X69730D01*
Y317800D01*
X71000D01*
Y319070D01*
X84139D01*
Y320300D01*
X83763Y322190D01*
X83763Y322411D01*
X84415Y323460D01*
X85040D01*
Y327730D01*
X76750D01*
Y330270D01*
X85040D01*
Y331460D01*
Y342798D01*
X86310Y343050D01*
X87051Y341260D01*
X88680Y339632D01*
X90808Y338750D01*
X93112D01*
X94690Y339404D01*
X95960Y338692D01*
Y338460D01*
X107040D01*
Y354540D01*
X107040D01*
X106656Y355467D01*
X106909Y355720D01*
X107790Y357848D01*
Y360152D01*
X106909Y362280D01*
X106902Y362287D01*
X107388Y363460D01*
X109730D01*
Y371500D01*
X112270D01*
Y363460D01*
X126040D01*
Y378781D01*
X127310Y379307D01*
X129881Y376737D01*
Y364206D01*
X120215Y354540D01*
X114960D01*
Y338460D01*
X126040D01*
Y343381D01*
X166794D01*
X179881Y330294D01*
Y317000D01*
X180194Y315424D01*
X181087Y314087D01*
X195087Y300087D01*
X196424Y299194D01*
X198000Y298881D01*
X216538D01*
X217460Y298040D01*
X217460Y297611D01*
Y292770D01*
X224000D01*
X230540D01*
Y297611D01*
X230540Y298040D01*
X231462Y298881D01*
X288000D01*
X289576Y299194D01*
X290913Y300087D01*
X296813Y305987D01*
X297706Y307324D01*
X298019Y308900D01*
X297706Y310476D01*
X297509Y310770D01*
Y313210D01*
X300940D01*
Y317022D01*
X301722Y317379D01*
X302069Y317499D01*
X302913Y316729D01*
Y306210D01*
Y303770D01*
X308203D01*
Y302500D01*
X309473D01*
Y297210D01*
X313493D01*
Y297210D01*
X313915D01*
Y297210D01*
X317935D01*
Y302500D01*
X319205D01*
Y303770D01*
X324495D01*
Y306210D01*
Y316790D01*
X322609D01*
Y318000D01*
X322335Y319381D01*
X321552Y320552D01*
X319667Y322438D01*
X320193Y323708D01*
X327290D01*
Y324130D01*
X330460D01*
Y320960D01*
X343540D01*
Y334040D01*
X330460D01*
Y332368D01*
X327290D01*
Y334287D01*
X327290D01*
Y334611D01*
X327529Y335881D01*
X334500D01*
X334898Y335960D01*
X343540D01*
Y349040D01*
X332378D01*
Y350362D01*
X331496Y352490D01*
X329867Y354118D01*
X327739Y355000D01*
X325436D01*
X323308Y354118D01*
X322466Y353277D01*
X319697D01*
X319211Y354450D01*
X326562Y361801D01*
X327345Y362972D01*
X327619Y364353D01*
Y368708D01*
X329300D01*
Y379288D01*
X330291Y379961D01*
X330552D01*
Y388345D01*
X330636Y388532D01*
X331123Y389054D01*
X331682Y389398D01*
X332071Y389468D01*
X332464Y389504D01*
X332565Y389557D01*
X332677Y389577D01*
X333009Y389791D01*
X333359Y389975D01*
X334129Y390598D01*
X334217Y390704D01*
X334331Y390780D01*
X334538Y391089D01*
X334776Y391375D01*
X334816Y391506D01*
X334893Y391620D01*
X334965Y391985D01*
X335075Y392340D01*
X335063Y392476D01*
X335090Y392611D01*
Y402500D01*
X334893Y403491D01*
X334331Y404331D01*
X323032Y415630D01*
X323558Y416900D01*
X375000D01*
X376186Y417136D01*
X377192Y417808D01*
X377864Y418814D01*
X378100Y420000D01*
Y450000D01*
X377864Y451186D01*
X377192Y452192D01*
X376186Y452864D01*
X375000Y453100D01*
D02*
G37*
G36*
X166730Y409640D02*
X162000D01*
X158987Y409243D01*
X156180Y408080D01*
X153770Y406230D01*
X151920Y403820D01*
X150757Y401012D01*
X150528Y399270D01*
X166730D01*
Y409640D01*
D02*
G37*
G36*
X42339Y402930D02*
X30470D01*
Y396561D01*
X37200D01*
X39167Y396952D01*
X40834Y398066D01*
X41948Y399734D01*
X42339Y401700D01*
Y402930D01*
D02*
G37*
G36*
X27930D02*
X16061D01*
Y401700D01*
X16452Y399734D01*
X17566Y398066D01*
X19233Y396952D01*
X21200Y396561D01*
X27930D01*
Y402930D01*
D02*
G37*
G36*
X166730Y396730D02*
X150528D01*
X150757Y394987D01*
X151920Y392180D01*
X153770Y389770D01*
X156180Y387920D01*
X158987Y386757D01*
X162000Y386360D01*
X166730D01*
Y396730D01*
D02*
G37*
G36*
X300737Y374733D02*
X295467D01*
Y369463D01*
X300737D01*
Y374733D01*
D02*
G37*
G36*
X293545D02*
X288275D01*
Y369463D01*
X293545D01*
Y374733D01*
D02*
G37*
G36*
X285735D02*
X280465D01*
Y369463D01*
X285735D01*
Y374733D01*
D02*
G37*
G36*
X278542D02*
X270772D01*
Y368963D01*
X278542D01*
Y374733D01*
D02*
G37*
G36*
X268232D02*
X260462D01*
Y368963D01*
X268232D01*
Y374733D01*
D02*
G37*
G36*
X377539Y353550D02*
X372269D01*
Y348280D01*
X377539D01*
Y353550D01*
D02*
G37*
G36*
X369729D02*
X364459D01*
Y348280D01*
X369729D01*
Y353550D01*
D02*
G37*
G36*
X377539Y345740D02*
X372269D01*
Y340470D01*
X377539D01*
Y345740D01*
D02*
G37*
G36*
X369729D02*
X364459D01*
Y340470D01*
X369729D01*
Y345740D01*
D02*
G37*
G36*
X392539Y353550D02*
X379459D01*
Y340470D01*
X392539D01*
Y343391D01*
X397505D01*
X399391Y341505D01*
Y334873D01*
X398217Y334387D01*
X398052Y334552D01*
X396881Y335335D01*
X395500Y335609D01*
X392539D01*
Y338548D01*
X379459D01*
Y325467D01*
X392539D01*
Y328391D01*
X394005D01*
X420113Y302283D01*
X419627Y301110D01*
X416995D01*
X398552Y319552D01*
X397381Y320335D01*
X396000Y320609D01*
X392539D01*
Y323545D01*
X379459D01*
Y310465D01*
X392539D01*
Y313391D01*
X394505D01*
X410479Y297416D01*
X410020Y296259D01*
X408953Y296151D01*
X401552Y303552D01*
X400381Y304335D01*
X399000Y304609D01*
X392539D01*
Y308542D01*
X379459D01*
Y295462D01*
X392539D01*
Y297391D01*
X397505D01*
X402613Y292283D01*
X402127Y291110D01*
X392539D01*
Y293540D01*
X379459D01*
Y280460D01*
X387036D01*
X387600Y279206D01*
X387080Y278538D01*
X379459D01*
Y265457D01*
X392539D01*
Y273433D01*
X392997Y273891D01*
X407000D01*
X407527Y272621D01*
X396268Y261362D01*
X392540D01*
Y263535D01*
X379460D01*
Y250455D01*
X379342Y250324D01*
X377659D01*
X377541Y250455D01*
X377540Y250802D01*
Y255725D01*
X372271D01*
Y249741D01*
X372460Y249532D01*
X372460Y249185D01*
Y245762D01*
X377500D01*
Y243222D01*
X372460D01*
Y240264D01*
X371692D01*
Y236079D01*
X370540Y235793D01*
Y235793D01*
X355960D01*
Y224212D01*
X364715D01*
X369840Y219087D01*
X371105Y218242D01*
X371151Y217915D01*
X371062Y216922D01*
X370540Y216793D01*
Y216793D01*
X355960D01*
Y205212D01*
X365436D01*
X370835Y199813D01*
X370349Y198640D01*
X358462D01*
Y173560D01*
X374543D01*
Y182491D01*
X392405D01*
X428448Y146448D01*
X429619Y145665D01*
X431000Y145391D01*
X473000D01*
X474381Y145665D01*
X475552Y146448D01*
X479591Y150487D01*
X480861Y149961D01*
Y126129D01*
X467869Y113136D01*
X398293D01*
Y116038D01*
X385213D01*
Y99958D01*
X398293D01*
Y102859D01*
X469997D01*
X471964Y103250D01*
X473631Y104364D01*
X489634Y120366D01*
X490748Y122034D01*
X491139Y124000D01*
Y294000D01*
X490748Y295966D01*
X489634Y297634D01*
X481133Y306134D01*
X479466Y307248D01*
X477500Y307639D01*
X475533Y307248D01*
X475291Y307086D01*
X474040Y307040D01*
Y307040D01*
X453960D01*
Y306110D01*
X446040D01*
Y310960D01*
Y316230D01*
X436000D01*
X425960D01*
Y313961D01*
X424787Y313475D01*
X406609Y331652D01*
Y343000D01*
X406335Y344381D01*
X405552Y345552D01*
X401552Y349552D01*
X400381Y350335D01*
X399000Y350609D01*
X392539D01*
Y353550D01*
D02*
G37*
G36*
X377539Y338548D02*
X372269D01*
Y333278D01*
X377539D01*
Y338548D01*
D02*
G37*
G36*
X369729D02*
X364459D01*
Y333278D01*
X369729D01*
Y338548D01*
D02*
G37*
G36*
X377539Y330737D02*
X372269D01*
Y325467D01*
X377539D01*
Y330737D01*
D02*
G37*
G36*
X369729D02*
X364459D01*
Y325467D01*
X369729D01*
Y330737D01*
D02*
G37*
G36*
X353152Y358790D02*
X350848D01*
X348720Y357909D01*
X347091Y356280D01*
X346210Y354152D01*
Y351848D01*
X346847Y350310D01*
X346460Y349040D01*
X346460D01*
Y335960D01*
X349391D01*
Y334040D01*
X346460D01*
Y320960D01*
X359540D01*
Y334040D01*
X356609D01*
Y335960D01*
X359540D01*
Y349040D01*
X357888D01*
X357153Y350310D01*
X357790Y351848D01*
Y354152D01*
X356908Y356280D01*
X355280Y357909D01*
X353152Y358790D01*
D02*
G37*
G36*
X37200Y325439D02*
X30470D01*
Y319070D01*
X42339D01*
Y320300D01*
X41948Y322267D01*
X40834Y323934D01*
X39167Y325048D01*
X37200Y325439D01*
D02*
G37*
G36*
X27930D02*
X21200D01*
X19233Y325048D01*
X17566Y323934D01*
X16452Y322267D01*
X16061Y320300D01*
Y319070D01*
X27930D01*
Y325439D01*
D02*
G37*
G36*
X474040Y324040D02*
X465270D01*
Y318770D01*
X474040D01*
Y324040D01*
D02*
G37*
G36*
X446040D02*
X437270D01*
Y318770D01*
X446040D01*
Y324040D01*
D02*
G37*
G36*
X462730D02*
X453960D01*
Y318770D01*
X462730D01*
Y324040D01*
D02*
G37*
G36*
X434730D02*
X425960D01*
Y318770D01*
X434730D01*
Y324040D01*
D02*
G37*
G36*
X377539Y323545D02*
X372269D01*
Y318275D01*
X377539D01*
Y323545D01*
D02*
G37*
G36*
X369729D02*
X364459D01*
Y318275D01*
X369729D01*
Y323545D01*
D02*
G37*
G36*
X474040Y316230D02*
X465270D01*
Y310960D01*
X474040D01*
Y316230D01*
D02*
G37*
G36*
X462730D02*
X453960D01*
Y310960D01*
X462730D01*
Y316230D01*
D02*
G37*
G36*
X377539Y315735D02*
X372269D01*
Y310465D01*
X377539D01*
Y315735D01*
D02*
G37*
G36*
X369729D02*
X364459D01*
Y310465D01*
X369729D01*
Y315735D01*
D02*
G37*
G36*
X84139Y316530D02*
X72270D01*
Y310161D01*
X79000D01*
X80967Y310552D01*
X82634Y311666D01*
X83748Y313333D01*
X84139Y315300D01*
Y316530D01*
D02*
G37*
G36*
X42339D02*
X30470D01*
Y310161D01*
X37200D01*
X39167Y310552D01*
X40834Y311666D01*
X41948Y313333D01*
X42339Y315300D01*
Y316530D01*
D02*
G37*
G36*
X27930D02*
X16061D01*
Y315300D01*
X16452Y313333D01*
X17566Y311666D01*
X19233Y310552D01*
X21200Y310161D01*
X27930D01*
Y316530D01*
D02*
G37*
G36*
X377539Y308542D02*
X372269D01*
Y303272D01*
X377539D01*
Y308542D01*
D02*
G37*
G36*
X369729D02*
X364459D01*
Y303272D01*
X369729D01*
Y308542D01*
D02*
G37*
G36*
X64790Y303730D02*
X60770D01*
Y299710D01*
X64790D01*
Y303730D01*
D02*
G37*
G36*
X324495Y301230D02*
X320475D01*
Y297210D01*
X324495D01*
Y301230D01*
D02*
G37*
G36*
X306933D02*
X302913D01*
Y297210D01*
X306933D01*
Y301230D01*
D02*
G37*
G36*
X377539Y300732D02*
X372269D01*
Y295462D01*
X377539D01*
Y300732D01*
D02*
G37*
G36*
X369729D02*
X364459D01*
Y295462D01*
X369729D01*
Y300732D01*
D02*
G37*
G36*
X267537Y295040D02*
X262267D01*
Y289770D01*
X267537D01*
Y295040D01*
D02*
G37*
G36*
X259727D02*
X254457D01*
Y289770D01*
X259727D01*
Y295040D01*
D02*
G37*
G36*
X377539Y293540D02*
X372269D01*
Y288270D01*
X377539D01*
Y293540D01*
D02*
G37*
G36*
X369729D02*
X364459D01*
Y288270D01*
X369729D01*
Y293540D01*
D02*
G37*
G36*
X230540Y290230D02*
X225270D01*
Y284960D01*
X230540D01*
Y290230D01*
D02*
G37*
G36*
X222730D02*
X217460D01*
Y284960D01*
X222730D01*
Y290230D01*
D02*
G37*
G36*
X267537Y287230D02*
X262267D01*
Y281960D01*
X267537D01*
Y287230D01*
D02*
G37*
G36*
X259727D02*
X254457D01*
Y281960D01*
X259727D01*
Y287230D01*
D02*
G37*
G36*
X377539Y285730D02*
X372269D01*
Y280460D01*
X377539D01*
Y285730D01*
D02*
G37*
G36*
X369729D02*
X364459D01*
Y280460D01*
X369729D01*
Y285730D01*
D02*
G37*
G36*
X377539Y278538D02*
X372269D01*
Y273267D01*
X377539D01*
Y278538D01*
D02*
G37*
G36*
X369729D02*
X364459D01*
Y273267D01*
X369729D01*
Y278538D01*
D02*
G37*
G36*
X377539Y270728D02*
X372269D01*
Y265457D01*
X377539D01*
Y270728D01*
D02*
G37*
G36*
X369729D02*
X364459D01*
Y265457D01*
X369729D01*
Y270728D01*
D02*
G37*
G36*
X377540Y263535D02*
X372271D01*
Y258265D01*
X377540D01*
Y263535D01*
D02*
G37*
G36*
X369730D02*
X364460D01*
Y258265D01*
X369730D01*
Y263535D01*
D02*
G37*
G36*
Y255725D02*
X364460D01*
Y250455D01*
X369730D01*
Y255725D01*
D02*
G37*
G36*
X155517Y259396D02*
Y249270D01*
X159896D01*
Y254000D01*
X159466Y256162D01*
X158242Y257994D01*
X156409Y259219D01*
X155517Y259396D01*
D02*
G37*
G36*
X152977D02*
X152086Y259219D01*
X150253Y257994D01*
X149029Y256162D01*
X148599Y254000D01*
Y249270D01*
X152977D01*
Y259396D01*
D02*
G37*
G36*
X328040Y197040D02*
X286960D01*
Y177960D01*
X328040D01*
Y197040D01*
D02*
G37*
G36*
X398040Y163640D02*
X391270D01*
Y152370D01*
X398040D01*
Y163640D01*
D02*
G37*
G36*
X388730D02*
X381960D01*
Y152370D01*
X388730D01*
Y163640D01*
D02*
G37*
G36*
X346040Y226292D02*
X331460D01*
Y214713D01*
X333611D01*
Y196250D01*
X334002Y194284D01*
X335116Y192616D01*
X340861Y186871D01*
Y170040D01*
X335960D01*
Y128960D01*
X355040D01*
Y141361D01*
X356463D01*
Y139460D01*
X374543D01*
Y153540D01*
X371141D01*
Y156210D01*
X374543D01*
Y169290D01*
X358462D01*
Y156210D01*
X360864D01*
Y153540D01*
X356463D01*
Y151639D01*
X355040D01*
Y170040D01*
X351139D01*
Y189000D01*
X350748Y190966D01*
X349634Y192634D01*
X343889Y198379D01*
Y214713D01*
X346040D01*
Y226292D01*
D02*
G37*
G36*
X398040Y149830D02*
X391270D01*
Y138560D01*
X398040D01*
Y149830D01*
D02*
G37*
G36*
X388730D02*
X381960D01*
Y138560D01*
X388730D01*
Y149830D01*
D02*
G37*
G36*
X50224Y136731D02*
X46455D01*
Y132961D01*
X50224D01*
Y136731D01*
D02*
G37*
G36*
X45465Y128664D02*
X42800Y125998D01*
X45465Y123332D01*
X48131Y125998D01*
X45465Y128664D01*
D02*
G37*
G36*
X365628Y135264D02*
X363661Y134873D01*
X363163Y134540D01*
X356463D01*
Y120460D01*
X360364D01*
Y116038D01*
X355863D01*
Y99958D01*
X380942D01*
Y116038D01*
X370641D01*
Y120460D01*
X374543D01*
Y122486D01*
X381960D01*
Y121210D01*
X398040D01*
Y134290D01*
X381960D01*
Y132764D01*
X374543D01*
Y134540D01*
X368092D01*
X367594Y134873D01*
X365628Y135264D01*
D02*
G37*
G36*
X41004Y124202D02*
X38338Y121536D01*
X41004Y118870D01*
X43669Y121536D01*
X41004Y124202D01*
D02*
G37*
G36*
X328040Y121040D02*
X286960D01*
Y101960D01*
X328040D01*
Y121040D01*
D02*
G37*
G36*
X89731Y83731D02*
X85961D01*
Y79961D01*
X89731D01*
Y83731D01*
D02*
G37*
G36*
X423480Y71040D02*
X418960D01*
Y66770D01*
X423480D01*
Y71040D01*
D02*
G37*
G36*
X399040D02*
X394520D01*
Y66770D01*
X399040D01*
Y71040D01*
D02*
G37*
G36*
X391980D02*
X387460D01*
Y66770D01*
X391980D01*
Y71040D01*
D02*
G37*
G36*
X399040Y64230D02*
X387460D01*
Y59960D01*
X387460D01*
Y58270D01*
X396040D01*
Y59960D01*
X399040D01*
Y64230D01*
D02*
G37*
G36*
X470152Y81790D02*
X467848D01*
X465720Y80908D01*
X464091Y79280D01*
X463210Y77152D01*
Y74848D01*
X464091Y72720D01*
X465136Y71676D01*
Y66790D01*
X463710D01*
Y53864D01*
X461540D01*
Y56540D01*
X448460D01*
Y43460D01*
X461540D01*
Y46136D01*
X466500D01*
X467979Y46430D01*
X469146Y47210D01*
X474290D01*
Y56210D01*
Y66790D01*
X472864D01*
Y71676D01*
X473909Y72720D01*
X474790Y74848D01*
Y77152D01*
X473909Y79280D01*
X472280Y80908D01*
X470152Y81790D01*
D02*
G37*
%LPD*%
G36*
X422645Y450862D02*
X421451D01*
Y452225D01*
X422645D01*
Y450862D01*
D02*
G37*
G36*
X413358Y449689D02*
X413442D01*
X413537Y449678D01*
X413632Y449657D01*
X413749Y449636D01*
X414002Y449583D01*
X414266Y449498D01*
X414541Y449382D01*
X414678Y449308D01*
X414805Y449224D01*
X414816D01*
X414837Y449203D01*
X414869Y449171D01*
X414921Y449139D01*
X415048Y449034D01*
X415196Y448886D01*
X415365Y448695D01*
X415545Y448474D01*
X415703Y448209D01*
X415851Y447914D01*
Y447903D01*
X415862Y447871D01*
X415883Y447829D01*
X415904Y447766D01*
X415936Y447692D01*
X415968Y447597D01*
X415999Y447480D01*
X416031Y447364D01*
X416063Y447227D01*
X416094Y447089D01*
X416158Y446772D01*
X416200Y446424D01*
X416211Y446054D01*
Y446043D01*
Y446001D01*
Y445948D01*
X416200Y445874D01*
Y445779D01*
X416189Y445663D01*
X416179Y445536D01*
X416158Y445399D01*
X416115Y445103D01*
X416041Y444775D01*
X415946Y444437D01*
X415820Y444099D01*
Y444089D01*
X415798Y444057D01*
X415777Y444015D01*
X415746Y443962D01*
X415703Y443888D01*
X415661Y443803D01*
X415534Y443613D01*
X415376Y443391D01*
X415175Y443169D01*
X414953Y442958D01*
X414689Y442768D01*
X414678D01*
X414657Y442747D01*
X414615Y442725D01*
X414562Y442694D01*
X414488Y442662D01*
X414414Y442620D01*
X414319Y442588D01*
X414213Y442546D01*
X413981Y442461D01*
X413717Y442387D01*
X413432Y442335D01*
X413284Y442324D01*
X413125Y442313D01*
X413019D01*
X412914Y442324D01*
X412766Y442345D01*
X412597Y442377D01*
X412417Y442419D01*
X412227Y442472D01*
X412047Y442556D01*
X412026Y442567D01*
X411973Y442599D01*
X411878Y442662D01*
X411773Y442736D01*
X411646Y442821D01*
X411519Y442937D01*
X411392Y443064D01*
X411276Y443201D01*
Y439767D01*
X410082D01*
Y449541D01*
X411170D01*
Y448621D01*
X411192Y448632D01*
X411234Y448695D01*
X411318Y448801D01*
X411424Y448917D01*
X411551Y449044D01*
X411699Y449182D01*
X411857Y449308D01*
X412037Y449425D01*
X412047D01*
X412058Y449435D01*
X412121Y449467D01*
X412227Y449509D01*
X412364Y449562D01*
X412533Y449615D01*
X412734Y449657D01*
X412967Y449689D01*
X413210Y449699D01*
X413294D01*
X413358Y449689D01*
D02*
G37*
G36*
X453499Y442472D02*
X452210D01*
Y447068D01*
X447149D01*
Y442472D01*
X445860D01*
Y452225D01*
X447149D01*
Y448220D01*
X452210D01*
Y452225D01*
X453499D01*
Y442472D01*
D02*
G37*
G36*
X427506Y449689D02*
X427601Y449678D01*
X427717Y449668D01*
X427844Y449646D01*
X427982Y449625D01*
X428277Y449551D01*
X428594Y449446D01*
X428753Y449382D01*
X428911Y449308D01*
X429059Y449213D01*
X429197Y449108D01*
X429207Y449097D01*
X429228Y449076D01*
X429271Y449044D01*
X429313Y449002D01*
X429376Y448938D01*
X429440Y448865D01*
X429514Y448780D01*
X429588Y448685D01*
X429672Y448569D01*
X429746Y448452D01*
X429831Y448315D01*
X429905Y448167D01*
X429968Y448009D01*
X430031Y447840D01*
X430095Y447649D01*
X430137Y447459D01*
X428975Y447280D01*
Y447290D01*
X428964Y447311D01*
X428954Y447343D01*
X428943Y447396D01*
X428901Y447523D01*
X428837Y447681D01*
X428753Y447850D01*
X428658Y448030D01*
X428531Y448199D01*
X428383Y448347D01*
X428362Y448368D01*
X428309Y448410D01*
X428214Y448463D01*
X428098Y448537D01*
X427950Y448600D01*
X427781Y448664D01*
X427580Y448706D01*
X427369Y448717D01*
X427284D01*
X427221Y448706D01*
X427136Y448695D01*
X427052Y448685D01*
X426840Y448632D01*
X426608Y448558D01*
X426492Y448505D01*
X426365Y448442D01*
X426249Y448368D01*
X426122Y448273D01*
X426006Y448178D01*
X425900Y448061D01*
X425889Y448051D01*
X425879Y448030D01*
X425847Y447998D01*
X425816Y447935D01*
X425773Y447871D01*
X425720Y447787D01*
X425667Y447681D01*
X425625Y447565D01*
X425572Y447427D01*
X425520Y447280D01*
X425467Y447110D01*
X425424Y446920D01*
X425393Y446720D01*
X425361Y446508D01*
X425350Y446265D01*
X425340Y446012D01*
Y446001D01*
Y445948D01*
Y445874D01*
X425350Y445779D01*
X425361Y445663D01*
X425372Y445526D01*
X425382Y445378D01*
X425403Y445219D01*
X425467Y444881D01*
X425572Y444532D01*
X425625Y444374D01*
X425699Y444215D01*
X425784Y444067D01*
X425879Y443941D01*
X425889Y443930D01*
X425900Y443909D01*
X425932Y443877D01*
X425974Y443845D01*
X426037Y443793D01*
X426101Y443740D01*
X426175Y443676D01*
X426259Y443624D01*
X426471Y443497D01*
X426714Y443402D01*
X426851Y443359D01*
X426988Y443328D01*
X427147Y443307D01*
X427305Y443296D01*
X427369D01*
X427421Y443307D01*
X427485D01*
X427548Y443317D01*
X427717Y443349D01*
X427897Y443402D01*
X428098Y443476D01*
X428288Y443581D01*
X428478Y443719D01*
X428489Y443729D01*
X428499Y443740D01*
X428552Y443803D01*
X428637Y443909D01*
X428679Y443972D01*
X428732Y444046D01*
X428785Y444141D01*
X428837Y444236D01*
X428880Y444342D01*
X428932Y444469D01*
X428975Y444596D01*
X429017Y444744D01*
X429049Y444892D01*
X429081Y445061D01*
X430253Y444902D01*
Y444892D01*
X430243Y444849D01*
X430232Y444786D01*
X430211Y444701D01*
X430179Y444596D01*
X430148Y444479D01*
X430105Y444353D01*
X430053Y444205D01*
X429926Y443909D01*
X429841Y443750D01*
X429746Y443592D01*
X429651Y443433D01*
X429535Y443275D01*
X429398Y443138D01*
X429260Y443000D01*
X429249Y442990D01*
X429228Y442968D01*
X429176Y442937D01*
X429123Y442895D01*
X429038Y442842D01*
X428954Y442778D01*
X428837Y442725D01*
X428721Y442662D01*
X428584Y442588D01*
X428436Y442535D01*
X428277Y442472D01*
X428108Y442419D01*
X427918Y442377D01*
X427728Y442345D01*
X427527Y442324D01*
X427316Y442313D01*
X427253D01*
X427178Y442324D01*
X427073D01*
X426957Y442345D01*
X426809Y442366D01*
X426650Y442387D01*
X426481Y442430D01*
X426301Y442482D01*
X426111Y442546D01*
X425921Y442620D01*
X425720Y442715D01*
X425530Y442821D01*
X425340Y442947D01*
X425160Y443085D01*
X424991Y443254D01*
X424981Y443264D01*
X424949Y443296D01*
X424907Y443349D01*
X424854Y443433D01*
X424790Y443529D01*
X424716Y443645D01*
X424632Y443793D01*
X424558Y443951D01*
X424473Y444131D01*
X424389Y444332D01*
X424315Y444553D01*
X424252Y444796D01*
X424199Y445061D01*
X424156Y445346D01*
X424125Y445652D01*
X424114Y445969D01*
Y445980D01*
Y446022D01*
Y446086D01*
X424125Y446160D01*
Y446265D01*
X424135Y446381D01*
X424146Y446508D01*
X424156Y446656D01*
X424209Y446963D01*
X424273Y447301D01*
X424357Y447649D01*
X424484Y447977D01*
Y447988D01*
X424505Y448019D01*
X424526Y448061D01*
X424558Y448114D01*
X424600Y448188D01*
X424643Y448273D01*
X424769Y448463D01*
X424928Y448664D01*
X425129Y448886D01*
X425361Y449086D01*
X425636Y449266D01*
X425646D01*
X425667Y449287D01*
X425710Y449308D01*
X425773Y449329D01*
X425847Y449372D01*
X425932Y449403D01*
X426027Y449446D01*
X426132Y449488D01*
X426259Y449520D01*
X426386Y449562D01*
X426671Y449636D01*
X426988Y449678D01*
X427316Y449699D01*
X427432D01*
X427506Y449689D01*
D02*
G37*
G36*
X474759Y442472D02*
X473512D01*
Y450640D01*
X470659Y442472D01*
X469497D01*
X466686Y450777D01*
Y442472D01*
X465439D01*
Y452225D01*
X467373D01*
X469687Y445314D01*
Y445304D01*
X469698Y445272D01*
X469719Y445219D01*
X469740Y445156D01*
X469761Y445082D01*
X469793Y444987D01*
X469867Y444775D01*
X469941Y444543D01*
X470015Y444300D01*
X470089Y444078D01*
X470120Y443972D01*
X470152Y443877D01*
Y443888D01*
X470163Y443898D01*
X470173Y443930D01*
X470184Y443972D01*
X470205Y444036D01*
X470226Y444099D01*
X470247Y444184D01*
X470279Y444268D01*
X470311Y444374D01*
X470353Y444490D01*
X470395Y444617D01*
X470437Y444765D01*
X470490Y444913D01*
X470543Y445082D01*
X470606Y445251D01*
X470670Y445441D01*
X473016Y452225D01*
X474759D01*
Y442472D01*
D02*
G37*
G36*
X460315Y452214D02*
X460431D01*
X460568Y452203D01*
X460727Y452193D01*
X461044Y452161D01*
X461371Y452108D01*
X461688Y452045D01*
X461826Y452003D01*
X461963Y451960D01*
X461974D01*
X461995Y451950D01*
X462026Y451929D01*
X462079Y451908D01*
X462206Y451844D01*
X462354Y451749D01*
X462534Y451622D01*
X462713Y451453D01*
X462893Y451263D01*
X463051Y451031D01*
Y451020D01*
X463073Y450999D01*
X463094Y450967D01*
X463115Y450914D01*
X463147Y450851D01*
X463178Y450777D01*
X463220Y450692D01*
X463263Y450597D01*
X463337Y450376D01*
X463400Y450132D01*
X463442Y449858D01*
X463464Y449562D01*
Y449551D01*
Y449520D01*
Y449456D01*
X463453Y449393D01*
X463442Y449298D01*
X463432Y449192D01*
X463411Y449076D01*
X463379Y448949D01*
X463294Y448674D01*
X463242Y448526D01*
X463178Y448378D01*
X463104Y448231D01*
X463009Y448083D01*
X462904Y447945D01*
X462787Y447808D01*
X462777Y447797D01*
X462756Y447776D01*
X462713Y447744D01*
X462660Y447692D01*
X462587Y447639D01*
X462502Y447575D01*
X462396Y447501D01*
X462270Y447427D01*
X462132Y447354D01*
X461984Y447280D01*
X461815Y447206D01*
X461625Y447132D01*
X461424Y447068D01*
X461202Y447005D01*
X460959Y446952D01*
X460706Y446910D01*
X460716D01*
X460727Y446899D01*
X460790Y446867D01*
X460885Y446815D01*
X461002Y446751D01*
X461128Y446677D01*
X461255Y446603D01*
X461382Y446508D01*
X461488Y446424D01*
X461498Y446413D01*
X461509Y446403D01*
X461540Y446371D01*
X461583Y446329D01*
X461636Y446276D01*
X461699Y446212D01*
X461836Y446064D01*
X461995Y445874D01*
X462174Y445652D01*
X462365Y445399D01*
X462555Y445124D01*
X464245Y442472D01*
X462629D01*
X461340Y444501D01*
X461329Y444511D01*
X461319Y444543D01*
X461287Y444585D01*
X461245Y444649D01*
X461202Y444723D01*
X461139Y444807D01*
X461012Y444997D01*
X460864Y445219D01*
X460716Y445441D01*
X460558Y445652D01*
X460410Y445843D01*
Y445853D01*
X460389Y445864D01*
X460346Y445916D01*
X460283Y446001D01*
X460188Y446096D01*
X460093Y446202D01*
X459977Y446307D01*
X459860Y446413D01*
X459755Y446487D01*
X459744Y446498D01*
X459702Y446519D01*
X459649Y446550D01*
X459575Y446593D01*
X459480Y446635D01*
X459385Y446677D01*
X459279Y446720D01*
X459163Y446751D01*
X459152D01*
X459121Y446762D01*
X459068Y446772D01*
X458994Y446783D01*
X458888D01*
X458761Y446794D01*
X458614Y446804D01*
X456955D01*
Y442472D01*
X455666D01*
Y452225D01*
X460199D01*
X460315Y452214D01*
D02*
G37*
G36*
X440017Y442472D02*
X438823D01*
Y452225D01*
X440017D01*
Y442472D01*
D02*
G37*
G36*
X434491Y449689D02*
X434586D01*
X434786Y449668D01*
X435019Y449646D01*
X435262Y449604D01*
X435505Y449551D01*
X435727Y449477D01*
X435737D01*
X435748Y449467D01*
X435780Y449456D01*
X435822Y449435D01*
X435917Y449393D01*
X436044Y449329D01*
X436181Y449255D01*
X436319Y449160D01*
X436445Y449055D01*
X436562Y448938D01*
X436572Y448928D01*
X436604Y448886D01*
X436657Y448812D01*
X436709Y448717D01*
X436773Y448600D01*
X436836Y448463D01*
X436900Y448304D01*
X436942Y448125D01*
Y448114D01*
X436952Y448061D01*
X436963Y447988D01*
X436974Y447871D01*
X436984Y447723D01*
X436995Y447533D01*
Y447417D01*
X437005Y447301D01*
Y447174D01*
Y447026D01*
Y445430D01*
Y445409D01*
Y445356D01*
Y445272D01*
Y445166D01*
Y445029D01*
Y444881D01*
X437016Y444712D01*
Y444543D01*
X437026Y444184D01*
Y444004D01*
X437037Y443835D01*
X437048Y443676D01*
X437058Y443539D01*
X437069Y443412D01*
X437079Y443317D01*
Y443296D01*
X437090Y443243D01*
X437111Y443159D01*
X437143Y443042D01*
X437185Y442916D01*
X437238Y442778D01*
X437301Y442620D01*
X437375Y442472D01*
X436128D01*
X436118Y442493D01*
X436097Y442535D01*
X436065Y442620D01*
X436033Y442725D01*
X435991Y442852D01*
X435949Y443000D01*
X435917Y443169D01*
X435896Y443359D01*
X435885Y443349D01*
X435864Y443338D01*
X435832Y443307D01*
X435780Y443264D01*
X435716Y443222D01*
X435653Y443159D01*
X435484Y443042D01*
X435283Y442905D01*
X435072Y442768D01*
X434839Y442651D01*
X434607Y442546D01*
X434596D01*
X434575Y442535D01*
X434543Y442525D01*
X434501Y442514D01*
X434448Y442493D01*
X434374Y442472D01*
X434216Y442430D01*
X434015Y442387D01*
X433793Y442345D01*
X433550Y442324D01*
X433286Y442313D01*
X433170D01*
X433096Y442324D01*
X433001Y442335D01*
X432884Y442345D01*
X432758Y442356D01*
X432631Y442387D01*
X432335Y442451D01*
X432039Y442546D01*
X431902Y442609D01*
X431754Y442694D01*
X431627Y442778D01*
X431500Y442873D01*
X431490Y442884D01*
X431469Y442905D01*
X431447Y442937D01*
X431405Y442979D01*
X431352Y443032D01*
X431299Y443106D01*
X431247Y443180D01*
X431194Y443275D01*
X431077Y443476D01*
X430972Y443729D01*
X430930Y443867D01*
X430909Y444015D01*
X430887Y444173D01*
X430877Y444332D01*
Y444342D01*
Y444353D01*
Y444416D01*
X430887Y444522D01*
X430909Y444649D01*
X430930Y444796D01*
X430972Y444955D01*
X431035Y445113D01*
X431109Y445283D01*
X431120Y445304D01*
X431152Y445356D01*
X431204Y445430D01*
X431278Y445536D01*
X431363Y445642D01*
X431469Y445758D01*
X431585Y445864D01*
X431722Y445969D01*
X431743Y445980D01*
X431796Y446012D01*
X431870Y446064D01*
X431976Y446117D01*
X432103Y446181D01*
X432250Y446244D01*
X432420Y446307D01*
X432589Y446360D01*
X432610D01*
X432652Y446381D01*
X432736Y446392D01*
X432853Y446424D01*
X433001Y446445D01*
X433191Y446477D01*
X433402Y446508D01*
X433656Y446540D01*
X433677D01*
X433719Y446550D01*
X433793Y446561D01*
X433888Y446572D01*
X434015Y446593D01*
X434152Y446614D01*
X434300Y446635D01*
X434469Y446656D01*
X434818Y446720D01*
X435167Y446794D01*
X435336Y446836D01*
X435505Y446878D01*
X435653Y446920D01*
X435790Y446963D01*
Y446973D01*
Y447005D01*
Y447047D01*
X435801Y447089D01*
Y447195D01*
Y447237D01*
Y447269D01*
Y447280D01*
Y447301D01*
Y447343D01*
Y447385D01*
X435780Y447512D01*
X435758Y447671D01*
X435716Y447840D01*
X435653Y448009D01*
X435568Y448167D01*
X435452Y448294D01*
X435431Y448315D01*
X435410Y448336D01*
X435368Y448357D01*
X435315Y448389D01*
X435262Y448421D01*
X435114Y448505D01*
X434924Y448579D01*
X434691Y448643D01*
X434417Y448685D01*
X434100Y448706D01*
X433962D01*
X433888Y448695D01*
X433814D01*
X433624Y448674D01*
X433423Y448632D01*
X433223Y448579D01*
X433022Y448505D01*
X432853Y448410D01*
X432831Y448400D01*
X432789Y448357D01*
X432715Y448273D01*
X432631Y448167D01*
X432536Y448030D01*
X432430Y447840D01*
X432346Y447628D01*
X432303Y447501D01*
X432261Y447364D01*
X431088Y447523D01*
Y447533D01*
X431099Y447554D01*
X431109Y447597D01*
X431120Y447649D01*
X431141Y447713D01*
X431162Y447787D01*
X431215Y447956D01*
X431289Y448146D01*
X431373Y448347D01*
X431479Y448548D01*
X431606Y448727D01*
Y448738D01*
X431627Y448748D01*
X431680Y448801D01*
X431764Y448886D01*
X431881Y448991D01*
X432029Y449108D01*
X432208Y449224D01*
X432420Y449340D01*
X432663Y449446D01*
X432673D01*
X432694Y449456D01*
X432736Y449467D01*
X432789Y449488D01*
X432853Y449509D01*
X432927Y449530D01*
X433022Y449551D01*
X433127Y449572D01*
X433233Y449594D01*
X433360Y449615D01*
X433635Y449657D01*
X433941Y449689D01*
X434269Y449699D01*
X434417D01*
X434491Y449689D01*
D02*
G37*
G36*
X422645Y442472D02*
X421451D01*
Y449541D01*
X422645D01*
Y442472D01*
D02*
G37*
G36*
X419053Y449541D02*
X420268D01*
Y448611D01*
X419053D01*
Y444469D01*
Y444458D01*
Y444448D01*
Y444384D01*
Y444300D01*
X419063Y444194D01*
Y444089D01*
X419085Y443983D01*
X419095Y443888D01*
X419116Y443814D01*
Y443803D01*
X419127Y443793D01*
X419169Y443729D01*
X419233Y443655D01*
X419317Y443581D01*
X419328D01*
X419349Y443571D01*
X419380Y443560D01*
X419423Y443539D01*
X419486Y443529D01*
X419550Y443507D01*
X419634Y443497D01*
X419814D01*
X419877Y443507D01*
X419951D01*
X420046Y443518D01*
X420152Y443529D01*
X420268Y443539D01*
X420427Y442482D01*
X420406D01*
X420342Y442461D01*
X420247Y442451D01*
X420120Y442430D01*
X419983Y442408D01*
X419835Y442398D01*
X419518Y442377D01*
X419412D01*
X419296Y442387D01*
X419148Y442398D01*
X418979Y442430D01*
X418810Y442461D01*
X418651Y442514D01*
X418503Y442578D01*
X418493Y442588D01*
X418451Y442620D01*
X418387Y442662D01*
X418303Y442725D01*
X418218Y442799D01*
X418134Y442895D01*
X418060Y443000D01*
X417996Y443116D01*
X417986Y443138D01*
X417975Y443190D01*
X417965Y443233D01*
X417954Y443285D01*
X417943Y443349D01*
X417933Y443423D01*
X417912Y443507D01*
X417901Y443613D01*
X417891Y443729D01*
X417880Y443856D01*
X417869Y444004D01*
Y444162D01*
X417859Y444342D01*
Y444532D01*
Y448611D01*
X416971D01*
Y449541D01*
X417859D01*
Y451284D01*
X419053Y452003D01*
Y449541D01*
D02*
G37*
G36*
X404133Y452383D02*
X404260Y452373D01*
X404397Y452362D01*
X404545Y452341D01*
X404714Y452309D01*
X404905Y452277D01*
X405095Y452235D01*
X405295Y452182D01*
X405507Y452119D01*
X405718Y452045D01*
X405929Y451960D01*
X406130Y451865D01*
X406342Y451749D01*
X406352Y451739D01*
X406394Y451717D01*
X406447Y451686D01*
X406521Y451633D01*
X406616Y451570D01*
X406711Y451485D01*
X406828Y451390D01*
X406954Y451284D01*
X407092Y451157D01*
X407229Y451020D01*
X407366Y450872D01*
X407504Y450714D01*
X407631Y450545D01*
X407768Y450354D01*
X407884Y450154D01*
X408000Y449942D01*
X408011Y449932D01*
X408022Y449889D01*
X408053Y449826D01*
X408085Y449742D01*
X408138Y449636D01*
X408180Y449498D01*
X408233Y449351D01*
X408286Y449182D01*
X408339Y449002D01*
X408391Y448801D01*
X408444Y448579D01*
X408487Y448357D01*
X408518Y448114D01*
X408550Y447861D01*
X408560Y447607D01*
X408571Y447332D01*
Y447311D01*
Y447269D01*
Y447184D01*
X408560Y447079D01*
X408550Y446952D01*
X408539Y446804D01*
X408518Y446635D01*
X408497Y446445D01*
X408465Y446244D01*
X408423Y446033D01*
X408381Y445811D01*
X408317Y445589D01*
X408243Y445356D01*
X408170Y445135D01*
X408074Y444902D01*
X407969Y444680D01*
X407958Y444670D01*
X407937Y444627D01*
X407905Y444564D01*
X407863Y444490D01*
X407800Y444395D01*
X407726Y444279D01*
X407631Y444152D01*
X407536Y444015D01*
X407419Y443877D01*
X407293Y443729D01*
X407145Y443581D01*
X406997Y443433D01*
X406838Y443296D01*
X406659Y443159D01*
X406468Y443021D01*
X406268Y442905D01*
X406257Y442895D01*
X406215Y442884D01*
X406162Y442852D01*
X406077Y442810D01*
X405972Y442768D01*
X405855Y442715D01*
X405718Y442662D01*
X405560Y442609D01*
X405391Y442556D01*
X405211Y442504D01*
X405010Y442451D01*
X404809Y442408D01*
X404366Y442335D01*
X404133Y442324D01*
X403901Y442313D01*
X403763D01*
X403668Y442324D01*
X403552Y442335D01*
X403404Y442345D01*
X403256Y442366D01*
X403077Y442398D01*
X402897Y442430D01*
X402696Y442472D01*
X402495Y442525D01*
X402284Y442588D01*
X402073Y442662D01*
X401861Y442757D01*
X401650Y442852D01*
X401439Y442968D01*
X401428Y442979D01*
X401396Y443000D01*
X401333Y443042D01*
X401259Y443095D01*
X401175Y443159D01*
X401069Y443243D01*
X400953Y443338D01*
X400826Y443444D01*
X400689Y443571D01*
X400562Y443708D01*
X400424Y443856D01*
X400287Y444015D01*
X400150Y444194D01*
X400023Y444374D01*
X399907Y444575D01*
X399790Y444786D01*
X399780Y444796D01*
X399769Y444839D01*
X399738Y444902D01*
X399706Y444987D01*
X399664Y445092D01*
X399621Y445219D01*
X399568Y445356D01*
X399516Y445526D01*
X399463Y445695D01*
X399410Y445885D01*
X399368Y446086D01*
X399325Y446297D01*
X399262Y446741D01*
X399252Y446984D01*
X399241Y447216D01*
Y447227D01*
Y447248D01*
Y447280D01*
Y447322D01*
X399252Y447385D01*
Y447449D01*
X399262Y447618D01*
X399283Y447818D01*
X399315Y448061D01*
X399347Y448315D01*
X399399Y448600D01*
X399473Y448907D01*
X399558Y449213D01*
X399664Y449530D01*
X399790Y449847D01*
X399938Y450164D01*
X400107Y450460D01*
X400308Y450756D01*
X400541Y451020D01*
X400551Y451031D01*
X400604Y451083D01*
X400678Y451147D01*
X400773Y451231D01*
X400910Y451337D01*
X401058Y451453D01*
X401238Y451580D01*
X401449Y451707D01*
X401682Y451834D01*
X401935Y451960D01*
X402210Y452077D01*
X402517Y452182D01*
X402834Y452267D01*
X403172Y452330D01*
X403531Y452383D01*
X403911Y452394D01*
X404038D01*
X404133Y452383D01*
D02*
G37*
G36*
X421985Y427778D02*
Y427768D01*
X421964Y427725D01*
X421943Y427673D01*
X421911Y427588D01*
X421880Y427493D01*
X421837Y427387D01*
X421784Y427271D01*
X421742Y427144D01*
X421626Y426880D01*
X421520Y426616D01*
X421457Y426489D01*
X421404Y426373D01*
X421362Y426267D01*
X421309Y426183D01*
Y426172D01*
X421298Y426161D01*
X421277Y426130D01*
X421256Y426088D01*
X421182Y425982D01*
X421098Y425855D01*
X420992Y425707D01*
X420865Y425570D01*
X420728Y425432D01*
X420580Y425316D01*
X420559Y425306D01*
X420506Y425274D01*
X420421Y425221D01*
X420305Y425179D01*
X420157Y425126D01*
X419988Y425073D01*
X419809Y425042D01*
X419597Y425031D01*
X419534D01*
X419460Y425042D01*
X419375Y425052D01*
X419259Y425063D01*
X419122Y425094D01*
X418984Y425126D01*
X418826Y425179D01*
X418688Y426299D01*
X418710D01*
X418752Y426278D01*
X418826Y426267D01*
X418921Y426246D01*
X419026Y426225D01*
X419143Y426204D01*
X419259Y426193D01*
X419365Y426183D01*
X419428D01*
X419502Y426193D01*
X419597Y426204D01*
X419692Y426214D01*
X419798Y426246D01*
X419904Y426278D01*
X419999Y426320D01*
X420009Y426331D01*
X420041Y426341D01*
X420083Y426373D01*
X420136Y426415D01*
X420199Y426468D01*
X420273Y426531D01*
X420400Y426690D01*
X420411Y426700D01*
X420421Y426732D01*
X420453Y426785D01*
X420485Y426870D01*
X420537Y426986D01*
X420601Y427144D01*
X420633Y427239D01*
X420675Y427345D01*
X420717Y427461D01*
X420759Y427588D01*
X420770Y427609D01*
X420791Y427662D01*
X420823Y427757D01*
X420876Y427884D01*
X418202Y434963D01*
X419470D01*
X420939Y430864D01*
Y430853D01*
X420950Y430832D01*
X420971Y430790D01*
X420992Y430726D01*
X421013Y430652D01*
X421045Y430568D01*
X421076Y430473D01*
X421119Y430367D01*
X421193Y430124D01*
X421288Y429839D01*
X421372Y429543D01*
X421457Y429226D01*
Y429236D01*
X421467Y429268D01*
X421478Y429310D01*
X421499Y429363D01*
X421510Y429437D01*
X421541Y429532D01*
X421562Y429627D01*
X421594Y429733D01*
X421668Y429976D01*
X421753Y430251D01*
X421848Y430536D01*
X421953Y430832D01*
X423475Y434963D01*
X424669D01*
X421985Y427778D01*
D02*
G37*
G36*
X459443Y432079D02*
X462285Y434963D01*
X463839D01*
X461134Y432332D01*
X464113Y427894D01*
X462634D01*
X460288Y431508D01*
X459443Y430684D01*
Y427894D01*
X458249D01*
Y437647D01*
X459443D01*
Y432079D01*
D02*
G37*
G36*
X453885Y435111D02*
X453980D01*
X454181Y435090D01*
X454413Y435069D01*
X454656Y435027D01*
X454899Y434974D01*
X455121Y434900D01*
X455132D01*
X455143Y434889D01*
X455174Y434879D01*
X455216Y434858D01*
X455312Y434815D01*
X455438Y434752D01*
X455576Y434678D01*
X455713Y434583D01*
X455840Y434477D01*
X455956Y434361D01*
X455967Y434351D01*
X455998Y434308D01*
X456051Y434234D01*
X456104Y434139D01*
X456167Y434023D01*
X456231Y433886D01*
X456294Y433727D01*
X456337Y433547D01*
Y433537D01*
X456347Y433484D01*
X456358Y433410D01*
X456368Y433294D01*
X456379Y433146D01*
X456389Y432956D01*
Y432840D01*
X456400Y432723D01*
Y432597D01*
Y432449D01*
Y430853D01*
Y430832D01*
Y430779D01*
Y430695D01*
Y430589D01*
Y430452D01*
Y430304D01*
X456410Y430135D01*
Y429965D01*
X456421Y429606D01*
Y429426D01*
X456432Y429258D01*
X456442Y429099D01*
X456453Y428962D01*
X456463Y428835D01*
X456474Y428740D01*
Y428719D01*
X456484Y428666D01*
X456506Y428581D01*
X456537Y428465D01*
X456580Y428338D01*
X456632Y428201D01*
X456696Y428042D01*
X456770Y427894D01*
X455523D01*
X455512Y427916D01*
X455491Y427958D01*
X455460Y428042D01*
X455428Y428148D01*
X455386Y428275D01*
X455343Y428423D01*
X455312Y428592D01*
X455290Y428782D01*
X455280Y428771D01*
X455259Y428761D01*
X455227Y428729D01*
X455174Y428687D01*
X455111Y428645D01*
X455047Y428581D01*
X454878Y428465D01*
X454678Y428328D01*
X454466Y428190D01*
X454234Y428074D01*
X454001Y427968D01*
X453991D01*
X453970Y427958D01*
X453938Y427947D01*
X453896Y427937D01*
X453843Y427916D01*
X453769Y427894D01*
X453610Y427852D01*
X453410Y427810D01*
X453188Y427768D01*
X452945Y427747D01*
X452681Y427736D01*
X452564D01*
X452490Y427747D01*
X452395Y427757D01*
X452279Y427768D01*
X452152Y427778D01*
X452025Y427810D01*
X451730Y427873D01*
X451434Y427968D01*
X451296Y428032D01*
X451148Y428116D01*
X451022Y428201D01*
X450895Y428296D01*
X450884Y428307D01*
X450863Y428328D01*
X450842Y428359D01*
X450800Y428402D01*
X450747Y428454D01*
X450694Y428528D01*
X450641Y428602D01*
X450588Y428698D01*
X450472Y428898D01*
X450367Y429152D01*
X450324Y429289D01*
X450303Y429437D01*
X450282Y429596D01*
X450271Y429754D01*
Y429765D01*
Y429775D01*
Y429839D01*
X450282Y429944D01*
X450303Y430071D01*
X450324Y430219D01*
X450367Y430378D01*
X450430Y430536D01*
X450504Y430705D01*
X450514Y430726D01*
X450546Y430779D01*
X450599Y430853D01*
X450673Y430959D01*
X450757Y431064D01*
X450863Y431181D01*
X450979Y431286D01*
X451117Y431392D01*
X451138Y431403D01*
X451191Y431434D01*
X451265Y431487D01*
X451370Y431540D01*
X451497Y431603D01*
X451645Y431667D01*
X451814Y431730D01*
X451983Y431783D01*
X452004D01*
X452047Y431804D01*
X452131Y431815D01*
X452247Y431846D01*
X452395Y431867D01*
X452585Y431899D01*
X452797Y431931D01*
X453050Y431963D01*
X453072D01*
X453114Y431973D01*
X453188Y431984D01*
X453283Y431994D01*
X453410Y432015D01*
X453547Y432036D01*
X453695Y432058D01*
X453864Y432079D01*
X454213Y432142D01*
X454561Y432216D01*
X454730Y432258D01*
X454899Y432301D01*
X455047Y432343D01*
X455185Y432385D01*
Y432396D01*
Y432427D01*
Y432470D01*
X455195Y432512D01*
Y432618D01*
Y432660D01*
Y432692D01*
Y432702D01*
Y432723D01*
Y432766D01*
Y432808D01*
X455174Y432935D01*
X455153Y433093D01*
X455111Y433262D01*
X455047Y433431D01*
X454963Y433590D01*
X454847Y433717D01*
X454826Y433738D01*
X454804Y433759D01*
X454762Y433780D01*
X454709Y433812D01*
X454656Y433843D01*
X454509Y433928D01*
X454318Y434002D01*
X454086Y434065D01*
X453811Y434108D01*
X453494Y434129D01*
X453357D01*
X453283Y434118D01*
X453209D01*
X453019Y434097D01*
X452818Y434055D01*
X452617Y434002D01*
X452416Y433928D01*
X452247Y433833D01*
X452226Y433822D01*
X452184Y433780D01*
X452110Y433695D01*
X452025Y433590D01*
X451930Y433452D01*
X451825Y433262D01*
X451740Y433051D01*
X451698Y432924D01*
X451656Y432787D01*
X450483Y432945D01*
Y432956D01*
X450493Y432977D01*
X450504Y433019D01*
X450514Y433072D01*
X450536Y433135D01*
X450557Y433209D01*
X450610Y433378D01*
X450684Y433569D01*
X450768Y433769D01*
X450874Y433970D01*
X451001Y434150D01*
Y434160D01*
X451022Y434171D01*
X451074Y434224D01*
X451159Y434308D01*
X451275Y434414D01*
X451423Y434530D01*
X451603Y434646D01*
X451814Y434763D01*
X452057Y434868D01*
X452068D01*
X452089Y434879D01*
X452131Y434889D01*
X452184Y434911D01*
X452247Y434932D01*
X452321Y434953D01*
X452416Y434974D01*
X452522Y434995D01*
X452628Y435016D01*
X452755Y435037D01*
X453029Y435080D01*
X453336Y435111D01*
X453663Y435122D01*
X453811D01*
X453885Y435111D01*
D02*
G37*
G36*
X448813Y427894D02*
X447619D01*
Y437647D01*
X448813D01*
Y427894D01*
D02*
G37*
G36*
X413817Y437637D02*
X413933D01*
X414050Y437626D01*
X414187Y437605D01*
X414462Y437573D01*
X414768Y437520D01*
X415054Y437446D01*
X415328Y437341D01*
X415339D01*
X415360Y437330D01*
X415392Y437309D01*
X415444Y437288D01*
X415561Y437214D01*
X415719Y437119D01*
X415888Y436992D01*
X416057Y436834D01*
X416226Y436643D01*
X416385Y436432D01*
Y436422D01*
X416406Y436400D01*
X416417Y436369D01*
X416448Y436326D01*
X416480Y436274D01*
X416512Y436200D01*
X416586Y436041D01*
X416649Y435851D01*
X416712Y435629D01*
X416755Y435397D01*
X416776Y435143D01*
Y435132D01*
Y435111D01*
Y435080D01*
Y435037D01*
X416755Y434921D01*
X416734Y434763D01*
X416691Y434583D01*
X416628Y434382D01*
X416543Y434181D01*
X416427Y433970D01*
Y433960D01*
X416417Y433949D01*
X416395Y433917D01*
X416364Y433875D01*
X416290Y433780D01*
X416174Y433653D01*
X416036Y433516D01*
X415857Y433368D01*
X415656Y433220D01*
X415413Y433083D01*
X415423D01*
X415455Y433072D01*
X415497Y433051D01*
X415561Y433030D01*
X415635Y432998D01*
X415719Y432966D01*
X415910Y432871D01*
X416131Y432755D01*
X416353Y432597D01*
X416575Y432417D01*
X416765Y432195D01*
X416776Y432184D01*
X416786Y432163D01*
X416808Y432132D01*
X416839Y432089D01*
X416882Y432026D01*
X416924Y431952D01*
X416966Y431867D01*
X417008Y431772D01*
X417093Y431561D01*
X417177Y431307D01*
X417230Y431022D01*
X417251Y430874D01*
Y430716D01*
Y430705D01*
Y430684D01*
Y430652D01*
Y430599D01*
X417241Y430536D01*
Y430473D01*
X417220Y430304D01*
X417177Y430103D01*
X417125Y429892D01*
X417051Y429659D01*
X416955Y429437D01*
Y429426D01*
X416945Y429416D01*
X416924Y429384D01*
X416903Y429342D01*
X416839Y429236D01*
X416755Y429110D01*
X416660Y428962D01*
X416533Y428814D01*
X416395Y428666D01*
X416237Y428528D01*
X416216Y428518D01*
X416163Y428476D01*
X416068Y428423D01*
X415941Y428349D01*
X415793Y428275D01*
X415614Y428190D01*
X415402Y428116D01*
X415170Y428053D01*
X415159D01*
X415138Y428042D01*
X415106D01*
X415054Y428032D01*
X414990Y428021D01*
X414916Y428000D01*
X414832Y427990D01*
X414737Y427979D01*
X414631Y427958D01*
X414504Y427947D01*
X414240Y427916D01*
X413933Y427905D01*
X413595Y427894D01*
X409887D01*
Y437647D01*
X413722D01*
X413817Y437637D01*
D02*
G37*
G36*
X441258Y434171D02*
X441269Y434181D01*
X441290Y434213D01*
X441332Y434255D01*
X441396Y434319D01*
X441470Y434393D01*
X441554Y434477D01*
X441660Y434562D01*
X441787Y434646D01*
X441913Y434731D01*
X442061Y434826D01*
X442220Y434900D01*
X442389Y434974D01*
X442579Y435037D01*
X442769Y435080D01*
X442981Y435111D01*
X443192Y435122D01*
X443308D01*
X443361Y435111D01*
X443435D01*
X443593Y435090D01*
X443784Y435058D01*
X443995Y435006D01*
X444206Y434942D01*
X444428Y434858D01*
X444439D01*
X444449Y434847D01*
X444481Y434826D01*
X444523Y434805D01*
X444629Y434752D01*
X444766Y434668D01*
X444914Y434562D01*
X445073Y434435D01*
X445231Y434287D01*
X445379Y434118D01*
X445400Y434097D01*
X445443Y434034D01*
X445506Y433928D01*
X445601Y433801D01*
X445696Y433632D01*
X445791Y433431D01*
X445886Y433209D01*
X445971Y432966D01*
Y432956D01*
X445981Y432935D01*
X445992Y432903D01*
X446003Y432850D01*
X446024Y432787D01*
X446045Y432713D01*
X446066Y432628D01*
X446087Y432533D01*
X446119Y432322D01*
X446161Y432079D01*
X446182Y431815D01*
X446193Y431529D01*
Y431508D01*
Y431445D01*
X446182Y431360D01*
Y431233D01*
X446161Y431075D01*
X446140Y430906D01*
X446119Y430705D01*
X446077Y430494D01*
X446034Y430272D01*
X445971Y430050D01*
X445897Y429807D01*
X445812Y429575D01*
X445707Y429342D01*
X445580Y429120D01*
X445443Y428919D01*
X445284Y428719D01*
X445274Y428708D01*
X445242Y428676D01*
X445189Y428624D01*
X445126Y428571D01*
X445041Y428486D01*
X444935Y428412D01*
X444809Y428317D01*
X444682Y428232D01*
X444523Y428137D01*
X444365Y428042D01*
X444185Y427968D01*
X443995Y427894D01*
X443794Y427831D01*
X443583Y427778D01*
X443361Y427747D01*
X443129Y427736D01*
X443076D01*
X443012Y427747D01*
X442928Y427757D01*
X442822Y427768D01*
X442695Y427789D01*
X442558Y427821D01*
X442421Y427863D01*
X442262Y427916D01*
X442104Y427990D01*
X441945Y428074D01*
X441776Y428169D01*
X441618Y428296D01*
X441459Y428433D01*
X441311Y428592D01*
X441174Y428771D01*
Y427894D01*
X440064D01*
Y437647D01*
X441258D01*
Y434171D01*
D02*
G37*
G36*
X434126Y437806D02*
X434253Y437795D01*
X434390Y437785D01*
X434538Y437763D01*
X434707Y437732D01*
X434897Y437700D01*
X435088Y437658D01*
X435288Y437605D01*
X435500Y437542D01*
X435711Y437468D01*
X435922Y437383D01*
X436123Y437288D01*
X436334Y437172D01*
X436345Y437161D01*
X436387Y437140D01*
X436440Y437108D01*
X436514Y437056D01*
X436609Y436992D01*
X436704Y436908D01*
X436820Y436813D01*
X436947Y436707D01*
X437085Y436580D01*
X437222Y436443D01*
X437359Y436295D01*
X437497Y436136D01*
X437623Y435967D01*
X437761Y435777D01*
X437877Y435576D01*
X437993Y435365D01*
X438004Y435354D01*
X438014Y435312D01*
X438046Y435249D01*
X438078Y435164D01*
X438131Y435058D01*
X438173Y434921D01*
X438226Y434773D01*
X438279Y434604D01*
X438331Y434425D01*
X438384Y434224D01*
X438437Y434002D01*
X438479Y433780D01*
X438511Y433537D01*
X438543Y433283D01*
X438553Y433030D01*
X438564Y432755D01*
Y432734D01*
Y432692D01*
Y432607D01*
X438553Y432501D01*
X438543Y432375D01*
X438532Y432227D01*
X438511Y432058D01*
X438490Y431867D01*
X438458Y431667D01*
X438416Y431455D01*
X438374Y431233D01*
X438310Y431012D01*
X438236Y430779D01*
X438162Y430557D01*
X438067Y430325D01*
X437962Y430103D01*
X437951Y430092D01*
X437930Y430050D01*
X437898Y429987D01*
X437856Y429913D01*
X437793Y429818D01*
X437719Y429701D01*
X437623Y429575D01*
X437528Y429437D01*
X437412Y429300D01*
X437285Y429152D01*
X437137Y429004D01*
X436989Y428856D01*
X436831Y428719D01*
X436651Y428581D01*
X436461Y428444D01*
X436260Y428328D01*
X436250Y428317D01*
X436208Y428307D01*
X436155Y428275D01*
X436070Y428232D01*
X435965Y428190D01*
X435848Y428137D01*
X435711Y428085D01*
X435552Y428032D01*
X435383Y427979D01*
X435204Y427926D01*
X435003Y427873D01*
X434802Y427831D01*
X434358Y427757D01*
X434126Y427747D01*
X433894Y427736D01*
X433756D01*
X433661Y427747D01*
X433545Y427757D01*
X433397Y427768D01*
X433249Y427789D01*
X433069Y427821D01*
X432890Y427852D01*
X432689Y427894D01*
X432488Y427947D01*
X432277Y428011D01*
X432066Y428085D01*
X431854Y428180D01*
X431643Y428275D01*
X431432Y428391D01*
X431421Y428402D01*
X431389Y428423D01*
X431326Y428465D01*
X431252Y428518D01*
X431167Y428581D01*
X431062Y428666D01*
X430945Y428761D01*
X430819Y428867D01*
X430681Y428993D01*
X430555Y429131D01*
X430417Y429279D01*
X430280Y429437D01*
X430142Y429617D01*
X430016Y429796D01*
X429899Y429997D01*
X429783Y430209D01*
X429773Y430219D01*
X429762Y430261D01*
X429730Y430325D01*
X429699Y430409D01*
X429656Y430515D01*
X429614Y430642D01*
X429561Y430779D01*
X429508Y430948D01*
X429456Y431117D01*
X429403Y431307D01*
X429361Y431508D01*
X429318Y431720D01*
X429255Y432163D01*
X429244Y432406D01*
X429234Y432639D01*
Y432649D01*
Y432670D01*
Y432702D01*
Y432744D01*
X429244Y432808D01*
Y432871D01*
X429255Y433040D01*
X429276Y433241D01*
X429308Y433484D01*
X429339Y433738D01*
X429392Y434023D01*
X429466Y434329D01*
X429551Y434636D01*
X429656Y434953D01*
X429783Y435270D01*
X429931Y435587D01*
X430100Y435883D01*
X430301Y436179D01*
X430533Y436443D01*
X430544Y436453D01*
X430597Y436506D01*
X430671Y436569D01*
X430766Y436654D01*
X430903Y436760D01*
X431051Y436876D01*
X431231Y437003D01*
X431442Y437130D01*
X431674Y437256D01*
X431928Y437383D01*
X432203Y437499D01*
X432509Y437605D01*
X432826Y437690D01*
X433164Y437753D01*
X433524Y437806D01*
X433904Y437816D01*
X434031D01*
X434126Y437806D01*
D02*
G37*
G36*
X457689Y422943D02*
X457805Y422932D01*
X457943Y422911D01*
X458101Y422890D01*
X458260Y422859D01*
X458439Y422816D01*
X458619Y422763D01*
X458809Y422700D01*
X458989Y422626D01*
X459179Y422531D01*
X459358Y422425D01*
X459528Y422309D01*
X459686Y422172D01*
X459697Y422161D01*
X459718Y422140D01*
X459760Y422087D01*
X459813Y422034D01*
X459876Y421960D01*
X459950Y421865D01*
X460024Y421760D01*
X460098Y421633D01*
X460172Y421506D01*
X460246Y421358D01*
X460320Y421199D01*
X460383Y421031D01*
X460436Y420840D01*
X460479Y420650D01*
X460500Y420449D01*
X460510Y420238D01*
Y420227D01*
Y420217D01*
Y420185D01*
Y420143D01*
X460500Y420027D01*
X460479Y419879D01*
X460447Y419699D01*
X460405Y419509D01*
X460352Y419298D01*
X460267Y419086D01*
Y419076D01*
X460257Y419065D01*
X460246Y419033D01*
X460225Y418991D01*
X460162Y418875D01*
X460077Y418727D01*
X459961Y418547D01*
X459823Y418347D01*
X459665Y418135D01*
X459464Y417903D01*
X459454Y417892D01*
X459443Y417871D01*
X459401Y417839D01*
X459358Y417787D01*
X459295Y417723D01*
X459221Y417649D01*
X459137Y417554D01*
X459031Y417459D01*
X458904Y417343D01*
X458767Y417216D01*
X458619Y417068D01*
X458450Y416920D01*
X458270Y416751D01*
X458069Y416582D01*
X457848Y416392D01*
X457615Y416191D01*
X457604Y416180D01*
X457573Y416149D01*
X457509Y416106D01*
X457446Y416043D01*
X457351Y415969D01*
X457256Y415885D01*
X457034Y415694D01*
X456801Y415494D01*
X456580Y415282D01*
X456474Y415187D01*
X456379Y415103D01*
X456294Y415018D01*
X456231Y414955D01*
X456220Y414944D01*
X456178Y414902D01*
X456125Y414839D01*
X456051Y414754D01*
X455967Y414659D01*
X455882Y414553D01*
X455713Y414321D01*
X460521D01*
Y413169D01*
X454065D01*
Y413190D01*
Y413243D01*
Y413328D01*
X454075Y413433D01*
X454086Y413560D01*
X454118Y413697D01*
X454149Y413845D01*
X454202Y413993D01*
Y414004D01*
X454213Y414025D01*
X454223Y414057D01*
X454244Y414109D01*
X454276Y414162D01*
X454308Y414236D01*
X454392Y414405D01*
X454498Y414606D01*
X454635Y414828D01*
X454794Y415061D01*
X454984Y415293D01*
X454995Y415303D01*
X455005Y415325D01*
X455037Y415356D01*
X455090Y415409D01*
X455143Y415462D01*
X455216Y415536D01*
X455290Y415620D01*
X455386Y415716D01*
X455491Y415821D01*
X455607Y415927D01*
X455734Y416054D01*
X455882Y416180D01*
X456030Y416318D01*
X456199Y416455D01*
X456368Y416603D01*
X456558Y416762D01*
X456580Y416772D01*
X456632Y416825D01*
X456706Y416888D01*
X456812Y416983D01*
X456939Y417089D01*
X457087Y417216D01*
X457256Y417353D01*
X457425Y417512D01*
X457784Y417839D01*
X458133Y418188D01*
X458302Y418357D01*
X458460Y418526D01*
X458598Y418685D01*
X458714Y418833D01*
X458725Y418843D01*
X458735Y418864D01*
X458767Y418907D01*
X458798Y418960D01*
X458851Y419033D01*
X458894Y419107D01*
X458999Y419298D01*
X459105Y419520D01*
X459200Y419762D01*
X459263Y420016D01*
X459274Y420143D01*
X459285Y420270D01*
Y420280D01*
Y420301D01*
Y420344D01*
X459274Y420386D01*
Y420449D01*
X459253Y420523D01*
X459221Y420682D01*
X459158Y420872D01*
X459063Y421073D01*
X459010Y421178D01*
X458936Y421273D01*
X458862Y421369D01*
X458767Y421464D01*
X458756Y421474D01*
X458746Y421485D01*
X458714Y421506D01*
X458672Y421538D01*
X458619Y421580D01*
X458555Y421622D01*
X458408Y421717D01*
X458207Y421802D01*
X457985Y421886D01*
X457721Y421939D01*
X457573Y421960D01*
X457340D01*
X457277Y421950D01*
X457203D01*
X457118Y421929D01*
X456928Y421897D01*
X456706Y421833D01*
X456474Y421738D01*
X456358Y421675D01*
X456241Y421612D01*
X456136Y421527D01*
X456030Y421432D01*
X456020Y421421D01*
X456009Y421411D01*
X455988Y421379D01*
X455946Y421337D01*
X455914Y421284D01*
X455872Y421221D01*
X455819Y421147D01*
X455776Y421062D01*
X455724Y420967D01*
X455681Y420861D01*
X455597Y420608D01*
X455533Y420333D01*
X455523Y420175D01*
X455512Y420005D01*
X454287Y420132D01*
Y420154D01*
X454297Y420196D01*
X454308Y420259D01*
X454318Y420354D01*
X454339Y420471D01*
X454371Y420608D01*
X454403Y420756D01*
X454456Y420914D01*
X454509Y421073D01*
X454572Y421252D01*
X454656Y421421D01*
X454741Y421590D01*
X454847Y421770D01*
X454963Y421929D01*
X455090Y422087D01*
X455238Y422225D01*
X455248Y422235D01*
X455280Y422256D01*
X455322Y422288D01*
X455386Y422341D01*
X455470Y422393D01*
X455576Y422457D01*
X455692Y422520D01*
X455829Y422594D01*
X455977Y422658D01*
X456146Y422721D01*
X456326Y422785D01*
X456527Y422837D01*
X456738Y422890D01*
X456960Y422922D01*
X457203Y422943D01*
X457457Y422954D01*
X457594D01*
X457689Y422943D01*
D02*
G37*
G36*
X450113D02*
X450229Y422932D01*
X450367Y422911D01*
X450525Y422890D01*
X450684Y422859D01*
X450863Y422816D01*
X451043Y422763D01*
X451233Y422700D01*
X451413Y422626D01*
X451603Y422531D01*
X451782Y422425D01*
X451951Y422309D01*
X452110Y422172D01*
X452121Y422161D01*
X452142Y422140D01*
X452184Y422087D01*
X452237Y422034D01*
X452300Y421960D01*
X452374Y421865D01*
X452448Y421760D01*
X452522Y421633D01*
X452596Y421506D01*
X452670Y421358D01*
X452744Y421199D01*
X452807Y421031D01*
X452860Y420840D01*
X452902Y420650D01*
X452924Y420449D01*
X452934Y420238D01*
Y420227D01*
Y420217D01*
Y420185D01*
Y420143D01*
X452924Y420027D01*
X452902Y419879D01*
X452871Y419699D01*
X452828Y419509D01*
X452776Y419298D01*
X452691Y419086D01*
Y419076D01*
X452681Y419065D01*
X452670Y419033D01*
X452649Y418991D01*
X452585Y418875D01*
X452501Y418727D01*
X452385Y418547D01*
X452247Y418347D01*
X452089Y418135D01*
X451888Y417903D01*
X451878Y417892D01*
X451867Y417871D01*
X451825Y417839D01*
X451782Y417787D01*
X451719Y417723D01*
X451645Y417649D01*
X451561Y417554D01*
X451455Y417459D01*
X451328Y417343D01*
X451191Y417216D01*
X451043Y417068D01*
X450874Y416920D01*
X450694Y416751D01*
X450493Y416582D01*
X450271Y416392D01*
X450039Y416191D01*
X450028Y416180D01*
X449997Y416149D01*
X449933Y416106D01*
X449870Y416043D01*
X449775Y415969D01*
X449680Y415885D01*
X449458Y415694D01*
X449225Y415494D01*
X449003Y415282D01*
X448898Y415187D01*
X448803Y415103D01*
X448718Y415018D01*
X448655Y414955D01*
X448644Y414944D01*
X448602Y414902D01*
X448549Y414839D01*
X448475Y414754D01*
X448391Y414659D01*
X448306Y414553D01*
X448137Y414321D01*
X452945D01*
Y413169D01*
X446489D01*
Y413190D01*
Y413243D01*
Y413328D01*
X446499Y413433D01*
X446510Y413560D01*
X446541Y413697D01*
X446573Y413845D01*
X446626Y413993D01*
Y414004D01*
X446637Y414025D01*
X446647Y414057D01*
X446668Y414109D01*
X446700Y414162D01*
X446732Y414236D01*
X446816Y414405D01*
X446922Y414606D01*
X447059Y414828D01*
X447218Y415061D01*
X447408Y415293D01*
X447419Y415303D01*
X447429Y415325D01*
X447461Y415356D01*
X447514Y415409D01*
X447566Y415462D01*
X447640Y415536D01*
X447714Y415620D01*
X447809Y415716D01*
X447915Y415821D01*
X448031Y415927D01*
X448158Y416054D01*
X448306Y416180D01*
X448454Y416318D01*
X448623Y416455D01*
X448792Y416603D01*
X448982Y416762D01*
X449003Y416772D01*
X449056Y416825D01*
X449130Y416888D01*
X449236Y416983D01*
X449363Y417089D01*
X449511Y417216D01*
X449680Y417353D01*
X449849Y417512D01*
X450208Y417839D01*
X450557Y418188D01*
X450726Y418357D01*
X450884Y418526D01*
X451022Y418685D01*
X451138Y418833D01*
X451148Y418843D01*
X451159Y418864D01*
X451191Y418907D01*
X451222Y418960D01*
X451275Y419033D01*
X451317Y419107D01*
X451423Y419298D01*
X451529Y419520D01*
X451624Y419762D01*
X451687Y420016D01*
X451698Y420143D01*
X451708Y420270D01*
Y420280D01*
Y420301D01*
Y420344D01*
X451698Y420386D01*
Y420449D01*
X451677Y420523D01*
X451645Y420682D01*
X451582Y420872D01*
X451487Y421073D01*
X451434Y421178D01*
X451360Y421273D01*
X451286Y421369D01*
X451191Y421464D01*
X451180Y421474D01*
X451170Y421485D01*
X451138Y421506D01*
X451096Y421538D01*
X451043Y421580D01*
X450979Y421622D01*
X450831Y421717D01*
X450631Y421802D01*
X450409Y421886D01*
X450145Y421939D01*
X449997Y421960D01*
X449764D01*
X449701Y421950D01*
X449627D01*
X449542Y421929D01*
X449352Y421897D01*
X449130Y421833D01*
X448898Y421738D01*
X448782Y421675D01*
X448665Y421612D01*
X448560Y421527D01*
X448454Y421432D01*
X448443Y421421D01*
X448433Y421411D01*
X448412Y421379D01*
X448369Y421337D01*
X448338Y421284D01*
X448296Y421221D01*
X448243Y421147D01*
X448200Y421062D01*
X448148Y420967D01*
X448105Y420861D01*
X448021Y420608D01*
X447957Y420333D01*
X447947Y420175D01*
X447936Y420005D01*
X446711Y420132D01*
Y420154D01*
X446721Y420196D01*
X446732Y420259D01*
X446742Y420354D01*
X446763Y420471D01*
X446795Y420608D01*
X446827Y420756D01*
X446880Y420914D01*
X446932Y421073D01*
X446996Y421252D01*
X447080Y421421D01*
X447165Y421590D01*
X447271Y421770D01*
X447387Y421929D01*
X447514Y422087D01*
X447662Y422225D01*
X447672Y422235D01*
X447704Y422256D01*
X447746Y422288D01*
X447809Y422341D01*
X447894Y422393D01*
X448000Y422457D01*
X448116Y422520D01*
X448253Y422594D01*
X448401Y422658D01*
X448570Y422721D01*
X448750Y422785D01*
X448951Y422837D01*
X449162Y422890D01*
X449384Y422922D01*
X449627Y422943D01*
X449880Y422954D01*
X450018D01*
X450113Y422943D01*
D02*
G37*
G36*
X434961D02*
X435077Y422932D01*
X435214Y422911D01*
X435373Y422890D01*
X435531Y422859D01*
X435711Y422816D01*
X435891Y422763D01*
X436081Y422700D01*
X436260Y422626D01*
X436451Y422531D01*
X436630Y422425D01*
X436799Y422309D01*
X436958Y422172D01*
X436968Y422161D01*
X436989Y422140D01*
X437032Y422087D01*
X437085Y422034D01*
X437148Y421960D01*
X437222Y421865D01*
X437296Y421760D01*
X437370Y421633D01*
X437444Y421506D01*
X437518Y421358D01*
X437592Y421199D01*
X437655Y421031D01*
X437708Y420840D01*
X437750Y420650D01*
X437771Y420449D01*
X437782Y420238D01*
Y420227D01*
Y420217D01*
Y420185D01*
Y420143D01*
X437771Y420027D01*
X437750Y419879D01*
X437719Y419699D01*
X437676Y419509D01*
X437623Y419298D01*
X437539Y419086D01*
Y419076D01*
X437528Y419065D01*
X437518Y419033D01*
X437497Y418991D01*
X437433Y418875D01*
X437349Y418727D01*
X437233Y418547D01*
X437095Y418347D01*
X436937Y418135D01*
X436736Y417903D01*
X436725Y417892D01*
X436715Y417871D01*
X436672Y417839D01*
X436630Y417787D01*
X436567Y417723D01*
X436493Y417649D01*
X436408Y417554D01*
X436303Y417459D01*
X436176Y417343D01*
X436038Y417216D01*
X435891Y417068D01*
X435722Y416920D01*
X435542Y416751D01*
X435341Y416582D01*
X435119Y416392D01*
X434887Y416191D01*
X434876Y416180D01*
X434844Y416149D01*
X434781Y416106D01*
X434718Y416043D01*
X434622Y415969D01*
X434528Y415885D01*
X434306Y415694D01*
X434073Y415494D01*
X433851Y415282D01*
X433745Y415187D01*
X433650Y415103D01*
X433566Y415018D01*
X433503Y414955D01*
X433492Y414944D01*
X433450Y414902D01*
X433397Y414839D01*
X433323Y414754D01*
X433238Y414659D01*
X433154Y414553D01*
X432985Y414321D01*
X437793D01*
Y413169D01*
X431336D01*
Y413190D01*
Y413243D01*
Y413328D01*
X431347Y413433D01*
X431357Y413560D01*
X431389Y413697D01*
X431421Y413845D01*
X431474Y413993D01*
Y414004D01*
X431484Y414025D01*
X431495Y414057D01*
X431516Y414109D01*
X431548Y414162D01*
X431579Y414236D01*
X431664Y414405D01*
X431770Y414606D01*
X431907Y414828D01*
X432066Y415061D01*
X432256Y415293D01*
X432266Y415303D01*
X432277Y415325D01*
X432309Y415356D01*
X432361Y415409D01*
X432414Y415462D01*
X432488Y415536D01*
X432562Y415620D01*
X432657Y415716D01*
X432763Y415821D01*
X432879Y415927D01*
X433006Y416054D01*
X433154Y416180D01*
X433302Y416318D01*
X433471Y416455D01*
X433640Y416603D01*
X433830Y416762D01*
X433851Y416772D01*
X433904Y416825D01*
X433978Y416888D01*
X434084Y416983D01*
X434211Y417089D01*
X434358Y417216D01*
X434528Y417353D01*
X434697Y417512D01*
X435056Y417839D01*
X435405Y418188D01*
X435574Y418357D01*
X435732Y418526D01*
X435869Y418685D01*
X435986Y418833D01*
X435996Y418843D01*
X436007Y418864D01*
X436038Y418907D01*
X436070Y418960D01*
X436123Y419033D01*
X436165Y419107D01*
X436271Y419298D01*
X436377Y419520D01*
X436472Y419762D01*
X436535Y420016D01*
X436546Y420143D01*
X436556Y420270D01*
Y420280D01*
Y420301D01*
Y420344D01*
X436546Y420386D01*
Y420449D01*
X436525Y420523D01*
X436493Y420682D01*
X436429Y420872D01*
X436334Y421073D01*
X436282Y421178D01*
X436208Y421273D01*
X436133Y421369D01*
X436038Y421464D01*
X436028Y421474D01*
X436017Y421485D01*
X435986Y421506D01*
X435943Y421538D01*
X435891Y421580D01*
X435827Y421622D01*
X435679Y421717D01*
X435478Y421802D01*
X435257Y421886D01*
X434992Y421939D01*
X434844Y421960D01*
X434612D01*
X434549Y421950D01*
X434475D01*
X434390Y421929D01*
X434200Y421897D01*
X433978Y421833D01*
X433745Y421738D01*
X433629Y421675D01*
X433513Y421612D01*
X433407Y421527D01*
X433302Y421432D01*
X433291Y421421D01*
X433281Y421411D01*
X433260Y421379D01*
X433217Y421337D01*
X433186Y421284D01*
X433143Y421221D01*
X433090Y421147D01*
X433048Y421062D01*
X432995Y420967D01*
X432953Y420861D01*
X432868Y420608D01*
X432805Y420333D01*
X432795Y420175D01*
X432784Y420005D01*
X431558Y420132D01*
Y420154D01*
X431569Y420196D01*
X431579Y420259D01*
X431590Y420354D01*
X431611Y420471D01*
X431643Y420608D01*
X431674Y420756D01*
X431727Y420914D01*
X431780Y421073D01*
X431844Y421252D01*
X431928Y421421D01*
X432013Y421590D01*
X432118Y421770D01*
X432234Y421929D01*
X432361Y422087D01*
X432509Y422225D01*
X432520Y422235D01*
X432551Y422256D01*
X432594Y422288D01*
X432657Y422341D01*
X432742Y422393D01*
X432847Y422457D01*
X432964Y422520D01*
X433101Y422594D01*
X433249Y422658D01*
X433418Y422721D01*
X433598Y422785D01*
X433798Y422837D01*
X434010Y422890D01*
X434232Y422922D01*
X434475Y422943D01*
X434728Y422954D01*
X434866D01*
X434961Y422943D01*
D02*
G37*
G36*
X423602D02*
X423718Y422932D01*
X423855Y422911D01*
X424014Y422890D01*
X424172Y422859D01*
X424352Y422816D01*
X424532Y422763D01*
X424722Y422700D01*
X424902Y422626D01*
X425092Y422531D01*
X425271Y422425D01*
X425440Y422309D01*
X425599Y422172D01*
X425609Y422161D01*
X425630Y422140D01*
X425673Y422087D01*
X425726Y422034D01*
X425789Y421960D01*
X425863Y421865D01*
X425937Y421760D01*
X426011Y421633D01*
X426085Y421506D01*
X426159Y421358D01*
X426233Y421199D01*
X426296Y421031D01*
X426349Y420840D01*
X426391Y420650D01*
X426413Y420449D01*
X426423Y420238D01*
Y420227D01*
Y420217D01*
Y420185D01*
Y420143D01*
X426413Y420027D01*
X426391Y419879D01*
X426360Y419699D01*
X426317Y419509D01*
X426264Y419298D01*
X426180Y419086D01*
Y419076D01*
X426169Y419065D01*
X426159Y419033D01*
X426138Y418991D01*
X426074Y418875D01*
X425990Y418727D01*
X425874Y418547D01*
X425736Y418347D01*
X425578Y418135D01*
X425377Y417903D01*
X425366Y417892D01*
X425356Y417871D01*
X425314Y417839D01*
X425271Y417787D01*
X425208Y417723D01*
X425134Y417649D01*
X425049Y417554D01*
X424944Y417459D01*
X424817Y417343D01*
X424680Y417216D01*
X424532Y417068D01*
X424363Y416920D01*
X424183Y416751D01*
X423982Y416582D01*
X423760Y416392D01*
X423528Y416191D01*
X423517Y416180D01*
X423486Y416149D01*
X423422Y416106D01*
X423359Y416043D01*
X423264Y415969D01*
X423169Y415885D01*
X422947Y415694D01*
X422714Y415494D01*
X422492Y415282D01*
X422387Y415187D01*
X422292Y415103D01*
X422207Y415018D01*
X422144Y414955D01*
X422133Y414944D01*
X422091Y414902D01*
X422038Y414839D01*
X421964Y414754D01*
X421880Y414659D01*
X421795Y414553D01*
X421626Y414321D01*
X426434D01*
Y413169D01*
X419977D01*
Y413190D01*
Y413243D01*
Y413328D01*
X419988Y413433D01*
X419999Y413560D01*
X420030Y413697D01*
X420062Y413845D01*
X420115Y413993D01*
Y414004D01*
X420125Y414025D01*
X420136Y414057D01*
X420157Y414109D01*
X420189Y414162D01*
X420220Y414236D01*
X420305Y414405D01*
X420411Y414606D01*
X420548Y414828D01*
X420707Y415061D01*
X420897Y415293D01*
X420907Y415303D01*
X420918Y415325D01*
X420950Y415356D01*
X421003Y415409D01*
X421055Y415462D01*
X421129Y415536D01*
X421203Y415620D01*
X421298Y415716D01*
X421404Y415821D01*
X421520Y415927D01*
X421647Y416054D01*
X421795Y416180D01*
X421943Y416318D01*
X422112Y416455D01*
X422281Y416603D01*
X422471Y416762D01*
X422492Y416772D01*
X422545Y416825D01*
X422619Y416888D01*
X422725Y416983D01*
X422852Y417089D01*
X422999Y417216D01*
X423169Y417353D01*
X423338Y417512D01*
X423697Y417839D01*
X424046Y418188D01*
X424215Y418357D01*
X424373Y418526D01*
X424510Y418685D01*
X424627Y418833D01*
X424637Y418843D01*
X424648Y418864D01*
X424680Y418907D01*
X424711Y418960D01*
X424764Y419033D01*
X424806Y419107D01*
X424912Y419298D01*
X425018Y419520D01*
X425113Y419762D01*
X425176Y420016D01*
X425187Y420143D01*
X425197Y420270D01*
Y420280D01*
Y420301D01*
Y420344D01*
X425187Y420386D01*
Y420449D01*
X425166Y420523D01*
X425134Y420682D01*
X425070Y420872D01*
X424975Y421073D01*
X424923Y421178D01*
X424849Y421273D01*
X424775Y421369D01*
X424680Y421464D01*
X424669Y421474D01*
X424658Y421485D01*
X424627Y421506D01*
X424585Y421538D01*
X424532Y421580D01*
X424468Y421622D01*
X424320Y421717D01*
X424119Y421802D01*
X423898Y421886D01*
X423633Y421939D01*
X423486Y421960D01*
X423253D01*
X423190Y421950D01*
X423116D01*
X423031Y421929D01*
X422841Y421897D01*
X422619Y421833D01*
X422387Y421738D01*
X422270Y421675D01*
X422154Y421612D01*
X422048Y421527D01*
X421943Y421432D01*
X421932Y421421D01*
X421922Y421411D01*
X421901Y421379D01*
X421858Y421337D01*
X421827Y421284D01*
X421784Y421221D01*
X421731Y421147D01*
X421689Y421062D01*
X421636Y420967D01*
X421594Y420861D01*
X421510Y420608D01*
X421446Y420333D01*
X421436Y420175D01*
X421425Y420005D01*
X420199Y420132D01*
Y420154D01*
X420210Y420196D01*
X420220Y420259D01*
X420231Y420354D01*
X420252Y420471D01*
X420284Y420608D01*
X420316Y420756D01*
X420368Y420914D01*
X420421Y421073D01*
X420485Y421252D01*
X420569Y421421D01*
X420654Y421590D01*
X420759Y421770D01*
X420876Y421929D01*
X421003Y422087D01*
X421150Y422225D01*
X421161Y422235D01*
X421193Y422256D01*
X421235Y422288D01*
X421298Y422341D01*
X421383Y422393D01*
X421488Y422457D01*
X421605Y422520D01*
X421742Y422594D01*
X421890Y422658D01*
X422059Y422721D01*
X422239Y422785D01*
X422439Y422837D01*
X422651Y422890D01*
X422873Y422922D01*
X423116Y422943D01*
X423369Y422954D01*
X423507D01*
X423602Y422943D01*
D02*
G37*
G36*
X417072Y413169D02*
X415878D01*
Y420787D01*
X415857Y420766D01*
X415804Y420714D01*
X415709Y420639D01*
X415571Y420534D01*
X415413Y420407D01*
X415212Y420270D01*
X414990Y420122D01*
X414737Y419963D01*
X414726D01*
X414705Y419942D01*
X414673Y419921D01*
X414620Y419900D01*
X414557Y419858D01*
X414483Y419826D01*
X414314Y419731D01*
X414124Y419636D01*
X413912Y419530D01*
X413690Y419435D01*
X413479Y419350D01*
Y420502D01*
X413490Y420513D01*
X413521Y420523D01*
X413574Y420555D01*
X413648Y420587D01*
X413733Y420629D01*
X413838Y420692D01*
X413955Y420756D01*
X414071Y420819D01*
X414346Y420988D01*
X414641Y421189D01*
X414948Y421400D01*
X415233Y421643D01*
X415244Y421654D01*
X415265Y421675D01*
X415307Y421707D01*
X415360Y421760D01*
X415413Y421823D01*
X415487Y421886D01*
X415645Y422066D01*
X415825Y422256D01*
X416005Y422478D01*
X416163Y422710D01*
X416300Y422954D01*
X417072D01*
Y413169D01*
D02*
G37*
G36*
X442452Y422943D02*
X442526Y422932D01*
X442716Y422911D01*
X442928Y422880D01*
X443160Y422816D01*
X443393Y422742D01*
X443625Y422637D01*
X443636D01*
X443657Y422626D01*
X443689Y422605D01*
X443731Y422573D01*
X443837Y422510D01*
X443974Y422404D01*
X444132Y422277D01*
X444291Y422119D01*
X444460Y421929D01*
X444608Y421717D01*
Y421707D01*
X444629Y421686D01*
X444640Y421654D01*
X444671Y421612D01*
X444703Y421559D01*
X444745Y421485D01*
X444777Y421400D01*
X444830Y421316D01*
X444925Y421104D01*
X445020Y420861D01*
X445126Y420576D01*
X445210Y420270D01*
Y420259D01*
X445221Y420227D01*
X445231Y420185D01*
X445242Y420111D01*
X445263Y420027D01*
X445284Y419921D01*
X445305Y419805D01*
X445326Y419667D01*
X445337Y419509D01*
X445358Y419340D01*
X445379Y419150D01*
X445400Y418949D01*
X445411Y418727D01*
X445421Y418494D01*
X445432Y418241D01*
Y417977D01*
Y417956D01*
Y417903D01*
Y417808D01*
Y417691D01*
X445421Y417544D01*
X445411Y417385D01*
X445400Y417195D01*
X445390Y416994D01*
X445369Y416772D01*
X445347Y416550D01*
X445284Y416085D01*
X445189Y415631D01*
X445136Y415409D01*
X445073Y415208D01*
Y415198D01*
X445052Y415166D01*
X445041Y415103D01*
X445009Y415039D01*
X444967Y414944D01*
X444925Y414849D01*
X444872Y414733D01*
X444809Y414606D01*
X444661Y414342D01*
X444481Y414078D01*
X444270Y413814D01*
X444143Y413697D01*
X444016Y413581D01*
X444006Y413571D01*
X443984Y413560D01*
X443942Y413528D01*
X443889Y413497D01*
X443826Y413454D01*
X443741Y413401D01*
X443646Y413349D01*
X443530Y413296D01*
X443414Y413243D01*
X443276Y413190D01*
X443139Y413148D01*
X442981Y413095D01*
X442812Y413063D01*
X442632Y413032D01*
X442452Y413021D01*
X442252Y413011D01*
X442188D01*
X442114Y413021D01*
X442019Y413032D01*
X441903Y413042D01*
X441765Y413063D01*
X441618Y413095D01*
X441448Y413137D01*
X441279Y413190D01*
X441100Y413254D01*
X440910Y413338D01*
X440730Y413433D01*
X440550Y413549D01*
X440371Y413687D01*
X440202Y413835D01*
X440043Y414014D01*
X440033Y414025D01*
X440001Y414067D01*
X439959Y414141D01*
X439895Y414247D01*
X439821Y414384D01*
X439737Y414543D01*
X439652Y414743D01*
X439568Y414965D01*
X439473Y415229D01*
X439388Y415515D01*
X439304Y415842D01*
X439230Y416202D01*
X439166Y416593D01*
X439124Y417015D01*
X439092Y417480D01*
X439082Y417977D01*
Y417998D01*
Y418051D01*
Y418146D01*
X439092Y418262D01*
Y418410D01*
X439103Y418579D01*
X439113Y418769D01*
X439124Y418970D01*
X439145Y419192D01*
X439166Y419414D01*
X439230Y419879D01*
X439314Y420333D01*
X439367Y420555D01*
X439430Y420756D01*
Y420766D01*
X439451Y420798D01*
X439473Y420861D01*
X439494Y420935D01*
X439536Y421020D01*
X439578Y421126D01*
X439631Y421231D01*
X439694Y421358D01*
X439842Y421622D01*
X440033Y421886D01*
X440244Y422150D01*
X440360Y422267D01*
X440487Y422383D01*
X440498Y422393D01*
X440519Y422404D01*
X440561Y422436D01*
X440614Y422467D01*
X440677Y422520D01*
X440762Y422563D01*
X440857Y422615D01*
X440973Y422668D01*
X441089Y422721D01*
X441227Y422774D01*
X441375Y422827D01*
X441522Y422869D01*
X441692Y422901D01*
X441871Y422932D01*
X442061Y422943D01*
X442252Y422954D01*
X442378D01*
X442452Y422943D01*
D02*
G37*
G36*
X428114Y413000D02*
X427152D01*
X429984Y423080D01*
X430945D01*
X428114Y413000D01*
D02*
G37*
%LPC*%
G36*
X413093Y448759D02*
X413019D01*
X412967Y448748D01*
X412903Y448738D01*
X412819Y448717D01*
X412639Y448674D01*
X412428Y448579D01*
X412322Y448526D01*
X412206Y448452D01*
X412090Y448378D01*
X411973Y448273D01*
X411857Y448167D01*
X411741Y448040D01*
X411730Y448030D01*
X411720Y448009D01*
X411688Y447966D01*
X411646Y447903D01*
X411604Y447829D01*
X411561Y447744D01*
X411508Y447639D01*
X411456Y447512D01*
X411392Y447375D01*
X411339Y447216D01*
X411297Y447047D01*
X411255Y446857D01*
X411213Y446656D01*
X411181Y446445D01*
X411170Y446212D01*
X411160Y445959D01*
Y445948D01*
Y445895D01*
Y445832D01*
X411170Y445737D01*
X411181Y445621D01*
X411192Y445494D01*
X411202Y445346D01*
X411234Y445198D01*
X411297Y444870D01*
X411392Y444532D01*
X411456Y444374D01*
X411530Y444215D01*
X411614Y444067D01*
X411709Y443941D01*
X411720Y443930D01*
X411730Y443909D01*
X411762Y443877D01*
X411804Y443845D01*
X411857Y443793D01*
X411921Y443740D01*
X412079Y443624D01*
X412280Y443497D01*
X412502Y443402D01*
X412629Y443359D01*
X412755Y443328D01*
X412893Y443307D01*
X413041Y443296D01*
X413115D01*
X413178Y443307D01*
X413241Y443317D01*
X413326Y443328D01*
X413516Y443381D01*
X413727Y443455D01*
X413844Y443518D01*
X413960Y443581D01*
X414076Y443655D01*
X414192Y443740D01*
X414309Y443845D01*
X414414Y443962D01*
X414425Y443972D01*
X414435Y443993D01*
X414467Y444036D01*
X414499Y444089D01*
X414552Y444162D01*
X414594Y444247D01*
X414647Y444353D01*
X414700Y444479D01*
X414752Y444617D01*
X414805Y444765D01*
X414858Y444944D01*
X414900Y445135D01*
X414932Y445335D01*
X414964Y445557D01*
X414974Y445800D01*
X414985Y446054D01*
Y446064D01*
Y446117D01*
Y446181D01*
X414974Y446276D01*
X414964Y446392D01*
X414953Y446519D01*
X414943Y446656D01*
X414911Y446815D01*
X414847Y447142D01*
X414752Y447480D01*
X414689Y447649D01*
X414615Y447797D01*
X414520Y447945D01*
X414425Y448083D01*
X414414Y448093D01*
X414404Y448114D01*
X414372Y448146D01*
X414330Y448188D01*
X414277Y448241D01*
X414203Y448294D01*
X414044Y448421D01*
X413854Y448548D01*
X413632Y448653D01*
X413506Y448695D01*
X413368Y448727D01*
X413231Y448748D01*
X413093Y448759D01*
D02*
G37*
G36*
X460241Y451147D02*
X456955D01*
Y447924D01*
X459871D01*
X459945Y447935D01*
X460029D01*
X460230Y447945D01*
X460452Y447966D01*
X460685Y447998D01*
X460906Y448040D01*
X461107Y448104D01*
X461118D01*
X461128Y448114D01*
X461192Y448135D01*
X461276Y448178D01*
X461393Y448241D01*
X461509Y448326D01*
X461636Y448421D01*
X461762Y448548D01*
X461868Y448685D01*
X461879Y448706D01*
X461910Y448759D01*
X461953Y448833D01*
X462005Y448949D01*
X462048Y449076D01*
X462090Y449224D01*
X462122Y449393D01*
X462132Y449562D01*
Y449572D01*
Y449594D01*
Y449625D01*
X462122Y449678D01*
Y449731D01*
X462111Y449805D01*
X462069Y449963D01*
X462005Y450143D01*
X461921Y450333D01*
X461794Y450513D01*
X461710Y450608D01*
X461625Y450692D01*
X461614Y450703D01*
X461604Y450714D01*
X461572Y450735D01*
X461530Y450766D01*
X461477Y450798D01*
X461403Y450840D01*
X461329Y450883D01*
X461234Y450925D01*
X461128Y450967D01*
X461012Y450999D01*
X460885Y451041D01*
X460748Y451073D01*
X460589Y451105D01*
X460420Y451126D01*
X460241Y451147D01*
D02*
G37*
G36*
X435801Y446022D02*
X435790D01*
X435769Y446012D01*
X435727Y446001D01*
X435674Y445980D01*
X435611Y445948D01*
X435526Y445927D01*
X435420Y445895D01*
X435315Y445864D01*
X435177Y445832D01*
X435029Y445790D01*
X434871Y445758D01*
X434691Y445716D01*
X434501Y445673D01*
X434300Y445642D01*
X434078Y445600D01*
X433835Y445568D01*
X433804D01*
X433761Y445557D01*
X433719Y445547D01*
X433582Y445526D01*
X433423Y445494D01*
X433254Y445462D01*
X433085Y445420D01*
X432927Y445378D01*
X432789Y445325D01*
X432779Y445314D01*
X432736Y445304D01*
X432684Y445272D01*
X432620Y445230D01*
X432536Y445166D01*
X432462Y445103D01*
X432388Y445029D01*
X432314Y444934D01*
X432303Y444923D01*
X432293Y444892D01*
X432261Y444839D01*
X432240Y444765D01*
X432208Y444680D01*
X432176Y444585D01*
X432166Y444479D01*
X432155Y444363D01*
Y444342D01*
X432166Y444289D01*
X432176Y444194D01*
X432198Y444089D01*
X432240Y443962D01*
X432303Y443824D01*
X432398Y443698D01*
X432515Y443571D01*
X432536Y443560D01*
X432578Y443518D01*
X432663Y443476D01*
X432779Y443412D01*
X432927Y443359D01*
X433117Y443307D01*
X433328Y443264D01*
X433571Y443254D01*
X433687D01*
X433751Y443264D01*
X433825Y443275D01*
X433983Y443296D01*
X434184Y443328D01*
X434385Y443381D01*
X434596Y443455D01*
X434808Y443550D01*
X434818D01*
X434829Y443560D01*
X434892Y443602D01*
X434987Y443676D01*
X435114Y443772D01*
X435241Y443888D01*
X435368Y444036D01*
X435494Y444194D01*
X435600Y444384D01*
X435611Y444406D01*
X435632Y444458D01*
X435663Y444553D01*
X435695Y444680D01*
X435727Y444849D01*
X435758Y445061D01*
X435780Y445304D01*
X435790Y445578D01*
X435801Y446022D01*
D02*
G37*
G36*
X404091Y451284D02*
X403848D01*
X403784Y451274D01*
X403679D01*
X403563Y451253D01*
X403425Y451231D01*
X403277Y451200D01*
X403108Y451168D01*
X402929Y451115D01*
X402738Y451052D01*
X402538Y450978D01*
X402347Y450883D01*
X402147Y450777D01*
X401946Y450650D01*
X401745Y450502D01*
X401555Y450333D01*
X401544Y450323D01*
X401513Y450291D01*
X401460Y450228D01*
X401407Y450154D01*
X401323Y450048D01*
X401249Y449921D01*
X401153Y449763D01*
X401069Y449594D01*
X400974Y449382D01*
X400879Y449150D01*
X400805Y448896D01*
X400731Y448611D01*
X400667Y448304D01*
X400615Y447966D01*
X400583Y447597D01*
X400572Y447195D01*
Y447174D01*
Y447121D01*
X400583Y447026D01*
Y446899D01*
X400604Y446751D01*
X400625Y446582D01*
X400646Y446392D01*
X400689Y446191D01*
X400741Y445969D01*
X400805Y445737D01*
X400879Y445515D01*
X400974Y445283D01*
X401079Y445050D01*
X401206Y444828D01*
X401344Y444617D01*
X401513Y444416D01*
X401523Y444406D01*
X401555Y444374D01*
X401608Y444321D01*
X401682Y444258D01*
X401777Y444184D01*
X401893Y444099D01*
X402020Y444004D01*
X402168Y443919D01*
X402326Y443824D01*
X402517Y443729D01*
X402707Y443645D01*
X402918Y443571D01*
X403140Y443507D01*
X403383Y443455D01*
X403626Y443423D01*
X403890Y443412D01*
X403954D01*
X404027Y443423D01*
X404133Y443433D01*
X404260Y443444D01*
X404397Y443465D01*
X404566Y443497D01*
X404735Y443539D01*
X404926Y443592D01*
X405116Y443655D01*
X405317Y443740D01*
X405517Y443845D01*
X405718Y443962D01*
X405919Y444089D01*
X406109Y444247D01*
X406289Y444427D01*
X406299Y444437D01*
X406331Y444479D01*
X406373Y444532D01*
X406437Y444617D01*
X406511Y444723D01*
X406595Y444849D01*
X406680Y444997D01*
X406764Y445177D01*
X406849Y445367D01*
X406944Y445589D01*
X407018Y445821D01*
X407092Y446086D01*
X407155Y446371D01*
X407197Y446667D01*
X407229Y446994D01*
X407240Y447332D01*
Y447343D01*
Y447385D01*
Y447449D01*
X407229Y447533D01*
Y447639D01*
X407219Y447755D01*
X407208Y447892D01*
X407187Y448040D01*
X407145Y448368D01*
X407071Y448717D01*
X406965Y449065D01*
X406828Y449414D01*
Y449425D01*
X406806Y449456D01*
X406785Y449498D01*
X406754Y449562D01*
X406711Y449636D01*
X406659Y449720D01*
X406532Y449921D01*
X406363Y450143D01*
X406162Y450365D01*
X405929Y450587D01*
X405655Y450788D01*
X405644Y450798D01*
X405623Y450809D01*
X405581Y450830D01*
X405517Y450862D01*
X405443Y450904D01*
X405359Y450946D01*
X405264Y450988D01*
X405148Y451041D01*
X405021Y451083D01*
X404894Y451126D01*
X404598Y451210D01*
X404271Y451263D01*
X404091Y451284D01*
D02*
G37*
G36*
X455195Y431445D02*
X455185D01*
X455164Y431434D01*
X455121Y431424D01*
X455069Y431403D01*
X455005Y431371D01*
X454921Y431350D01*
X454815Y431318D01*
X454709Y431286D01*
X454572Y431255D01*
X454424Y431212D01*
X454266Y431181D01*
X454086Y431138D01*
X453896Y431096D01*
X453695Y431064D01*
X453473Y431022D01*
X453230Y430990D01*
X453198D01*
X453156Y430980D01*
X453114Y430969D01*
X452976Y430948D01*
X452818Y430916D01*
X452649Y430885D01*
X452480Y430842D01*
X452321Y430800D01*
X452184Y430747D01*
X452173Y430737D01*
X452131Y430726D01*
X452078Y430695D01*
X452015Y430652D01*
X451930Y430589D01*
X451856Y430526D01*
X451782Y430452D01*
X451708Y430356D01*
X451698Y430346D01*
X451687Y430314D01*
X451656Y430261D01*
X451634Y430187D01*
X451603Y430103D01*
X451571Y430008D01*
X451561Y429902D01*
X451550Y429786D01*
Y429765D01*
X451561Y429712D01*
X451571Y429617D01*
X451592Y429511D01*
X451634Y429384D01*
X451698Y429247D01*
X451793Y429120D01*
X451909Y428993D01*
X451930Y428983D01*
X451973Y428941D01*
X452057Y428898D01*
X452173Y428835D01*
X452321Y428782D01*
X452511Y428729D01*
X452723Y428687D01*
X452966Y428676D01*
X453082D01*
X453145Y428687D01*
X453219Y428698D01*
X453378Y428719D01*
X453579Y428750D01*
X453779Y428803D01*
X453991Y428877D01*
X454202Y428972D01*
X454213D01*
X454223Y428983D01*
X454287Y429025D01*
X454382Y429099D01*
X454509Y429194D01*
X454635Y429310D01*
X454762Y429458D01*
X454889Y429617D01*
X454995Y429807D01*
X455005Y429828D01*
X455026Y429881D01*
X455058Y429976D01*
X455090Y430103D01*
X455121Y430272D01*
X455153Y430483D01*
X455174Y430726D01*
X455185Y431001D01*
X455195Y431445D01*
D02*
G37*
G36*
X413310Y436496D02*
X411176D01*
Y433547D01*
X413490D01*
X413574Y433558D01*
X413754D01*
X413955Y433569D01*
X414166Y433590D01*
X414356Y433621D01*
X414441Y433632D01*
X414515Y433653D01*
X414525D01*
X414536Y433664D01*
X414599Y433685D01*
X414684Y433717D01*
X414789Y433769D01*
X414906Y433833D01*
X415032Y433917D01*
X415149Y434023D01*
X415254Y434139D01*
X415265Y434160D01*
X415297Y434203D01*
X415339Y434277D01*
X415381Y434372D01*
X415423Y434498D01*
X415466Y434646D01*
X415497Y434805D01*
X415508Y434995D01*
Y435006D01*
Y435016D01*
Y435080D01*
X415497Y435164D01*
X415476Y435280D01*
X415444Y435418D01*
X415402Y435566D01*
X415349Y435714D01*
X415265Y435851D01*
X415254Y435872D01*
X415223Y435914D01*
X415170Y435978D01*
X415096Y436052D01*
X415001Y436136D01*
X414884Y436221D01*
X414758Y436295D01*
X414599Y436358D01*
X414578Y436369D01*
X414557D01*
X414515Y436379D01*
X414472Y436390D01*
X414409Y436400D01*
X414335Y436411D01*
X414261Y436432D01*
X414166Y436443D01*
X414050Y436453D01*
X413933Y436464D01*
X413796Y436474D01*
X413648Y436485D01*
X413490D01*
X413310Y436496D01*
D02*
G37*
G36*
X413426Y432396D02*
X411176D01*
Y429046D01*
X413817D01*
X413955Y429057D01*
X414092D01*
X414240Y429067D01*
X414377Y429078D01*
X414483Y429088D01*
X414504D01*
X414557Y429099D01*
X414641Y429120D01*
X414747Y429152D01*
X414863Y429184D01*
X414980Y429236D01*
X415106Y429289D01*
X415223Y429353D01*
X415233Y429363D01*
X415275Y429384D01*
X415328Y429426D01*
X415402Y429490D01*
X415476Y429564D01*
X415561Y429659D01*
X415645Y429765D01*
X415719Y429892D01*
X415730Y429913D01*
X415751Y429955D01*
X415783Y430029D01*
X415825Y430135D01*
X415857Y430251D01*
X415888Y430388D01*
X415910Y430547D01*
X415920Y430716D01*
Y430726D01*
Y430737D01*
Y430769D01*
Y430811D01*
X415910Y430906D01*
X415888Y431043D01*
X415846Y431191D01*
X415804Y431350D01*
X415730Y431508D01*
X415635Y431667D01*
X415624Y431688D01*
X415582Y431730D01*
X415518Y431804D01*
X415434Y431889D01*
X415318Y431984D01*
X415180Y432068D01*
X415032Y432153D01*
X414853Y432227D01*
X414842D01*
X414832Y432237D01*
X414800Y432248D01*
X414758Y432258D01*
X414705Y432269D01*
X414652Y432280D01*
X414578Y432301D01*
X414494Y432311D01*
X414388Y432332D01*
X414282Y432343D01*
X414166Y432353D01*
X414039Y432375D01*
X413754Y432385D01*
X413426Y432396D01*
D02*
G37*
G36*
X443086Y434139D02*
X443012D01*
X442959Y434129D01*
X442886Y434118D01*
X442812Y434108D01*
X442621Y434055D01*
X442410Y433970D01*
X442304Y433917D01*
X442188Y433854D01*
X442072Y433769D01*
X441956Y433674D01*
X441839Y433569D01*
X441734Y433452D01*
X441723Y433442D01*
X441713Y433421D01*
X441681Y433378D01*
X441649Y433326D01*
X441607Y433252D01*
X441554Y433167D01*
X441501Y433061D01*
X441448Y432945D01*
X441396Y432818D01*
X441343Y432670D01*
X441301Y432501D01*
X441248Y432332D01*
X441216Y432142D01*
X441184Y431931D01*
X441174Y431709D01*
X441163Y431476D01*
Y431466D01*
Y431424D01*
Y431360D01*
X441174Y431265D01*
Y431170D01*
X441184Y431043D01*
X441195Y430916D01*
X441205Y430769D01*
X441248Y430473D01*
X441311Y430166D01*
X441343Y430018D01*
X441385Y429881D01*
X441438Y429754D01*
X441501Y429638D01*
X441512Y429627D01*
X441533Y429596D01*
X441565Y429553D01*
X441607Y429490D01*
X441660Y429426D01*
X441734Y429353D01*
X441818Y429268D01*
X441903Y429184D01*
X442009Y429088D01*
X442125Y429015D01*
X442252Y428930D01*
X442389Y428867D01*
X442537Y428803D01*
X442695Y428761D01*
X442854Y428729D01*
X443033Y428719D01*
X443107D01*
X443160Y428729D01*
X443234Y428740D01*
X443308Y428750D01*
X443498Y428803D01*
X443710Y428888D01*
X443815Y428941D01*
X443932Y429004D01*
X444048Y429078D01*
X444164Y429173D01*
X444280Y429279D01*
X444386Y429395D01*
X444397Y429405D01*
X444407Y429426D01*
X444439Y429469D01*
X444481Y429522D01*
X444523Y429596D01*
X444566Y429680D01*
X444618Y429786D01*
X444682Y429913D01*
X444735Y430039D01*
X444787Y430198D01*
X444830Y430367D01*
X444872Y430547D01*
X444914Y430747D01*
X444946Y430959D01*
X444957Y431191D01*
X444967Y431434D01*
Y431455D01*
Y431498D01*
Y431572D01*
X444957Y431656D01*
X444946Y431772D01*
X444935Y431910D01*
X444925Y432058D01*
X444904Y432206D01*
X444830Y432544D01*
X444735Y432882D01*
X444671Y433040D01*
X444597Y433199D01*
X444513Y433347D01*
X444418Y433474D01*
X444407Y433484D01*
X444397Y433505D01*
X444365Y433537D01*
X444323Y433579D01*
X444270Y433632D01*
X444206Y433685D01*
X444048Y433812D01*
X443847Y433928D01*
X443625Y434034D01*
X443498Y434076D01*
X443372Y434108D01*
X443234Y434129D01*
X443086Y434139D01*
D02*
G37*
G36*
X434084Y436707D02*
X433841D01*
X433777Y436696D01*
X433672D01*
X433555Y436675D01*
X433418Y436654D01*
X433270Y436622D01*
X433101Y436591D01*
X432921Y436538D01*
X432731Y436474D01*
X432530Y436400D01*
X432340Y436305D01*
X432139Y436200D01*
X431939Y436073D01*
X431738Y435925D01*
X431548Y435756D01*
X431537Y435745D01*
X431506Y435714D01*
X431453Y435650D01*
X431400Y435576D01*
X431315Y435471D01*
X431241Y435344D01*
X431146Y435185D01*
X431062Y435016D01*
X430967Y434805D01*
X430872Y434572D01*
X430798Y434319D01*
X430723Y434034D01*
X430660Y433727D01*
X430607Y433389D01*
X430576Y433019D01*
X430565Y432618D01*
Y432597D01*
Y432544D01*
X430576Y432449D01*
Y432322D01*
X430597Y432174D01*
X430618Y432005D01*
X430639Y431815D01*
X430681Y431614D01*
X430734Y431392D01*
X430798Y431159D01*
X430872Y430938D01*
X430967Y430705D01*
X431072Y430473D01*
X431199Y430251D01*
X431336Y430039D01*
X431506Y429839D01*
X431516Y429828D01*
X431548Y429796D01*
X431601Y429743D01*
X431674Y429680D01*
X431770Y429606D01*
X431886Y429522D01*
X432013Y429426D01*
X432161Y429342D01*
X432319Y429247D01*
X432509Y429152D01*
X432700Y429067D01*
X432911Y428993D01*
X433133Y428930D01*
X433376Y428877D01*
X433619Y428845D01*
X433883Y428835D01*
X433946D01*
X434020Y428845D01*
X434126Y428856D01*
X434253Y428867D01*
X434390Y428888D01*
X434559Y428919D01*
X434728Y428962D01*
X434918Y429015D01*
X435109Y429078D01*
X435309Y429162D01*
X435510Y429268D01*
X435711Y429384D01*
X435912Y429511D01*
X436102Y429670D01*
X436282Y429849D01*
X436292Y429860D01*
X436324Y429902D01*
X436366Y429955D01*
X436429Y430039D01*
X436503Y430145D01*
X436588Y430272D01*
X436672Y430420D01*
X436757Y430599D01*
X436842Y430790D01*
X436937Y431012D01*
X437011Y431244D01*
X437085Y431508D01*
X437148Y431793D01*
X437190Y432089D01*
X437222Y432417D01*
X437233Y432755D01*
Y432766D01*
Y432808D01*
Y432871D01*
X437222Y432956D01*
Y433061D01*
X437211Y433178D01*
X437201Y433315D01*
X437180Y433463D01*
X437137Y433791D01*
X437063Y434139D01*
X436958Y434488D01*
X436820Y434837D01*
Y434847D01*
X436799Y434879D01*
X436778Y434921D01*
X436746Y434985D01*
X436704Y435058D01*
X436651Y435143D01*
X436525Y435344D01*
X436355Y435566D01*
X436155Y435788D01*
X435922Y436009D01*
X435648Y436210D01*
X435637Y436221D01*
X435616Y436231D01*
X435574Y436252D01*
X435510Y436284D01*
X435436Y436326D01*
X435352Y436369D01*
X435257Y436411D01*
X435140Y436464D01*
X435014Y436506D01*
X434887Y436548D01*
X434591Y436633D01*
X434263Y436686D01*
X434084Y436707D01*
D02*
G37*
G36*
X442241Y421960D02*
X442167D01*
X442104Y421950D01*
X442040Y421939D01*
X441956Y421929D01*
X441765Y421876D01*
X441554Y421791D01*
X441448Y421738D01*
X441332Y421665D01*
X441227Y421590D01*
X441121Y421495D01*
X441015Y421390D01*
X440920Y421263D01*
X440910Y421252D01*
X440899Y421221D01*
X440867Y421168D01*
X440825Y421083D01*
X440783Y420978D01*
X440730Y420851D01*
X440667Y420703D01*
X440614Y420513D01*
X440561Y420301D01*
X440498Y420069D01*
X440445Y419794D01*
X440402Y419498D01*
X440360Y419171D01*
X440339Y418801D01*
X440318Y418410D01*
X440307Y417977D01*
Y417966D01*
Y417945D01*
Y417913D01*
Y417871D01*
Y417818D01*
Y417744D01*
X440318Y417586D01*
X440328Y417396D01*
X440339Y417174D01*
X440350Y416931D01*
X440381Y416677D01*
X440445Y416138D01*
X440487Y415874D01*
X440540Y415610D01*
X440603Y415367D01*
X440688Y415145D01*
X440772Y414944D01*
X440867Y414775D01*
X440878Y414765D01*
X440888Y414743D01*
X440920Y414701D01*
X440973Y414648D01*
X441026Y414595D01*
X441089Y414532D01*
X441248Y414384D01*
X441448Y414236D01*
X441692Y414120D01*
X441818Y414067D01*
X441956Y414025D01*
X442104Y414004D01*
X442252Y413993D01*
X442283D01*
X442336Y414004D01*
X442389D01*
X442463Y414014D01*
X442547Y414035D01*
X442738Y414088D01*
X442843Y414131D01*
X442949Y414183D01*
X443065Y414247D01*
X443181Y414331D01*
X443298Y414416D01*
X443414Y414522D01*
X443530Y414648D01*
X443636Y414786D01*
X443646Y414796D01*
X443657Y414828D01*
X443689Y414870D01*
X443720Y414944D01*
X443773Y415039D01*
X443815Y415166D01*
X443868Y415314D01*
X443921Y415483D01*
X443974Y415684D01*
X444027Y415916D01*
X444080Y416170D01*
X444122Y416466D01*
X444153Y416793D01*
X444185Y417153D01*
X444196Y417544D01*
X444206Y417977D01*
Y417987D01*
Y418008D01*
Y418040D01*
Y418083D01*
Y418135D01*
Y418199D01*
X444196Y418368D01*
X444185Y418558D01*
X444175Y418780D01*
X444164Y419023D01*
X444132Y419277D01*
X444069Y419815D01*
X444016Y420079D01*
X443963Y420333D01*
X443900Y420576D01*
X443826Y420809D01*
X443741Y420999D01*
X443636Y421168D01*
X443625Y421178D01*
X443615Y421199D01*
X443583Y421242D01*
X443541Y421295D01*
X443477Y421348D01*
X443414Y421421D01*
X443340Y421495D01*
X443255Y421569D01*
X443055Y421707D01*
X442812Y421833D01*
X442685Y421886D01*
X442537Y421929D01*
X442399Y421950D01*
X442241Y421960D01*
D02*
G37*
%LPD*%
G36*
X320000Y415000D02*
X332500Y402500D01*
Y392611D01*
X331730Y391988D01*
X330552Y392501D01*
Y393731D01*
X325513D01*
Y395000D01*
X324243D01*
Y400040D01*
X320472D01*
Y400041D01*
X320300Y399793D01*
X316280D01*
Y394503D01*
X313740D01*
Y399793D01*
X309720D01*
Y397778D01*
X308547Y397542D01*
Y397542D01*
X303277D01*
Y391003D01*
X302008D01*
Y389733D01*
X295467D01*
Y385000D01*
X293545D01*
Y389733D01*
X287005D01*
X280465D01*
Y385000D01*
X265000D01*
X248500D01*
Y381003D01*
X248497Y381000D01*
X238364D01*
X237578Y382520D01*
X235809Y385000D01*
X208192D01*
X206423Y382522D01*
X205637Y381002D01*
X205636Y381003D01*
X195500D01*
Y385000D01*
X188000D01*
X188000Y415000D01*
X320000Y415000D01*
D02*
G37*
G36*
X205636Y366005D02*
X206422Y364485D01*
X208407Y361703D01*
X210883Y359346D01*
X213759Y357500D01*
X216933Y356230D01*
X220290Y355584D01*
X223708Y355584D01*
X227065Y356230D01*
X230239Y357499D01*
X233116Y359345D01*
X235592Y361701D01*
X237577Y364483D01*
X238363Y366003D01*
X238364Y366003D01*
X248500D01*
Y346003D01*
X195500D01*
Y366003D01*
X195503Y366005D01*
X205636D01*
X205636Y366005D01*
D02*
G37*
G36*
X225441Y342290D02*
X225441D01*
Y338270D01*
X230731D01*
Y337000D01*
X232001D01*
Y331710D01*
X239557D01*
X242303Y328963D01*
X241730Y327741D01*
X239720Y326908D01*
X238931Y326119D01*
X215495D01*
X199375Y342239D01*
X199861Y343413D01*
X225086D01*
X225441Y342290D01*
D02*
G37*
%LPC*%
G36*
X251040Y403543D02*
X223270D01*
Y401003D01*
X248500D01*
Y397772D01*
X251040D01*
Y403543D01*
D02*
G37*
G36*
X220730D02*
X192960D01*
Y397772D01*
X195500D01*
Y401003D01*
X220730D01*
Y403543D01*
D02*
G37*
G36*
X278542Y402043D02*
X270772D01*
Y396273D01*
X278542D01*
Y402043D01*
D02*
G37*
G36*
X268232D02*
X260462D01*
Y396273D01*
X268232D01*
Y402043D01*
D02*
G37*
G36*
X330552Y400040D02*
X326782D01*
Y396270D01*
X330552D01*
Y400040D01*
D02*
G37*
G36*
X293545Y397542D02*
X288275D01*
Y392272D01*
X293545D01*
Y397542D01*
D02*
G37*
G36*
X300737D02*
X295467D01*
Y392272D01*
X300737D01*
Y397542D01*
D02*
G37*
G36*
X285735D02*
X280465D01*
Y392272D01*
X285735D01*
Y397542D01*
D02*
G37*
G36*
X251040Y395233D02*
X248500D01*
Y389463D01*
X251040D01*
Y395233D01*
D02*
G37*
G36*
X223270Y391421D02*
Y389463D01*
X230307D01*
X230240Y389506D01*
X227067Y390775D01*
X223710Y391421D01*
X223270Y391421D01*
D02*
G37*
G36*
X220292Y391421D02*
X216935Y390775D01*
X213761Y389506D01*
X213693Y389463D01*
X220730D01*
Y391421D01*
X220292Y391421D01*
D02*
G37*
G36*
X195500Y395233D02*
X192960D01*
Y389463D01*
X195500D01*
Y395233D01*
D02*
G37*
G36*
X278542Y393732D02*
X270772D01*
Y387962D01*
X278542D01*
Y393732D01*
D02*
G37*
G36*
X268232D02*
X260462D01*
Y387962D01*
X268232D01*
Y393732D01*
D02*
G37*
G36*
X229461Y335730D02*
X225441D01*
Y331710D01*
X229461D01*
Y335730D01*
D02*
G37*
%LPD*%
G36*
X413696Y266135D02*
X414436Y264970D01*
X414210Y264425D01*
Y262121D01*
X415092Y259993D01*
X416720Y258365D01*
X418848Y257483D01*
X421152D01*
X423280Y258365D01*
X423559Y258643D01*
X423892D01*
X425960Y256575D01*
Y254217D01*
X424690Y253691D01*
X424280Y254102D01*
X422152Y254983D01*
X419848D01*
X417720Y254102D01*
X416091Y252473D01*
X415210Y250345D01*
Y248041D01*
X416091Y245913D01*
X417720Y244284D01*
X419848Y243403D01*
X422152D01*
X423058Y243778D01*
X423775Y243636D01*
X424970D01*
X425960Y242960D01*
Y242379D01*
X425141Y241110D01*
X424718D01*
X423337Y240835D01*
X422842Y240504D01*
X422152Y240790D01*
X419848D01*
X417720Y239909D01*
X416091Y238280D01*
X415210Y236152D01*
Y233848D01*
X416091Y231720D01*
X417720Y230091D01*
X419848Y229210D01*
X422152D01*
X424280Y230091D01*
X424690Y230502D01*
X425960Y229976D01*
Y223310D01*
X425960Y222960D01*
X425960D01*
Y222040D01*
X425960D01*
Y216110D01*
X418209D01*
X415776Y218542D01*
X414605Y219324D01*
X413224Y219599D01*
X404540D01*
Y222530D01*
X391460D01*
Y219456D01*
X391271Y218264D01*
X386119D01*
Y219000D01*
X385806Y220576D01*
X384913Y221913D01*
X381913Y224913D01*
X381911Y224914D01*
X382296Y226184D01*
X391271Y226184D01*
X391460Y224992D01*
Y224450D01*
X396730D01*
Y230990D01*
Y237530D01*
X392448Y237530D01*
X391767Y238800D01*
X392200Y239452D01*
X392540D01*
Y243347D01*
X394968Y245775D01*
X396827Y246544D01*
X398456Y248173D01*
X399337Y250301D01*
Y252605D01*
X399236Y252849D01*
X399550Y253437D01*
X400887Y254330D01*
X412756Y266199D01*
X413696Y266135D01*
D02*
G37*
G36*
X453960Y197993D02*
Y197040D01*
X453960Y196690D01*
Y187960D01*
Y183770D01*
X464000D01*
Y182500D01*
X465270D01*
Y175960D01*
X473121D01*
X474040Y175960D01*
X474391Y174835D01*
Y155495D01*
X471505Y152609D01*
X432495D01*
X396452Y188652D01*
X395281Y189435D01*
X393900Y189709D01*
X374543D01*
Y194468D01*
X375117Y194706D01*
X375812Y194873D01*
X376871Y194165D01*
X378252Y193891D01*
X425960D01*
Y192960D01*
X446040D01*
Y198891D01*
X453062D01*
X453960Y197993D01*
D02*
G37*
%LPC*%
G36*
X399270Y237530D02*
Y232260D01*
X404540D01*
Y237530D01*
X399270D01*
D02*
G37*
G36*
X404540Y229720D02*
X399270D01*
Y224450D01*
X404540D01*
Y229720D01*
D02*
G37*
G36*
X446040Y189040D02*
X437270D01*
Y183770D01*
X446040D01*
Y189040D01*
D02*
G37*
G36*
X434730D02*
X425960D01*
Y183770D01*
X434730D01*
Y189040D01*
D02*
G37*
G36*
X446040Y181230D02*
X437270D01*
Y175960D01*
X446040D01*
Y181230D01*
D02*
G37*
G36*
X434730D02*
X425960D01*
Y175960D01*
X434730D01*
Y181230D01*
D02*
G37*
G36*
X462730D02*
X453960D01*
Y175960D01*
X462730D01*
Y181230D01*
D02*
G37*
%LPD*%
D10*
X55000Y375000D02*
Y416500D01*
X55500Y417000D01*
X55000Y375000D02*
X58040Y371960D01*
X65916D01*
X67250Y373294D01*
X76544D01*
X76750Y373500D01*
X89000Y152000D02*
X94000D01*
X89000D02*
Y152250D01*
X86999Y132001D02*
Y141125D01*
X89000Y143126D01*
Y151000D01*
X88694Y130751D02*
X101095Y118350D01*
X88249Y130751D02*
X88694D01*
X101095Y118350D02*
X103000D01*
X77125Y194000D02*
Y203875D01*
X69960Y192176D02*
Y215960D01*
X70000Y216000D01*
X101750Y359250D02*
Y369750D01*
Y359250D02*
X102000Y359000D01*
X101750Y369750D02*
X102000Y370000D01*
X99750Y344540D02*
X101000Y345790D01*
X91960Y344540D02*
X99750D01*
X101000Y345790D02*
Y346000D01*
X198768Y183899D02*
X200388D01*
X203136Y181152D02*
X204219D01*
X192500Y181051D02*
X196790Y176761D01*
X200388Y183899D02*
X203136Y181152D01*
X196790Y176000D02*
Y176761D01*
X192500Y181051D02*
Y210364D01*
X197000Y185667D02*
X198768Y183899D01*
X197000Y185667D02*
Y208500D01*
X137234Y190790D02*
X138316D01*
X135444Y189000D02*
X137234Y190790D01*
X125750Y189000D02*
X135444D01*
X431000Y257000D02*
X436000D01*
X425492Y262508D02*
X431000Y257000D01*
X420000Y263273D02*
X420765Y262508D01*
X425492D01*
X423775Y247500D02*
X436000D01*
X451250Y252250D02*
X460250D01*
X461000Y253000D01*
X451000Y252000D02*
X451250Y252250D01*
X441000Y228000D02*
X445235Y223765D01*
X438000Y228000D02*
X441000D01*
X445235Y223765D02*
X449235D01*
X450000Y223000D01*
X77000Y204000D02*
X77125Y203875D01*
X69960Y192176D02*
X73136Y189000D01*
X185536Y211536D02*
X186000Y212000D01*
X180500Y198997D02*
X185536Y204033D01*
Y211536D01*
X160499Y198501D02*
X160746Y198749D01*
X171251D01*
X77125Y194000D02*
X77250D01*
X171251Y198749D02*
X171500Y198997D01*
X192000Y263000D02*
X192765Y262235D01*
X193862D01*
X201000Y255096D01*
Y254000D02*
Y255096D01*
Y254000D02*
X204000Y251000D01*
X192500Y210364D02*
X217000Y234864D01*
Y246500D02*
X218250Y245250D01*
X132234Y199234D02*
X133000Y200000D01*
X132234Y197735D02*
Y199234D01*
X128500Y194000D02*
X132234Y197735D01*
X125750Y194000D02*
X128500D01*
X197000Y208500D02*
X247500Y259000D01*
X217250Y245250D02*
X218250D01*
X217000Y234864D02*
Y245000D01*
X217250Y245250D01*
X218250D02*
X241000Y268000D01*
X250040Y266918D02*
Y268000D01*
X248622Y260500D02*
Y265500D01*
X250040Y266918D01*
X101000Y130040D02*
X106000Y135040D01*
Y141956D01*
X109000Y146000D02*
Y151000D01*
X114500Y123495D02*
Y140500D01*
X109000Y146000D02*
X114500Y140500D01*
X104000Y143956D02*
X106000Y141956D01*
X124997Y135000D02*
X126000D01*
X124000Y135997D02*
X124997Y135000D01*
X124000Y135997D02*
Y140000D01*
X120000Y144000D02*
X124000Y140000D01*
X118136Y144000D02*
X120000D01*
X114000Y148136D02*
Y152250D01*
Y148136D02*
X118136Y144000D01*
X99000Y142082D02*
Y152250D01*
X239536Y336000D02*
Y336465D01*
X249731Y327000D02*
X266000D01*
X240731Y336000D02*
X249731Y327000D01*
X240000Y336000D02*
X240731D01*
X235000Y350000D02*
X254000D01*
X257000Y347000D01*
X266000D01*
X316413Y349412D02*
X326385D01*
X326587Y349210D01*
X314000Y347000D02*
X316413Y349412D01*
X314000Y341000D02*
Y347000D01*
X313000Y340000D02*
X314000Y341000D01*
X306000Y340000D02*
X313000D01*
X303000Y337000D02*
X306000Y340000D01*
X293900Y337000D02*
X303000D01*
X315000Y385000D02*
X315252Y385252D01*
X73136Y189000D02*
X77000D01*
X469000Y63000D02*
Y76000D01*
X468500Y52000D02*
X470000D01*
X455000Y50000D02*
X466500D01*
X468500Y52000D01*
X432500Y48000D02*
X437000Y52500D01*
X427000Y48000D02*
X432500D01*
X104000Y143956D02*
Y152250D01*
X324761Y384249D02*
X325513Y385000D01*
X324761Y375239D02*
Y384249D01*
X325261Y385252D02*
X325513Y385000D01*
X315252Y385252D02*
X325261D01*
D11*
X73500Y383500D02*
X76000Y386000D01*
X63947Y379000D02*
X68447Y383500D01*
X63000Y379000D02*
X63947D01*
X68447Y383500D02*
X73500D01*
X120500Y349000D02*
X134000Y362500D01*
Y379000D01*
X120500Y346500D02*
Y349000D01*
X121500Y347500D02*
X168500D01*
X120500Y346500D02*
X121500Y347500D01*
X288000Y303000D02*
X293900Y308900D01*
X198000Y303000D02*
X288000D01*
X184000Y317000D02*
X198000Y303000D01*
X184000Y317000D02*
Y332000D01*
X168500Y347500D02*
X184000Y332000D01*
X171000Y237000D02*
X174000D01*
X168009Y218577D02*
Y234009D01*
X171000Y237000D01*
X147242Y214243D02*
X163675D01*
X168009Y218577D01*
X448500Y267500D02*
X453000Y263000D01*
X386000Y258000D02*
X386757Y257243D01*
X436000Y267500D02*
X448500D01*
X152094Y190250D02*
X168750D01*
X194000Y107000D02*
Y165000D01*
X168750Y190250D02*
X194000Y165000D01*
X68646Y339000D02*
X69146Y338500D01*
X58000Y339000D02*
X68646D01*
X75250Y338500D02*
X76750Y337000D01*
X69146Y338500D02*
X75250D01*
X397974Y257243D02*
X411294Y270563D01*
X386757Y257243D02*
X397974D01*
X337000Y342500D02*
Y343000D01*
X322000Y340000D02*
X334500D01*
X337000Y342500D01*
X322749Y328249D02*
X335751D01*
X322000Y328997D02*
X322749Y328249D01*
X335751D02*
X336000Y328000D01*
X176689Y359100D02*
X213789Y322000D01*
X172000Y372000D02*
X176689Y367311D01*
Y359100D02*
Y367311D01*
X411294Y270563D02*
X423020D01*
X425583Y268000D01*
X435500D01*
X436000Y267500D01*
X453000Y263000D02*
X463500D01*
X464000Y262500D01*
X382000Y211224D02*
Y219000D01*
X363250Y211003D02*
X364000D01*
X142000Y209002D02*
X147242Y214243D01*
X142000Y209000D02*
Y209002D01*
X376000Y85000D02*
X378000Y83000D01*
Y82713D02*
X381087Y79627D01*
X378000Y82713D02*
Y83000D01*
X151995Y190151D02*
X152094Y190250D01*
X141273Y220769D02*
Y247726D01*
X140999Y220495D02*
X141273Y220769D01*
X141000Y248000D02*
X141273Y247726D01*
X125495Y220495D02*
X140000D01*
X114000Y209000D02*
X125495Y220495D01*
X114000Y200750D02*
Y209000D01*
X186000Y270290D02*
X206290D01*
X175500Y237250D02*
Y259500D01*
X186000Y270000D01*
X194750Y250750D02*
X195000Y251000D01*
X194750Y237500D02*
Y250750D01*
X194500Y237250D02*
X194750Y237500D01*
X223000Y276000D02*
X223500Y276500D01*
X212000Y276000D02*
X223000D01*
X206290Y270290D02*
X212000Y276000D01*
X216000Y85000D02*
X376000D01*
X194000Y107000D02*
X216000Y85000D01*
X241485Y322000D02*
X242743Y323257D01*
X213789Y322000D02*
X241485D01*
X243000D02*
X266000D01*
X272504Y216504D02*
Y256496D01*
X265000Y264000D02*
X272504Y256496D01*
X270000Y214000D02*
X272504Y216504D01*
X257000Y259000D02*
Y259500D01*
X264330Y263330D02*
X265000Y264000D01*
X257000Y259500D02*
X260830Y263330D01*
X264330D01*
X260997Y273500D02*
X263498Y271000D01*
Y266450D02*
Y271000D01*
Y266450D02*
X265000Y264947D01*
Y264000D02*
Y264947D01*
X219000Y267000D02*
X225000D01*
X217000Y255500D02*
Y265000D01*
X219000Y267000D01*
X224500Y267500D02*
Y275500D01*
Y267500D02*
X225000Y267000D01*
X379000Y222000D02*
X382000Y219000D01*
X364750Y230002D02*
X372752Y222000D01*
X379000D01*
X363250Y230002D02*
X364750D01*
X244500Y313000D02*
Y321500D01*
X381087Y52913D02*
X385500Y48500D01*
X393250D01*
X381087Y52913D02*
Y79627D01*
D14*
X69000Y184000D02*
X77250D01*
X65750Y187250D02*
X69000Y184000D01*
X65750Y187250D02*
Y200796D01*
X54855Y211691D02*
X65750Y200796D01*
X54855Y211691D02*
Y214541D01*
X53899Y215498D02*
X54855Y214541D01*
X46000Y212956D02*
X50706Y208250D01*
X46000Y212956D02*
Y213000D01*
X50706Y208250D02*
X53346D01*
X62250Y199346D01*
Y183550D02*
Y199346D01*
X44000Y213000D02*
X44603D01*
X62250Y183550D02*
X66800Y179000D01*
X77250D01*
X24000Y165000D02*
X24957Y165957D01*
X32731Y172651D02*
Y173651D01*
X26037Y165957D02*
X32731Y172651D01*
X24957Y165957D02*
X26037D01*
X24000Y164000D02*
X28348Y159652D01*
X34232D01*
X46000Y189920D02*
Y190000D01*
X40482Y184401D02*
X46000Y189920D01*
X40482Y183512D02*
Y184401D01*
X37731Y179651D02*
Y180762D01*
X40482Y183512D01*
X32731Y174651D02*
X37731Y179651D01*
X32731Y173651D02*
Y174651D01*
X58000Y168000D02*
X59000Y169000D01*
X77250D01*
D15*
X293900Y316900D02*
X294000Y317000D01*
X27750Y56999D02*
Y109942D01*
X39344Y121536D01*
X45465D01*
X96000Y372000D02*
X102000D01*
X87000Y367000D02*
X91000D01*
X96000Y372000D01*
X87000Y360000D02*
Y367000D01*
X76750Y368500D02*
X85500D01*
X87000Y367000D01*
X85500Y358500D02*
X87000Y360000D01*
X76750Y358500D02*
X85500D01*
X76750Y353500D02*
X89500D01*
X68172D02*
X76750D01*
X99500Y351000D02*
X101000Y349500D01*
Y349000D02*
Y349500D01*
X92000Y351000D02*
X99500D01*
X89500Y353500D02*
X92000Y351000D01*
X67000Y354672D02*
X68172Y353500D01*
X67000Y354672D02*
Y362328D01*
X68172Y363500D02*
X76750D01*
X67000Y362328D02*
X68172Y363500D01*
X111000Y362218D02*
Y371500D01*
Y362218D02*
X114000Y359218D01*
Y358000D02*
Y359218D01*
X293900Y317000D02*
X294000D01*
X453717Y272500D02*
X464000D01*
X451218Y275000D02*
X453717Y272500D01*
X450000Y275000D02*
X451218D01*
X51000Y138000D02*
X61498D01*
X61499Y138000D01*
X51000D02*
X51000Y138000D01*
X154454Y198210D02*
X154744Y198500D01*
X150451Y198210D02*
X154454D01*
X154744Y198500D02*
X160497D01*
X151000Y205000D02*
X152178D01*
X154678Y207500D01*
X145106Y192865D02*
X150451Y198210D01*
X147137Y204139D02*
X150139D01*
X151000Y205000D01*
X141999Y199000D02*
X147137Y204139D01*
X451000Y242000D02*
X451250Y242250D01*
X460750D02*
X461000Y242000D01*
X451250Y242250D02*
X460750D01*
X82250Y56999D02*
Y70250D01*
X91000Y79001D02*
Y85001D01*
X82250Y70250D02*
X91000Y79001D01*
X49828Y340431D02*
X55188Y345790D01*
X62449D01*
X49828Y306172D02*
Y340431D01*
X64739Y343500D02*
X76750D01*
X62449Y345790D02*
X64739Y343500D01*
X129000Y148000D02*
X130000D01*
X399000Y347000D02*
X403000Y343000D01*
X386009Y347000D02*
X399000D01*
X385999Y347010D02*
X386009Y347000D01*
X425657Y307500D02*
X436000D01*
X403000Y330157D02*
Y343000D01*
Y330157D02*
X425657Y307500D01*
X395500Y332000D02*
X425000Y302500D01*
X464000D01*
X387000Y332000D02*
X395500D01*
X389000Y317000D02*
X396000D01*
X415500Y297500D01*
X436000D01*
X407500Y292500D02*
X464000D01*
X399000Y301000D02*
X407500Y292500D01*
X387000Y301000D02*
X399000D01*
X391502Y277500D02*
X436000D01*
X385999Y271998D02*
X391502Y277500D01*
X385001Y271000D02*
X385999Y271998D01*
X385000Y271000D02*
X385001D01*
X422218Y235000D02*
X424718Y237500D01*
X421000Y235000D02*
X422218D01*
X424718Y237500D02*
X436000D01*
X463750Y232250D02*
X464000Y232000D01*
X451250Y232250D02*
X463750D01*
X451000Y232000D02*
X451250Y232250D01*
X413224Y215990D02*
X416714Y212500D01*
X461500D01*
X462000Y213000D01*
X398000Y215990D02*
X413224D01*
X381000Y210000D02*
X385455D01*
X392955Y202500D02*
X464000D01*
X385455Y210000D02*
X392955Y202500D01*
X364753Y211000D02*
X378252Y197500D01*
X364000Y211000D02*
X364753D01*
X378252Y197500D02*
X436000D01*
X468000Y292000D02*
X476000D01*
X467000Y293000D02*
X468000Y292000D01*
X476000D02*
X478000Y290000D01*
Y154000D02*
Y290000D01*
X473000Y149000D02*
X478000Y154000D01*
X431000Y149000D02*
X473000D01*
X393900Y186100D02*
X431000Y149000D01*
X366502Y186100D02*
X393900D01*
X386499Y287500D02*
X434500D01*
X385999Y287000D02*
X386499Y287500D01*
X434500D02*
X435000Y288000D01*
X130510Y180000D02*
X156000D01*
X129606Y179096D02*
X130510Y180000D01*
X145106Y186106D02*
Y192865D01*
X125750Y184000D02*
X143000D01*
X145106Y186106D01*
X125096Y179096D02*
X129606D01*
X125000Y179000D02*
X125096Y179096D01*
X154678Y207500D02*
X160497D01*
X127001Y209000D02*
X141999D01*
X119000Y200750D02*
X120000D01*
Y202000D02*
X127001Y209000D01*
X139782Y173000D02*
X141000D01*
X136374Y166000D02*
X156500D01*
X140139Y159861D02*
X141000Y159000D01*
X133374Y169000D02*
X136374Y166000D01*
X84000Y200750D02*
Y260313D01*
X116000Y286000D02*
Y317000D01*
X113000Y283000D02*
X116000Y286000D01*
X106686Y283000D02*
X113000D01*
X84000Y260313D02*
X106686Y283000D01*
X128000Y320000D02*
X128847D01*
X128000Y319000D02*
X128172Y318828D01*
Y282172D02*
Y318828D01*
X125000Y279000D02*
X128172Y282172D01*
X108343Y279000D02*
X125000D01*
X110000Y275000D02*
X137000D01*
X89000Y259657D02*
X108343Y279000D01*
X154000Y318000D02*
X155000Y319000D01*
X99000Y258000D02*
X112000Y271000D01*
X94000Y259000D02*
X110000Y275000D01*
X112000Y271000D02*
X144000D01*
X154000Y281000D01*
X137000Y275000D02*
X141000Y279000D01*
X89000Y200750D02*
Y259657D01*
X94000Y200750D02*
Y259000D01*
X141000Y279000D02*
Y314000D01*
X142000Y315000D01*
X99000Y200750D02*
Y258000D01*
X154000Y281000D02*
Y318000D01*
X104000Y200750D02*
Y242000D01*
X110000Y248000D02*
X116147D01*
X104000Y242000D02*
X110000Y248000D01*
X109000Y200750D02*
Y221229D01*
X122147Y234376D01*
Y246828D01*
X123319Y248000D01*
X128847D01*
X381000Y233000D02*
X395990D01*
X377500Y236500D02*
Y244492D01*
Y236500D02*
X381000Y233000D01*
X395990D02*
X398000Y230990D01*
X132574Y123495D02*
X133827Y124747D01*
X137859D01*
X157000Y143889D01*
Y166000D01*
X139796Y149826D02*
X141013D01*
X134623Y152877D02*
X136745D01*
X139796Y149826D01*
X269000Y101000D02*
X277000Y93000D01*
X269000Y101000D02*
Y134000D01*
X437000Y61500D02*
Y84000D01*
X277000Y93000D02*
X428000D01*
X437000Y84000D01*
X257000Y342000D02*
X266000D01*
X253000Y338000D02*
X257000Y342000D01*
X222000Y337000D02*
X230731D01*
X220000Y313000D02*
X229500D01*
X324000Y374000D02*
X324010Y373990D01*
Y364353D02*
Y373990D01*
X301657Y342000D02*
X324010Y364353D01*
X293900Y342000D02*
X301657D01*
X293900Y347000D02*
X301000D01*
X304139Y350139D02*
Y355139D01*
X301000Y347000D02*
X304139Y350139D01*
Y355139D02*
X305000Y356000D01*
X304314Y332000D02*
X307316Y328997D01*
X313000D01*
X293900Y332000D02*
X304314D01*
X293900Y327000D02*
X303657D01*
X309657Y321000D01*
X319000Y313000D02*
X320000Y312000D01*
X319000Y313000D02*
Y318000D01*
X316000Y321000D02*
X319000Y318000D01*
X309657Y321000D02*
X316000D01*
X293900Y322000D02*
X303000D01*
X308000Y317000D01*
Y312000D02*
Y317000D01*
X293900Y308900D02*
Y316900D01*
X353000Y327500D02*
Y343000D01*
X353000Y327500D02*
X353000Y327500D01*
X352000Y344000D02*
Y353000D01*
Y344000D02*
X353000Y343000D01*
X23000Y165000D02*
Y166218D01*
X20963Y168255D02*
X23000Y166218D01*
X20963Y168255D02*
Y176500D01*
X124750Y152250D02*
X129000Y148000D01*
X35500Y201500D02*
X50500D01*
X55500Y196500D01*
Y177500D02*
Y196500D01*
Y177500D02*
X58697Y174303D01*
X66331D01*
X66634Y174000D01*
X77250D01*
X128500Y159000D02*
X134623Y152877D01*
X138782Y174000D02*
X139782Y173000D01*
X136856Y159861D02*
X140139D01*
X125750Y174000D02*
X138782D01*
X125750Y159000D02*
X128500D01*
X119000Y152250D02*
X124750D01*
X132718Y164000D02*
X136856Y159861D01*
X125750Y164000D02*
X132718D01*
X125750Y169000D02*
X133374D01*
X441500Y66000D02*
X455000D01*
X438000Y62500D02*
X441500Y66000D01*
X32731Y191000D02*
Y198731D01*
X20963Y186500D02*
X25463Y191000D01*
X32000D01*
X49828Y306172D02*
X51000Y305000D01*
X32731Y198731D02*
X35500Y201500D01*
X48000Y165172D02*
Y171383D01*
X56578Y160922D02*
X58000Y159500D01*
X52250Y160922D02*
X56578D01*
X48000Y165172D02*
X52250Y160922D01*
X45732Y173651D02*
X48000Y171383D01*
X44232Y159652D02*
Y172152D01*
X45732Y173651D01*
D20*
X464000Y317500D02*
D03*
X436000D02*
D03*
X464000Y182500D02*
D03*
X436000D02*
D03*
D21*
Y287500D02*
D03*
X464000Y282500D02*
D03*
X436000Y267500D02*
D03*
X464000Y262500D02*
D03*
Y242500D02*
D03*
X436000Y247500D02*
D03*
X464000Y222500D02*
D03*
X436000Y227500D02*
D03*
X464000Y212500D02*
D03*
X436000Y217500D02*
D03*
X464000Y192500D02*
D03*
X436000Y197500D02*
D03*
X464000Y202500D02*
D03*
X436000Y207500D02*
D03*
Y237500D02*
D03*
X464000Y232500D02*
D03*
X436000Y257500D02*
D03*
X464000Y252500D02*
D03*
Y272500D02*
D03*
X436000Y277500D02*
D03*
X464000Y292500D02*
D03*
Y302500D02*
D03*
X436000Y297500D02*
D03*
Y307500D02*
D03*
D22*
X224000Y291500D02*
D03*
Y276500D02*
D03*
X260997Y288500D02*
D03*
Y273500D02*
D03*
X455000Y50000D02*
D03*
Y66000D02*
D03*
X398000Y215990D02*
D03*
Y230990D02*
D03*
X302008Y391003D02*
D03*
Y376003D02*
D03*
X287005Y391003D02*
D03*
Y376003D02*
D03*
D23*
X247500Y259000D02*
D03*
X256500D02*
D03*
X195000Y251000D02*
D03*
X204000D02*
D03*
X171500Y198997D02*
D03*
X180500D02*
D03*
X125500Y134497D02*
D03*
X134500D02*
D03*
X114500Y123495D02*
D03*
X123500D02*
D03*
X313000Y328997D02*
D03*
X322000D02*
D03*
X313000Y340000D02*
D03*
X322000D02*
D03*
X239731Y337000D02*
D03*
X230731D02*
D03*
X50500Y305000D02*
D03*
X59500D02*
D03*
X55500Y417000D02*
D03*
X64500D02*
D03*
X315010Y373998D02*
D03*
X324010D02*
D03*
D24*
X217000Y246500D02*
D03*
Y255500D02*
D03*
X160497Y207500D02*
D03*
Y198500D02*
D03*
X58000Y159500D02*
D03*
Y168500D02*
D03*
X469000Y61500D02*
D03*
Y52500D02*
D03*
X437000Y52500D02*
D03*
Y61500D02*
D03*
X315010Y394502D02*
D03*
Y385503D02*
D03*
X319205Y311500D02*
D03*
Y302500D02*
D03*
X308203Y311500D02*
D03*
Y302500D02*
D03*
D25*
X338750Y220502D02*
D03*
X363250Y230002D02*
D03*
Y211003D02*
D03*
D26*
X150999Y230497D02*
D03*
X140999D02*
D03*
X150999Y220495D02*
D03*
X140999D02*
D03*
X167000Y166000D02*
D03*
X157000D02*
D03*
X34232Y159652D02*
D03*
X44232D02*
D03*
X91000Y85001D02*
D03*
X101000D02*
D03*
X377500Y244492D02*
D03*
X387500D02*
D03*
D27*
X185000Y212750D02*
D03*
X175500Y237250D02*
D03*
X194500D02*
D03*
D28*
X141999Y199000D02*
D03*
Y209000D02*
D03*
X20963Y176500D02*
D03*
Y186500D02*
D03*
X51494Y138001D02*
D03*
Y148001D02*
D03*
X61499Y138000D02*
D03*
Y148000D02*
D03*
X76999Y127001D02*
D03*
Y137001D02*
D03*
X325513Y385000D02*
D03*
Y395000D02*
D03*
X86999Y132001D02*
D03*
Y122000D02*
D03*
D29*
X32731Y190651D02*
D03*
X45732D02*
D03*
X32731Y173651D02*
D03*
X45732D02*
D03*
D30*
X117992Y98859D02*
D03*
X136992D02*
D03*
D31*
X103000Y118350D02*
D03*
Y105650D02*
D03*
D32*
X45465Y121536D02*
D03*
X52537Y114465D02*
D03*
D33*
X82250Y56999D02*
D03*
X27750D02*
D03*
D34*
X45750Y72249D02*
D03*
D35*
X393250Y65500D02*
D03*
X424750D02*
D03*
X393250Y48500D02*
D03*
X424750D02*
D03*
D36*
X391750Y57000D02*
D03*
X426250D02*
D03*
D37*
X390000Y127750D02*
D03*
X366502Y162750D02*
D03*
D38*
X390000Y151100D02*
D03*
X366502Y186100D02*
D03*
D39*
X365503Y127500D02*
D03*
Y146500D02*
D03*
X269503Y376003D02*
D03*
Y395003D02*
D03*
D40*
X391753Y107998D02*
D03*
D41*
X368402D02*
D03*
D42*
X269500Y149500D02*
D03*
X345500D02*
D03*
D43*
X307500Y111500D02*
D03*
Y187500D02*
D03*
D44*
X381482Y211224D02*
D03*
Y233224D02*
D03*
D45*
X386000Y256995D02*
D03*
X371001D02*
D03*
X385999Y271998D02*
D03*
X370999D02*
D03*
X385999Y287000D02*
D03*
X370999D02*
D03*
X385999Y302003D02*
D03*
X370999D02*
D03*
X385999Y317005D02*
D03*
X370999D02*
D03*
X385999Y332007D02*
D03*
X370999D02*
D03*
X385999Y347010D02*
D03*
X370999D02*
D03*
X353000Y327500D02*
D03*
X337000D02*
D03*
X353000Y342500D02*
D03*
X337000D02*
D03*
X244500Y313000D02*
D03*
X229500D02*
D03*
D46*
X293900Y317000D02*
D03*
Y322000D02*
D03*
Y327000D02*
D03*
Y332000D02*
D03*
Y337000D02*
D03*
Y342000D02*
D03*
Y347000D02*
D03*
Y352000D02*
D03*
X266000Y317000D02*
D03*
Y322000D02*
D03*
Y327000D02*
D03*
Y332000D02*
D03*
Y337000D02*
D03*
Y342000D02*
D03*
Y347000D02*
D03*
Y352000D02*
D03*
D47*
X279950Y334500D02*
D03*
D48*
X116147Y248000D02*
D03*
X128847D02*
D03*
X141547D02*
D03*
X154247D02*
D03*
X116147Y320000D02*
D03*
X128847D02*
D03*
X141547D02*
D03*
X154247D02*
D03*
D49*
X120500Y371500D02*
D03*
X111000D02*
D03*
X101500D02*
D03*
Y346500D02*
D03*
X120500D02*
D03*
D50*
X76750Y385000D02*
D03*
Y337000D02*
D03*
Y329000D02*
D03*
Y393000D02*
D03*
D51*
Y378500D02*
D03*
Y373500D02*
D03*
Y368500D02*
D03*
Y353500D02*
D03*
Y363500D02*
D03*
Y358500D02*
D03*
Y348500D02*
D03*
Y343500D02*
D03*
D52*
X59126Y120126D02*
D03*
X64874Y125874D02*
D03*
D53*
X101500Y176500D02*
D03*
D54*
X77250Y159000D02*
D03*
Y164000D02*
D03*
Y169000D02*
D03*
Y174000D02*
D03*
Y179000D02*
D03*
Y184000D02*
D03*
Y189000D02*
D03*
Y194000D02*
D03*
X125750D02*
D03*
Y189000D02*
D03*
Y184000D02*
D03*
Y179000D02*
D03*
Y174000D02*
D03*
Y169000D02*
D03*
Y164000D02*
D03*
Y159000D02*
D03*
D55*
X84000Y200750D02*
D03*
X89000D02*
D03*
X94000D02*
D03*
X99000D02*
D03*
X104000D02*
D03*
X109000D02*
D03*
X114000D02*
D03*
X119000D02*
D03*
Y152250D02*
D03*
X114000D02*
D03*
X109000D02*
D03*
X104000D02*
D03*
X99000D02*
D03*
X94000D02*
D03*
X89000D02*
D03*
X84000D02*
D03*
D96*
X81596Y143252D02*
G03*
X81847Y144121I-4768J1846D01*
G01*
X80433Y141433D02*
G03*
X81573Y143193I-3629J3602D01*
G01*
X69783Y130783D02*
G03*
X70562Y131794I-3629J3602D01*
G01*
X72207Y133438D02*
G03*
X73216Y134216I-2593J4406D01*
G01*
X83097Y150438D02*
G03*
X83194Y151426I-5016J988D01*
G01*
X72207Y133438D02*
G03*
X70562Y131794I2292J-3938D01*
G01*
X52537Y114465D02*
G03*
X46000Y98684I15781J-15781D01*
G01*
X83194Y151426D02*
Y153444D01*
X81573Y143193D02*
X81596Y143252D01*
X73216Y134216D02*
X80433Y141433D01*
X73216Y134216D02*
X73216Y134216D01*
X64874Y125874D02*
X69783Y130783D01*
X81847Y144121D02*
X83097Y150438D01*
X53001Y114001D02*
X59126Y120126D01*
X46000Y73000D02*
Y98684D01*
D97*
X222000Y350503D02*
D03*
Y396502D02*
D03*
D98*
X78000Y385000D02*
X127803D01*
X133902Y378902D01*
X386000Y247745D02*
X386750Y246994D01*
X386000Y247745D02*
Y256000D01*
X386750Y245242D02*
X387500Y244492D01*
X386750Y245242D02*
Y246994D01*
X387500Y244492D02*
X392973Y249965D01*
Y250879D01*
X393547Y251453D01*
X464000Y302500D02*
X477500D01*
X270000Y214000D02*
X270000Y214000D01*
X45000Y147710D02*
X45146Y147856D01*
X50855D02*
X51000Y148000D01*
X45146Y147856D02*
X50855D01*
X51495Y148000D02*
X61499D01*
Y148000D02*
X68000D01*
X77000Y157000D02*
Y163500D01*
X68000Y148000D02*
X77000Y157000D01*
X132574Y123495D02*
Y124747D01*
Y117574D02*
Y123495D01*
X132000Y117000D02*
X132574Y117574D01*
Y124747D02*
X134500Y126673D01*
Y134497D01*
X123500Y123495D02*
X132574D01*
X269000Y154000D02*
X270000Y155000D01*
Y214000D01*
D99*
X348500Y146500D02*
X365000D01*
Y146000D02*
X366003Y147002D01*
Y162250D01*
X366502Y162750D01*
X477500Y302500D02*
X486000Y294000D01*
Y124000D02*
Y294000D01*
X469997Y107998D02*
X486000Y124000D01*
X346000Y146000D02*
Y189000D01*
X338750Y196250D02*
Y220502D01*
Y196250D02*
X346000Y189000D01*
X391753Y107998D02*
X469997D01*
X391600Y149500D02*
X405000D01*
X390000Y151100D02*
X391600Y149500D01*
X365503Y130000D02*
X365628Y130125D01*
Y127625D02*
X389875D01*
X390000Y127750D01*
X365503Y113398D02*
Y130000D01*
D100*
X168000Y398000D02*
D03*
Y372600D02*
D03*
D101*
X71000Y317800D02*
D03*
X29200D02*
D03*
X71000Y404200D02*
D03*
X29200D02*
D03*
D102*
X66000Y389900D02*
D03*
Y332100D02*
D03*
X63000Y379000D02*
D03*
X481000Y466000D02*
D03*
Y406000D02*
D03*
X466000Y376000D02*
D03*
X481000Y346000D02*
D03*
X466000Y136000D02*
D03*
X481000Y106000D02*
D03*
Y46000D02*
D03*
X466000Y16000D02*
D03*
X451000Y466000D02*
D03*
Y406000D02*
D03*
X436000Y376000D02*
D03*
X451000Y346000D02*
D03*
Y166000D02*
D03*
X436000Y136000D02*
D03*
Y16000D02*
D03*
X421000Y466000D02*
D03*
Y406000D02*
D03*
X406000Y376000D02*
D03*
X421000Y346000D02*
D03*
X406000Y136000D02*
D03*
Y76000D02*
D03*
Y16000D02*
D03*
X391000Y466000D02*
D03*
Y406000D02*
D03*
X376000Y376000D02*
D03*
Y16000D02*
D03*
X361000Y466000D02*
D03*
Y406000D02*
D03*
X346000Y376000D02*
D03*
Y316000D02*
D03*
Y256000D02*
D03*
Y16000D02*
D03*
X331000Y466000D02*
D03*
X316000Y256000D02*
D03*
X331000Y166000D02*
D03*
X316000Y136000D02*
D03*
Y16000D02*
D03*
X301000Y466000D02*
D03*
Y286000D02*
D03*
Y166000D02*
D03*
X286000Y136000D02*
D03*
Y16000D02*
D03*
X271000Y466000D02*
D03*
X256000Y376000D02*
D03*
X271000Y286000D02*
D03*
X256000Y136000D02*
D03*
Y16000D02*
D03*
X241000Y466000D02*
D03*
X226000Y376000D02*
D03*
X241000Y286000D02*
D03*
Y166000D02*
D03*
X226000Y136000D02*
D03*
Y16000D02*
D03*
X211000Y466000D02*
D03*
X196000Y316000D02*
D03*
X211000Y286000D02*
D03*
X196000Y16000D02*
D03*
X181000Y466000D02*
D03*
X166000Y316000D02*
D03*
X181000Y286000D02*
D03*
X166000Y256000D02*
D03*
Y16000D02*
D03*
X151000Y466000D02*
D03*
Y106000D02*
D03*
X136000Y16000D02*
D03*
X121000Y466000D02*
D03*
X106000Y436000D02*
D03*
X121000Y406000D02*
D03*
X106000Y316000D02*
D03*
X91000Y466000D02*
D03*
X76000Y436000D02*
D03*
X91000Y406000D02*
D03*
Y286000D02*
D03*
X61000Y466000D02*
D03*
X46000Y436000D02*
D03*
Y376000D02*
D03*
X61000Y286000D02*
D03*
X46000Y256000D02*
D03*
X61000Y226000D02*
D03*
X31000Y466000D02*
D03*
X16000Y436000D02*
D03*
Y376000D02*
D03*
X31000Y346000D02*
D03*
Y286000D02*
D03*
X16000Y256000D02*
D03*
X31000Y226000D02*
D03*
X16000Y136000D02*
D03*
X70000Y216000D02*
D03*
X102000Y359000D02*
D03*
X114000Y358000D02*
D03*
X160719Y221596D02*
D03*
X450000Y275000D02*
D03*
X151000Y205000D02*
D03*
X174000Y173000D02*
D03*
X196790Y176000D02*
D03*
X204219Y181152D02*
D03*
X58000Y339000D02*
D03*
X421000Y249193D02*
D03*
X138316Y190790D02*
D03*
X101000Y130040D02*
D03*
X450000Y317000D02*
D03*
Y182000D02*
D03*
X393547Y251453D02*
D03*
X420000Y263273D02*
D03*
X421000Y235000D02*
D03*
X451000Y252000D02*
D03*
Y242000D02*
D03*
X450000Y223000D02*
D03*
X451000Y232000D02*
D03*
X91960Y344540D02*
D03*
X77000Y204000D02*
D03*
X53899Y215498D02*
D03*
X44989Y213967D02*
D03*
X156000Y180000D02*
D03*
X151995Y190151D02*
D03*
X141000Y173000D02*
D03*
Y159000D02*
D03*
X133000Y200000D02*
D03*
X265000Y264000D02*
D03*
X265214Y250271D02*
D03*
X225000Y267000D02*
D03*
X250040Y268000D02*
D03*
X241000D02*
D03*
X192000Y263000D02*
D03*
X45000Y147710D02*
D03*
X299000Y409000D02*
D03*
X132000Y117000D02*
D03*
X141013Y149826D02*
D03*
X269000Y101000D02*
D03*
X98000Y140000D02*
D03*
X280000Y334000D02*
D03*
Y322000D02*
D03*
Y346000D02*
D03*
X243000Y322000D02*
D03*
X253000Y338000D02*
D03*
X222000Y337000D02*
D03*
X220000Y313000D02*
D03*
X326587Y349210D02*
D03*
X305000Y356000D02*
D03*
X300000Y364000D02*
D03*
X352000Y353000D02*
D03*
X23000Y164500D02*
D03*
X130000Y147000D02*
D03*
X406000Y150000D02*
D03*
X469000Y76000D02*
D03*
X112000Y86859D02*
D03*
D103*
X112500Y187500D02*
D03*
Y176500D02*
D03*
Y165500D02*
D03*
X101500Y187500D02*
D03*
Y176500D02*
D03*
Y165500D02*
D03*
X90500Y187500D02*
D03*
Y176500D02*
D03*
Y165500D02*
D03*
M02*
