G04*
G04 #@! TF.GenerationSoftware,Altium Limited,Altium Designer,22.11.1 (43)*
G04*
G04 Layer_Color=8421504*
%FSLAX44Y44*%
%MOMM*%
G71*
G04*
G04 #@! TF.SameCoordinates,4B2A122A-EDDB-492F-91F8-374AC6037894*
G04*
G04*
G04 #@! TF.FilePolarity,Positive*
G04*
G01*
G75*
%ADD20R,1.5000X0.8000*%
%ADD21R,1.5000X0.4000*%
%ADD22R,0.8000X0.8000*%
%ADD23R,0.5500X0.5500*%
%ADD24R,0.5500X0.5500*%
%ADD25R,0.9500X0.6500*%
%ADD26R,0.5000X0.5000*%
%ADD27R,0.6500X0.9500*%
%ADD28R,0.5000X0.5000*%
%ADD29R,1.0000X1.2000*%
%ADD30R,0.9000X1.3000*%
G04:AMPARAMS|DCode=31|XSize=0.635mm|YSize=1.016mm|CornerRadius=0mm|HoleSize=0mm|Usage=FLASHONLY|Rotation=135.000|XOffset=0mm|YOffset=0mm|HoleType=Round|Shape=Rectangle|*
%AMROTATEDRECTD31*
4,1,4,0.5837,0.1347,-0.1347,-0.5837,-0.5837,-0.1347,0.1347,0.5837,0.5837,0.1347,0.0*
%
%ADD31ROTATEDRECTD31*%

%ADD32P,0.7071X4X180.0*%
%ADD33R,1.1500X3.8000*%
%ADD34R,1.6500X0.7500*%
%ADD35R,0.6500X0.6000*%
%ADD36R,0.3500X0.7000*%
%ADD37R,1.1000X0.8000*%
%ADD38R,1.1000X2.0000*%
%ADD39R,1.3000X0.9000*%
%ADD40R,0.8000X1.1000*%
%ADD41R,2.0000X1.1000*%
%ADD42R,1.4000X3.6000*%
%ADD43R,3.6000X1.4000*%
%ADD44R,1.4500X0.9000*%
%ADD45R,0.8000X0.8000*%
%ADD46R,0.9000X0.2500*%
%ADD47R,1.4900X4.4000*%
%ADD48O,0.6000X1.8000*%
%ADD49R,0.6000X1.1000*%
%ADD50R,1.1500X0.6000*%
%ADD51R,1.1500X0.3000*%
G04:AMPARAMS|DCode=52|XSize=0.3556mm|YSize=0.6604mm|CornerRadius=0mm|HoleSize=0mm|Usage=FLASHONLY|Rotation=225.000|XOffset=0mm|YOffset=0mm|HoleType=Round|Shape=Rectangle|*
%AMROTATEDRECTD52*
4,1,4,-0.1078,0.3592,0.3592,-0.1078,0.1078,-0.3592,-0.3592,0.1078,-0.1078,0.3592,0.0*
%
%ADD52ROTATEDRECTD52*%

%ADD53R,3.7000X3.7000*%
%ADD54O,0.8000X0.2500*%
%ADD55O,0.2500X0.8000*%
%ADD56P,0.7071X4X90.0*%
G36*
X205636Y366005D02*
X206422Y364485D01*
X208407Y361703D01*
X210883Y359346D01*
X213759Y357500D01*
X216933Y356230D01*
X220290Y355584D01*
X223708Y355584D01*
X227065Y356230D01*
X230239Y357499D01*
X233116Y359345D01*
X235592Y361701D01*
X237577Y364483D01*
X238363Y366003D01*
X238364Y366003D01*
X248500D01*
Y346003D01*
X195500D01*
Y366003D01*
X195503Y366005D01*
X205636D01*
X205636Y366005D01*
D02*
G37*
G36*
X248500Y381003D02*
X248497Y381000D01*
X238364D01*
X237578Y382520D01*
X235593Y385302D01*
X233117Y387659D01*
X230240Y389506D01*
X227067Y390775D01*
X223710Y391421D01*
X220292Y391421D01*
X216935Y390775D01*
X213761Y389506D01*
X210884Y387660D01*
X208408Y385304D01*
X206423Y382522D01*
X205637Y381002D01*
X205636Y381003D01*
X195500D01*
Y401003D01*
X248500D01*
Y381003D01*
D02*
G37*
D20*
X464000Y317500D02*
D03*
X436000D02*
D03*
X464000Y182500D02*
D03*
X436000D02*
D03*
D21*
Y287500D02*
D03*
X464000Y282500D02*
D03*
X436000Y267500D02*
D03*
X464000Y262500D02*
D03*
Y242500D02*
D03*
X436000Y247500D02*
D03*
X464000Y222500D02*
D03*
X436000Y227500D02*
D03*
X464000Y212500D02*
D03*
X436000Y217500D02*
D03*
X464000Y192500D02*
D03*
X436000Y197500D02*
D03*
X464000Y202500D02*
D03*
X436000Y207500D02*
D03*
Y237500D02*
D03*
X464000Y232500D02*
D03*
X436000Y257500D02*
D03*
X464000Y252500D02*
D03*
Y272500D02*
D03*
X436000Y277500D02*
D03*
X464000Y292500D02*
D03*
Y302500D02*
D03*
X436000Y297500D02*
D03*
Y307500D02*
D03*
D22*
X224000Y291500D02*
D03*
Y276500D02*
D03*
X260997Y288500D02*
D03*
Y273500D02*
D03*
X455000Y50000D02*
D03*
Y66000D02*
D03*
X398000Y215990D02*
D03*
Y230990D02*
D03*
X302008Y391003D02*
D03*
Y376003D02*
D03*
X287005Y391003D02*
D03*
Y376003D02*
D03*
D23*
X247500Y259000D02*
D03*
X256500D02*
D03*
X195000Y251000D02*
D03*
X204000D02*
D03*
X171500Y198997D02*
D03*
X180500D02*
D03*
X125500Y134497D02*
D03*
X134500D02*
D03*
X114500Y123495D02*
D03*
X123500D02*
D03*
X313000Y328997D02*
D03*
X322000D02*
D03*
X313000Y340000D02*
D03*
X322000D02*
D03*
X239731Y337000D02*
D03*
X230731D02*
D03*
X50500Y305000D02*
D03*
X59500D02*
D03*
X56500Y417000D02*
D03*
X65500D02*
D03*
X315010Y373998D02*
D03*
X324010D02*
D03*
D24*
X217000Y246500D02*
D03*
Y255500D02*
D03*
X160497Y207500D02*
D03*
Y198500D02*
D03*
X58000Y159500D02*
D03*
Y168500D02*
D03*
X469000Y61500D02*
D03*
Y52500D02*
D03*
X437000Y52500D02*
D03*
Y61500D02*
D03*
X315010Y394502D02*
D03*
Y385503D02*
D03*
X319205Y311500D02*
D03*
Y302500D02*
D03*
X308203Y311500D02*
D03*
Y302500D02*
D03*
D25*
X338750Y220502D02*
D03*
X363250Y230002D02*
D03*
Y211003D02*
D03*
D26*
X150999Y230497D02*
D03*
X140999D02*
D03*
X150999Y220495D02*
D03*
X140999D02*
D03*
X167000Y166000D02*
D03*
X157000D02*
D03*
X34232Y159652D02*
D03*
X44232D02*
D03*
X91000Y85001D02*
D03*
X101000D02*
D03*
X377500Y244492D02*
D03*
X387500D02*
D03*
D27*
X185000Y212750D02*
D03*
X175500Y237250D02*
D03*
X194500D02*
D03*
D28*
X141999Y199000D02*
D03*
Y209000D02*
D03*
X20963Y176500D02*
D03*
Y186500D02*
D03*
X51494Y138001D02*
D03*
Y148001D02*
D03*
X61499Y138000D02*
D03*
Y148000D02*
D03*
X325513Y385000D02*
D03*
Y395000D02*
D03*
D29*
X32731Y190651D02*
D03*
X45732D02*
D03*
X32731Y173651D02*
D03*
X45732D02*
D03*
D30*
X117992Y98859D02*
D03*
X136992D02*
D03*
D31*
X90017Y111349D02*
D03*
X98998Y102369D02*
D03*
D32*
X70483Y118312D02*
D03*
X63412Y125384D02*
D03*
X36278Y113350D02*
D03*
X43349Y106279D02*
D03*
D33*
X82250Y56999D02*
D03*
X27750D02*
D03*
D34*
X45750Y72249D02*
D03*
D35*
X393250Y65500D02*
D03*
X424750D02*
D03*
X393250Y48500D02*
D03*
X424750D02*
D03*
D36*
X391750Y57000D02*
D03*
X426250D02*
D03*
D37*
X390000Y127750D02*
D03*
X366502Y162750D02*
D03*
D38*
X390000Y151100D02*
D03*
X366502Y186100D02*
D03*
D39*
X365503Y127500D02*
D03*
Y146500D02*
D03*
X269503Y376003D02*
D03*
Y395003D02*
D03*
D40*
X391753Y107998D02*
D03*
D41*
X368402D02*
D03*
D42*
X269500Y149500D02*
D03*
X345500D02*
D03*
D43*
X307500Y111500D02*
D03*
Y187500D02*
D03*
D44*
X381482Y211224D02*
D03*
Y233224D02*
D03*
D45*
X386000Y256995D02*
D03*
X371001D02*
D03*
X385999Y271998D02*
D03*
X370999D02*
D03*
X385999Y287000D02*
D03*
X370999D02*
D03*
X385999Y302003D02*
D03*
X370999D02*
D03*
X385999Y317005D02*
D03*
X370999D02*
D03*
X385999Y332007D02*
D03*
X370999D02*
D03*
X385999Y347010D02*
D03*
X370999D02*
D03*
X353000Y327500D02*
D03*
X337000D02*
D03*
X353000Y342500D02*
D03*
X337000D02*
D03*
X244500Y313000D02*
D03*
X229500D02*
D03*
D46*
X293900Y317000D02*
D03*
Y322000D02*
D03*
Y327000D02*
D03*
Y332000D02*
D03*
Y337000D02*
D03*
Y342000D02*
D03*
Y347000D02*
D03*
Y352000D02*
D03*
X266000Y317000D02*
D03*
Y322000D02*
D03*
Y327000D02*
D03*
Y332000D02*
D03*
Y337000D02*
D03*
Y342000D02*
D03*
Y347000D02*
D03*
Y352000D02*
D03*
D47*
X279950Y334500D02*
D03*
D48*
X116147Y248000D02*
D03*
X128847D02*
D03*
X141547D02*
D03*
X154247D02*
D03*
X116147Y320000D02*
D03*
X128847D02*
D03*
X141547D02*
D03*
X154247D02*
D03*
D49*
X127500Y371500D02*
D03*
X118000D02*
D03*
X108500D02*
D03*
Y346500D02*
D03*
X127500D02*
D03*
D50*
X76750Y385000D02*
D03*
Y337000D02*
D03*
Y329000D02*
D03*
Y393000D02*
D03*
D51*
Y378500D02*
D03*
Y373500D02*
D03*
Y368500D02*
D03*
Y353500D02*
D03*
Y363500D02*
D03*
Y358500D02*
D03*
Y348500D02*
D03*
Y343500D02*
D03*
D52*
X50790Y113214D02*
D03*
X56537Y118961D02*
D03*
D53*
X101500Y176500D02*
D03*
D54*
X77250Y159000D02*
D03*
Y164000D02*
D03*
Y169000D02*
D03*
Y174000D02*
D03*
Y179000D02*
D03*
Y184000D02*
D03*
Y189000D02*
D03*
Y194000D02*
D03*
X125750D02*
D03*
Y189000D02*
D03*
Y184000D02*
D03*
Y179000D02*
D03*
Y174000D02*
D03*
Y169000D02*
D03*
Y164000D02*
D03*
Y159000D02*
D03*
D55*
X84000Y200750D02*
D03*
X89000D02*
D03*
X94000D02*
D03*
X99000D02*
D03*
X104000D02*
D03*
X109000D02*
D03*
X114000D02*
D03*
X119000D02*
D03*
Y152250D02*
D03*
X114000D02*
D03*
X109000D02*
D03*
X104000D02*
D03*
X99000D02*
D03*
X94000D02*
D03*
X89000D02*
D03*
X84000D02*
D03*
D56*
X85535Y135537D02*
D03*
X78464Y128465D02*
D03*
M02*
