M48
;Layer_Color=9474304
;FILE_FORMAT=4:4
METRIC,LZ
;TYPE=PLATED
T1F00S00C0.3000
T3F00S00C0.7620
;TYPE=NON_PLATED
T4F00S00C0.6500
%
T01
X00136Y00016
X00112Y00086859
X00132Y00117
X00101Y0013004
X00098Y0014
X00061Y00106
X00016Y00136
X00151Y00106
X00226Y00136
X00256
X00286
X00316
X00269Y00101
X00256Y00016
X00286
X00316
X00346
X00376
X00406
X00436
X00466
X00481Y00046
X00469Y00076
X00481Y00106
X00466Y00136
X00436
X00406
Y00076
X00226Y00016
X00196
X00166
X00174Y00173
X00156Y0018
X00151995Y00190151
X00151Y00205
X00160719Y00221596
X00166Y00256
X00192Y00263
X00181Y00286
X00211
X00241
X00241Y00268
X0025004
X00265Y00264
X00265214Y00250271
X00271Y00286
X00301
X00316Y00256
X00346
X00393547Y00251453
X00421Y00249193
Y00235
X0042Y00263273
X0045Y00275
X00451Y00252
Y00242
Y00232
X0045Y00223
X0045Y00182
X00451Y00166
X00406Y0015
X00331Y00166
X00301
X00241
X00211
X00204219Y00181152
X0019679Y00176
X00225Y00267
X0022Y00313
X00222Y00337
X00253Y00338
X00243Y00322
X0028
Y00334
Y00346
X00305Y00356
X003Y00364
X00326587Y0034921
X00352Y00353
X00346Y00376
X00376
X00406
X00436
X00466
X00481Y00406
X00451
X00421
X00391
X00361
Y00466
X00391
X00421
X00451
X00481
Y00346
X00451
X0045Y00317
X00421Y00346
X00346Y00316
X00299Y00409
X00301Y00466
X00331
X00271
X00241
X00211
X00181
X00151
X00226Y00376
X00256
X00196Y00316
X00166
X00118Y00362
X00099Y00361
X0009196Y0034454
X00058Y00339
X00031Y00346
X00046Y00376
X00064991Y00380916
X00091Y00406
X00121
X00106Y00436
X00076
X00046
X00016
X00031Y00466
X00061
X00091
X00121
X00016Y00376
X00031Y00286
X00061
X00091
X00046Y00256
X00016
X00031Y00226
X00044989Y00213967
X00053899Y00215498
X0007Y00216
X00061Y00226
X00077Y00204
X000905Y001875
X001015
X001125
Y001765
Y001655
X001015
Y001765
X000905
Y001655
X00141Y00159
X00141013Y00149826
X0013Y00147
X00141Y00173
X00138316Y0019079
X00133Y002
X00045Y0014771
X00023Y001645
T03
X00168Y003726
Y00398
T04
X00066Y003321
Y003899
M30
