G04*
G04 #@! TF.GenerationSoftware,Altium Limited,Altium Designer,22.9.1 (49)*
G04*
G04 Layer_Color=8388736*
%FSLAX44Y44*%
%MOMM*%
G71*
G04*
G04 #@! TF.SameCoordinates,D5641387-C31A-4E6E-865A-824450A284D1*
G04*
G04*
G04 #@! TF.FilePolarity,Negative*
G04*
G01*
G75*
%ADD56R,11.0000X5.0000*%
%ADD57R,1.7032X1.0032*%
%ADD58R,1.7032X0.6032*%
%ADD59R,1.0032X1.0032*%
%ADD60R,0.7532X0.7532*%
%ADD61R,0.7532X0.7532*%
%ADD62R,1.1532X0.8532*%
%ADD63R,0.7032X0.7032*%
%ADD64R,0.8532X1.1532*%
%ADD65R,0.7032X0.7032*%
%ADD66R,1.2032X1.4032*%
%ADD67R,1.1032X1.5032*%
%ADD68R,1.2192X0.8382*%
%ADD69P,0.9945X4X360.0*%
%ADD70R,1.3532X4.0032*%
%ADD71R,1.8532X0.9532*%
%ADD72R,0.8532X0.8032*%
%ADD73R,0.5532X0.9032*%
%ADD74R,1.3032X1.0032*%
%ADD75R,1.3032X2.2032*%
%ADD76R,1.5032X1.1032*%
%ADD77R,1.0032X1.3032*%
%ADD78R,2.2032X1.3032*%
%ADD79R,1.6032X3.8032*%
%ADD80R,3.8032X1.6032*%
%ADD81R,1.6532X1.1032*%
%ADD82R,1.0032X1.0032*%
%ADD83R,1.1032X0.4532*%
%ADD84R,1.6932X4.6032*%
%ADD85O,0.8032X2.0032*%
%ADD86R,0.8032X1.3032*%
%ADD87R,1.3532X0.8032*%
%ADD88R,1.3532X0.5032*%
G04:AMPARAMS|DCode=89|XSize=0.5588mm|YSize=0.8636mm|CornerRadius=0mm|HoleSize=0mm|Usage=FLASHONLY|Rotation=225.000|XOffset=0mm|YOffset=0mm|HoleType=Round|Shape=Rectangle|*
%AMROTATEDRECTD89*
4,1,4,-0.1078,0.5029,0.5029,-0.1078,0.1078,-0.5029,-0.5029,0.1078,-0.1078,0.5029,0.0*
%
%ADD89ROTATEDRECTD89*%

%ADD90R,3.9032X3.9032*%
%ADD91O,1.0032X0.4532*%
%ADD92O,0.4532X1.0032*%
%ADD93O,3.2032X2.0032*%
G04:AMPARAMS|DCode=94|XSize=1.2032mm|YSize=2.3032mm|CornerRadius=0.3516mm|HoleSize=0mm|Usage=FLASHONLY|Rotation=270.000|XOffset=0mm|YOffset=0mm|HoleType=Round|Shape=RoundedRectangle|*
%AMROUNDEDRECTD94*
21,1,1.2032,1.6000,0,0,270.0*
21,1,0.5000,2.3032,0,0,270.0*
1,1,0.7032,-0.8000,-0.2500*
1,1,0.7032,-0.8000,0.2500*
1,1,0.7032,0.8000,0.2500*
1,1,0.7032,0.8000,-0.2500*
%
%ADD94ROUNDEDRECTD94*%
%ADD95C,0.8532*%
G36*
X205660Y367022D02*
X205683Y367022D01*
X205725Y367018D01*
X205769Y367015D01*
X205792Y367010D01*
X205815Y367007D01*
X205856Y366997D01*
X205899Y366989D01*
X205922Y366981D01*
X205945Y366975D01*
X205984Y366960D01*
X206025Y366946D01*
X206047Y366935D01*
X206069Y366927D01*
X206106Y366906D01*
X206145Y366887D01*
X206165Y366874D01*
X206185Y366862D01*
X206219Y366837D01*
X206256Y366813D01*
X206273Y366797D01*
X206292Y366783D01*
X206323Y366754D01*
X206356Y366725D01*
X206371Y366707D01*
X206388Y366691D01*
X206415Y366658D01*
X206444Y366625D01*
X206457Y366605D01*
X206471Y366587D01*
X206493Y366550D01*
X206511Y366525D01*
X206518Y366514D01*
X206528Y366493D01*
X206540Y366473D01*
X207292Y365018D01*
X209179Y362373D01*
X211515Y360150D01*
X214228Y358409D01*
X217221Y357212D01*
X220387Y356602D01*
X223611Y356602D01*
X226777Y357211D01*
X229771Y358408D01*
X232484Y360149D01*
X234819Y362372D01*
X236706Y365016D01*
X237459Y366471D01*
X237467Y366485D01*
X237474Y366499D01*
X237501Y366541D01*
X237528Y366585D01*
X237538Y366598D01*
X237547Y366611D01*
X237579Y366649D01*
X237611Y366689D01*
X237622Y366700D01*
X237633Y366712D01*
X237670Y366746D01*
X237707Y366782D01*
X237720Y366791D01*
X237732Y366802D01*
X237773Y366830D01*
X237814Y366861D01*
X237828Y366868D01*
X237841Y366877D01*
X237886Y366900D01*
X237931Y366925D01*
X237946Y366931D01*
X237960Y366938D01*
X238007Y366955D01*
X238055Y366974D01*
X238070Y366978D01*
X238085Y366983D01*
X238134Y366993D01*
X238184Y367006D01*
X238200Y367007D01*
X238216Y367011D01*
X238265Y367015D01*
X238316Y367020D01*
X238332Y367020D01*
X238348Y367021D01*
X238363Y367021D01*
X238364Y367021D01*
X248500D01*
X248633Y367012D01*
X248764Y366986D01*
X248890Y366943D01*
X249009Y366884D01*
X249120Y366810D01*
X249220Y366722D01*
X249308Y366622D01*
X249382Y366512D01*
X249441Y366392D01*
X249484Y366266D01*
X249510Y366135D01*
X249518Y366003D01*
Y346003D01*
X249510Y345870D01*
X249484Y345739D01*
X249441Y345613D01*
X249382Y345493D01*
X249308Y345383D01*
X249220Y345283D01*
X249120Y345195D01*
X249009Y345121D01*
X248890Y345062D01*
X248764Y345019D01*
X248633Y344993D01*
X248500Y344984D01*
X195500D01*
X195367Y344993D01*
X195236Y345019D01*
X195110Y345062D01*
X194991Y345121D01*
X194880Y345195D01*
X194780Y345283D01*
X194692Y345383D01*
X194618Y345493D01*
X194559Y345613D01*
X194517Y345739D01*
X194491Y345870D01*
X194482Y346003D01*
Y366003D01*
X194491Y366135D01*
X194517Y366266D01*
X194559Y366392D01*
X194618Y366512D01*
X194692Y366622D01*
X194780Y366722D01*
X194783Y366725D01*
X194883Y366813D01*
X194993Y366887D01*
X195113Y366946D01*
X195239Y366989D01*
X195370Y367015D01*
X195503Y367023D01*
X205636D01*
X205660Y367022D01*
D02*
G37*
G36*
X248633Y402012D02*
X248764Y401986D01*
X248890Y401943D01*
X249009Y401884D01*
X249120Y401810D01*
X249220Y401722D01*
X249308Y401622D01*
X249382Y401512D01*
X249441Y401392D01*
X249484Y401266D01*
X249510Y401135D01*
X249518Y401003D01*
Y381003D01*
X249510Y380870D01*
X249484Y380739D01*
X249441Y380613D01*
X249382Y380493D01*
X249308Y380383D01*
X249220Y380283D01*
X249217Y380280D01*
X249117Y380192D01*
X249006Y380118D01*
X248887Y380059D01*
X248761Y380016D01*
X248630Y379990D01*
X248497Y379982D01*
X238364D01*
X238341Y379983D01*
X238317Y379983D01*
X238274Y379988D01*
X238231Y379990D01*
X238208Y379995D01*
X238185Y379998D01*
X238143Y380008D01*
X238101Y380016D01*
X238078Y380024D01*
X238055Y380030D01*
X238015Y380045D01*
X237975Y380059D01*
X237953Y380070D01*
X237931Y380078D01*
X237894Y380099D01*
X237855Y380118D01*
X237836Y380131D01*
X237815Y380143D01*
X237780Y380168D01*
X237744Y380192D01*
X237727Y380208D01*
X237708Y380222D01*
X237676Y380252D01*
X237644Y380280D01*
X237642Y380283D01*
X237629Y380298D01*
X237612Y380314D01*
X237585Y380348D01*
X237556Y380380D01*
X237543Y380400D01*
X237529Y380418D01*
X237506Y380455D01*
X237482Y380491D01*
X237472Y380512D01*
X237460Y380532D01*
X236707Y381987D01*
X234820Y384632D01*
X232485Y386855D01*
X229772Y388596D01*
X226779Y389793D01*
X223613Y390403D01*
X220389Y390403D01*
X217223Y389794D01*
X214229Y388597D01*
X211516Y386856D01*
X209181Y384633D01*
X207293Y381989D01*
X206541Y380534D01*
X206525Y380507D01*
X206511Y380480D01*
X206491Y380451D01*
X206472Y380420D01*
X206453Y380396D01*
X206435Y380370D01*
X206411Y380344D01*
X206389Y380316D01*
X206367Y380294D01*
X206346Y380271D01*
X206319Y380248D01*
X206293Y380224D01*
X206268Y380205D01*
X206244Y380185D01*
X206215Y380166D01*
X206186Y380144D01*
X206158Y380129D01*
X206132Y380112D01*
X206101Y380097D01*
X206069Y380080D01*
X206040Y380069D01*
X206012Y380055D01*
X205979Y380045D01*
X205945Y380031D01*
X205915Y380024D01*
X205885Y380014D01*
X205851Y380008D01*
X205816Y379999D01*
X205785Y379996D01*
X205754Y379990D01*
X205719Y379989D01*
X205684Y379985D01*
X205652Y379985D01*
X205621Y379984D01*
X205612Y379984D01*
X195500D01*
X195367Y379993D01*
X195236Y380019D01*
X195110Y380062D01*
X194991Y380121D01*
X194880Y380195D01*
X194780Y380283D01*
X194692Y380383D01*
X194618Y380493D01*
X194559Y380613D01*
X194517Y380739D01*
X194491Y380870D01*
X194482Y381003D01*
Y401003D01*
X194491Y401135D01*
X194517Y401266D01*
X194559Y401392D01*
X194618Y401512D01*
X194692Y401622D01*
X194780Y401722D01*
X194880Y401810D01*
X194991Y401884D01*
X195110Y401943D01*
X195236Y401986D01*
X195367Y402012D01*
X195500Y402021D01*
X248500D01*
X248633Y402012D01*
D02*
G37*
D56*
X437000Y435000D02*
D03*
D57*
X464000Y317500D02*
D03*
X436000D02*
D03*
X464000Y182500D02*
D03*
X436000D02*
D03*
D58*
Y287500D02*
D03*
X464000Y282500D02*
D03*
X436000Y267500D02*
D03*
X464000Y262500D02*
D03*
Y242500D02*
D03*
X436000Y247500D02*
D03*
X464000Y222500D02*
D03*
X436000Y227500D02*
D03*
X464000Y212500D02*
D03*
X436000Y217500D02*
D03*
X464000Y192500D02*
D03*
X436000Y197500D02*
D03*
X464000Y202500D02*
D03*
X436000Y207500D02*
D03*
Y237500D02*
D03*
X464000Y232500D02*
D03*
X436000Y257500D02*
D03*
X464000Y252500D02*
D03*
Y272500D02*
D03*
X436000Y277500D02*
D03*
X464000Y292500D02*
D03*
Y302500D02*
D03*
X436000Y297500D02*
D03*
Y307500D02*
D03*
D59*
X224000Y291500D02*
D03*
Y276500D02*
D03*
X260997Y288500D02*
D03*
Y273500D02*
D03*
X455000Y50000D02*
D03*
Y66000D02*
D03*
X398000Y215990D02*
D03*
Y230990D02*
D03*
X302008Y391003D02*
D03*
Y376003D02*
D03*
X287005Y391003D02*
D03*
Y376003D02*
D03*
D60*
X247500Y259000D02*
D03*
X256500D02*
D03*
X195000Y251000D02*
D03*
X204000D02*
D03*
X171500Y198997D02*
D03*
X180500D02*
D03*
X125500Y134497D02*
D03*
X134500D02*
D03*
X117500Y124000D02*
D03*
X126500D02*
D03*
X313000Y328997D02*
D03*
X322000D02*
D03*
X313000Y340000D02*
D03*
X322000D02*
D03*
X239731Y337000D02*
D03*
X230731D02*
D03*
X50500Y305000D02*
D03*
X59500D02*
D03*
X55500Y417000D02*
D03*
X64500D02*
D03*
X315010Y373998D02*
D03*
X324010D02*
D03*
D61*
X217000Y246500D02*
D03*
Y255500D02*
D03*
X160497Y207500D02*
D03*
Y198500D02*
D03*
X58000Y159500D02*
D03*
Y168500D02*
D03*
X469000Y61500D02*
D03*
Y52500D02*
D03*
X437000Y52500D02*
D03*
Y61500D02*
D03*
X315010Y394502D02*
D03*
Y385503D02*
D03*
X319205Y311500D02*
D03*
Y302500D02*
D03*
X308203Y311500D02*
D03*
Y302500D02*
D03*
D62*
X338750Y220502D02*
D03*
X363250Y230002D02*
D03*
Y211003D02*
D03*
D63*
X150999Y230497D02*
D03*
X140999D02*
D03*
X150999Y220495D02*
D03*
X140999D02*
D03*
X167000Y166000D02*
D03*
X157000D02*
D03*
X34232Y159652D02*
D03*
X44232D02*
D03*
X84001Y95001D02*
D03*
X94001D02*
D03*
X377500Y244492D02*
D03*
X387500D02*
D03*
D64*
X185000Y212750D02*
D03*
X175500Y237250D02*
D03*
X194500D02*
D03*
D65*
X141999Y199000D02*
D03*
Y209000D02*
D03*
X20963Y176500D02*
D03*
Y186500D02*
D03*
X51494Y138001D02*
D03*
Y148001D02*
D03*
X61499Y138000D02*
D03*
Y148000D02*
D03*
X76999Y127001D02*
D03*
Y137001D02*
D03*
X325513Y385000D02*
D03*
Y395000D02*
D03*
X86999Y132001D02*
D03*
Y122000D02*
D03*
D66*
X32731Y190651D02*
D03*
X45732D02*
D03*
X32731Y173651D02*
D03*
X45732D02*
D03*
D67*
X117992Y98859D02*
D03*
X136992D02*
D03*
D68*
X103000Y118350D02*
D03*
Y105650D02*
D03*
D69*
X45465Y121536D02*
D03*
X52537Y114465D02*
D03*
D70*
X82250Y56999D02*
D03*
X27750D02*
D03*
D71*
X45750Y72249D02*
D03*
D72*
X393250Y65500D02*
D03*
X424750D02*
D03*
X393250Y48500D02*
D03*
X424750D02*
D03*
D73*
X391750Y57000D02*
D03*
X426250D02*
D03*
D74*
X390000Y127750D02*
D03*
X366502Y162750D02*
D03*
D75*
X390000Y151100D02*
D03*
X366502Y186100D02*
D03*
D76*
X365503Y127500D02*
D03*
Y146500D02*
D03*
X269503Y376003D02*
D03*
Y395003D02*
D03*
D77*
X391753Y107998D02*
D03*
D78*
X368402D02*
D03*
D79*
X269500Y149500D02*
D03*
X345500D02*
D03*
D80*
X307500Y111500D02*
D03*
Y187500D02*
D03*
D81*
X381482Y211224D02*
D03*
Y233224D02*
D03*
D82*
X386000Y256995D02*
D03*
X371001D02*
D03*
X385999Y271998D02*
D03*
X370999D02*
D03*
X385999Y287000D02*
D03*
X370999D02*
D03*
X385999Y302003D02*
D03*
X370999D02*
D03*
X385999Y317005D02*
D03*
X370999D02*
D03*
X385999Y332007D02*
D03*
X370999D02*
D03*
X385999Y347010D02*
D03*
X370999D02*
D03*
X353000Y327500D02*
D03*
X337000D02*
D03*
X353000Y342500D02*
D03*
X337000D02*
D03*
X244500Y313000D02*
D03*
X229500D02*
D03*
D83*
X293900Y317000D02*
D03*
Y322000D02*
D03*
Y327000D02*
D03*
Y332000D02*
D03*
Y337000D02*
D03*
Y342000D02*
D03*
Y347000D02*
D03*
Y352000D02*
D03*
X266000Y317000D02*
D03*
Y322000D02*
D03*
Y327000D02*
D03*
Y332000D02*
D03*
Y337000D02*
D03*
Y342000D02*
D03*
Y347000D02*
D03*
Y352000D02*
D03*
D84*
X279950Y334500D02*
D03*
D85*
X116147Y248000D02*
D03*
X128847D02*
D03*
X141547D02*
D03*
X154247D02*
D03*
X116147Y320000D02*
D03*
X128847D02*
D03*
X141547D02*
D03*
X154247D02*
D03*
D86*
X120500Y371500D02*
D03*
X111000D02*
D03*
X101500D02*
D03*
Y346500D02*
D03*
X120500D02*
D03*
D87*
X76750Y385000D02*
D03*
Y337000D02*
D03*
Y329000D02*
D03*
Y393000D02*
D03*
D88*
Y378500D02*
D03*
Y373500D02*
D03*
Y368500D02*
D03*
Y353500D02*
D03*
Y363500D02*
D03*
Y358500D02*
D03*
Y348500D02*
D03*
Y343500D02*
D03*
D89*
X59126Y120126D02*
D03*
X64874Y125874D02*
D03*
D90*
X101500Y176500D02*
D03*
D91*
X77250Y159000D02*
D03*
Y164000D02*
D03*
Y169000D02*
D03*
Y174000D02*
D03*
Y179000D02*
D03*
Y184000D02*
D03*
Y189000D02*
D03*
Y194000D02*
D03*
X125750D02*
D03*
Y189000D02*
D03*
Y184000D02*
D03*
Y179000D02*
D03*
Y174000D02*
D03*
Y169000D02*
D03*
Y164000D02*
D03*
Y159000D02*
D03*
D92*
X84000Y200750D02*
D03*
X89000D02*
D03*
X94000D02*
D03*
X99000D02*
D03*
X104000D02*
D03*
X109000D02*
D03*
X114000D02*
D03*
X119000D02*
D03*
Y152250D02*
D03*
X114000D02*
D03*
X109000D02*
D03*
X104000D02*
D03*
X99000D02*
D03*
X94000D02*
D03*
X89000D02*
D03*
X84000D02*
D03*
D93*
X168000Y398000D02*
D03*
Y372600D02*
D03*
D94*
X71000Y317800D02*
D03*
X29200D02*
D03*
X71000Y404200D02*
D03*
X29200D02*
D03*
D95*
X66000Y389900D02*
D03*
Y332100D02*
D03*
X313000Y407000D02*
D03*
M02*
